G04 #@! TF.GenerationSoftware,KiCad,Pcbnew,(5.0.0)*
G04 #@! TF.CreationDate,2019-04-16T16:09:12+02:00*
G04 #@! TF.ProjectId,,00000000000000000000000000000000,rev?*
G04 #@! TF.SameCoordinates,Original*
G04 #@! TF.FileFunction,Soldermask,Bot*
G04 #@! TF.FilePolarity,Negative*
%FSLAX46Y46*%
G04 Gerber Fmt 4.6, Leading zero omitted, Abs format (unit mm)*
G04 Created by KiCad (PCBNEW (5.0.0)) date 04/16/19 16:09:12*
%MOMM*%
%LPD*%
G01*
G04 APERTURE LIST*
%ADD10C,0.100000*%
G04 APERTURE END LIST*
D10*
G36*
X62137243Y-117367919D02*
X62203427Y-117374437D01*
X62316653Y-117408784D01*
X62373267Y-117425957D01*
X62475372Y-117480534D01*
X62529791Y-117509622D01*
X62565529Y-117538952D01*
X62666986Y-117622214D01*
X62722617Y-117690002D01*
X62779578Y-117759409D01*
X62779579Y-117759411D01*
X62863243Y-117915933D01*
X62863243Y-117915934D01*
X62914763Y-118085773D01*
X62932159Y-118262400D01*
X62914763Y-118439027D01*
X62880416Y-118552253D01*
X62863243Y-118608867D01*
X62789148Y-118747487D01*
X62779578Y-118765391D01*
X62750248Y-118801129D01*
X62666986Y-118902586D01*
X62565529Y-118985848D01*
X62529791Y-119015178D01*
X62529789Y-119015179D01*
X62373267Y-119098843D01*
X62316653Y-119116016D01*
X62203427Y-119150363D01*
X62137243Y-119156881D01*
X62071060Y-119163400D01*
X61982540Y-119163400D01*
X61916357Y-119156881D01*
X61850173Y-119150363D01*
X61736947Y-119116016D01*
X61680333Y-119098843D01*
X61523811Y-119015179D01*
X61523809Y-119015178D01*
X61488071Y-118985848D01*
X61386614Y-118902586D01*
X61303352Y-118801129D01*
X61274022Y-118765391D01*
X61264452Y-118747487D01*
X61190357Y-118608867D01*
X61173184Y-118552253D01*
X61138837Y-118439027D01*
X61121441Y-118262400D01*
X61138837Y-118085773D01*
X61190357Y-117915934D01*
X61190357Y-117915933D01*
X61274021Y-117759411D01*
X61274022Y-117759409D01*
X61330983Y-117690002D01*
X61386614Y-117622214D01*
X61488071Y-117538952D01*
X61523809Y-117509622D01*
X61578228Y-117480534D01*
X61680333Y-117425957D01*
X61736947Y-117408784D01*
X61850173Y-117374437D01*
X61916357Y-117367919D01*
X61982540Y-117361400D01*
X62071060Y-117361400D01*
X62137243Y-117367919D01*
X62137243Y-117367919D01*
G37*
G36*
X69757243Y-117367919D02*
X69823427Y-117374437D01*
X69936653Y-117408784D01*
X69993267Y-117425957D01*
X70095372Y-117480534D01*
X70149791Y-117509622D01*
X70185529Y-117538952D01*
X70286986Y-117622214D01*
X70342617Y-117690002D01*
X70399578Y-117759409D01*
X70399579Y-117759411D01*
X70483243Y-117915933D01*
X70483243Y-117915934D01*
X70534763Y-118085773D01*
X70552159Y-118262400D01*
X70534763Y-118439027D01*
X70500416Y-118552253D01*
X70483243Y-118608867D01*
X70409148Y-118747487D01*
X70399578Y-118765391D01*
X70370248Y-118801129D01*
X70286986Y-118902586D01*
X70185529Y-118985848D01*
X70149791Y-119015178D01*
X70149789Y-119015179D01*
X69993267Y-119098843D01*
X69936653Y-119116016D01*
X69823427Y-119150363D01*
X69757243Y-119156881D01*
X69691060Y-119163400D01*
X69602540Y-119163400D01*
X69536357Y-119156881D01*
X69470173Y-119150363D01*
X69356947Y-119116016D01*
X69300333Y-119098843D01*
X69143811Y-119015179D01*
X69143809Y-119015178D01*
X69108071Y-118985848D01*
X69006614Y-118902586D01*
X68923352Y-118801129D01*
X68894022Y-118765391D01*
X68884452Y-118747487D01*
X68810357Y-118608867D01*
X68793184Y-118552253D01*
X68758837Y-118439027D01*
X68741441Y-118262400D01*
X68758837Y-118085773D01*
X68810357Y-117915934D01*
X68810357Y-117915933D01*
X68894021Y-117759411D01*
X68894022Y-117759409D01*
X68950983Y-117690002D01*
X69006614Y-117622214D01*
X69108071Y-117538952D01*
X69143809Y-117509622D01*
X69198228Y-117480534D01*
X69300333Y-117425957D01*
X69356947Y-117408784D01*
X69470173Y-117374437D01*
X69536357Y-117367919D01*
X69602540Y-117361400D01*
X69691060Y-117361400D01*
X69757243Y-117367919D01*
X69757243Y-117367919D01*
G37*
G36*
X73087800Y-119163400D02*
X71285800Y-119163400D01*
X71285800Y-117361400D01*
X73087800Y-117361400D01*
X73087800Y-119163400D01*
X73087800Y-119163400D01*
G37*
G36*
X64677243Y-117367919D02*
X64743427Y-117374437D01*
X64856653Y-117408784D01*
X64913267Y-117425957D01*
X65015372Y-117480534D01*
X65069791Y-117509622D01*
X65105529Y-117538952D01*
X65206986Y-117622214D01*
X65262617Y-117690002D01*
X65319578Y-117759409D01*
X65319579Y-117759411D01*
X65403243Y-117915933D01*
X65403243Y-117915934D01*
X65454763Y-118085773D01*
X65472159Y-118262400D01*
X65454763Y-118439027D01*
X65420416Y-118552253D01*
X65403243Y-118608867D01*
X65329148Y-118747487D01*
X65319578Y-118765391D01*
X65290248Y-118801129D01*
X65206986Y-118902586D01*
X65105529Y-118985848D01*
X65069791Y-119015178D01*
X65069789Y-119015179D01*
X64913267Y-119098843D01*
X64856653Y-119116016D01*
X64743427Y-119150363D01*
X64677243Y-119156881D01*
X64611060Y-119163400D01*
X64522540Y-119163400D01*
X64456357Y-119156881D01*
X64390173Y-119150363D01*
X64276947Y-119116016D01*
X64220333Y-119098843D01*
X64063811Y-119015179D01*
X64063809Y-119015178D01*
X64028071Y-118985848D01*
X63926614Y-118902586D01*
X63843352Y-118801129D01*
X63814022Y-118765391D01*
X63804452Y-118747487D01*
X63730357Y-118608867D01*
X63713184Y-118552253D01*
X63678837Y-118439027D01*
X63661441Y-118262400D01*
X63678837Y-118085773D01*
X63730357Y-117915934D01*
X63730357Y-117915933D01*
X63814021Y-117759411D01*
X63814022Y-117759409D01*
X63870983Y-117690002D01*
X63926614Y-117622214D01*
X64028071Y-117538952D01*
X64063809Y-117509622D01*
X64118228Y-117480534D01*
X64220333Y-117425957D01*
X64276947Y-117408784D01*
X64390173Y-117374437D01*
X64456357Y-117367919D01*
X64522540Y-117361400D01*
X64611060Y-117361400D01*
X64677243Y-117367919D01*
X64677243Y-117367919D01*
G37*
G36*
X67217243Y-117367919D02*
X67283427Y-117374437D01*
X67396653Y-117408784D01*
X67453267Y-117425957D01*
X67555372Y-117480534D01*
X67609791Y-117509622D01*
X67645529Y-117538952D01*
X67746986Y-117622214D01*
X67802617Y-117690002D01*
X67859578Y-117759409D01*
X67859579Y-117759411D01*
X67943243Y-117915933D01*
X67943243Y-117915934D01*
X67994763Y-118085773D01*
X68012159Y-118262400D01*
X67994763Y-118439027D01*
X67960416Y-118552253D01*
X67943243Y-118608867D01*
X67869148Y-118747487D01*
X67859578Y-118765391D01*
X67830248Y-118801129D01*
X67746986Y-118902586D01*
X67645529Y-118985848D01*
X67609791Y-119015178D01*
X67609789Y-119015179D01*
X67453267Y-119098843D01*
X67396653Y-119116016D01*
X67283427Y-119150363D01*
X67217243Y-119156881D01*
X67151060Y-119163400D01*
X67062540Y-119163400D01*
X66996357Y-119156881D01*
X66930173Y-119150363D01*
X66816947Y-119116016D01*
X66760333Y-119098843D01*
X66603811Y-119015179D01*
X66603809Y-119015178D01*
X66568071Y-118985848D01*
X66466614Y-118902586D01*
X66383352Y-118801129D01*
X66354022Y-118765391D01*
X66344452Y-118747487D01*
X66270357Y-118608867D01*
X66253184Y-118552253D01*
X66218837Y-118439027D01*
X66201441Y-118262400D01*
X66218837Y-118085773D01*
X66270357Y-117915934D01*
X66270357Y-117915933D01*
X66354021Y-117759411D01*
X66354022Y-117759409D01*
X66410983Y-117690002D01*
X66466614Y-117622214D01*
X66568071Y-117538952D01*
X66603809Y-117509622D01*
X66658228Y-117480534D01*
X66760333Y-117425957D01*
X66816947Y-117408784D01*
X66930173Y-117374437D01*
X66996357Y-117367919D01*
X67062540Y-117361400D01*
X67151060Y-117361400D01*
X67217243Y-117367919D01*
X67217243Y-117367919D01*
G37*
G36*
X23297334Y-116038032D02*
X23506802Y-116124796D01*
X23695323Y-116250762D01*
X23855638Y-116411077D01*
X23981604Y-116599598D01*
X24068368Y-116809066D01*
X24112600Y-117031435D01*
X24112600Y-117258165D01*
X24068368Y-117480534D01*
X23981604Y-117690002D01*
X23855638Y-117878523D01*
X23695323Y-118038838D01*
X23506802Y-118164804D01*
X23297334Y-118251568D01*
X23074965Y-118295800D01*
X22848235Y-118295800D01*
X22625866Y-118251568D01*
X22416398Y-118164804D01*
X22227877Y-118038838D01*
X22067562Y-117878523D01*
X21941596Y-117690002D01*
X21854832Y-117480534D01*
X21810600Y-117258165D01*
X21810600Y-117031435D01*
X21854832Y-116809066D01*
X21941596Y-116599598D01*
X22067562Y-116411077D01*
X22227877Y-116250762D01*
X22416398Y-116124796D01*
X22625866Y-116038032D01*
X22848235Y-115993800D01*
X23074965Y-115993800D01*
X23297334Y-116038032D01*
X23297334Y-116038032D01*
G37*
G36*
X117328134Y-115987232D02*
X117537602Y-116073996D01*
X117726123Y-116199962D01*
X117886438Y-116360277D01*
X118012404Y-116548798D01*
X118099168Y-116758266D01*
X118143400Y-116980635D01*
X118143400Y-117207365D01*
X118099168Y-117429734D01*
X118012404Y-117639202D01*
X117886438Y-117827723D01*
X117726123Y-117988038D01*
X117537602Y-118114004D01*
X117328134Y-118200768D01*
X117105765Y-118245000D01*
X116879035Y-118245000D01*
X116656666Y-118200768D01*
X116447198Y-118114004D01*
X116258677Y-117988038D01*
X116098362Y-117827723D01*
X115972396Y-117639202D01*
X115885632Y-117429734D01*
X115841400Y-117207365D01*
X115841400Y-116980635D01*
X115885632Y-116758266D01*
X115972396Y-116548798D01*
X116098362Y-116360277D01*
X116258677Y-116199962D01*
X116447198Y-116073996D01*
X116656666Y-115987232D01*
X116879035Y-115943000D01*
X117105765Y-115943000D01*
X117328134Y-115987232D01*
X117328134Y-115987232D01*
G37*
G36*
X111140897Y-111060576D02*
X111269724Y-111113938D01*
X111451914Y-111189403D01*
X111731827Y-111376435D01*
X111969865Y-111614473D01*
X112156897Y-111894386D01*
X112285724Y-112205404D01*
X112351400Y-112535577D01*
X112351400Y-112872223D01*
X112285724Y-113202396D01*
X112156897Y-113513414D01*
X111969865Y-113793327D01*
X111731827Y-114031365D01*
X111451914Y-114218397D01*
X111269724Y-114293862D01*
X111140897Y-114347224D01*
X110975809Y-114380062D01*
X110810723Y-114412900D01*
X110474077Y-114412900D01*
X110308991Y-114380062D01*
X110143903Y-114347224D01*
X110015076Y-114293862D01*
X109832886Y-114218397D01*
X109552973Y-114031365D01*
X109314935Y-113793327D01*
X109127903Y-113513414D01*
X108999076Y-113202396D01*
X108933400Y-112872223D01*
X108933400Y-112535577D01*
X108999076Y-112205404D01*
X109127903Y-111894386D01*
X109314935Y-111614473D01*
X109552973Y-111376435D01*
X109832886Y-111189403D01*
X110015076Y-111113938D01*
X110143903Y-111060576D01*
X110474077Y-110994900D01*
X110810723Y-110994900D01*
X111140897Y-111060576D01*
X111140897Y-111060576D01*
G37*
G36*
X27106600Y-112399800D02*
X24404600Y-112399800D01*
X24404600Y-109697800D01*
X27106600Y-109697800D01*
X27106600Y-112399800D01*
X27106600Y-112399800D01*
G37*
G36*
X108155542Y-108898298D02*
X108294764Y-108955965D01*
X108420059Y-109039685D01*
X108526615Y-109146241D01*
X108610335Y-109271536D01*
X108668002Y-109410758D01*
X108697400Y-109558554D01*
X108697400Y-109709246D01*
X108668002Y-109857042D01*
X108610335Y-109996264D01*
X108526615Y-110121559D01*
X108420059Y-110228115D01*
X108294764Y-110311835D01*
X108155542Y-110369502D01*
X108007746Y-110398900D01*
X107857054Y-110398900D01*
X107709258Y-110369502D01*
X107570036Y-110311835D01*
X107444741Y-110228115D01*
X107338185Y-110121559D01*
X107254465Y-109996264D01*
X107196798Y-109857042D01*
X107167400Y-109709246D01*
X107167400Y-109558554D01*
X107196798Y-109410758D01*
X107254465Y-109271536D01*
X107338185Y-109146241D01*
X107444741Y-109039685D01*
X107570036Y-108955965D01*
X107709258Y-108898298D01*
X107857054Y-108868900D01*
X108007746Y-108868900D01*
X108155542Y-108898298D01*
X108155542Y-108898298D01*
G37*
G36*
X108155542Y-106398298D02*
X108294764Y-106455965D01*
X108420059Y-106539685D01*
X108526615Y-106646241D01*
X108610335Y-106771536D01*
X108668002Y-106910758D01*
X108697400Y-107058554D01*
X108697400Y-107209246D01*
X108668002Y-107357042D01*
X108610335Y-107496264D01*
X108526615Y-107621559D01*
X108420059Y-107728115D01*
X108294764Y-107811835D01*
X108155542Y-107869502D01*
X108007746Y-107898900D01*
X107857054Y-107898900D01*
X107709258Y-107869502D01*
X107570036Y-107811835D01*
X107444741Y-107728115D01*
X107338185Y-107621559D01*
X107254465Y-107496264D01*
X107196798Y-107357042D01*
X107167400Y-107209246D01*
X107167400Y-107058554D01*
X107196798Y-106910758D01*
X107254465Y-106771536D01*
X107338185Y-106646241D01*
X107444741Y-106539685D01*
X107570036Y-106455965D01*
X107709258Y-106398298D01*
X107857054Y-106368900D01*
X108007746Y-106368900D01*
X108155542Y-106398298D01*
X108155542Y-106398298D01*
G37*
G36*
X26019167Y-104723759D02*
X26149672Y-104749718D01*
X26395539Y-104851559D01*
X26616064Y-104998910D01*
X26616815Y-104999412D01*
X26804988Y-105187585D01*
X26804990Y-105187588D01*
X26952841Y-105408861D01*
X27054682Y-105654728D01*
X27106600Y-105915738D01*
X27106600Y-106181862D01*
X27054682Y-106442872D01*
X26952841Y-106688739D01*
X26805490Y-106909264D01*
X26804988Y-106910015D01*
X26616815Y-107098188D01*
X26616812Y-107098190D01*
X26395539Y-107246041D01*
X26149672Y-107347882D01*
X26103621Y-107357042D01*
X25888663Y-107399800D01*
X25622537Y-107399800D01*
X25407579Y-107357042D01*
X25361528Y-107347882D01*
X25115661Y-107246041D01*
X24894388Y-107098190D01*
X24894385Y-107098188D01*
X24706212Y-106910015D01*
X24705710Y-106909264D01*
X24558359Y-106688739D01*
X24456518Y-106442872D01*
X24404600Y-106181862D01*
X24404600Y-105915738D01*
X24456518Y-105654728D01*
X24558359Y-105408861D01*
X24706210Y-105187588D01*
X24706212Y-105187585D01*
X24894385Y-104999412D01*
X24895136Y-104998910D01*
X25115661Y-104851559D01*
X25361528Y-104749718D01*
X25492033Y-104723759D01*
X25622537Y-104697800D01*
X25888663Y-104697800D01*
X26019167Y-104723759D01*
X26019167Y-104723759D01*
G37*
G36*
X108155542Y-104398298D02*
X108294764Y-104455965D01*
X108420059Y-104539685D01*
X108526615Y-104646241D01*
X108610335Y-104771536D01*
X108668002Y-104910758D01*
X108697400Y-105058554D01*
X108697400Y-105209246D01*
X108668002Y-105357042D01*
X108610335Y-105496264D01*
X108526615Y-105621559D01*
X108420059Y-105728115D01*
X108294764Y-105811835D01*
X108155542Y-105869502D01*
X108007746Y-105898900D01*
X107857054Y-105898900D01*
X107709258Y-105869502D01*
X107570036Y-105811835D01*
X107444741Y-105728115D01*
X107338185Y-105621559D01*
X107254465Y-105496264D01*
X107196798Y-105357042D01*
X107167400Y-105209246D01*
X107167400Y-105058554D01*
X107196798Y-104910758D01*
X107254465Y-104771536D01*
X107338185Y-104646241D01*
X107444741Y-104539685D01*
X107570036Y-104455965D01*
X107709258Y-104398298D01*
X107857054Y-104368900D01*
X108007746Y-104368900D01*
X108155542Y-104398298D01*
X108155542Y-104398298D01*
G37*
G36*
X108155542Y-101898298D02*
X108294764Y-101955965D01*
X108420059Y-102039685D01*
X108526615Y-102146241D01*
X108610335Y-102271536D01*
X108668002Y-102410758D01*
X108697400Y-102558554D01*
X108697400Y-102709246D01*
X108668002Y-102857042D01*
X108610335Y-102996264D01*
X108526615Y-103121559D01*
X108420059Y-103228115D01*
X108294764Y-103311835D01*
X108155542Y-103369502D01*
X108007746Y-103398900D01*
X107857054Y-103398900D01*
X107709258Y-103369502D01*
X107570036Y-103311835D01*
X107444741Y-103228115D01*
X107338185Y-103121559D01*
X107254465Y-102996264D01*
X107196798Y-102857042D01*
X107167400Y-102709246D01*
X107167400Y-102558554D01*
X107196798Y-102410758D01*
X107254465Y-102271536D01*
X107338185Y-102146241D01*
X107444741Y-102039685D01*
X107570036Y-101955965D01*
X107709258Y-101898298D01*
X107857054Y-101868900D01*
X108007746Y-101868900D01*
X108155542Y-101898298D01*
X108155542Y-101898298D01*
G37*
G36*
X36258600Y-102501800D02*
X34556600Y-102501800D01*
X34556600Y-100799800D01*
X36258600Y-100799800D01*
X36258600Y-102501800D01*
X36258600Y-102501800D01*
G37*
G36*
X33155828Y-100832503D02*
X33310700Y-100896653D01*
X33450081Y-100989785D01*
X33568615Y-101108319D01*
X33661747Y-101247700D01*
X33725897Y-101402572D01*
X33758600Y-101566984D01*
X33758600Y-101734616D01*
X33725897Y-101899028D01*
X33661747Y-102053900D01*
X33568615Y-102193281D01*
X33450081Y-102311815D01*
X33310700Y-102404947D01*
X33155828Y-102469097D01*
X32991416Y-102501800D01*
X32823784Y-102501800D01*
X32659372Y-102469097D01*
X32504500Y-102404947D01*
X32365119Y-102311815D01*
X32246585Y-102193281D01*
X32153453Y-102053900D01*
X32089303Y-101899028D01*
X32056600Y-101734616D01*
X32056600Y-101566984D01*
X32089303Y-101402572D01*
X32153453Y-101247700D01*
X32246585Y-101108319D01*
X32365119Y-100989785D01*
X32504500Y-100896653D01*
X32659372Y-100832503D01*
X32823784Y-100799800D01*
X32991416Y-100799800D01*
X33155828Y-100832503D01*
X33155828Y-100832503D01*
G37*
G36*
X26019167Y-99723759D02*
X26149672Y-99749718D01*
X26395539Y-99851559D01*
X26616064Y-99998910D01*
X26616815Y-99999412D01*
X26804988Y-100187585D01*
X26804990Y-100187588D01*
X26952841Y-100408861D01*
X27054682Y-100654728D01*
X27054682Y-100654729D01*
X27106600Y-100915737D01*
X27106600Y-101181863D01*
X27080641Y-101312367D01*
X27054682Y-101442872D01*
X26952841Y-101688739D01*
X26832460Y-101868900D01*
X26804988Y-101910015D01*
X26616815Y-102098188D01*
X26616812Y-102098190D01*
X26395539Y-102246041D01*
X26149672Y-102347882D01*
X26019167Y-102373841D01*
X25888663Y-102399800D01*
X25622537Y-102399800D01*
X25492033Y-102373841D01*
X25361528Y-102347882D01*
X25115661Y-102246041D01*
X24894388Y-102098190D01*
X24894385Y-102098188D01*
X24706212Y-101910015D01*
X24678740Y-101868900D01*
X24558359Y-101688739D01*
X24456518Y-101442872D01*
X24430559Y-101312367D01*
X24404600Y-101181863D01*
X24404600Y-100915737D01*
X24456518Y-100654729D01*
X24456518Y-100654728D01*
X24558359Y-100408861D01*
X24706210Y-100187588D01*
X24706212Y-100187585D01*
X24894385Y-99999412D01*
X24895136Y-99998910D01*
X25115661Y-99851559D01*
X25361528Y-99749718D01*
X25492033Y-99723759D01*
X25622537Y-99697800D01*
X25888663Y-99697800D01*
X26019167Y-99723759D01*
X26019167Y-99723759D01*
G37*
G36*
X78335734Y-99943632D02*
X78545202Y-100030396D01*
X78733723Y-100156362D01*
X78894038Y-100316677D01*
X79020004Y-100505198D01*
X79106768Y-100714666D01*
X79151000Y-100937035D01*
X79151000Y-101163765D01*
X79106768Y-101386134D01*
X79020004Y-101595602D01*
X78894038Y-101784123D01*
X78733723Y-101944438D01*
X78545202Y-102070404D01*
X78335734Y-102157168D01*
X78113365Y-102201400D01*
X77886635Y-102201400D01*
X77664266Y-102157168D01*
X77454798Y-102070404D01*
X77266277Y-101944438D01*
X77105962Y-101784123D01*
X76979996Y-101595602D01*
X76893232Y-101386134D01*
X76849000Y-101163765D01*
X76849000Y-100937035D01*
X76893232Y-100714666D01*
X76979996Y-100505198D01*
X77105962Y-100316677D01*
X77266277Y-100156362D01*
X77454798Y-100030396D01*
X77664266Y-99943632D01*
X77886635Y-99899400D01*
X78113365Y-99899400D01*
X78335734Y-99943632D01*
X78335734Y-99943632D01*
G37*
G36*
X111140897Y-97920576D02*
X111269724Y-97973938D01*
X111451914Y-98049403D01*
X111731827Y-98236435D01*
X111969865Y-98474473D01*
X112156897Y-98754386D01*
X112232362Y-98936576D01*
X112285724Y-99065403D01*
X112351400Y-99395578D01*
X112351400Y-99732222D01*
X112298253Y-99999412D01*
X112285724Y-100062396D01*
X112156897Y-100373414D01*
X111969865Y-100653327D01*
X111731827Y-100891365D01*
X111451914Y-101078397D01*
X111379675Y-101108319D01*
X111140897Y-101207224D01*
X110810723Y-101272900D01*
X110474077Y-101272900D01*
X110143903Y-101207224D01*
X109905125Y-101108319D01*
X109832886Y-101078397D01*
X109552973Y-100891365D01*
X109314935Y-100653327D01*
X109127903Y-100373414D01*
X108999076Y-100062396D01*
X108986548Y-99999412D01*
X108933400Y-99732222D01*
X108933400Y-99395578D01*
X108999076Y-99065403D01*
X109052438Y-98936576D01*
X109127903Y-98754386D01*
X109314935Y-98474473D01*
X109552973Y-98236435D01*
X109832886Y-98049403D01*
X110015076Y-97973938D01*
X110143903Y-97920576D01*
X110474077Y-97854900D01*
X110810723Y-97854900D01*
X111140897Y-97920576D01*
X111140897Y-97920576D01*
G37*
G36*
X26019167Y-94723759D02*
X26149672Y-94749718D01*
X26395539Y-94851559D01*
X26616064Y-94998910D01*
X26616815Y-94999412D01*
X26804988Y-95187585D01*
X26804990Y-95187588D01*
X26952841Y-95408861D01*
X27042561Y-95625466D01*
X27054682Y-95654729D01*
X27093094Y-95847836D01*
X27106600Y-95915738D01*
X27106600Y-96181862D01*
X27054682Y-96442872D01*
X26952841Y-96688739D01*
X26805490Y-96909264D01*
X26804988Y-96910015D01*
X26616815Y-97098188D01*
X26616812Y-97098190D01*
X26395539Y-97246041D01*
X26149672Y-97347882D01*
X26019167Y-97373841D01*
X25888663Y-97399800D01*
X25622537Y-97399800D01*
X25492033Y-97373841D01*
X25361528Y-97347882D01*
X25115661Y-97246041D01*
X24894388Y-97098190D01*
X24894385Y-97098188D01*
X24706212Y-96910015D01*
X24705710Y-96909264D01*
X24558359Y-96688739D01*
X24456518Y-96442872D01*
X24404600Y-96181862D01*
X24404600Y-95915738D01*
X24418107Y-95847836D01*
X24456518Y-95654729D01*
X24468639Y-95625466D01*
X24558359Y-95408861D01*
X24706210Y-95187588D01*
X24706212Y-95187585D01*
X24894385Y-94999412D01*
X24895136Y-94998910D01*
X25115661Y-94851559D01*
X25361528Y-94749718D01*
X25492033Y-94723759D01*
X25622537Y-94697800D01*
X25888663Y-94697800D01*
X26019167Y-94723759D01*
X26019167Y-94723759D01*
G37*
G36*
X117226534Y-94854432D02*
X117436002Y-94941196D01*
X117624523Y-95067162D01*
X117784838Y-95227477D01*
X117910804Y-95415998D01*
X117997568Y-95625466D01*
X118041800Y-95847835D01*
X118041800Y-96074565D01*
X117997568Y-96296934D01*
X117910804Y-96506402D01*
X117784838Y-96694923D01*
X117624523Y-96855238D01*
X117436002Y-96981204D01*
X117226534Y-97067968D01*
X117004165Y-97112200D01*
X116777435Y-97112200D01*
X116555066Y-97067968D01*
X116345598Y-96981204D01*
X116157077Y-96855238D01*
X115996762Y-96694923D01*
X115870796Y-96506402D01*
X115784032Y-96296934D01*
X115739800Y-96074565D01*
X115739800Y-95847835D01*
X115784032Y-95625466D01*
X115870796Y-95415998D01*
X115996762Y-95227477D01*
X116157077Y-95067162D01*
X116345598Y-94941196D01*
X116555066Y-94854432D01*
X116777435Y-94810200D01*
X117004165Y-94810200D01*
X117226534Y-94854432D01*
X117226534Y-94854432D01*
G37*
G36*
X92759642Y-87954718D02*
X92825827Y-87961237D01*
X92939053Y-87995584D01*
X92995667Y-88012757D01*
X93134287Y-88086852D01*
X93152191Y-88096422D01*
X93187929Y-88125752D01*
X93289386Y-88209014D01*
X93351691Y-88284934D01*
X93401978Y-88346209D01*
X93401979Y-88346211D01*
X93485643Y-88502733D01*
X93485643Y-88502734D01*
X93537163Y-88672573D01*
X93554559Y-88849200D01*
X93537163Y-89025827D01*
X93514602Y-89100200D01*
X93485643Y-89195667D01*
X93411548Y-89334287D01*
X93401978Y-89352191D01*
X93372648Y-89387929D01*
X93289386Y-89489386D01*
X93187929Y-89572648D01*
X93152191Y-89601978D01*
X93152189Y-89601979D01*
X92995667Y-89685643D01*
X92939053Y-89702816D01*
X92825827Y-89737163D01*
X92759642Y-89743682D01*
X92693460Y-89750200D01*
X92604940Y-89750200D01*
X92538758Y-89743682D01*
X92472573Y-89737163D01*
X92359347Y-89702816D01*
X92302733Y-89685643D01*
X92146211Y-89601979D01*
X92146209Y-89601978D01*
X92110471Y-89572648D01*
X92009014Y-89489386D01*
X91925752Y-89387929D01*
X91896422Y-89352191D01*
X91886852Y-89334287D01*
X91812757Y-89195667D01*
X91783798Y-89100200D01*
X91761237Y-89025827D01*
X91743841Y-88849200D01*
X91761237Y-88672573D01*
X91812757Y-88502734D01*
X91812757Y-88502733D01*
X91896421Y-88346211D01*
X91896422Y-88346209D01*
X91946709Y-88284934D01*
X92009014Y-88209014D01*
X92110471Y-88125752D01*
X92146209Y-88096422D01*
X92164113Y-88086852D01*
X92302733Y-88012757D01*
X92359347Y-87995584D01*
X92472573Y-87961237D01*
X92538758Y-87954718D01*
X92604940Y-87948200D01*
X92693460Y-87948200D01*
X92759642Y-87954718D01*
X92759642Y-87954718D01*
G37*
G36*
X64575642Y-87954718D02*
X64641827Y-87961237D01*
X64755053Y-87995584D01*
X64811667Y-88012757D01*
X64950287Y-88086852D01*
X64968191Y-88096422D01*
X65003929Y-88125752D01*
X65105386Y-88209014D01*
X65167691Y-88284934D01*
X65217978Y-88346209D01*
X65217979Y-88346211D01*
X65301643Y-88502733D01*
X65301643Y-88502734D01*
X65353163Y-88672573D01*
X65370559Y-88849200D01*
X65353163Y-89025827D01*
X65330602Y-89100200D01*
X65301643Y-89195667D01*
X65227548Y-89334287D01*
X65217978Y-89352191D01*
X65188648Y-89387929D01*
X65105386Y-89489386D01*
X65003929Y-89572648D01*
X64968191Y-89601978D01*
X64968189Y-89601979D01*
X64811667Y-89685643D01*
X64755053Y-89702816D01*
X64641827Y-89737163D01*
X64575642Y-89743682D01*
X64509460Y-89750200D01*
X64420940Y-89750200D01*
X64354758Y-89743682D01*
X64288573Y-89737163D01*
X64175347Y-89702816D01*
X64118733Y-89685643D01*
X63962211Y-89601979D01*
X63962209Y-89601978D01*
X63926471Y-89572648D01*
X63825014Y-89489386D01*
X63741752Y-89387929D01*
X63712422Y-89352191D01*
X63702852Y-89334287D01*
X63628757Y-89195667D01*
X63599798Y-89100200D01*
X63577237Y-89025827D01*
X63559841Y-88849200D01*
X63577237Y-88672573D01*
X63628757Y-88502734D01*
X63628757Y-88502733D01*
X63712421Y-88346211D01*
X63712422Y-88346209D01*
X63762709Y-88284934D01*
X63825014Y-88209014D01*
X63926471Y-88125752D01*
X63962209Y-88096422D01*
X63980113Y-88086852D01*
X64118733Y-88012757D01*
X64175347Y-87995584D01*
X64288573Y-87961237D01*
X64354758Y-87954718D01*
X64420940Y-87948200D01*
X64509460Y-87948200D01*
X64575642Y-87954718D01*
X64575642Y-87954718D01*
G37*
G36*
X62035642Y-87954718D02*
X62101827Y-87961237D01*
X62215053Y-87995584D01*
X62271667Y-88012757D01*
X62410287Y-88086852D01*
X62428191Y-88096422D01*
X62463929Y-88125752D01*
X62565386Y-88209014D01*
X62627691Y-88284934D01*
X62677978Y-88346209D01*
X62677979Y-88346211D01*
X62761643Y-88502733D01*
X62761643Y-88502734D01*
X62813163Y-88672573D01*
X62830559Y-88849200D01*
X62813163Y-89025827D01*
X62790602Y-89100200D01*
X62761643Y-89195667D01*
X62687548Y-89334287D01*
X62677978Y-89352191D01*
X62648648Y-89387929D01*
X62565386Y-89489386D01*
X62463929Y-89572648D01*
X62428191Y-89601978D01*
X62428189Y-89601979D01*
X62271667Y-89685643D01*
X62215053Y-89702816D01*
X62101827Y-89737163D01*
X62035642Y-89743682D01*
X61969460Y-89750200D01*
X61880940Y-89750200D01*
X61814758Y-89743682D01*
X61748573Y-89737163D01*
X61635347Y-89702816D01*
X61578733Y-89685643D01*
X61422211Y-89601979D01*
X61422209Y-89601978D01*
X61386471Y-89572648D01*
X61285014Y-89489386D01*
X61201752Y-89387929D01*
X61172422Y-89352191D01*
X61162852Y-89334287D01*
X61088757Y-89195667D01*
X61059798Y-89100200D01*
X61037237Y-89025827D01*
X61019841Y-88849200D01*
X61037237Y-88672573D01*
X61088757Y-88502734D01*
X61088757Y-88502733D01*
X61172421Y-88346211D01*
X61172422Y-88346209D01*
X61222709Y-88284934D01*
X61285014Y-88209014D01*
X61386471Y-88125752D01*
X61422209Y-88096422D01*
X61440113Y-88086852D01*
X61578733Y-88012757D01*
X61635347Y-87995584D01*
X61748573Y-87961237D01*
X61814758Y-87954718D01*
X61880940Y-87948200D01*
X61969460Y-87948200D01*
X62035642Y-87954718D01*
X62035642Y-87954718D01*
G37*
G36*
X59495642Y-87954718D02*
X59561827Y-87961237D01*
X59675053Y-87995584D01*
X59731667Y-88012757D01*
X59870287Y-88086852D01*
X59888191Y-88096422D01*
X59923929Y-88125752D01*
X60025386Y-88209014D01*
X60087691Y-88284934D01*
X60137978Y-88346209D01*
X60137979Y-88346211D01*
X60221643Y-88502733D01*
X60221643Y-88502734D01*
X60273163Y-88672573D01*
X60290559Y-88849200D01*
X60273163Y-89025827D01*
X60250602Y-89100200D01*
X60221643Y-89195667D01*
X60147548Y-89334287D01*
X60137978Y-89352191D01*
X60108648Y-89387929D01*
X60025386Y-89489386D01*
X59923929Y-89572648D01*
X59888191Y-89601978D01*
X59888189Y-89601979D01*
X59731667Y-89685643D01*
X59675053Y-89702816D01*
X59561827Y-89737163D01*
X59495642Y-89743682D01*
X59429460Y-89750200D01*
X59340940Y-89750200D01*
X59274758Y-89743682D01*
X59208573Y-89737163D01*
X59095347Y-89702816D01*
X59038733Y-89685643D01*
X58882211Y-89601979D01*
X58882209Y-89601978D01*
X58846471Y-89572648D01*
X58745014Y-89489386D01*
X58661752Y-89387929D01*
X58632422Y-89352191D01*
X58622852Y-89334287D01*
X58548757Y-89195667D01*
X58519798Y-89100200D01*
X58497237Y-89025827D01*
X58479841Y-88849200D01*
X58497237Y-88672573D01*
X58548757Y-88502734D01*
X58548757Y-88502733D01*
X58632421Y-88346211D01*
X58632422Y-88346209D01*
X58682709Y-88284934D01*
X58745014Y-88209014D01*
X58846471Y-88125752D01*
X58882209Y-88096422D01*
X58900113Y-88086852D01*
X59038733Y-88012757D01*
X59095347Y-87995584D01*
X59208573Y-87961237D01*
X59274758Y-87954718D01*
X59340940Y-87948200D01*
X59429460Y-87948200D01*
X59495642Y-87954718D01*
X59495642Y-87954718D01*
G37*
G36*
X80850200Y-89750200D02*
X79048200Y-89750200D01*
X79048200Y-87948200D01*
X80850200Y-87948200D01*
X80850200Y-89750200D01*
X80850200Y-89750200D01*
G37*
G36*
X82599642Y-87954718D02*
X82665827Y-87961237D01*
X82779053Y-87995584D01*
X82835667Y-88012757D01*
X82974287Y-88086852D01*
X82992191Y-88096422D01*
X83027929Y-88125752D01*
X83129386Y-88209014D01*
X83191691Y-88284934D01*
X83241978Y-88346209D01*
X83241979Y-88346211D01*
X83325643Y-88502733D01*
X83325643Y-88502734D01*
X83377163Y-88672573D01*
X83394559Y-88849200D01*
X83377163Y-89025827D01*
X83354602Y-89100200D01*
X83325643Y-89195667D01*
X83251548Y-89334287D01*
X83241978Y-89352191D01*
X83212648Y-89387929D01*
X83129386Y-89489386D01*
X83027929Y-89572648D01*
X82992191Y-89601978D01*
X82992189Y-89601979D01*
X82835667Y-89685643D01*
X82779053Y-89702816D01*
X82665827Y-89737163D01*
X82599642Y-89743682D01*
X82533460Y-89750200D01*
X82444940Y-89750200D01*
X82378758Y-89743682D01*
X82312573Y-89737163D01*
X82199347Y-89702816D01*
X82142733Y-89685643D01*
X81986211Y-89601979D01*
X81986209Y-89601978D01*
X81950471Y-89572648D01*
X81849014Y-89489386D01*
X81765752Y-89387929D01*
X81736422Y-89352191D01*
X81726852Y-89334287D01*
X81652757Y-89195667D01*
X81623798Y-89100200D01*
X81601237Y-89025827D01*
X81583841Y-88849200D01*
X81601237Y-88672573D01*
X81652757Y-88502734D01*
X81652757Y-88502733D01*
X81736421Y-88346211D01*
X81736422Y-88346209D01*
X81786709Y-88284934D01*
X81849014Y-88209014D01*
X81950471Y-88125752D01*
X81986209Y-88096422D01*
X82004113Y-88086852D01*
X82142733Y-88012757D01*
X82199347Y-87995584D01*
X82312573Y-87961237D01*
X82378758Y-87954718D01*
X82444940Y-87948200D01*
X82533460Y-87948200D01*
X82599642Y-87954718D01*
X82599642Y-87954718D01*
G37*
G36*
X85139642Y-87954718D02*
X85205827Y-87961237D01*
X85319053Y-87995584D01*
X85375667Y-88012757D01*
X85514287Y-88086852D01*
X85532191Y-88096422D01*
X85567929Y-88125752D01*
X85669386Y-88209014D01*
X85731691Y-88284934D01*
X85781978Y-88346209D01*
X85781979Y-88346211D01*
X85865643Y-88502733D01*
X85865643Y-88502734D01*
X85917163Y-88672573D01*
X85934559Y-88849200D01*
X85917163Y-89025827D01*
X85894602Y-89100200D01*
X85865643Y-89195667D01*
X85791548Y-89334287D01*
X85781978Y-89352191D01*
X85752648Y-89387929D01*
X85669386Y-89489386D01*
X85567929Y-89572648D01*
X85532191Y-89601978D01*
X85532189Y-89601979D01*
X85375667Y-89685643D01*
X85319053Y-89702816D01*
X85205827Y-89737163D01*
X85139642Y-89743682D01*
X85073460Y-89750200D01*
X84984940Y-89750200D01*
X84918758Y-89743682D01*
X84852573Y-89737163D01*
X84739347Y-89702816D01*
X84682733Y-89685643D01*
X84526211Y-89601979D01*
X84526209Y-89601978D01*
X84490471Y-89572648D01*
X84389014Y-89489386D01*
X84305752Y-89387929D01*
X84276422Y-89352191D01*
X84266852Y-89334287D01*
X84192757Y-89195667D01*
X84163798Y-89100200D01*
X84141237Y-89025827D01*
X84123841Y-88849200D01*
X84141237Y-88672573D01*
X84192757Y-88502734D01*
X84192757Y-88502733D01*
X84276421Y-88346211D01*
X84276422Y-88346209D01*
X84326709Y-88284934D01*
X84389014Y-88209014D01*
X84490471Y-88125752D01*
X84526209Y-88096422D01*
X84544113Y-88086852D01*
X84682733Y-88012757D01*
X84739347Y-87995584D01*
X84852573Y-87961237D01*
X84918758Y-87954718D01*
X84984940Y-87948200D01*
X85073460Y-87948200D01*
X85139642Y-87954718D01*
X85139642Y-87954718D01*
G37*
G36*
X87679642Y-87954718D02*
X87745827Y-87961237D01*
X87859053Y-87995584D01*
X87915667Y-88012757D01*
X88054287Y-88086852D01*
X88072191Y-88096422D01*
X88107929Y-88125752D01*
X88209386Y-88209014D01*
X88271691Y-88284934D01*
X88321978Y-88346209D01*
X88321979Y-88346211D01*
X88405643Y-88502733D01*
X88405643Y-88502734D01*
X88457163Y-88672573D01*
X88474559Y-88849200D01*
X88457163Y-89025827D01*
X88434602Y-89100200D01*
X88405643Y-89195667D01*
X88331548Y-89334287D01*
X88321978Y-89352191D01*
X88292648Y-89387929D01*
X88209386Y-89489386D01*
X88107929Y-89572648D01*
X88072191Y-89601978D01*
X88072189Y-89601979D01*
X87915667Y-89685643D01*
X87859053Y-89702816D01*
X87745827Y-89737163D01*
X87679642Y-89743682D01*
X87613460Y-89750200D01*
X87524940Y-89750200D01*
X87458758Y-89743682D01*
X87392573Y-89737163D01*
X87279347Y-89702816D01*
X87222733Y-89685643D01*
X87066211Y-89601979D01*
X87066209Y-89601978D01*
X87030471Y-89572648D01*
X86929014Y-89489386D01*
X86845752Y-89387929D01*
X86816422Y-89352191D01*
X86806852Y-89334287D01*
X86732757Y-89195667D01*
X86703798Y-89100200D01*
X86681237Y-89025827D01*
X86663841Y-88849200D01*
X86681237Y-88672573D01*
X86732757Y-88502734D01*
X86732757Y-88502733D01*
X86816421Y-88346211D01*
X86816422Y-88346209D01*
X86866709Y-88284934D01*
X86929014Y-88209014D01*
X87030471Y-88125752D01*
X87066209Y-88096422D01*
X87084113Y-88086852D01*
X87222733Y-88012757D01*
X87279347Y-87995584D01*
X87392573Y-87961237D01*
X87458758Y-87954718D01*
X87524940Y-87948200D01*
X87613460Y-87948200D01*
X87679642Y-87954718D01*
X87679642Y-87954718D01*
G37*
G36*
X90219642Y-87954718D02*
X90285827Y-87961237D01*
X90399053Y-87995584D01*
X90455667Y-88012757D01*
X90594287Y-88086852D01*
X90612191Y-88096422D01*
X90647929Y-88125752D01*
X90749386Y-88209014D01*
X90811691Y-88284934D01*
X90861978Y-88346209D01*
X90861979Y-88346211D01*
X90945643Y-88502733D01*
X90945643Y-88502734D01*
X90997163Y-88672573D01*
X91014559Y-88849200D01*
X90997163Y-89025827D01*
X90974602Y-89100200D01*
X90945643Y-89195667D01*
X90871548Y-89334287D01*
X90861978Y-89352191D01*
X90832648Y-89387929D01*
X90749386Y-89489386D01*
X90647929Y-89572648D01*
X90612191Y-89601978D01*
X90612189Y-89601979D01*
X90455667Y-89685643D01*
X90399053Y-89702816D01*
X90285827Y-89737163D01*
X90219642Y-89743682D01*
X90153460Y-89750200D01*
X90064940Y-89750200D01*
X89998758Y-89743682D01*
X89932573Y-89737163D01*
X89819347Y-89702816D01*
X89762733Y-89685643D01*
X89606211Y-89601979D01*
X89606209Y-89601978D01*
X89570471Y-89572648D01*
X89469014Y-89489386D01*
X89385752Y-89387929D01*
X89356422Y-89352191D01*
X89346852Y-89334287D01*
X89272757Y-89195667D01*
X89243798Y-89100200D01*
X89221237Y-89025827D01*
X89203841Y-88849200D01*
X89221237Y-88672573D01*
X89272757Y-88502734D01*
X89272757Y-88502733D01*
X89356421Y-88346211D01*
X89356422Y-88346209D01*
X89406709Y-88284934D01*
X89469014Y-88209014D01*
X89570471Y-88125752D01*
X89606209Y-88096422D01*
X89624113Y-88086852D01*
X89762733Y-88012757D01*
X89819347Y-87995584D01*
X89932573Y-87961237D01*
X89998758Y-87954718D01*
X90064940Y-87948200D01*
X90153460Y-87948200D01*
X90219642Y-87954718D01*
X90219642Y-87954718D01*
G37*
G36*
X57746200Y-89750200D02*
X55944200Y-89750200D01*
X55944200Y-87948200D01*
X57746200Y-87948200D01*
X57746200Y-89750200D01*
X57746200Y-89750200D01*
G37*
G36*
X117284934Y-86842432D02*
X117494402Y-86929196D01*
X117682923Y-87055162D01*
X117843238Y-87215477D01*
X117969204Y-87403998D01*
X118055968Y-87613466D01*
X118100200Y-87835835D01*
X118100200Y-88062565D01*
X118055968Y-88284934D01*
X117969204Y-88494402D01*
X117843238Y-88682923D01*
X117682923Y-88843238D01*
X117494402Y-88969204D01*
X117284934Y-89055968D01*
X117062565Y-89100200D01*
X116835835Y-89100200D01*
X116613466Y-89055968D01*
X116403998Y-88969204D01*
X116215477Y-88843238D01*
X116055162Y-88682923D01*
X115929196Y-88494402D01*
X115842432Y-88284934D01*
X115798200Y-88062565D01*
X115798200Y-87835835D01*
X115842432Y-87613466D01*
X115929196Y-87403998D01*
X116055162Y-87215477D01*
X116215477Y-87055162D01*
X116403998Y-86929196D01*
X116613466Y-86842432D01*
X116835835Y-86798200D01*
X117062565Y-86798200D01*
X117284934Y-86842432D01*
X117284934Y-86842432D01*
G37*
G36*
X23284934Y-86842432D02*
X23494402Y-86929196D01*
X23682923Y-87055162D01*
X23843238Y-87215477D01*
X23969204Y-87403998D01*
X24055968Y-87613466D01*
X24100200Y-87835835D01*
X24100200Y-88062565D01*
X24055968Y-88284934D01*
X23969204Y-88494402D01*
X23843238Y-88682923D01*
X23682923Y-88843238D01*
X23494402Y-88969204D01*
X23284934Y-89055968D01*
X23062565Y-89100200D01*
X22835835Y-89100200D01*
X22613466Y-89055968D01*
X22403998Y-88969204D01*
X22215477Y-88843238D01*
X22055162Y-88682923D01*
X21929196Y-88494402D01*
X21842432Y-88284934D01*
X21798200Y-88062565D01*
X21798200Y-87835835D01*
X21842432Y-87613466D01*
X21929196Y-87403998D01*
X22055162Y-87215477D01*
X22215477Y-87055162D01*
X22403998Y-86929196D01*
X22613466Y-86842432D01*
X22835835Y-86798200D01*
X23062565Y-86798200D01*
X23284934Y-86842432D01*
X23284934Y-86842432D01*
G37*
G36*
X95389000Y-80453800D02*
X93587000Y-80453800D01*
X93587000Y-78651800D01*
X95389000Y-78651800D01*
X95389000Y-80453800D01*
X95389000Y-80453800D01*
G37*
G36*
X97138443Y-78658319D02*
X97204627Y-78664837D01*
X97317853Y-78699184D01*
X97374467Y-78716357D01*
X97513087Y-78790452D01*
X97530991Y-78800022D01*
X97566729Y-78829352D01*
X97668186Y-78912614D01*
X97751448Y-79014071D01*
X97780778Y-79049809D01*
X97780779Y-79049811D01*
X97864443Y-79206333D01*
X97864443Y-79206334D01*
X97915963Y-79376173D01*
X97933359Y-79552800D01*
X97915963Y-79729427D01*
X97881616Y-79842653D01*
X97864443Y-79899267D01*
X97790348Y-80037887D01*
X97780778Y-80055791D01*
X97751448Y-80091529D01*
X97668186Y-80192986D01*
X97566729Y-80276248D01*
X97530991Y-80305578D01*
X97530989Y-80305579D01*
X97374467Y-80389243D01*
X97317853Y-80406416D01*
X97204627Y-80440763D01*
X97138442Y-80447282D01*
X97072260Y-80453800D01*
X96983740Y-80453800D01*
X96917558Y-80447282D01*
X96851373Y-80440763D01*
X96738147Y-80406416D01*
X96681533Y-80389243D01*
X96525011Y-80305579D01*
X96525009Y-80305578D01*
X96489271Y-80276248D01*
X96387814Y-80192986D01*
X96304552Y-80091529D01*
X96275222Y-80055791D01*
X96265652Y-80037887D01*
X96191557Y-79899267D01*
X96174384Y-79842653D01*
X96140037Y-79729427D01*
X96122641Y-79552800D01*
X96140037Y-79376173D01*
X96191557Y-79206334D01*
X96191557Y-79206333D01*
X96275221Y-79049811D01*
X96275222Y-79049809D01*
X96304552Y-79014071D01*
X96387814Y-78912614D01*
X96489271Y-78829352D01*
X96525009Y-78800022D01*
X96542913Y-78790452D01*
X96681533Y-78716357D01*
X96738147Y-78699184D01*
X96851373Y-78664837D01*
X96917557Y-78658319D01*
X96983740Y-78651800D01*
X97072260Y-78651800D01*
X97138443Y-78658319D01*
X97138443Y-78658319D01*
G37*
G36*
X94598443Y-76118319D02*
X94664627Y-76124837D01*
X94777853Y-76159184D01*
X94834467Y-76176357D01*
X94973087Y-76250452D01*
X94990991Y-76260022D01*
X95026729Y-76289352D01*
X95128186Y-76372614D01*
X95211448Y-76474071D01*
X95240778Y-76509809D01*
X95240779Y-76509811D01*
X95324443Y-76666333D01*
X95324443Y-76666334D01*
X95375963Y-76836173D01*
X95393359Y-77012800D01*
X95375963Y-77189427D01*
X95341616Y-77302653D01*
X95324443Y-77359267D01*
X95250348Y-77497887D01*
X95240778Y-77515791D01*
X95211448Y-77551529D01*
X95128186Y-77652986D01*
X95026729Y-77736248D01*
X94990991Y-77765578D01*
X94990989Y-77765579D01*
X94834467Y-77849243D01*
X94777853Y-77866416D01*
X94664627Y-77900763D01*
X94598442Y-77907282D01*
X94532260Y-77913800D01*
X94443740Y-77913800D01*
X94377558Y-77907282D01*
X94311373Y-77900763D01*
X94198147Y-77866416D01*
X94141533Y-77849243D01*
X93985011Y-77765579D01*
X93985009Y-77765578D01*
X93949271Y-77736248D01*
X93847814Y-77652986D01*
X93764552Y-77551529D01*
X93735222Y-77515791D01*
X93725652Y-77497887D01*
X93651557Y-77359267D01*
X93634384Y-77302653D01*
X93600037Y-77189427D01*
X93582641Y-77012800D01*
X93600037Y-76836173D01*
X93651557Y-76666334D01*
X93651557Y-76666333D01*
X93735221Y-76509811D01*
X93735222Y-76509809D01*
X93764552Y-76474071D01*
X93847814Y-76372614D01*
X93949271Y-76289352D01*
X93985009Y-76260022D01*
X94002913Y-76250452D01*
X94141533Y-76176357D01*
X94198147Y-76159184D01*
X94311373Y-76124837D01*
X94377557Y-76118319D01*
X94443740Y-76111800D01*
X94532260Y-76111800D01*
X94598443Y-76118319D01*
X94598443Y-76118319D01*
G37*
G36*
X97138443Y-76118319D02*
X97204627Y-76124837D01*
X97317853Y-76159184D01*
X97374467Y-76176357D01*
X97513087Y-76250452D01*
X97530991Y-76260022D01*
X97566729Y-76289352D01*
X97668186Y-76372614D01*
X97751448Y-76474071D01*
X97780778Y-76509809D01*
X97780779Y-76509811D01*
X97864443Y-76666333D01*
X97864443Y-76666334D01*
X97915963Y-76836173D01*
X97933359Y-77012800D01*
X97915963Y-77189427D01*
X97881616Y-77302653D01*
X97864443Y-77359267D01*
X97790348Y-77497887D01*
X97780778Y-77515791D01*
X97751448Y-77551529D01*
X97668186Y-77652986D01*
X97566729Y-77736248D01*
X97530991Y-77765578D01*
X97530989Y-77765579D01*
X97374467Y-77849243D01*
X97317853Y-77866416D01*
X97204627Y-77900763D01*
X97138442Y-77907282D01*
X97072260Y-77913800D01*
X96983740Y-77913800D01*
X96917558Y-77907282D01*
X96851373Y-77900763D01*
X96738147Y-77866416D01*
X96681533Y-77849243D01*
X96525011Y-77765579D01*
X96525009Y-77765578D01*
X96489271Y-77736248D01*
X96387814Y-77652986D01*
X96304552Y-77551529D01*
X96275222Y-77515791D01*
X96265652Y-77497887D01*
X96191557Y-77359267D01*
X96174384Y-77302653D01*
X96140037Y-77189427D01*
X96122641Y-77012800D01*
X96140037Y-76836173D01*
X96191557Y-76666334D01*
X96191557Y-76666333D01*
X96275221Y-76509811D01*
X96275222Y-76509809D01*
X96304552Y-76474071D01*
X96387814Y-76372614D01*
X96489271Y-76289352D01*
X96525009Y-76260022D01*
X96542913Y-76250452D01*
X96681533Y-76176357D01*
X96738147Y-76159184D01*
X96851373Y-76124837D01*
X96917557Y-76118319D01*
X96983740Y-76111800D01*
X97072260Y-76111800D01*
X97138443Y-76118319D01*
X97138443Y-76118319D01*
G37*
G36*
X118576043Y-75000719D02*
X118642227Y-75007237D01*
X118755453Y-75041584D01*
X118812067Y-75058757D01*
X118950687Y-75132852D01*
X118968591Y-75142422D01*
X119004329Y-75171752D01*
X119105786Y-75255014D01*
X119189048Y-75356471D01*
X119218378Y-75392209D01*
X119218379Y-75392211D01*
X119302043Y-75548733D01*
X119302043Y-75548734D01*
X119353563Y-75718573D01*
X119370959Y-75895200D01*
X119353563Y-76071827D01*
X119321854Y-76176357D01*
X119302043Y-76241667D01*
X119232049Y-76372614D01*
X119218378Y-76398191D01*
X119189048Y-76433929D01*
X119105786Y-76535386D01*
X119004329Y-76618648D01*
X118968591Y-76647978D01*
X118968589Y-76647979D01*
X118812067Y-76731643D01*
X118755453Y-76748816D01*
X118642227Y-76783163D01*
X118576042Y-76789682D01*
X118509860Y-76796200D01*
X118421340Y-76796200D01*
X118355158Y-76789682D01*
X118288973Y-76783163D01*
X118175747Y-76748816D01*
X118119133Y-76731643D01*
X117962611Y-76647979D01*
X117962609Y-76647978D01*
X117926871Y-76618648D01*
X117825414Y-76535386D01*
X117742152Y-76433929D01*
X117712822Y-76398191D01*
X117699151Y-76372614D01*
X117629157Y-76241667D01*
X117609346Y-76176357D01*
X117577637Y-76071827D01*
X117560241Y-75895200D01*
X117577637Y-75718573D01*
X117629157Y-75548734D01*
X117629157Y-75548733D01*
X117712821Y-75392211D01*
X117712822Y-75392209D01*
X117742152Y-75356471D01*
X117825414Y-75255014D01*
X117926871Y-75171752D01*
X117962609Y-75142422D01*
X117980513Y-75132852D01*
X118119133Y-75058757D01*
X118175747Y-75041584D01*
X118288973Y-75007237D01*
X118355157Y-75000719D01*
X118421340Y-74994200D01*
X118509860Y-74994200D01*
X118576043Y-75000719D01*
X118576043Y-75000719D01*
G37*
G36*
X116826600Y-76796200D02*
X115024600Y-76796200D01*
X115024600Y-74994200D01*
X116826600Y-74994200D01*
X116826600Y-76796200D01*
X116826600Y-76796200D01*
G37*
G36*
X118576043Y-72460719D02*
X118642227Y-72467237D01*
X118755453Y-72501584D01*
X118812067Y-72518757D01*
X118950687Y-72592852D01*
X118968591Y-72602422D01*
X119004329Y-72631752D01*
X119105786Y-72715014D01*
X119189048Y-72816471D01*
X119218378Y-72852209D01*
X119218379Y-72852211D01*
X119302043Y-73008733D01*
X119302043Y-73008734D01*
X119353563Y-73178573D01*
X119370959Y-73355200D01*
X119353563Y-73531827D01*
X119319216Y-73645053D01*
X119302043Y-73701667D01*
X119227948Y-73840287D01*
X119218378Y-73858191D01*
X119189048Y-73893929D01*
X119105786Y-73995386D01*
X119004329Y-74078648D01*
X118968591Y-74107978D01*
X118968589Y-74107979D01*
X118812067Y-74191643D01*
X118755453Y-74208816D01*
X118642227Y-74243163D01*
X118576043Y-74249681D01*
X118509860Y-74256200D01*
X118421340Y-74256200D01*
X118355157Y-74249681D01*
X118288973Y-74243163D01*
X118175747Y-74208816D01*
X118119133Y-74191643D01*
X117962611Y-74107979D01*
X117962609Y-74107978D01*
X117926871Y-74078648D01*
X117825414Y-73995386D01*
X117742152Y-73893929D01*
X117712822Y-73858191D01*
X117703252Y-73840287D01*
X117629157Y-73701667D01*
X117611984Y-73645053D01*
X117577637Y-73531827D01*
X117560241Y-73355200D01*
X117577637Y-73178573D01*
X117629157Y-73008734D01*
X117629157Y-73008733D01*
X117712821Y-72852211D01*
X117712822Y-72852209D01*
X117742152Y-72816471D01*
X117825414Y-72715014D01*
X117926871Y-72631752D01*
X117962609Y-72602422D01*
X117980513Y-72592852D01*
X118119133Y-72518757D01*
X118175747Y-72501584D01*
X118288973Y-72467237D01*
X118355157Y-72460719D01*
X118421340Y-72454200D01*
X118509860Y-72454200D01*
X118576043Y-72460719D01*
X118576043Y-72460719D01*
G37*
G36*
X116036043Y-72460719D02*
X116102227Y-72467237D01*
X116215453Y-72501584D01*
X116272067Y-72518757D01*
X116410687Y-72592852D01*
X116428591Y-72602422D01*
X116464329Y-72631752D01*
X116565786Y-72715014D01*
X116649048Y-72816471D01*
X116678378Y-72852209D01*
X116678379Y-72852211D01*
X116762043Y-73008733D01*
X116762043Y-73008734D01*
X116813563Y-73178573D01*
X116830959Y-73355200D01*
X116813563Y-73531827D01*
X116779216Y-73645053D01*
X116762043Y-73701667D01*
X116687948Y-73840287D01*
X116678378Y-73858191D01*
X116649048Y-73893929D01*
X116565786Y-73995386D01*
X116464329Y-74078648D01*
X116428591Y-74107978D01*
X116428589Y-74107979D01*
X116272067Y-74191643D01*
X116215453Y-74208816D01*
X116102227Y-74243163D01*
X116036043Y-74249681D01*
X115969860Y-74256200D01*
X115881340Y-74256200D01*
X115815157Y-74249681D01*
X115748973Y-74243163D01*
X115635747Y-74208816D01*
X115579133Y-74191643D01*
X115422611Y-74107979D01*
X115422609Y-74107978D01*
X115386871Y-74078648D01*
X115285414Y-73995386D01*
X115202152Y-73893929D01*
X115172822Y-73858191D01*
X115163252Y-73840287D01*
X115089157Y-73701667D01*
X115071984Y-73645053D01*
X115037637Y-73531827D01*
X115020241Y-73355200D01*
X115037637Y-73178573D01*
X115089157Y-73008734D01*
X115089157Y-73008733D01*
X115172821Y-72852211D01*
X115172822Y-72852209D01*
X115202152Y-72816471D01*
X115285414Y-72715014D01*
X115386871Y-72631752D01*
X115422609Y-72602422D01*
X115440513Y-72592852D01*
X115579133Y-72518757D01*
X115635747Y-72501584D01*
X115748973Y-72467237D01*
X115815157Y-72460719D01*
X115881340Y-72454200D01*
X115969860Y-72454200D01*
X116036043Y-72460719D01*
X116036043Y-72460719D01*
G37*
G36*
X116036042Y-69920718D02*
X116102227Y-69927237D01*
X116215453Y-69961584D01*
X116272067Y-69978757D01*
X116410687Y-70052852D01*
X116428591Y-70062422D01*
X116464329Y-70091752D01*
X116565786Y-70175014D01*
X116628464Y-70251389D01*
X116678378Y-70312209D01*
X116678379Y-70312211D01*
X116762043Y-70468733D01*
X116762043Y-70468734D01*
X116813563Y-70638573D01*
X116830959Y-70815200D01*
X116813563Y-70991827D01*
X116779216Y-71105053D01*
X116762043Y-71161667D01*
X116687948Y-71300287D01*
X116678378Y-71318191D01*
X116649048Y-71353929D01*
X116565786Y-71455386D01*
X116464329Y-71538648D01*
X116428591Y-71567978D01*
X116428589Y-71567979D01*
X116272067Y-71651643D01*
X116215453Y-71668816D01*
X116102227Y-71703163D01*
X116036042Y-71709682D01*
X115969860Y-71716200D01*
X115881340Y-71716200D01*
X115815158Y-71709682D01*
X115748973Y-71703163D01*
X115635747Y-71668816D01*
X115579133Y-71651643D01*
X115422611Y-71567979D01*
X115422609Y-71567978D01*
X115386871Y-71538648D01*
X115285414Y-71455386D01*
X115202152Y-71353929D01*
X115172822Y-71318191D01*
X115163252Y-71300287D01*
X115089157Y-71161667D01*
X115071984Y-71105053D01*
X115037637Y-70991827D01*
X115020241Y-70815200D01*
X115037637Y-70638573D01*
X115089157Y-70468734D01*
X115089157Y-70468733D01*
X115172821Y-70312211D01*
X115172822Y-70312209D01*
X115222736Y-70251389D01*
X115285414Y-70175014D01*
X115386871Y-70091752D01*
X115422609Y-70062422D01*
X115440513Y-70052852D01*
X115579133Y-69978757D01*
X115635747Y-69961584D01*
X115748973Y-69927237D01*
X115815158Y-69920718D01*
X115881340Y-69914200D01*
X115969860Y-69914200D01*
X116036042Y-69920718D01*
X116036042Y-69920718D01*
G37*
G36*
X118576042Y-69920718D02*
X118642227Y-69927237D01*
X118755453Y-69961584D01*
X118812067Y-69978757D01*
X118950687Y-70052852D01*
X118968591Y-70062422D01*
X119004329Y-70091752D01*
X119105786Y-70175014D01*
X119168464Y-70251389D01*
X119218378Y-70312209D01*
X119218379Y-70312211D01*
X119302043Y-70468733D01*
X119302043Y-70468734D01*
X119353563Y-70638573D01*
X119370959Y-70815200D01*
X119353563Y-70991827D01*
X119319216Y-71105053D01*
X119302043Y-71161667D01*
X119227948Y-71300287D01*
X119218378Y-71318191D01*
X119189048Y-71353929D01*
X119105786Y-71455386D01*
X119004329Y-71538648D01*
X118968591Y-71567978D01*
X118968589Y-71567979D01*
X118812067Y-71651643D01*
X118755453Y-71668816D01*
X118642227Y-71703163D01*
X118576042Y-71709682D01*
X118509860Y-71716200D01*
X118421340Y-71716200D01*
X118355158Y-71709682D01*
X118288973Y-71703163D01*
X118175747Y-71668816D01*
X118119133Y-71651643D01*
X117962611Y-71567979D01*
X117962609Y-71567978D01*
X117926871Y-71538648D01*
X117825414Y-71455386D01*
X117742152Y-71353929D01*
X117712822Y-71318191D01*
X117703252Y-71300287D01*
X117629157Y-71161667D01*
X117611984Y-71105053D01*
X117577637Y-70991827D01*
X117560241Y-70815200D01*
X117577637Y-70638573D01*
X117629157Y-70468734D01*
X117629157Y-70468733D01*
X117712821Y-70312211D01*
X117712822Y-70312209D01*
X117762736Y-70251389D01*
X117825414Y-70175014D01*
X117926871Y-70091752D01*
X117962609Y-70062422D01*
X117980513Y-70052852D01*
X118119133Y-69978757D01*
X118175747Y-69961584D01*
X118288973Y-69927237D01*
X118355158Y-69920718D01*
X118421340Y-69914200D01*
X118509860Y-69914200D01*
X118576042Y-69920718D01*
X118576042Y-69920718D01*
G37*
G36*
X43849242Y-68853918D02*
X43915427Y-68860437D01*
X44026139Y-68894021D01*
X44085267Y-68911957D01*
X44223887Y-68986052D01*
X44241791Y-68995622D01*
X44277529Y-69024952D01*
X44378986Y-69108214D01*
X44462248Y-69209671D01*
X44491578Y-69245409D01*
X44491579Y-69245411D01*
X44575243Y-69401933D01*
X44575243Y-69401934D01*
X44626763Y-69571773D01*
X44644159Y-69748400D01*
X44626763Y-69925027D01*
X44592416Y-70038253D01*
X44575243Y-70094867D01*
X44545886Y-70149789D01*
X44491578Y-70251391D01*
X44462367Y-70286985D01*
X44378986Y-70388586D01*
X44281325Y-70468733D01*
X44241791Y-70501178D01*
X44241789Y-70501179D01*
X44085267Y-70584843D01*
X44028653Y-70602016D01*
X43915427Y-70636363D01*
X43849242Y-70642882D01*
X43783060Y-70649400D01*
X43694540Y-70649400D01*
X43628358Y-70642882D01*
X43562173Y-70636363D01*
X43448947Y-70602016D01*
X43392333Y-70584843D01*
X43235811Y-70501179D01*
X43235809Y-70501178D01*
X43196275Y-70468733D01*
X43098614Y-70388586D01*
X43015233Y-70286985D01*
X42986022Y-70251391D01*
X42931714Y-70149789D01*
X42902357Y-70094867D01*
X42885184Y-70038253D01*
X42850837Y-69925027D01*
X42833441Y-69748400D01*
X42850837Y-69571773D01*
X42902357Y-69401934D01*
X42902357Y-69401933D01*
X42986021Y-69245411D01*
X42986022Y-69245409D01*
X43015352Y-69209671D01*
X43098614Y-69108214D01*
X43200071Y-69024952D01*
X43235809Y-68995622D01*
X43253713Y-68986052D01*
X43392333Y-68911957D01*
X43451461Y-68894021D01*
X43562173Y-68860437D01*
X43628358Y-68853918D01*
X43694540Y-68847400D01*
X43783060Y-68847400D01*
X43849242Y-68853918D01*
X43849242Y-68853918D01*
G37*
G36*
X41309242Y-68853918D02*
X41375427Y-68860437D01*
X41486139Y-68894021D01*
X41545267Y-68911957D01*
X41683887Y-68986052D01*
X41701791Y-68995622D01*
X41737529Y-69024952D01*
X41838986Y-69108214D01*
X41922248Y-69209671D01*
X41951578Y-69245409D01*
X41951579Y-69245411D01*
X42035243Y-69401933D01*
X42035243Y-69401934D01*
X42086763Y-69571773D01*
X42104159Y-69748400D01*
X42086763Y-69925027D01*
X42052416Y-70038253D01*
X42035243Y-70094867D01*
X42005886Y-70149789D01*
X41951578Y-70251391D01*
X41922367Y-70286985D01*
X41838986Y-70388586D01*
X41741325Y-70468733D01*
X41701791Y-70501178D01*
X41701789Y-70501179D01*
X41545267Y-70584843D01*
X41488653Y-70602016D01*
X41375427Y-70636363D01*
X41309242Y-70642882D01*
X41243060Y-70649400D01*
X41154540Y-70649400D01*
X41088358Y-70642882D01*
X41022173Y-70636363D01*
X40908947Y-70602016D01*
X40852333Y-70584843D01*
X40695811Y-70501179D01*
X40695809Y-70501178D01*
X40656275Y-70468733D01*
X40558614Y-70388586D01*
X40475233Y-70286985D01*
X40446022Y-70251391D01*
X40391714Y-70149789D01*
X40362357Y-70094867D01*
X40345184Y-70038253D01*
X40310837Y-69925027D01*
X40293441Y-69748400D01*
X40310837Y-69571773D01*
X40362357Y-69401934D01*
X40362357Y-69401933D01*
X40446021Y-69245411D01*
X40446022Y-69245409D01*
X40475352Y-69209671D01*
X40558614Y-69108214D01*
X40660071Y-69024952D01*
X40695809Y-68995622D01*
X40713713Y-68986052D01*
X40852333Y-68911957D01*
X40911461Y-68894021D01*
X41022173Y-68860437D01*
X41088358Y-68853918D01*
X41154540Y-68847400D01*
X41243060Y-68847400D01*
X41309242Y-68853918D01*
X41309242Y-68853918D01*
G37*
G36*
X85606843Y-68752319D02*
X85673027Y-68758837D01*
X85786253Y-68793184D01*
X85842867Y-68810357D01*
X85981487Y-68884452D01*
X85999391Y-68894022D01*
X86035129Y-68923352D01*
X86136586Y-69006614D01*
X86219848Y-69108071D01*
X86249178Y-69143809D01*
X86249179Y-69143811D01*
X86332843Y-69300333D01*
X86332843Y-69300334D01*
X86384363Y-69470173D01*
X86401759Y-69646800D01*
X86384363Y-69823427D01*
X86356827Y-69914200D01*
X86332843Y-69993267D01*
X86295879Y-70062421D01*
X86249178Y-70149791D01*
X86228478Y-70175014D01*
X86136586Y-70286986D01*
X86035129Y-70370248D01*
X85999391Y-70399578D01*
X85999389Y-70399579D01*
X85842867Y-70483243D01*
X85786253Y-70500416D01*
X85673027Y-70534763D01*
X85606843Y-70541281D01*
X85540660Y-70547800D01*
X85452140Y-70547800D01*
X85385957Y-70541281D01*
X85319773Y-70534763D01*
X85206547Y-70500416D01*
X85149933Y-70483243D01*
X84993411Y-70399579D01*
X84993409Y-70399578D01*
X84957671Y-70370248D01*
X84856214Y-70286986D01*
X84764322Y-70175014D01*
X84743622Y-70149791D01*
X84696921Y-70062421D01*
X84659957Y-69993267D01*
X84635973Y-69914200D01*
X84608437Y-69823427D01*
X84591041Y-69646800D01*
X84608437Y-69470173D01*
X84659957Y-69300334D01*
X84659957Y-69300333D01*
X84743621Y-69143811D01*
X84743622Y-69143809D01*
X84772952Y-69108071D01*
X84856214Y-69006614D01*
X84957671Y-68923352D01*
X84993409Y-68894022D01*
X85011313Y-68884452D01*
X85149933Y-68810357D01*
X85206547Y-68793184D01*
X85319773Y-68758837D01*
X85385957Y-68752319D01*
X85452140Y-68745800D01*
X85540660Y-68745800D01*
X85606843Y-68752319D01*
X85606843Y-68752319D01*
G37*
G36*
X83857400Y-70547800D02*
X82055400Y-70547800D01*
X82055400Y-68745800D01*
X83857400Y-68745800D01*
X83857400Y-70547800D01*
X83857400Y-70547800D01*
G37*
G36*
X42099800Y-68109400D02*
X40297800Y-68109400D01*
X40297800Y-66307400D01*
X42099800Y-66307400D01*
X42099800Y-68109400D01*
X42099800Y-68109400D01*
G37*
G36*
X43849243Y-66313919D02*
X43915427Y-66320437D01*
X44028653Y-66354784D01*
X44085267Y-66371957D01*
X44223887Y-66446052D01*
X44241791Y-66455622D01*
X44277529Y-66484952D01*
X44378986Y-66568214D01*
X44462248Y-66669671D01*
X44491578Y-66705409D01*
X44491579Y-66705411D01*
X44575243Y-66861933D01*
X44575243Y-66861934D01*
X44626763Y-67031773D01*
X44644159Y-67208400D01*
X44626763Y-67385027D01*
X44592416Y-67498253D01*
X44575243Y-67554867D01*
X44501148Y-67693487D01*
X44491578Y-67711391D01*
X44462248Y-67747129D01*
X44378986Y-67848586D01*
X44277529Y-67931848D01*
X44241791Y-67961178D01*
X44241789Y-67961179D01*
X44085267Y-68044843D01*
X44028653Y-68062016D01*
X43915427Y-68096363D01*
X43849243Y-68102881D01*
X43783060Y-68109400D01*
X43694540Y-68109400D01*
X43628357Y-68102881D01*
X43562173Y-68096363D01*
X43448947Y-68062016D01*
X43392333Y-68044843D01*
X43235811Y-67961179D01*
X43235809Y-67961178D01*
X43200071Y-67931848D01*
X43098614Y-67848586D01*
X43015352Y-67747129D01*
X42986022Y-67711391D01*
X42976452Y-67693487D01*
X42902357Y-67554867D01*
X42885184Y-67498253D01*
X42850837Y-67385027D01*
X42833441Y-67208400D01*
X42850837Y-67031773D01*
X42902357Y-66861934D01*
X42902357Y-66861933D01*
X42986021Y-66705411D01*
X42986022Y-66705409D01*
X43015352Y-66669671D01*
X43098614Y-66568214D01*
X43200071Y-66484952D01*
X43235809Y-66455622D01*
X43253713Y-66446052D01*
X43392333Y-66371957D01*
X43448947Y-66354784D01*
X43562173Y-66320437D01*
X43628357Y-66313919D01*
X43694540Y-66307400D01*
X43783060Y-66307400D01*
X43849243Y-66313919D01*
X43849243Y-66313919D01*
G37*
G36*
X116850200Y-63943800D02*
X115048200Y-63943800D01*
X115048200Y-62141800D01*
X116850200Y-62141800D01*
X116850200Y-63943800D01*
X116850200Y-63943800D01*
G37*
G36*
X118599643Y-62148319D02*
X118665827Y-62154837D01*
X118776249Y-62188333D01*
X118835667Y-62206357D01*
X118974287Y-62280452D01*
X118992191Y-62290022D01*
X119027929Y-62319352D01*
X119129386Y-62402614D01*
X119212648Y-62504071D01*
X119241978Y-62539809D01*
X119241979Y-62539811D01*
X119325643Y-62696333D01*
X119342816Y-62752947D01*
X119377163Y-62866173D01*
X119394559Y-63042800D01*
X119377163Y-63219427D01*
X119356489Y-63287579D01*
X119325643Y-63389267D01*
X119300770Y-63435800D01*
X119241978Y-63545791D01*
X119212648Y-63581529D01*
X119129386Y-63682986D01*
X119027929Y-63766248D01*
X118992191Y-63795578D01*
X118992189Y-63795579D01*
X118835667Y-63879243D01*
X118779053Y-63896416D01*
X118665827Y-63930763D01*
X118599643Y-63937281D01*
X118533460Y-63943800D01*
X118444940Y-63943800D01*
X118378757Y-63937281D01*
X118312573Y-63930763D01*
X118199347Y-63896416D01*
X118142733Y-63879243D01*
X117986211Y-63795579D01*
X117986209Y-63795578D01*
X117950471Y-63766248D01*
X117849014Y-63682986D01*
X117765752Y-63581529D01*
X117736422Y-63545791D01*
X117677630Y-63435800D01*
X117652757Y-63389267D01*
X117621911Y-63287579D01*
X117601237Y-63219427D01*
X117583841Y-63042800D01*
X117601237Y-62866173D01*
X117635584Y-62752947D01*
X117652757Y-62696333D01*
X117736421Y-62539811D01*
X117736422Y-62539809D01*
X117765752Y-62504071D01*
X117849014Y-62402614D01*
X117950471Y-62319352D01*
X117986209Y-62290022D01*
X118004113Y-62280452D01*
X118142733Y-62206357D01*
X118202151Y-62188333D01*
X118312573Y-62154837D01*
X118378757Y-62148319D01*
X118444940Y-62141800D01*
X118533460Y-62141800D01*
X118599643Y-62148319D01*
X118599643Y-62148319D01*
G37*
G36*
X61505400Y-63435800D02*
X59703400Y-63435800D01*
X59703400Y-61633800D01*
X61505400Y-61633800D01*
X61505400Y-63435800D01*
X61505400Y-63435800D01*
G37*
G36*
X63254843Y-61640319D02*
X63321027Y-61646837D01*
X63434253Y-61681184D01*
X63490867Y-61698357D01*
X63629487Y-61772452D01*
X63647391Y-61782022D01*
X63683129Y-61811352D01*
X63784586Y-61894614D01*
X63867848Y-61996071D01*
X63897178Y-62031809D01*
X63897179Y-62031811D01*
X63980843Y-62188333D01*
X63980843Y-62188334D01*
X64032363Y-62358173D01*
X64049759Y-62534800D01*
X64032363Y-62711427D01*
X63998016Y-62824653D01*
X63980843Y-62881267D01*
X63906748Y-63019887D01*
X63897178Y-63037791D01*
X63893067Y-63042800D01*
X63784586Y-63174986D01*
X63683129Y-63258248D01*
X63647391Y-63287578D01*
X63647389Y-63287579D01*
X63490867Y-63371243D01*
X63434253Y-63388416D01*
X63321027Y-63422763D01*
X63254842Y-63429282D01*
X63188660Y-63435800D01*
X63100140Y-63435800D01*
X63033958Y-63429282D01*
X62967773Y-63422763D01*
X62854547Y-63388416D01*
X62797933Y-63371243D01*
X62641411Y-63287579D01*
X62641409Y-63287578D01*
X62605671Y-63258248D01*
X62504214Y-63174986D01*
X62395733Y-63042800D01*
X62391622Y-63037791D01*
X62382052Y-63019887D01*
X62307957Y-62881267D01*
X62290784Y-62824653D01*
X62256437Y-62711427D01*
X62239041Y-62534800D01*
X62256437Y-62358173D01*
X62307957Y-62188334D01*
X62307957Y-62188333D01*
X62391621Y-62031811D01*
X62391622Y-62031809D01*
X62420952Y-61996071D01*
X62504214Y-61894614D01*
X62605671Y-61811352D01*
X62641409Y-61782022D01*
X62659313Y-61772452D01*
X62797933Y-61698357D01*
X62854547Y-61681184D01*
X62967773Y-61646837D01*
X63033957Y-61640319D01*
X63100140Y-61633800D01*
X63188660Y-61633800D01*
X63254843Y-61640319D01*
X63254843Y-61640319D01*
G37*
G36*
X116059642Y-59608318D02*
X116125827Y-59614837D01*
X116239053Y-59649184D01*
X116295667Y-59666357D01*
X116434287Y-59740452D01*
X116452191Y-59750022D01*
X116487929Y-59779352D01*
X116589386Y-59862614D01*
X116672648Y-59964071D01*
X116701978Y-59999809D01*
X116701979Y-59999811D01*
X116785643Y-60156333D01*
X116785643Y-60156334D01*
X116837163Y-60326173D01*
X116854559Y-60502800D01*
X116837163Y-60679427D01*
X116802816Y-60792653D01*
X116785643Y-60849267D01*
X116711548Y-60987887D01*
X116701978Y-61005791D01*
X116672648Y-61041529D01*
X116589386Y-61142986D01*
X116487929Y-61226248D01*
X116452191Y-61255578D01*
X116452189Y-61255579D01*
X116295667Y-61339243D01*
X116239053Y-61356416D01*
X116125827Y-61390763D01*
X116059643Y-61397281D01*
X115993460Y-61403800D01*
X115904940Y-61403800D01*
X115838757Y-61397281D01*
X115772573Y-61390763D01*
X115659347Y-61356416D01*
X115602733Y-61339243D01*
X115446211Y-61255579D01*
X115446209Y-61255578D01*
X115410471Y-61226248D01*
X115309014Y-61142986D01*
X115225752Y-61041529D01*
X115196422Y-61005791D01*
X115186852Y-60987887D01*
X115112757Y-60849267D01*
X115095584Y-60792653D01*
X115061237Y-60679427D01*
X115043841Y-60502800D01*
X115061237Y-60326173D01*
X115112757Y-60156334D01*
X115112757Y-60156333D01*
X115196421Y-59999811D01*
X115196422Y-59999809D01*
X115225752Y-59964071D01*
X115309014Y-59862614D01*
X115410471Y-59779352D01*
X115446209Y-59750022D01*
X115464113Y-59740452D01*
X115602733Y-59666357D01*
X115659347Y-59649184D01*
X115772573Y-59614837D01*
X115838758Y-59608318D01*
X115904940Y-59601800D01*
X115993460Y-59601800D01*
X116059642Y-59608318D01*
X116059642Y-59608318D01*
G37*
G36*
X118599642Y-59608318D02*
X118665827Y-59614837D01*
X118779053Y-59649184D01*
X118835667Y-59666357D01*
X118974287Y-59740452D01*
X118992191Y-59750022D01*
X119027929Y-59779352D01*
X119129386Y-59862614D01*
X119212648Y-59964071D01*
X119241978Y-59999809D01*
X119241979Y-59999811D01*
X119325643Y-60156333D01*
X119325643Y-60156334D01*
X119377163Y-60326173D01*
X119394559Y-60502800D01*
X119377163Y-60679427D01*
X119342816Y-60792653D01*
X119325643Y-60849267D01*
X119251548Y-60987887D01*
X119241978Y-61005791D01*
X119212648Y-61041529D01*
X119129386Y-61142986D01*
X119027929Y-61226248D01*
X118992191Y-61255578D01*
X118992189Y-61255579D01*
X118835667Y-61339243D01*
X118779053Y-61356416D01*
X118665827Y-61390763D01*
X118599643Y-61397281D01*
X118533460Y-61403800D01*
X118444940Y-61403800D01*
X118378757Y-61397281D01*
X118312573Y-61390763D01*
X118199347Y-61356416D01*
X118142733Y-61339243D01*
X117986211Y-61255579D01*
X117986209Y-61255578D01*
X117950471Y-61226248D01*
X117849014Y-61142986D01*
X117765752Y-61041529D01*
X117736422Y-61005791D01*
X117726852Y-60987887D01*
X117652757Y-60849267D01*
X117635584Y-60792653D01*
X117601237Y-60679427D01*
X117583841Y-60502800D01*
X117601237Y-60326173D01*
X117652757Y-60156334D01*
X117652757Y-60156333D01*
X117736421Y-59999811D01*
X117736422Y-59999809D01*
X117765752Y-59964071D01*
X117849014Y-59862614D01*
X117950471Y-59779352D01*
X117986209Y-59750022D01*
X118004113Y-59740452D01*
X118142733Y-59666357D01*
X118199347Y-59649184D01*
X118312573Y-59614837D01*
X118378758Y-59608318D01*
X118444940Y-59601800D01*
X118533460Y-59601800D01*
X118599642Y-59608318D01*
X118599642Y-59608318D01*
G37*
G36*
X118599643Y-57068319D02*
X118665827Y-57074837D01*
X118779053Y-57109184D01*
X118835667Y-57126357D01*
X118974287Y-57200452D01*
X118992191Y-57210022D01*
X119027929Y-57239352D01*
X119129386Y-57322614D01*
X119212648Y-57424071D01*
X119241978Y-57459809D01*
X119241979Y-57459811D01*
X119325643Y-57616333D01*
X119325643Y-57616334D01*
X119377163Y-57786173D01*
X119394559Y-57962800D01*
X119377163Y-58139427D01*
X119342816Y-58252653D01*
X119325643Y-58309267D01*
X119251548Y-58447887D01*
X119241978Y-58465791D01*
X119212648Y-58501529D01*
X119129386Y-58602986D01*
X119027929Y-58686248D01*
X118992191Y-58715578D01*
X118992189Y-58715579D01*
X118835667Y-58799243D01*
X118779053Y-58816416D01*
X118665827Y-58850763D01*
X118599642Y-58857282D01*
X118533460Y-58863800D01*
X118444940Y-58863800D01*
X118378758Y-58857282D01*
X118312573Y-58850763D01*
X118199347Y-58816416D01*
X118142733Y-58799243D01*
X117986211Y-58715579D01*
X117986209Y-58715578D01*
X117950471Y-58686248D01*
X117849014Y-58602986D01*
X117765752Y-58501529D01*
X117736422Y-58465791D01*
X117726852Y-58447887D01*
X117652757Y-58309267D01*
X117635584Y-58252653D01*
X117601237Y-58139427D01*
X117583841Y-57962800D01*
X117601237Y-57786173D01*
X117652757Y-57616334D01*
X117652757Y-57616333D01*
X117736421Y-57459811D01*
X117736422Y-57459809D01*
X117765752Y-57424071D01*
X117849014Y-57322614D01*
X117950471Y-57239352D01*
X117986209Y-57210022D01*
X118004113Y-57200452D01*
X118142733Y-57126357D01*
X118199347Y-57109184D01*
X118312573Y-57074837D01*
X118378757Y-57068319D01*
X118444940Y-57061800D01*
X118533460Y-57061800D01*
X118599643Y-57068319D01*
X118599643Y-57068319D01*
G37*
G36*
X116059643Y-57068319D02*
X116125827Y-57074837D01*
X116239053Y-57109184D01*
X116295667Y-57126357D01*
X116434287Y-57200452D01*
X116452191Y-57210022D01*
X116487929Y-57239352D01*
X116589386Y-57322614D01*
X116672648Y-57424071D01*
X116701978Y-57459809D01*
X116701979Y-57459811D01*
X116785643Y-57616333D01*
X116785643Y-57616334D01*
X116837163Y-57786173D01*
X116854559Y-57962800D01*
X116837163Y-58139427D01*
X116802816Y-58252653D01*
X116785643Y-58309267D01*
X116711548Y-58447887D01*
X116701978Y-58465791D01*
X116672648Y-58501529D01*
X116589386Y-58602986D01*
X116487929Y-58686248D01*
X116452191Y-58715578D01*
X116452189Y-58715579D01*
X116295667Y-58799243D01*
X116239053Y-58816416D01*
X116125827Y-58850763D01*
X116059642Y-58857282D01*
X115993460Y-58863800D01*
X115904940Y-58863800D01*
X115838758Y-58857282D01*
X115772573Y-58850763D01*
X115659347Y-58816416D01*
X115602733Y-58799243D01*
X115446211Y-58715579D01*
X115446209Y-58715578D01*
X115410471Y-58686248D01*
X115309014Y-58602986D01*
X115225752Y-58501529D01*
X115196422Y-58465791D01*
X115186852Y-58447887D01*
X115112757Y-58309267D01*
X115095584Y-58252653D01*
X115061237Y-58139427D01*
X115043841Y-57962800D01*
X115061237Y-57786173D01*
X115112757Y-57616334D01*
X115112757Y-57616333D01*
X115196421Y-57459811D01*
X115196422Y-57459809D01*
X115225752Y-57424071D01*
X115309014Y-57322614D01*
X115410471Y-57239352D01*
X115446209Y-57210022D01*
X115464113Y-57200452D01*
X115602733Y-57126357D01*
X115659347Y-57109184D01*
X115772573Y-57074837D01*
X115838757Y-57068319D01*
X115904940Y-57061800D01*
X115993460Y-57061800D01*
X116059643Y-57068319D01*
X116059643Y-57068319D01*
G37*
G36*
X100592842Y-55137918D02*
X100659027Y-55144437D01*
X100772253Y-55178784D01*
X100828867Y-55195957D01*
X100922813Y-55246173D01*
X100985391Y-55279622D01*
X101021129Y-55308952D01*
X101122586Y-55392214D01*
X101205848Y-55493671D01*
X101235178Y-55529409D01*
X101235179Y-55529411D01*
X101318843Y-55685933D01*
X101318843Y-55685934D01*
X101370363Y-55855773D01*
X101387759Y-56032400D01*
X101370363Y-56209027D01*
X101355130Y-56259243D01*
X101318843Y-56378867D01*
X101244748Y-56517487D01*
X101235178Y-56535391D01*
X101205848Y-56571129D01*
X101122586Y-56672586D01*
X101021129Y-56755848D01*
X100985391Y-56785178D01*
X100985389Y-56785179D01*
X100828867Y-56868843D01*
X100772253Y-56886016D01*
X100659027Y-56920363D01*
X100592842Y-56926882D01*
X100526660Y-56933400D01*
X100438140Y-56933400D01*
X100371958Y-56926882D01*
X100305773Y-56920363D01*
X100192547Y-56886016D01*
X100135933Y-56868843D01*
X99979411Y-56785179D01*
X99979409Y-56785178D01*
X99943671Y-56755848D01*
X99842214Y-56672586D01*
X99758952Y-56571129D01*
X99729622Y-56535391D01*
X99720052Y-56517487D01*
X99645957Y-56378867D01*
X99609670Y-56259243D01*
X99594437Y-56209027D01*
X99577041Y-56032400D01*
X99594437Y-55855773D01*
X99645957Y-55685934D01*
X99645957Y-55685933D01*
X99729621Y-55529411D01*
X99729622Y-55529409D01*
X99758952Y-55493671D01*
X99842214Y-55392214D01*
X99943671Y-55308952D01*
X99979409Y-55279622D01*
X100041987Y-55246173D01*
X100135933Y-55195957D01*
X100192547Y-55178784D01*
X100305773Y-55144437D01*
X100371958Y-55137918D01*
X100438140Y-55131400D01*
X100526660Y-55131400D01*
X100592842Y-55137918D01*
X100592842Y-55137918D01*
G37*
G36*
X103132842Y-55137918D02*
X103199027Y-55144437D01*
X103312253Y-55178784D01*
X103368867Y-55195957D01*
X103462813Y-55246173D01*
X103525391Y-55279622D01*
X103561129Y-55308952D01*
X103662586Y-55392214D01*
X103745848Y-55493671D01*
X103775178Y-55529409D01*
X103775179Y-55529411D01*
X103858843Y-55685933D01*
X103858843Y-55685934D01*
X103910363Y-55855773D01*
X103927759Y-56032400D01*
X103910363Y-56209027D01*
X103895130Y-56259243D01*
X103858843Y-56378867D01*
X103784748Y-56517487D01*
X103775178Y-56535391D01*
X103745848Y-56571129D01*
X103662586Y-56672586D01*
X103561129Y-56755848D01*
X103525391Y-56785178D01*
X103525389Y-56785179D01*
X103368867Y-56868843D01*
X103312253Y-56886016D01*
X103199027Y-56920363D01*
X103132842Y-56926882D01*
X103066660Y-56933400D01*
X102978140Y-56933400D01*
X102911958Y-56926882D01*
X102845773Y-56920363D01*
X102732547Y-56886016D01*
X102675933Y-56868843D01*
X102519411Y-56785179D01*
X102519409Y-56785178D01*
X102483671Y-56755848D01*
X102382214Y-56672586D01*
X102298952Y-56571129D01*
X102269622Y-56535391D01*
X102260052Y-56517487D01*
X102185957Y-56378867D01*
X102149670Y-56259243D01*
X102134437Y-56209027D01*
X102117041Y-56032400D01*
X102134437Y-55855773D01*
X102185957Y-55685934D01*
X102185957Y-55685933D01*
X102269621Y-55529411D01*
X102269622Y-55529409D01*
X102298952Y-55493671D01*
X102382214Y-55392214D01*
X102483671Y-55308952D01*
X102519409Y-55279622D01*
X102581987Y-55246173D01*
X102675933Y-55195957D01*
X102732547Y-55178784D01*
X102845773Y-55144437D01*
X102911958Y-55137918D01*
X102978140Y-55131400D01*
X103066660Y-55131400D01*
X103132842Y-55137918D01*
X103132842Y-55137918D01*
G37*
G36*
X118599643Y-54528319D02*
X118665827Y-54534837D01*
X118779053Y-54569184D01*
X118835667Y-54586357D01*
X118974287Y-54660452D01*
X118992191Y-54670022D01*
X119027929Y-54699352D01*
X119129386Y-54782614D01*
X119212648Y-54884071D01*
X119241978Y-54919809D01*
X119241979Y-54919811D01*
X119325643Y-55076333D01*
X119325643Y-55076334D01*
X119377163Y-55246173D01*
X119394559Y-55422800D01*
X119377163Y-55599427D01*
X119350922Y-55685933D01*
X119325643Y-55769267D01*
X119279404Y-55855773D01*
X119241978Y-55925791D01*
X119212648Y-55961529D01*
X119129386Y-56062986D01*
X119027929Y-56146248D01*
X118992191Y-56175578D01*
X118992189Y-56175579D01*
X118835667Y-56259243D01*
X118779053Y-56276416D01*
X118665827Y-56310763D01*
X118599642Y-56317282D01*
X118533460Y-56323800D01*
X118444940Y-56323800D01*
X118378758Y-56317282D01*
X118312573Y-56310763D01*
X118199347Y-56276416D01*
X118142733Y-56259243D01*
X117986211Y-56175579D01*
X117986209Y-56175578D01*
X117950471Y-56146248D01*
X117849014Y-56062986D01*
X117765752Y-55961529D01*
X117736422Y-55925791D01*
X117698996Y-55855773D01*
X117652757Y-55769267D01*
X117627478Y-55685933D01*
X117601237Y-55599427D01*
X117583841Y-55422800D01*
X117601237Y-55246173D01*
X117652757Y-55076334D01*
X117652757Y-55076333D01*
X117736421Y-54919811D01*
X117736422Y-54919809D01*
X117765752Y-54884071D01*
X117849014Y-54782614D01*
X117950471Y-54699352D01*
X117986209Y-54670022D01*
X118004113Y-54660452D01*
X118142733Y-54586357D01*
X118199347Y-54569184D01*
X118312573Y-54534837D01*
X118378757Y-54528319D01*
X118444940Y-54521800D01*
X118533460Y-54521800D01*
X118599643Y-54528319D01*
X118599643Y-54528319D01*
G37*
G36*
X116059643Y-54528319D02*
X116125827Y-54534837D01*
X116239053Y-54569184D01*
X116295667Y-54586357D01*
X116434287Y-54660452D01*
X116452191Y-54670022D01*
X116487929Y-54699352D01*
X116589386Y-54782614D01*
X116672648Y-54884071D01*
X116701978Y-54919809D01*
X116701979Y-54919811D01*
X116785643Y-55076333D01*
X116785643Y-55076334D01*
X116837163Y-55246173D01*
X116854559Y-55422800D01*
X116837163Y-55599427D01*
X116810922Y-55685933D01*
X116785643Y-55769267D01*
X116739404Y-55855773D01*
X116701978Y-55925791D01*
X116672648Y-55961529D01*
X116589386Y-56062986D01*
X116487929Y-56146248D01*
X116452191Y-56175578D01*
X116452189Y-56175579D01*
X116295667Y-56259243D01*
X116239053Y-56276416D01*
X116125827Y-56310763D01*
X116059642Y-56317282D01*
X115993460Y-56323800D01*
X115904940Y-56323800D01*
X115838758Y-56317282D01*
X115772573Y-56310763D01*
X115659347Y-56276416D01*
X115602733Y-56259243D01*
X115446211Y-56175579D01*
X115446209Y-56175578D01*
X115410471Y-56146248D01*
X115309014Y-56062986D01*
X115225752Y-55961529D01*
X115196422Y-55925791D01*
X115158996Y-55855773D01*
X115112757Y-55769267D01*
X115087478Y-55685933D01*
X115061237Y-55599427D01*
X115043841Y-55422800D01*
X115061237Y-55246173D01*
X115112757Y-55076334D01*
X115112757Y-55076333D01*
X115196421Y-54919811D01*
X115196422Y-54919809D01*
X115225752Y-54884071D01*
X115309014Y-54782614D01*
X115410471Y-54699352D01*
X115446209Y-54670022D01*
X115464113Y-54660452D01*
X115602733Y-54586357D01*
X115659347Y-54569184D01*
X115772573Y-54534837D01*
X115838757Y-54528319D01*
X115904940Y-54521800D01*
X115993460Y-54521800D01*
X116059643Y-54528319D01*
X116059643Y-54528319D01*
G37*
G36*
X100592842Y-52597918D02*
X100659027Y-52604437D01*
X100772253Y-52638784D01*
X100828867Y-52655957D01*
X100922813Y-52706173D01*
X100985391Y-52739622D01*
X101021129Y-52768952D01*
X101122586Y-52852214D01*
X101205848Y-52953671D01*
X101235178Y-52989409D01*
X101235179Y-52989411D01*
X101318843Y-53145933D01*
X101318843Y-53145934D01*
X101370363Y-53315773D01*
X101387759Y-53492400D01*
X101370363Y-53669027D01*
X101355130Y-53719243D01*
X101318843Y-53838867D01*
X101244748Y-53977487D01*
X101235178Y-53995391D01*
X101205848Y-54031129D01*
X101122586Y-54132586D01*
X101021129Y-54215848D01*
X100985391Y-54245178D01*
X100985389Y-54245179D01*
X100828867Y-54328843D01*
X100772253Y-54346016D01*
X100659027Y-54380363D01*
X100592843Y-54386881D01*
X100526660Y-54393400D01*
X100438140Y-54393400D01*
X100371957Y-54386881D01*
X100305773Y-54380363D01*
X100192547Y-54346016D01*
X100135933Y-54328843D01*
X99979411Y-54245179D01*
X99979409Y-54245178D01*
X99943671Y-54215848D01*
X99842214Y-54132586D01*
X99758952Y-54031129D01*
X99729622Y-53995391D01*
X99720052Y-53977487D01*
X99645957Y-53838867D01*
X99609670Y-53719243D01*
X99594437Y-53669027D01*
X99577041Y-53492400D01*
X99594437Y-53315773D01*
X99645957Y-53145934D01*
X99645957Y-53145933D01*
X99729621Y-52989411D01*
X99729622Y-52989409D01*
X99758952Y-52953671D01*
X99842214Y-52852214D01*
X99943671Y-52768952D01*
X99979409Y-52739622D01*
X100041987Y-52706173D01*
X100135933Y-52655957D01*
X100192547Y-52638784D01*
X100305773Y-52604437D01*
X100371958Y-52597918D01*
X100438140Y-52591400D01*
X100526660Y-52591400D01*
X100592842Y-52597918D01*
X100592842Y-52597918D01*
G37*
G36*
X103923400Y-54393400D02*
X102121400Y-54393400D01*
X102121400Y-52591400D01*
X103923400Y-52591400D01*
X103923400Y-54393400D01*
X103923400Y-54393400D01*
G37*
G36*
X116059642Y-51988318D02*
X116125827Y-51994837D01*
X116239053Y-52029184D01*
X116295667Y-52046357D01*
X116434287Y-52120452D01*
X116452191Y-52130022D01*
X116487929Y-52159352D01*
X116589386Y-52242614D01*
X116672648Y-52344071D01*
X116701978Y-52379809D01*
X116701979Y-52379811D01*
X116785643Y-52536333D01*
X116785643Y-52536334D01*
X116837163Y-52706173D01*
X116854559Y-52882800D01*
X116837163Y-53059427D01*
X116810922Y-53145933D01*
X116785643Y-53229267D01*
X116739404Y-53315773D01*
X116701978Y-53385791D01*
X116672648Y-53421529D01*
X116589386Y-53522986D01*
X116487929Y-53606248D01*
X116452191Y-53635578D01*
X116452189Y-53635579D01*
X116295667Y-53719243D01*
X116239053Y-53736416D01*
X116125827Y-53770763D01*
X116059643Y-53777281D01*
X115993460Y-53783800D01*
X115904940Y-53783800D01*
X115838757Y-53777281D01*
X115772573Y-53770763D01*
X115659347Y-53736416D01*
X115602733Y-53719243D01*
X115446211Y-53635579D01*
X115446209Y-53635578D01*
X115410471Y-53606248D01*
X115309014Y-53522986D01*
X115225752Y-53421529D01*
X115196422Y-53385791D01*
X115158996Y-53315773D01*
X115112757Y-53229267D01*
X115087478Y-53145933D01*
X115061237Y-53059427D01*
X115043841Y-52882800D01*
X115061237Y-52706173D01*
X115112757Y-52536334D01*
X115112757Y-52536333D01*
X115196421Y-52379811D01*
X115196422Y-52379809D01*
X115225752Y-52344071D01*
X115309014Y-52242614D01*
X115410471Y-52159352D01*
X115446209Y-52130022D01*
X115464113Y-52120452D01*
X115602733Y-52046357D01*
X115659347Y-52029184D01*
X115772573Y-51994837D01*
X115838758Y-51988318D01*
X115904940Y-51981800D01*
X115993460Y-51981800D01*
X116059642Y-51988318D01*
X116059642Y-51988318D01*
G37*
G36*
X118599642Y-51988318D02*
X118665827Y-51994837D01*
X118779053Y-52029184D01*
X118835667Y-52046357D01*
X118974287Y-52120452D01*
X118992191Y-52130022D01*
X119027929Y-52159352D01*
X119129386Y-52242614D01*
X119212648Y-52344071D01*
X119241978Y-52379809D01*
X119241979Y-52379811D01*
X119325643Y-52536333D01*
X119325643Y-52536334D01*
X119377163Y-52706173D01*
X119394559Y-52882800D01*
X119377163Y-53059427D01*
X119350922Y-53145933D01*
X119325643Y-53229267D01*
X119279404Y-53315773D01*
X119241978Y-53385791D01*
X119212648Y-53421529D01*
X119129386Y-53522986D01*
X119027929Y-53606248D01*
X118992191Y-53635578D01*
X118992189Y-53635579D01*
X118835667Y-53719243D01*
X118779053Y-53736416D01*
X118665827Y-53770763D01*
X118599643Y-53777281D01*
X118533460Y-53783800D01*
X118444940Y-53783800D01*
X118378757Y-53777281D01*
X118312573Y-53770763D01*
X118199347Y-53736416D01*
X118142733Y-53719243D01*
X117986211Y-53635579D01*
X117986209Y-53635578D01*
X117950471Y-53606248D01*
X117849014Y-53522986D01*
X117765752Y-53421529D01*
X117736422Y-53385791D01*
X117698996Y-53315773D01*
X117652757Y-53229267D01*
X117627478Y-53145933D01*
X117601237Y-53059427D01*
X117583841Y-52882800D01*
X117601237Y-52706173D01*
X117652757Y-52536334D01*
X117652757Y-52536333D01*
X117736421Y-52379811D01*
X117736422Y-52379809D01*
X117765752Y-52344071D01*
X117849014Y-52242614D01*
X117950471Y-52159352D01*
X117986209Y-52130022D01*
X118004113Y-52120452D01*
X118142733Y-52046357D01*
X118199347Y-52029184D01*
X118312573Y-51994837D01*
X118378758Y-51988318D01*
X118444940Y-51981800D01*
X118533460Y-51981800D01*
X118599642Y-51988318D01*
X118599642Y-51988318D01*
G37*
G36*
X116059643Y-49448319D02*
X116125827Y-49454837D01*
X116239053Y-49489184D01*
X116295667Y-49506357D01*
X116434287Y-49580452D01*
X116452191Y-49590022D01*
X116487929Y-49619352D01*
X116589386Y-49702614D01*
X116672648Y-49804071D01*
X116701978Y-49839809D01*
X116701979Y-49839811D01*
X116785643Y-49996333D01*
X116785643Y-49996334D01*
X116837163Y-50166173D01*
X116854559Y-50342800D01*
X116837163Y-50519427D01*
X116802816Y-50632653D01*
X116785643Y-50689267D01*
X116711548Y-50827887D01*
X116701978Y-50845791D01*
X116672648Y-50881529D01*
X116589386Y-50982986D01*
X116487929Y-51066248D01*
X116452191Y-51095578D01*
X116452189Y-51095579D01*
X116295667Y-51179243D01*
X116239053Y-51196416D01*
X116125827Y-51230763D01*
X116059642Y-51237282D01*
X115993460Y-51243800D01*
X115904940Y-51243800D01*
X115838757Y-51237281D01*
X115772573Y-51230763D01*
X115659347Y-51196416D01*
X115602733Y-51179243D01*
X115446211Y-51095579D01*
X115446209Y-51095578D01*
X115410471Y-51066248D01*
X115309014Y-50982986D01*
X115225752Y-50881529D01*
X115196422Y-50845791D01*
X115186852Y-50827887D01*
X115112757Y-50689267D01*
X115095584Y-50632653D01*
X115061237Y-50519427D01*
X115043841Y-50342800D01*
X115061237Y-50166173D01*
X115112757Y-49996334D01*
X115112757Y-49996333D01*
X115196421Y-49839811D01*
X115196422Y-49839809D01*
X115225752Y-49804071D01*
X115309014Y-49702614D01*
X115410471Y-49619352D01*
X115446209Y-49590022D01*
X115464113Y-49580452D01*
X115602733Y-49506357D01*
X115659347Y-49489184D01*
X115772573Y-49454837D01*
X115838757Y-49448319D01*
X115904940Y-49441800D01*
X115993460Y-49441800D01*
X116059643Y-49448319D01*
X116059643Y-49448319D01*
G37*
G36*
X118599643Y-49448319D02*
X118665827Y-49454837D01*
X118779053Y-49489184D01*
X118835667Y-49506357D01*
X118974287Y-49580452D01*
X118992191Y-49590022D01*
X119027929Y-49619352D01*
X119129386Y-49702614D01*
X119212648Y-49804071D01*
X119241978Y-49839809D01*
X119241979Y-49839811D01*
X119325643Y-49996333D01*
X119325643Y-49996334D01*
X119377163Y-50166173D01*
X119394559Y-50342800D01*
X119377163Y-50519427D01*
X119342816Y-50632653D01*
X119325643Y-50689267D01*
X119251548Y-50827887D01*
X119241978Y-50845791D01*
X119212648Y-50881529D01*
X119129386Y-50982986D01*
X119027929Y-51066248D01*
X118992191Y-51095578D01*
X118992189Y-51095579D01*
X118835667Y-51179243D01*
X118779053Y-51196416D01*
X118665827Y-51230763D01*
X118599642Y-51237282D01*
X118533460Y-51243800D01*
X118444940Y-51243800D01*
X118378757Y-51237281D01*
X118312573Y-51230763D01*
X118199347Y-51196416D01*
X118142733Y-51179243D01*
X117986211Y-51095579D01*
X117986209Y-51095578D01*
X117950471Y-51066248D01*
X117849014Y-50982986D01*
X117765752Y-50881529D01*
X117736422Y-50845791D01*
X117726852Y-50827887D01*
X117652757Y-50689267D01*
X117635584Y-50632653D01*
X117601237Y-50519427D01*
X117583841Y-50342800D01*
X117601237Y-50166173D01*
X117652757Y-49996334D01*
X117652757Y-49996333D01*
X117736421Y-49839811D01*
X117736422Y-49839809D01*
X117765752Y-49804071D01*
X117849014Y-49702614D01*
X117950471Y-49619352D01*
X117986209Y-49590022D01*
X118004113Y-49580452D01*
X118142733Y-49506357D01*
X118199347Y-49489184D01*
X118312573Y-49454837D01*
X118378757Y-49448319D01*
X118444940Y-49441800D01*
X118533460Y-49441800D01*
X118599643Y-49448319D01*
X118599643Y-49448319D01*
G37*
G36*
X116059642Y-46908318D02*
X116125827Y-46914837D01*
X116239053Y-46949184D01*
X116295667Y-46966357D01*
X116434287Y-47040452D01*
X116452191Y-47050022D01*
X116487929Y-47079352D01*
X116589386Y-47162614D01*
X116672648Y-47264071D01*
X116701978Y-47299809D01*
X116701979Y-47299811D01*
X116785643Y-47456333D01*
X116785643Y-47456334D01*
X116837163Y-47626173D01*
X116854559Y-47802800D01*
X116837163Y-47979427D01*
X116802816Y-48092653D01*
X116785643Y-48149267D01*
X116711548Y-48287887D01*
X116701978Y-48305791D01*
X116672648Y-48341529D01*
X116589386Y-48442986D01*
X116487929Y-48526248D01*
X116452191Y-48555578D01*
X116452189Y-48555579D01*
X116295667Y-48639243D01*
X116239053Y-48656416D01*
X116125827Y-48690763D01*
X116059642Y-48697282D01*
X115993460Y-48703800D01*
X115904940Y-48703800D01*
X115838758Y-48697282D01*
X115772573Y-48690763D01*
X115659347Y-48656416D01*
X115602733Y-48639243D01*
X115446211Y-48555579D01*
X115446209Y-48555578D01*
X115410471Y-48526248D01*
X115309014Y-48442986D01*
X115225752Y-48341529D01*
X115196422Y-48305791D01*
X115186852Y-48287887D01*
X115112757Y-48149267D01*
X115095584Y-48092653D01*
X115061237Y-47979427D01*
X115043841Y-47802800D01*
X115061237Y-47626173D01*
X115112757Y-47456334D01*
X115112757Y-47456333D01*
X115196421Y-47299811D01*
X115196422Y-47299809D01*
X115225752Y-47264071D01*
X115309014Y-47162614D01*
X115410471Y-47079352D01*
X115446209Y-47050022D01*
X115464113Y-47040452D01*
X115602733Y-46966357D01*
X115659347Y-46949184D01*
X115772573Y-46914837D01*
X115838758Y-46908318D01*
X115904940Y-46901800D01*
X115993460Y-46901800D01*
X116059642Y-46908318D01*
X116059642Y-46908318D01*
G37*
G36*
X118599642Y-46908318D02*
X118665827Y-46914837D01*
X118779053Y-46949184D01*
X118835667Y-46966357D01*
X118974287Y-47040452D01*
X118992191Y-47050022D01*
X119027929Y-47079352D01*
X119129386Y-47162614D01*
X119212648Y-47264071D01*
X119241978Y-47299809D01*
X119241979Y-47299811D01*
X119325643Y-47456333D01*
X119325643Y-47456334D01*
X119377163Y-47626173D01*
X119394559Y-47802800D01*
X119377163Y-47979427D01*
X119342816Y-48092653D01*
X119325643Y-48149267D01*
X119251548Y-48287887D01*
X119241978Y-48305791D01*
X119212648Y-48341529D01*
X119129386Y-48442986D01*
X119027929Y-48526248D01*
X118992191Y-48555578D01*
X118992189Y-48555579D01*
X118835667Y-48639243D01*
X118779053Y-48656416D01*
X118665827Y-48690763D01*
X118599642Y-48697282D01*
X118533460Y-48703800D01*
X118444940Y-48703800D01*
X118378758Y-48697282D01*
X118312573Y-48690763D01*
X118199347Y-48656416D01*
X118142733Y-48639243D01*
X117986211Y-48555579D01*
X117986209Y-48555578D01*
X117950471Y-48526248D01*
X117849014Y-48442986D01*
X117765752Y-48341529D01*
X117736422Y-48305791D01*
X117726852Y-48287887D01*
X117652757Y-48149267D01*
X117635584Y-48092653D01*
X117601237Y-47979427D01*
X117583841Y-47802800D01*
X117601237Y-47626173D01*
X117652757Y-47456334D01*
X117652757Y-47456333D01*
X117736421Y-47299811D01*
X117736422Y-47299809D01*
X117765752Y-47264071D01*
X117849014Y-47162614D01*
X117950471Y-47079352D01*
X117986209Y-47050022D01*
X118004113Y-47040452D01*
X118142733Y-46966357D01*
X118199347Y-46949184D01*
X118312573Y-46914837D01*
X118378758Y-46908318D01*
X118444940Y-46901800D01*
X118533460Y-46901800D01*
X118599642Y-46908318D01*
X118599642Y-46908318D01*
G37*
G36*
X116059642Y-44368318D02*
X116125827Y-44374837D01*
X116239053Y-44409184D01*
X116295667Y-44426357D01*
X116434287Y-44500452D01*
X116452191Y-44510022D01*
X116487929Y-44539352D01*
X116589386Y-44622614D01*
X116672648Y-44724071D01*
X116701978Y-44759809D01*
X116701979Y-44759811D01*
X116785643Y-44916333D01*
X116785643Y-44916334D01*
X116837163Y-45086173D01*
X116854559Y-45262800D01*
X116837163Y-45439427D01*
X116802816Y-45552653D01*
X116785643Y-45609267D01*
X116711548Y-45747887D01*
X116701978Y-45765791D01*
X116672648Y-45801529D01*
X116589386Y-45902986D01*
X116487929Y-45986248D01*
X116452191Y-46015578D01*
X116452189Y-46015579D01*
X116295667Y-46099243D01*
X116239053Y-46116416D01*
X116125827Y-46150763D01*
X116059643Y-46157281D01*
X115993460Y-46163800D01*
X115904940Y-46163800D01*
X115838757Y-46157281D01*
X115772573Y-46150763D01*
X115659347Y-46116416D01*
X115602733Y-46099243D01*
X115446211Y-46015579D01*
X115446209Y-46015578D01*
X115410471Y-45986248D01*
X115309014Y-45902986D01*
X115225752Y-45801529D01*
X115196422Y-45765791D01*
X115186852Y-45747887D01*
X115112757Y-45609267D01*
X115095584Y-45552653D01*
X115061237Y-45439427D01*
X115043841Y-45262800D01*
X115061237Y-45086173D01*
X115112757Y-44916334D01*
X115112757Y-44916333D01*
X115196421Y-44759811D01*
X115196422Y-44759809D01*
X115225752Y-44724071D01*
X115309014Y-44622614D01*
X115410471Y-44539352D01*
X115446209Y-44510022D01*
X115464113Y-44500452D01*
X115602733Y-44426357D01*
X115659347Y-44409184D01*
X115772573Y-44374837D01*
X115838758Y-44368318D01*
X115904940Y-44361800D01*
X115993460Y-44361800D01*
X116059642Y-44368318D01*
X116059642Y-44368318D01*
G37*
G36*
X118599642Y-44368318D02*
X118665827Y-44374837D01*
X118779053Y-44409184D01*
X118835667Y-44426357D01*
X118974287Y-44500452D01*
X118992191Y-44510022D01*
X119027929Y-44539352D01*
X119129386Y-44622614D01*
X119212648Y-44724071D01*
X119241978Y-44759809D01*
X119241979Y-44759811D01*
X119325643Y-44916333D01*
X119325643Y-44916334D01*
X119377163Y-45086173D01*
X119394559Y-45262800D01*
X119377163Y-45439427D01*
X119342816Y-45552653D01*
X119325643Y-45609267D01*
X119251548Y-45747887D01*
X119241978Y-45765791D01*
X119212648Y-45801529D01*
X119129386Y-45902986D01*
X119027929Y-45986248D01*
X118992191Y-46015578D01*
X118992189Y-46015579D01*
X118835667Y-46099243D01*
X118779053Y-46116416D01*
X118665827Y-46150763D01*
X118599643Y-46157281D01*
X118533460Y-46163800D01*
X118444940Y-46163800D01*
X118378757Y-46157281D01*
X118312573Y-46150763D01*
X118199347Y-46116416D01*
X118142733Y-46099243D01*
X117986211Y-46015579D01*
X117986209Y-46015578D01*
X117950471Y-45986248D01*
X117849014Y-45902986D01*
X117765752Y-45801529D01*
X117736422Y-45765791D01*
X117726852Y-45747887D01*
X117652757Y-45609267D01*
X117635584Y-45552653D01*
X117601237Y-45439427D01*
X117583841Y-45262800D01*
X117601237Y-45086173D01*
X117652757Y-44916334D01*
X117652757Y-44916333D01*
X117736421Y-44759811D01*
X117736422Y-44759809D01*
X117765752Y-44724071D01*
X117849014Y-44622614D01*
X117950471Y-44539352D01*
X117986209Y-44510022D01*
X118004113Y-44500452D01*
X118142733Y-44426357D01*
X118199347Y-44409184D01*
X118312573Y-44374837D01*
X118378758Y-44368318D01*
X118444940Y-44361800D01*
X118533460Y-44361800D01*
X118599642Y-44368318D01*
X118599642Y-44368318D01*
G37*
G36*
X96862200Y-45452600D02*
X95060200Y-45452600D01*
X95060200Y-43650600D01*
X96862200Y-43650600D01*
X96862200Y-45452600D01*
X96862200Y-45452600D01*
G37*
G36*
X98611642Y-43657118D02*
X98677827Y-43663637D01*
X98791053Y-43697984D01*
X98847667Y-43715157D01*
X98986287Y-43789252D01*
X99004191Y-43798822D01*
X99039929Y-43828152D01*
X99141386Y-43911414D01*
X99224648Y-44012871D01*
X99253978Y-44048609D01*
X99253979Y-44048611D01*
X99337643Y-44205133D01*
X99337643Y-44205134D01*
X99389163Y-44374973D01*
X99406559Y-44551600D01*
X99389163Y-44728227D01*
X99379582Y-44759811D01*
X99337643Y-44898067D01*
X99263548Y-45036687D01*
X99253978Y-45054591D01*
X99228059Y-45086173D01*
X99141386Y-45191786D01*
X99054854Y-45262800D01*
X99004191Y-45304378D01*
X99004189Y-45304379D01*
X98847667Y-45388043D01*
X98791053Y-45405216D01*
X98677827Y-45439563D01*
X98611643Y-45446081D01*
X98545460Y-45452600D01*
X98456940Y-45452600D01*
X98390758Y-45446082D01*
X98324573Y-45439563D01*
X98211347Y-45405216D01*
X98154733Y-45388043D01*
X97998211Y-45304379D01*
X97998209Y-45304378D01*
X97947546Y-45262800D01*
X97861014Y-45191786D01*
X97774341Y-45086173D01*
X97748422Y-45054591D01*
X97738852Y-45036687D01*
X97664757Y-44898067D01*
X97622818Y-44759811D01*
X97613237Y-44728227D01*
X97595841Y-44551600D01*
X97613237Y-44374973D01*
X97664757Y-44205134D01*
X97664757Y-44205133D01*
X97748421Y-44048611D01*
X97748422Y-44048609D01*
X97777752Y-44012871D01*
X97861014Y-43911414D01*
X97962471Y-43828152D01*
X97998209Y-43798822D01*
X98016113Y-43789252D01*
X98154733Y-43715157D01*
X98211347Y-43697984D01*
X98324573Y-43663637D01*
X98390758Y-43657118D01*
X98456940Y-43650600D01*
X98545460Y-43650600D01*
X98611642Y-43657118D01*
X98611642Y-43657118D01*
G37*
G36*
X98611642Y-41117118D02*
X98677827Y-41123637D01*
X98791053Y-41157984D01*
X98847667Y-41175157D01*
X98986287Y-41249252D01*
X99004191Y-41258822D01*
X99039929Y-41288152D01*
X99141386Y-41371414D01*
X99224648Y-41472871D01*
X99253978Y-41508609D01*
X99253979Y-41508611D01*
X99337643Y-41665133D01*
X99337643Y-41665134D01*
X99389163Y-41834973D01*
X99406559Y-42011600D01*
X99389163Y-42188227D01*
X99354816Y-42301453D01*
X99337643Y-42358067D01*
X99263548Y-42496687D01*
X99253978Y-42514591D01*
X99224648Y-42550329D01*
X99141386Y-42651786D01*
X99039929Y-42735048D01*
X99004191Y-42764378D01*
X99004189Y-42764379D01*
X98847667Y-42848043D01*
X98791053Y-42865216D01*
X98677827Y-42899563D01*
X98611643Y-42906081D01*
X98545460Y-42912600D01*
X98456940Y-42912600D01*
X98390757Y-42906081D01*
X98324573Y-42899563D01*
X98211347Y-42865216D01*
X98154733Y-42848043D01*
X97998211Y-42764379D01*
X97998209Y-42764378D01*
X97962471Y-42735048D01*
X97861014Y-42651786D01*
X97777752Y-42550329D01*
X97748422Y-42514591D01*
X97738852Y-42496687D01*
X97664757Y-42358067D01*
X97647584Y-42301453D01*
X97613237Y-42188227D01*
X97595841Y-42011600D01*
X97613237Y-41834973D01*
X97664757Y-41665134D01*
X97664757Y-41665133D01*
X97748421Y-41508611D01*
X97748422Y-41508609D01*
X97777752Y-41472871D01*
X97861014Y-41371414D01*
X97962471Y-41288152D01*
X97998209Y-41258822D01*
X98016113Y-41249252D01*
X98154733Y-41175157D01*
X98211347Y-41157984D01*
X98324573Y-41123637D01*
X98390758Y-41117118D01*
X98456940Y-41110600D01*
X98545460Y-41110600D01*
X98611642Y-41117118D01*
X98611642Y-41117118D01*
G37*
G36*
X96071642Y-41117118D02*
X96137827Y-41123637D01*
X96251053Y-41157984D01*
X96307667Y-41175157D01*
X96446287Y-41249252D01*
X96464191Y-41258822D01*
X96499929Y-41288152D01*
X96601386Y-41371414D01*
X96684648Y-41472871D01*
X96713978Y-41508609D01*
X96713979Y-41508611D01*
X96797643Y-41665133D01*
X96797643Y-41665134D01*
X96849163Y-41834973D01*
X96866559Y-42011600D01*
X96849163Y-42188227D01*
X96814816Y-42301453D01*
X96797643Y-42358067D01*
X96723548Y-42496687D01*
X96713978Y-42514591D01*
X96684648Y-42550329D01*
X96601386Y-42651786D01*
X96499929Y-42735048D01*
X96464191Y-42764378D01*
X96464189Y-42764379D01*
X96307667Y-42848043D01*
X96251053Y-42865216D01*
X96137827Y-42899563D01*
X96071643Y-42906081D01*
X96005460Y-42912600D01*
X95916940Y-42912600D01*
X95850757Y-42906081D01*
X95784573Y-42899563D01*
X95671347Y-42865216D01*
X95614733Y-42848043D01*
X95458211Y-42764379D01*
X95458209Y-42764378D01*
X95422471Y-42735048D01*
X95321014Y-42651786D01*
X95237752Y-42550329D01*
X95208422Y-42514591D01*
X95198852Y-42496687D01*
X95124757Y-42358067D01*
X95107584Y-42301453D01*
X95073237Y-42188227D01*
X95055841Y-42011600D01*
X95073237Y-41834973D01*
X95124757Y-41665134D01*
X95124757Y-41665133D01*
X95208421Y-41508611D01*
X95208422Y-41508609D01*
X95237752Y-41472871D01*
X95321014Y-41371414D01*
X95422471Y-41288152D01*
X95458209Y-41258822D01*
X95476113Y-41249252D01*
X95614733Y-41175157D01*
X95671347Y-41157984D01*
X95784573Y-41123637D01*
X95850758Y-41117118D01*
X95916940Y-41110600D01*
X96005460Y-41110600D01*
X96071642Y-41117118D01*
X96071642Y-41117118D01*
G37*
G36*
X118576043Y-37815119D02*
X118642227Y-37821637D01*
X118755453Y-37855984D01*
X118812067Y-37873157D01*
X118926269Y-37934200D01*
X118968591Y-37956822D01*
X119004329Y-37986152D01*
X119105786Y-38069414D01*
X119189048Y-38170871D01*
X119218378Y-38206609D01*
X119218379Y-38206611D01*
X119302043Y-38363133D01*
X119302043Y-38363134D01*
X119353563Y-38532973D01*
X119370959Y-38709600D01*
X119353563Y-38886227D01*
X119319216Y-38999453D01*
X119302043Y-39056067D01*
X119227948Y-39194687D01*
X119218378Y-39212591D01*
X119189048Y-39248329D01*
X119105786Y-39349786D01*
X119004329Y-39433048D01*
X118968591Y-39462378D01*
X118968589Y-39462379D01*
X118812067Y-39546043D01*
X118755453Y-39563216D01*
X118642227Y-39597563D01*
X118576043Y-39604081D01*
X118509860Y-39610600D01*
X118421340Y-39610600D01*
X118355157Y-39604081D01*
X118288973Y-39597563D01*
X118175747Y-39563216D01*
X118119133Y-39546043D01*
X117962611Y-39462379D01*
X117962609Y-39462378D01*
X117926871Y-39433048D01*
X117825414Y-39349786D01*
X117742152Y-39248329D01*
X117712822Y-39212591D01*
X117703252Y-39194687D01*
X117629157Y-39056067D01*
X117611984Y-38999453D01*
X117577637Y-38886227D01*
X117560241Y-38709600D01*
X117577637Y-38532973D01*
X117629157Y-38363134D01*
X117629157Y-38363133D01*
X117712821Y-38206611D01*
X117712822Y-38206609D01*
X117742152Y-38170871D01*
X117825414Y-38069414D01*
X117926871Y-37986152D01*
X117962609Y-37956822D01*
X118004931Y-37934200D01*
X118119133Y-37873157D01*
X118175747Y-37855984D01*
X118288973Y-37821637D01*
X118355157Y-37815119D01*
X118421340Y-37808600D01*
X118509860Y-37808600D01*
X118576043Y-37815119D01*
X118576043Y-37815119D01*
G37*
G36*
X116826600Y-39610600D02*
X115024600Y-39610600D01*
X115024600Y-37808600D01*
X116826600Y-37808600D01*
X116826600Y-39610600D01*
X116826600Y-39610600D01*
G37*
G36*
X58276442Y-36138718D02*
X58342627Y-36145237D01*
X58422941Y-36169600D01*
X58512467Y-36196757D01*
X58651087Y-36270852D01*
X58668991Y-36280422D01*
X58704729Y-36309752D01*
X58806186Y-36393014D01*
X58889448Y-36494471D01*
X58918778Y-36530209D01*
X58918779Y-36530211D01*
X59002443Y-36686733D01*
X59002443Y-36686734D01*
X59053963Y-36856573D01*
X59071359Y-37033200D01*
X59053963Y-37209827D01*
X59019616Y-37323053D01*
X59002443Y-37379667D01*
X58928348Y-37518287D01*
X58918778Y-37536191D01*
X58889448Y-37571929D01*
X58806186Y-37673386D01*
X58704729Y-37756648D01*
X58668991Y-37785978D01*
X58668989Y-37785979D01*
X58512467Y-37869643D01*
X58455853Y-37886816D01*
X58342627Y-37921163D01*
X58276442Y-37927682D01*
X58210260Y-37934200D01*
X58121740Y-37934200D01*
X58055558Y-37927682D01*
X57989373Y-37921163D01*
X57876147Y-37886816D01*
X57819533Y-37869643D01*
X57663011Y-37785979D01*
X57663009Y-37785978D01*
X57627271Y-37756648D01*
X57525814Y-37673386D01*
X57442552Y-37571929D01*
X57413222Y-37536191D01*
X57403652Y-37518287D01*
X57329557Y-37379667D01*
X57312384Y-37323053D01*
X57278037Y-37209827D01*
X57260641Y-37033200D01*
X57278037Y-36856573D01*
X57329557Y-36686734D01*
X57329557Y-36686733D01*
X57413221Y-36530211D01*
X57413222Y-36530209D01*
X57442552Y-36494471D01*
X57525814Y-36393014D01*
X57627271Y-36309752D01*
X57663009Y-36280422D01*
X57680913Y-36270852D01*
X57819533Y-36196757D01*
X57909059Y-36169600D01*
X57989373Y-36145237D01*
X58055558Y-36138718D01*
X58121740Y-36132200D01*
X58210260Y-36132200D01*
X58276442Y-36138718D01*
X58276442Y-36138718D01*
G37*
G36*
X63356442Y-36138718D02*
X63422627Y-36145237D01*
X63502941Y-36169600D01*
X63592467Y-36196757D01*
X63731087Y-36270852D01*
X63748991Y-36280422D01*
X63784729Y-36309752D01*
X63886186Y-36393014D01*
X63969448Y-36494471D01*
X63998778Y-36530209D01*
X63998779Y-36530211D01*
X64082443Y-36686733D01*
X64082443Y-36686734D01*
X64133963Y-36856573D01*
X64151359Y-37033200D01*
X64133963Y-37209827D01*
X64099616Y-37323053D01*
X64082443Y-37379667D01*
X64008348Y-37518287D01*
X63998778Y-37536191D01*
X63969448Y-37571929D01*
X63886186Y-37673386D01*
X63784729Y-37756648D01*
X63748991Y-37785978D01*
X63748989Y-37785979D01*
X63592467Y-37869643D01*
X63535853Y-37886816D01*
X63422627Y-37921163D01*
X63356442Y-37927682D01*
X63290260Y-37934200D01*
X63201740Y-37934200D01*
X63135558Y-37927682D01*
X63069373Y-37921163D01*
X62956147Y-37886816D01*
X62899533Y-37869643D01*
X62743011Y-37785979D01*
X62743009Y-37785978D01*
X62707271Y-37756648D01*
X62605814Y-37673386D01*
X62522552Y-37571929D01*
X62493222Y-37536191D01*
X62483652Y-37518287D01*
X62409557Y-37379667D01*
X62392384Y-37323053D01*
X62358037Y-37209827D01*
X62340641Y-37033200D01*
X62358037Y-36856573D01*
X62409557Y-36686734D01*
X62409557Y-36686733D01*
X62493221Y-36530211D01*
X62493222Y-36530209D01*
X62522552Y-36494471D01*
X62605814Y-36393014D01*
X62707271Y-36309752D01*
X62743009Y-36280422D01*
X62760913Y-36270852D01*
X62899533Y-36196757D01*
X62989059Y-36169600D01*
X63069373Y-36145237D01*
X63135558Y-36138718D01*
X63201740Y-36132200D01*
X63290260Y-36132200D01*
X63356442Y-36138718D01*
X63356442Y-36138718D01*
G37*
G36*
X60816442Y-36138718D02*
X60882627Y-36145237D01*
X60962941Y-36169600D01*
X61052467Y-36196757D01*
X61191087Y-36270852D01*
X61208991Y-36280422D01*
X61244729Y-36309752D01*
X61346186Y-36393014D01*
X61429448Y-36494471D01*
X61458778Y-36530209D01*
X61458779Y-36530211D01*
X61542443Y-36686733D01*
X61542443Y-36686734D01*
X61593963Y-36856573D01*
X61611359Y-37033200D01*
X61593963Y-37209827D01*
X61559616Y-37323053D01*
X61542443Y-37379667D01*
X61468348Y-37518287D01*
X61458778Y-37536191D01*
X61429448Y-37571929D01*
X61346186Y-37673386D01*
X61244729Y-37756648D01*
X61208991Y-37785978D01*
X61208989Y-37785979D01*
X61052467Y-37869643D01*
X60995853Y-37886816D01*
X60882627Y-37921163D01*
X60816442Y-37927682D01*
X60750260Y-37934200D01*
X60661740Y-37934200D01*
X60595558Y-37927682D01*
X60529373Y-37921163D01*
X60416147Y-37886816D01*
X60359533Y-37869643D01*
X60203011Y-37785979D01*
X60203009Y-37785978D01*
X60167271Y-37756648D01*
X60065814Y-37673386D01*
X59982552Y-37571929D01*
X59953222Y-37536191D01*
X59943652Y-37518287D01*
X59869557Y-37379667D01*
X59852384Y-37323053D01*
X59818037Y-37209827D01*
X59800641Y-37033200D01*
X59818037Y-36856573D01*
X59869557Y-36686734D01*
X59869557Y-36686733D01*
X59953221Y-36530211D01*
X59953222Y-36530209D01*
X59982552Y-36494471D01*
X60065814Y-36393014D01*
X60167271Y-36309752D01*
X60203009Y-36280422D01*
X60220913Y-36270852D01*
X60359533Y-36196757D01*
X60449059Y-36169600D01*
X60529373Y-36145237D01*
X60595558Y-36138718D01*
X60661740Y-36132200D01*
X60750260Y-36132200D01*
X60816442Y-36138718D01*
X60816442Y-36138718D01*
G37*
G36*
X116036043Y-35275119D02*
X116102227Y-35281637D01*
X116215453Y-35315984D01*
X116272067Y-35333157D01*
X116386269Y-35394200D01*
X116428591Y-35416822D01*
X116464329Y-35446152D01*
X116565786Y-35529414D01*
X116649048Y-35630871D01*
X116678378Y-35666609D01*
X116678379Y-35666611D01*
X116762043Y-35823133D01*
X116762043Y-35823134D01*
X116813563Y-35992973D01*
X116830959Y-36169600D01*
X116813563Y-36346227D01*
X116799370Y-36393014D01*
X116762043Y-36516067D01*
X116687948Y-36654687D01*
X116678378Y-36672591D01*
X116666771Y-36686734D01*
X116565786Y-36809786D01*
X116464329Y-36893048D01*
X116428591Y-36922378D01*
X116428589Y-36922379D01*
X116272067Y-37006043D01*
X116215453Y-37023216D01*
X116102227Y-37057563D01*
X116036043Y-37064081D01*
X115969860Y-37070600D01*
X115881340Y-37070600D01*
X115815157Y-37064081D01*
X115748973Y-37057563D01*
X115635747Y-37023216D01*
X115579133Y-37006043D01*
X115422611Y-36922379D01*
X115422609Y-36922378D01*
X115386871Y-36893048D01*
X115285414Y-36809786D01*
X115184429Y-36686734D01*
X115172822Y-36672591D01*
X115163252Y-36654687D01*
X115089157Y-36516067D01*
X115051830Y-36393014D01*
X115037637Y-36346227D01*
X115020241Y-36169600D01*
X115037637Y-35992973D01*
X115089157Y-35823134D01*
X115089157Y-35823133D01*
X115172821Y-35666611D01*
X115172822Y-35666609D01*
X115202152Y-35630871D01*
X115285414Y-35529414D01*
X115386871Y-35446152D01*
X115422609Y-35416822D01*
X115464931Y-35394200D01*
X115579133Y-35333157D01*
X115635747Y-35315984D01*
X115748973Y-35281637D01*
X115815157Y-35275119D01*
X115881340Y-35268600D01*
X115969860Y-35268600D01*
X116036043Y-35275119D01*
X116036043Y-35275119D01*
G37*
G36*
X118576043Y-35275119D02*
X118642227Y-35281637D01*
X118755453Y-35315984D01*
X118812067Y-35333157D01*
X118926269Y-35394200D01*
X118968591Y-35416822D01*
X119004329Y-35446152D01*
X119105786Y-35529414D01*
X119189048Y-35630871D01*
X119218378Y-35666609D01*
X119218379Y-35666611D01*
X119302043Y-35823133D01*
X119302043Y-35823134D01*
X119353563Y-35992973D01*
X119370959Y-36169600D01*
X119353563Y-36346227D01*
X119339370Y-36393014D01*
X119302043Y-36516067D01*
X119227948Y-36654687D01*
X119218378Y-36672591D01*
X119206771Y-36686734D01*
X119105786Y-36809786D01*
X119004329Y-36893048D01*
X118968591Y-36922378D01*
X118968589Y-36922379D01*
X118812067Y-37006043D01*
X118755453Y-37023216D01*
X118642227Y-37057563D01*
X118576043Y-37064081D01*
X118509860Y-37070600D01*
X118421340Y-37070600D01*
X118355157Y-37064081D01*
X118288973Y-37057563D01*
X118175747Y-37023216D01*
X118119133Y-37006043D01*
X117962611Y-36922379D01*
X117962609Y-36922378D01*
X117926871Y-36893048D01*
X117825414Y-36809786D01*
X117724429Y-36686734D01*
X117712822Y-36672591D01*
X117703252Y-36654687D01*
X117629157Y-36516067D01*
X117591830Y-36393014D01*
X117577637Y-36346227D01*
X117560241Y-36169600D01*
X117577637Y-35992973D01*
X117629157Y-35823134D01*
X117629157Y-35823133D01*
X117712821Y-35666611D01*
X117712822Y-35666609D01*
X117742152Y-35630871D01*
X117825414Y-35529414D01*
X117926871Y-35446152D01*
X117962609Y-35416822D01*
X118004931Y-35394200D01*
X118119133Y-35333157D01*
X118175747Y-35315984D01*
X118288973Y-35281637D01*
X118355157Y-35275119D01*
X118421340Y-35268600D01*
X118509860Y-35268600D01*
X118576043Y-35275119D01*
X118576043Y-35275119D01*
G37*
G36*
X60816442Y-33598718D02*
X60882627Y-33605237D01*
X60962941Y-33629600D01*
X61052467Y-33656757D01*
X61191087Y-33730852D01*
X61208991Y-33740422D01*
X61244729Y-33769752D01*
X61346186Y-33853014D01*
X61429448Y-33954471D01*
X61458778Y-33990209D01*
X61458779Y-33990211D01*
X61542443Y-34146733D01*
X61542443Y-34146734D01*
X61593963Y-34316573D01*
X61611359Y-34493200D01*
X61593963Y-34669827D01*
X61559616Y-34783053D01*
X61542443Y-34839667D01*
X61468348Y-34978287D01*
X61458778Y-34996191D01*
X61429448Y-35031929D01*
X61346186Y-35133386D01*
X61244729Y-35216648D01*
X61208991Y-35245978D01*
X61208989Y-35245979D01*
X61052467Y-35329643D01*
X60995853Y-35346816D01*
X60882627Y-35381163D01*
X60816442Y-35387682D01*
X60750260Y-35394200D01*
X60661740Y-35394200D01*
X60595558Y-35387682D01*
X60529373Y-35381163D01*
X60416147Y-35346816D01*
X60359533Y-35329643D01*
X60203011Y-35245979D01*
X60203009Y-35245978D01*
X60167271Y-35216648D01*
X60065814Y-35133386D01*
X59982552Y-35031929D01*
X59953222Y-34996191D01*
X59943652Y-34978287D01*
X59869557Y-34839667D01*
X59852384Y-34783053D01*
X59818037Y-34669827D01*
X59800641Y-34493200D01*
X59818037Y-34316573D01*
X59869557Y-34146734D01*
X59869557Y-34146733D01*
X59953221Y-33990211D01*
X59953222Y-33990209D01*
X59982552Y-33954471D01*
X60065814Y-33853014D01*
X60167271Y-33769752D01*
X60203009Y-33740422D01*
X60220913Y-33730852D01*
X60359533Y-33656757D01*
X60449059Y-33629600D01*
X60529373Y-33605237D01*
X60595558Y-33598718D01*
X60661740Y-33592200D01*
X60750260Y-33592200D01*
X60816442Y-33598718D01*
X60816442Y-33598718D01*
G37*
G36*
X59067000Y-35394200D02*
X57265000Y-35394200D01*
X57265000Y-33592200D01*
X59067000Y-33592200D01*
X59067000Y-35394200D01*
X59067000Y-35394200D01*
G37*
G36*
X63356442Y-33598718D02*
X63422627Y-33605237D01*
X63502941Y-33629600D01*
X63592467Y-33656757D01*
X63731087Y-33730852D01*
X63748991Y-33740422D01*
X63784729Y-33769752D01*
X63886186Y-33853014D01*
X63969448Y-33954471D01*
X63998778Y-33990209D01*
X63998779Y-33990211D01*
X64082443Y-34146733D01*
X64082443Y-34146734D01*
X64133963Y-34316573D01*
X64151359Y-34493200D01*
X64133963Y-34669827D01*
X64099616Y-34783053D01*
X64082443Y-34839667D01*
X64008348Y-34978287D01*
X63998778Y-34996191D01*
X63969448Y-35031929D01*
X63886186Y-35133386D01*
X63784729Y-35216648D01*
X63748991Y-35245978D01*
X63748989Y-35245979D01*
X63592467Y-35329643D01*
X63535853Y-35346816D01*
X63422627Y-35381163D01*
X63356442Y-35387682D01*
X63290260Y-35394200D01*
X63201740Y-35394200D01*
X63135558Y-35387682D01*
X63069373Y-35381163D01*
X62956147Y-35346816D01*
X62899533Y-35329643D01*
X62743011Y-35245979D01*
X62743009Y-35245978D01*
X62707271Y-35216648D01*
X62605814Y-35133386D01*
X62522552Y-35031929D01*
X62493222Y-34996191D01*
X62483652Y-34978287D01*
X62409557Y-34839667D01*
X62392384Y-34783053D01*
X62358037Y-34669827D01*
X62340641Y-34493200D01*
X62358037Y-34316573D01*
X62409557Y-34146734D01*
X62409557Y-34146733D01*
X62493221Y-33990211D01*
X62493222Y-33990209D01*
X62522552Y-33954471D01*
X62605814Y-33853014D01*
X62707271Y-33769752D01*
X62743009Y-33740422D01*
X62760913Y-33730852D01*
X62899533Y-33656757D01*
X62989059Y-33629600D01*
X63069373Y-33605237D01*
X63135558Y-33598718D01*
X63201740Y-33592200D01*
X63290260Y-33592200D01*
X63356442Y-33598718D01*
X63356442Y-33598718D01*
G37*
G36*
X116036043Y-32735119D02*
X116102227Y-32741637D01*
X116215453Y-32775984D01*
X116272067Y-32793157D01*
X116410687Y-32867252D01*
X116428591Y-32876822D01*
X116464329Y-32906152D01*
X116565786Y-32989414D01*
X116649048Y-33090871D01*
X116678378Y-33126609D01*
X116678379Y-33126611D01*
X116762043Y-33283133D01*
X116762043Y-33283134D01*
X116813563Y-33452973D01*
X116830959Y-33629600D01*
X116813563Y-33806227D01*
X116799370Y-33853014D01*
X116762043Y-33976067D01*
X116687948Y-34114687D01*
X116678378Y-34132591D01*
X116666771Y-34146734D01*
X116565786Y-34269786D01*
X116464329Y-34353048D01*
X116428591Y-34382378D01*
X116428589Y-34382379D01*
X116272067Y-34466043D01*
X116215453Y-34483216D01*
X116102227Y-34517563D01*
X116036043Y-34524081D01*
X115969860Y-34530600D01*
X115881340Y-34530600D01*
X115815157Y-34524081D01*
X115748973Y-34517563D01*
X115635747Y-34483216D01*
X115579133Y-34466043D01*
X115422611Y-34382379D01*
X115422609Y-34382378D01*
X115386871Y-34353048D01*
X115285414Y-34269786D01*
X115184429Y-34146734D01*
X115172822Y-34132591D01*
X115163252Y-34114687D01*
X115089157Y-33976067D01*
X115051830Y-33853014D01*
X115037637Y-33806227D01*
X115020241Y-33629600D01*
X115037637Y-33452973D01*
X115089157Y-33283134D01*
X115089157Y-33283133D01*
X115172821Y-33126611D01*
X115172822Y-33126609D01*
X115202152Y-33090871D01*
X115285414Y-32989414D01*
X115386871Y-32906152D01*
X115422609Y-32876822D01*
X115440513Y-32867252D01*
X115579133Y-32793157D01*
X115635747Y-32775984D01*
X115748973Y-32741637D01*
X115815157Y-32735119D01*
X115881340Y-32728600D01*
X115969860Y-32728600D01*
X116036043Y-32735119D01*
X116036043Y-32735119D01*
G37*
G36*
X118576043Y-32735119D02*
X118642227Y-32741637D01*
X118755453Y-32775984D01*
X118812067Y-32793157D01*
X118950687Y-32867252D01*
X118968591Y-32876822D01*
X119004329Y-32906152D01*
X119105786Y-32989414D01*
X119189048Y-33090871D01*
X119218378Y-33126609D01*
X119218379Y-33126611D01*
X119302043Y-33283133D01*
X119302043Y-33283134D01*
X119353563Y-33452973D01*
X119370959Y-33629600D01*
X119353563Y-33806227D01*
X119339370Y-33853014D01*
X119302043Y-33976067D01*
X119227948Y-34114687D01*
X119218378Y-34132591D01*
X119206771Y-34146734D01*
X119105786Y-34269786D01*
X119004329Y-34353048D01*
X118968591Y-34382378D01*
X118968589Y-34382379D01*
X118812067Y-34466043D01*
X118755453Y-34483216D01*
X118642227Y-34517563D01*
X118576043Y-34524081D01*
X118509860Y-34530600D01*
X118421340Y-34530600D01*
X118355157Y-34524081D01*
X118288973Y-34517563D01*
X118175747Y-34483216D01*
X118119133Y-34466043D01*
X117962611Y-34382379D01*
X117962609Y-34382378D01*
X117926871Y-34353048D01*
X117825414Y-34269786D01*
X117724429Y-34146734D01*
X117712822Y-34132591D01*
X117703252Y-34114687D01*
X117629157Y-33976067D01*
X117591830Y-33853014D01*
X117577637Y-33806227D01*
X117560241Y-33629600D01*
X117577637Y-33452973D01*
X117629157Y-33283134D01*
X117629157Y-33283133D01*
X117712821Y-33126611D01*
X117712822Y-33126609D01*
X117742152Y-33090871D01*
X117825414Y-32989414D01*
X117926871Y-32906152D01*
X117962609Y-32876822D01*
X117980513Y-32867252D01*
X118119133Y-32793157D01*
X118175747Y-32775984D01*
X118288973Y-32741637D01*
X118355157Y-32735119D01*
X118421340Y-32728600D01*
X118509860Y-32728600D01*
X118576043Y-32735119D01*
X118576043Y-32735119D01*
G37*
G36*
X83110565Y-30667389D02*
X83301834Y-30746615D01*
X83473976Y-30861637D01*
X83620363Y-31008024D01*
X83735385Y-31180166D01*
X83814611Y-31371435D01*
X83855000Y-31574484D01*
X83855000Y-31781516D01*
X83814611Y-31984565D01*
X83735385Y-32175834D01*
X83620363Y-32347976D01*
X83473976Y-32494363D01*
X83301834Y-32609385D01*
X83110565Y-32688611D01*
X82907516Y-32729000D01*
X82700484Y-32729000D01*
X82497435Y-32688611D01*
X82306166Y-32609385D01*
X82134024Y-32494363D01*
X81987637Y-32347976D01*
X81872615Y-32175834D01*
X81793389Y-31984565D01*
X81753000Y-31781516D01*
X81753000Y-31574484D01*
X81793389Y-31371435D01*
X81872615Y-31180166D01*
X81987637Y-31008024D01*
X82134024Y-30861637D01*
X82306166Y-30746615D01*
X82497435Y-30667389D01*
X82700484Y-30627000D01*
X82907516Y-30627000D01*
X83110565Y-30667389D01*
X83110565Y-30667389D01*
G37*
G36*
X89610565Y-30667389D02*
X89801834Y-30746615D01*
X89973976Y-30861637D01*
X90120363Y-31008024D01*
X90235385Y-31180166D01*
X90314611Y-31371435D01*
X90355000Y-31574484D01*
X90355000Y-31781516D01*
X90314611Y-31984565D01*
X90235385Y-32175834D01*
X90120363Y-32347976D01*
X89973976Y-32494363D01*
X89801834Y-32609385D01*
X89610565Y-32688611D01*
X89407516Y-32729000D01*
X89200484Y-32729000D01*
X88997435Y-32688611D01*
X88806166Y-32609385D01*
X88634024Y-32494363D01*
X88487637Y-32347976D01*
X88372615Y-32175834D01*
X88293389Y-31984565D01*
X88253000Y-31781516D01*
X88253000Y-31574484D01*
X88293389Y-31371435D01*
X88372615Y-31180166D01*
X88487637Y-31008024D01*
X88634024Y-30861637D01*
X88806166Y-30746615D01*
X88997435Y-30667389D01*
X89200484Y-30627000D01*
X89407516Y-30627000D01*
X89610565Y-30667389D01*
X89610565Y-30667389D01*
G37*
G36*
X118576042Y-30195118D02*
X118642227Y-30201637D01*
X118755453Y-30235984D01*
X118812067Y-30253157D01*
X118950687Y-30327252D01*
X118968591Y-30336822D01*
X119004329Y-30366152D01*
X119105786Y-30449414D01*
X119189048Y-30550871D01*
X119218378Y-30586609D01*
X119218379Y-30586611D01*
X119302043Y-30743133D01*
X119319216Y-30799747D01*
X119353563Y-30912973D01*
X119370959Y-31089600D01*
X119353563Y-31266227D01*
X119321649Y-31371435D01*
X119302043Y-31436067D01*
X119228056Y-31574484D01*
X119218378Y-31592591D01*
X119189048Y-31628329D01*
X119105786Y-31729786D01*
X119004329Y-31813048D01*
X118968591Y-31842378D01*
X118968589Y-31842379D01*
X118812067Y-31926043D01*
X118755453Y-31943216D01*
X118642227Y-31977563D01*
X118576043Y-31984081D01*
X118509860Y-31990600D01*
X118421340Y-31990600D01*
X118355157Y-31984081D01*
X118288973Y-31977563D01*
X118175747Y-31943216D01*
X118119133Y-31926043D01*
X117962611Y-31842379D01*
X117962609Y-31842378D01*
X117926871Y-31813048D01*
X117825414Y-31729786D01*
X117742152Y-31628329D01*
X117712822Y-31592591D01*
X117703144Y-31574484D01*
X117629157Y-31436067D01*
X117609551Y-31371435D01*
X117577637Y-31266227D01*
X117560241Y-31089600D01*
X117577637Y-30912973D01*
X117611984Y-30799747D01*
X117629157Y-30743133D01*
X117712821Y-30586611D01*
X117712822Y-30586609D01*
X117742152Y-30550871D01*
X117825414Y-30449414D01*
X117926871Y-30366152D01*
X117962609Y-30336822D01*
X117980513Y-30327252D01*
X118119133Y-30253157D01*
X118175747Y-30235984D01*
X118288973Y-30201637D01*
X118355158Y-30195118D01*
X118421340Y-30188600D01*
X118509860Y-30188600D01*
X118576042Y-30195118D01*
X118576042Y-30195118D01*
G37*
G36*
X116036042Y-30195118D02*
X116102227Y-30201637D01*
X116215453Y-30235984D01*
X116272067Y-30253157D01*
X116410687Y-30327252D01*
X116428591Y-30336822D01*
X116464329Y-30366152D01*
X116565786Y-30449414D01*
X116649048Y-30550871D01*
X116678378Y-30586609D01*
X116678379Y-30586611D01*
X116762043Y-30743133D01*
X116779216Y-30799747D01*
X116813563Y-30912973D01*
X116830959Y-31089600D01*
X116813563Y-31266227D01*
X116781649Y-31371435D01*
X116762043Y-31436067D01*
X116688056Y-31574484D01*
X116678378Y-31592591D01*
X116649048Y-31628329D01*
X116565786Y-31729786D01*
X116464329Y-31813048D01*
X116428591Y-31842378D01*
X116428589Y-31842379D01*
X116272067Y-31926043D01*
X116215453Y-31943216D01*
X116102227Y-31977563D01*
X116036043Y-31984081D01*
X115969860Y-31990600D01*
X115881340Y-31990600D01*
X115815157Y-31984081D01*
X115748973Y-31977563D01*
X115635747Y-31943216D01*
X115579133Y-31926043D01*
X115422611Y-31842379D01*
X115422609Y-31842378D01*
X115386871Y-31813048D01*
X115285414Y-31729786D01*
X115202152Y-31628329D01*
X115172822Y-31592591D01*
X115163144Y-31574484D01*
X115089157Y-31436067D01*
X115069551Y-31371435D01*
X115037637Y-31266227D01*
X115020241Y-31089600D01*
X115037637Y-30912973D01*
X115071984Y-30799747D01*
X115089157Y-30743133D01*
X115172821Y-30586611D01*
X115172822Y-30586609D01*
X115202152Y-30550871D01*
X115285414Y-30449414D01*
X115386871Y-30366152D01*
X115422609Y-30336822D01*
X115440513Y-30327252D01*
X115579133Y-30253157D01*
X115635747Y-30235984D01*
X115748973Y-30201637D01*
X115815158Y-30195118D01*
X115881340Y-30188600D01*
X115969860Y-30188600D01*
X116036042Y-30195118D01*
X116036042Y-30195118D01*
G37*
G36*
X89610565Y-26167389D02*
X89801834Y-26246615D01*
X89973976Y-26361637D01*
X90120363Y-26508024D01*
X90235385Y-26680166D01*
X90314611Y-26871435D01*
X90355000Y-27074484D01*
X90355000Y-27281516D01*
X90314611Y-27484565D01*
X90235385Y-27675834D01*
X90120363Y-27847976D01*
X89973976Y-27994363D01*
X89801834Y-28109385D01*
X89610565Y-28188611D01*
X89407516Y-28229000D01*
X89200484Y-28229000D01*
X88997435Y-28188611D01*
X88806166Y-28109385D01*
X88634024Y-27994363D01*
X88487637Y-27847976D01*
X88372615Y-27675834D01*
X88293389Y-27484565D01*
X88253000Y-27281516D01*
X88253000Y-27074484D01*
X88293389Y-26871435D01*
X88372615Y-26680166D01*
X88487637Y-26508024D01*
X88634024Y-26361637D01*
X88806166Y-26246615D01*
X88997435Y-26167389D01*
X89200484Y-26127000D01*
X89407516Y-26127000D01*
X89610565Y-26167389D01*
X89610565Y-26167389D01*
G37*
G36*
X83110565Y-26167389D02*
X83301834Y-26246615D01*
X83473976Y-26361637D01*
X83620363Y-26508024D01*
X83735385Y-26680166D01*
X83814611Y-26871435D01*
X83855000Y-27074484D01*
X83855000Y-27281516D01*
X83814611Y-27484565D01*
X83735385Y-27675834D01*
X83620363Y-27847976D01*
X83473976Y-27994363D01*
X83301834Y-28109385D01*
X83110565Y-28188611D01*
X82907516Y-28229000D01*
X82700484Y-28229000D01*
X82497435Y-28188611D01*
X82306166Y-28109385D01*
X82134024Y-27994363D01*
X81987637Y-27847976D01*
X81872615Y-27675834D01*
X81793389Y-27484565D01*
X81753000Y-27281516D01*
X81753000Y-27074484D01*
X81793389Y-26871435D01*
X81872615Y-26680166D01*
X81987637Y-26508024D01*
X82134024Y-26361637D01*
X82306166Y-26246615D01*
X82497435Y-26167389D01*
X82700484Y-26127000D01*
X82907516Y-26127000D01*
X83110565Y-26167389D01*
X83110565Y-26167389D01*
G37*
G36*
X117284934Y-21842432D02*
X117494402Y-21929196D01*
X117682923Y-22055162D01*
X117843238Y-22215477D01*
X117969204Y-22403998D01*
X118055968Y-22613466D01*
X118100200Y-22835835D01*
X118100200Y-23062565D01*
X118055968Y-23284934D01*
X117969204Y-23494402D01*
X117843238Y-23682923D01*
X117682923Y-23843238D01*
X117494402Y-23969204D01*
X117284934Y-24055968D01*
X117062565Y-24100200D01*
X116835835Y-24100200D01*
X116613466Y-24055968D01*
X116403998Y-23969204D01*
X116215477Y-23843238D01*
X116055162Y-23682923D01*
X115929196Y-23494402D01*
X115842432Y-23284934D01*
X115798200Y-23062565D01*
X115798200Y-22835835D01*
X115842432Y-22613466D01*
X115929196Y-22403998D01*
X116055162Y-22215477D01*
X116215477Y-22055162D01*
X116403998Y-21929196D01*
X116613466Y-21842432D01*
X116835835Y-21798200D01*
X117062565Y-21798200D01*
X117284934Y-21842432D01*
X117284934Y-21842432D01*
G37*
G36*
X23284934Y-21842432D02*
X23494402Y-21929196D01*
X23682923Y-22055162D01*
X23843238Y-22215477D01*
X23969204Y-22403998D01*
X24055968Y-22613466D01*
X24100200Y-22835835D01*
X24100200Y-23062565D01*
X24055968Y-23284934D01*
X23969204Y-23494402D01*
X23843238Y-23682923D01*
X23682923Y-23843238D01*
X23494402Y-23969204D01*
X23284934Y-24055968D01*
X23062565Y-24100200D01*
X22835835Y-24100200D01*
X22613466Y-24055968D01*
X22403998Y-23969204D01*
X22215477Y-23843238D01*
X22055162Y-23682923D01*
X21929196Y-23494402D01*
X21842432Y-23284934D01*
X21798200Y-23062565D01*
X21798200Y-22835835D01*
X21842432Y-22613466D01*
X21929196Y-22403998D01*
X22055162Y-22215477D01*
X22215477Y-22055162D01*
X22403998Y-21929196D01*
X22613466Y-21842432D01*
X22835835Y-21798200D01*
X23062565Y-21798200D01*
X23284934Y-21842432D01*
X23284934Y-21842432D01*
G37*
M02*
