G04 #@! TF.GenerationSoftware,KiCad,Pcbnew,(5.0.0)*
G04 #@! TF.CreationDate,2019-04-16T16:09:12+02:00*
G04 #@! TF.ProjectId,,00000000000000000000000000000000,rev?*
G04 #@! TF.SameCoordinates,Original*
G04 #@! TF.FileFunction,Legend,Top*
G04 #@! TF.FilePolarity,Positive*
%FSLAX46Y46*%
G04 Gerber Fmt 4.6, Leading zero omitted, Abs format (unit mm)*
G04 Created by KiCad (PCBNEW (5.0.0)) date 04/16/19 16:09:12*
%MOMM*%
%LPD*%
G01*
G04 APERTURE LIST*
%ADD10C,0.250000*%
%ADD11C,0.300000*%
%ADD12C,0.200000*%
%ADD13C,0.120000*%
%ADD14C,0.100000*%
%ADD15C,0.152400*%
%ADD16C,0.050800*%
%ADD17C,0.127000*%
%ADD18C,0.150000*%
%ADD19C,0.050000*%
G04 APERTURE END LIST*
D10*
X62847600Y-41351104D02*
X62799980Y-41446342D01*
X62799980Y-41589200D01*
X62847600Y-41732057D01*
X62942838Y-41827295D01*
X63038076Y-41874914D01*
X63228552Y-41922533D01*
X63371409Y-41922533D01*
X63561885Y-41874914D01*
X63657123Y-41827295D01*
X63752361Y-41732057D01*
X63799980Y-41589200D01*
X63799980Y-41493961D01*
X63752361Y-41351104D01*
X63704742Y-41303485D01*
X63371409Y-41303485D01*
X63371409Y-41493961D01*
X63799980Y-40874914D02*
X62799980Y-40874914D01*
X63799980Y-40303485D01*
X62799980Y-40303485D01*
X63799980Y-39827295D02*
X62799980Y-39827295D01*
X62799980Y-39589200D01*
X62847600Y-39446342D01*
X62942838Y-39351104D01*
X63038076Y-39303485D01*
X63228552Y-39255866D01*
X63371409Y-39255866D01*
X63561885Y-39303485D01*
X63657123Y-39351104D01*
X63752361Y-39446342D01*
X63799980Y-39589200D01*
X63799980Y-39827295D01*
X57567580Y-41922533D02*
X58567580Y-41589200D01*
X57567580Y-41255866D01*
X58472342Y-40351104D02*
X58519961Y-40398723D01*
X58567580Y-40541580D01*
X58567580Y-40636819D01*
X58519961Y-40779676D01*
X58424723Y-40874914D01*
X58329485Y-40922533D01*
X58139009Y-40970152D01*
X57996152Y-40970152D01*
X57805676Y-40922533D01*
X57710438Y-40874914D01*
X57615200Y-40779676D01*
X57567580Y-40636819D01*
X57567580Y-40541580D01*
X57615200Y-40398723D01*
X57662819Y-40351104D01*
X58472342Y-39351104D02*
X58519961Y-39398723D01*
X58567580Y-39541580D01*
X58567580Y-39636819D01*
X58519961Y-39779676D01*
X58424723Y-39874914D01*
X58329485Y-39922533D01*
X58139009Y-39970152D01*
X57996152Y-39970152D01*
X57805676Y-39922533D01*
X57710438Y-39874914D01*
X57615200Y-39779676D01*
X57567580Y-39636819D01*
X57567580Y-39541580D01*
X57615200Y-39398723D01*
X57662819Y-39351104D01*
X64155580Y-31992819D02*
X63679390Y-32326152D01*
X64155580Y-32564247D02*
X63155580Y-32564247D01*
X63155580Y-32183295D01*
X63203200Y-32088057D01*
X63250819Y-32040438D01*
X63346057Y-31992819D01*
X63488914Y-31992819D01*
X63584152Y-32040438D01*
X63631771Y-32088057D01*
X63679390Y-32183295D01*
X63679390Y-32564247D01*
X64107961Y-31611866D02*
X64155580Y-31469009D01*
X64155580Y-31230914D01*
X64107961Y-31135676D01*
X64060342Y-31088057D01*
X63965104Y-31040438D01*
X63869866Y-31040438D01*
X63774628Y-31088057D01*
X63727009Y-31135676D01*
X63679390Y-31230914D01*
X63631771Y-31421390D01*
X63584152Y-31516628D01*
X63536533Y-31564247D01*
X63441295Y-31611866D01*
X63346057Y-31611866D01*
X63250819Y-31564247D01*
X63203200Y-31516628D01*
X63155580Y-31421390D01*
X63155580Y-31183295D01*
X63203200Y-31040438D01*
X63155580Y-30754723D02*
X63155580Y-30183295D01*
X64155580Y-30469009D02*
X63155580Y-30469009D01*
D11*
X49995414Y-24565871D02*
X50923985Y-24565871D01*
X50423985Y-25137300D01*
X50638271Y-25137300D01*
X50781128Y-25208728D01*
X50852557Y-25280157D01*
X50923985Y-25423014D01*
X50923985Y-25780157D01*
X50852557Y-25923014D01*
X50781128Y-25994442D01*
X50638271Y-26065871D01*
X50209700Y-26065871D01*
X50066842Y-25994442D01*
X49995414Y-25923014D01*
X51566842Y-25923014D02*
X51638271Y-25994442D01*
X51566842Y-26065871D01*
X51495414Y-25994442D01*
X51566842Y-25923014D01*
X51566842Y-26065871D01*
X52138271Y-24565871D02*
X53066842Y-24565871D01*
X52566842Y-25137300D01*
X52781128Y-25137300D01*
X52923985Y-25208728D01*
X52995414Y-25280157D01*
X53066842Y-25423014D01*
X53066842Y-25780157D01*
X52995414Y-25923014D01*
X52923985Y-25994442D01*
X52781128Y-26065871D01*
X52352557Y-26065871D01*
X52209700Y-25994442D01*
X52138271Y-25923014D01*
X53495414Y-24565871D02*
X53995414Y-26065871D01*
X54495414Y-24565871D01*
X50961314Y-36594171D02*
X50961314Y-35094171D01*
X51604171Y-36522742D02*
X51818457Y-36594171D01*
X52175600Y-36594171D01*
X52318457Y-36522742D01*
X52389885Y-36451314D01*
X52461314Y-36308457D01*
X52461314Y-36165600D01*
X52389885Y-36022742D01*
X52318457Y-35951314D01*
X52175600Y-35879885D01*
X51889885Y-35808457D01*
X51747028Y-35737028D01*
X51675600Y-35665600D01*
X51604171Y-35522742D01*
X51604171Y-35379885D01*
X51675600Y-35237028D01*
X51747028Y-35165600D01*
X51889885Y-35094171D01*
X52247028Y-35094171D01*
X52461314Y-35165600D01*
X53104171Y-36594171D02*
X53104171Y-35094171D01*
X53675600Y-35094171D01*
X53818457Y-35165600D01*
X53889885Y-35237028D01*
X53961314Y-35379885D01*
X53961314Y-35594171D01*
X53889885Y-35737028D01*
X53818457Y-35808457D01*
X53675600Y-35879885D01*
X53104171Y-35879885D01*
D10*
X61209180Y-42008228D02*
X60209180Y-42008228D01*
X60923466Y-41674895D01*
X60209180Y-41341561D01*
X61209180Y-41341561D01*
X60209180Y-40674895D02*
X60209180Y-40484419D01*
X60256800Y-40389180D01*
X60352038Y-40293942D01*
X60542514Y-40246323D01*
X60875847Y-40246323D01*
X61066323Y-40293942D01*
X61161561Y-40389180D01*
X61209180Y-40484419D01*
X61209180Y-40674895D01*
X61161561Y-40770133D01*
X61066323Y-40865371D01*
X60875847Y-40912990D01*
X60542514Y-40912990D01*
X60352038Y-40865371D01*
X60256800Y-40770133D01*
X60209180Y-40674895D01*
X61161561Y-39865371D02*
X61209180Y-39722514D01*
X61209180Y-39484419D01*
X61161561Y-39389180D01*
X61113942Y-39341561D01*
X61018704Y-39293942D01*
X60923466Y-39293942D01*
X60828228Y-39341561D01*
X60780609Y-39389180D01*
X60732990Y-39484419D01*
X60685371Y-39674895D01*
X60637752Y-39770133D01*
X60590133Y-39817752D01*
X60494895Y-39865371D01*
X60399657Y-39865371D01*
X60304419Y-39817752D01*
X60256800Y-39770133D01*
X60209180Y-39674895D01*
X60209180Y-39436800D01*
X60256800Y-39293942D01*
X61209180Y-38865371D02*
X60209180Y-38865371D01*
X58567580Y-32508628D02*
X57567580Y-32508628D01*
X58281866Y-32175295D01*
X57567580Y-31841961D01*
X58567580Y-31841961D01*
X58567580Y-31365771D02*
X57567580Y-31365771D01*
X58519961Y-30937200D02*
X58567580Y-30794342D01*
X58567580Y-30556247D01*
X58519961Y-30461009D01*
X58472342Y-30413390D01*
X58377104Y-30365771D01*
X58281866Y-30365771D01*
X58186628Y-30413390D01*
X58139009Y-30461009D01*
X58091390Y-30556247D01*
X58043771Y-30746723D01*
X57996152Y-30841961D01*
X57948533Y-30889580D01*
X57853295Y-30937200D01*
X57758057Y-30937200D01*
X57662819Y-30889580D01*
X57615200Y-30841961D01*
X57567580Y-30746723D01*
X57567580Y-30508628D01*
X57615200Y-30365771D01*
X57567580Y-29746723D02*
X57567580Y-29556247D01*
X57615200Y-29461009D01*
X57710438Y-29365771D01*
X57900914Y-29318152D01*
X58234247Y-29318152D01*
X58424723Y-29365771D01*
X58519961Y-29461009D01*
X58567580Y-29556247D01*
X58567580Y-29746723D01*
X58519961Y-29841961D01*
X58424723Y-29937200D01*
X58234247Y-29984819D01*
X57900914Y-29984819D01*
X57710438Y-29937200D01*
X57615200Y-29841961D01*
X57567580Y-29746723D01*
X61263161Y-32578514D02*
X61310780Y-32435657D01*
X61310780Y-32197561D01*
X61263161Y-32102323D01*
X61215542Y-32054704D01*
X61120304Y-32007085D01*
X61025066Y-32007085D01*
X60929828Y-32054704D01*
X60882209Y-32102323D01*
X60834590Y-32197561D01*
X60786971Y-32388038D01*
X60739352Y-32483276D01*
X60691733Y-32530895D01*
X60596495Y-32578514D01*
X60501257Y-32578514D01*
X60406019Y-32530895D01*
X60358400Y-32483276D01*
X60310780Y-32388038D01*
X60310780Y-32149942D01*
X60358400Y-32007085D01*
X61215542Y-31007085D02*
X61263161Y-31054704D01*
X61310780Y-31197561D01*
X61310780Y-31292800D01*
X61263161Y-31435657D01*
X61167923Y-31530895D01*
X61072685Y-31578514D01*
X60882209Y-31626133D01*
X60739352Y-31626133D01*
X60548876Y-31578514D01*
X60453638Y-31530895D01*
X60358400Y-31435657D01*
X60310780Y-31292800D01*
X60310780Y-31197561D01*
X60358400Y-31054704D01*
X60406019Y-31007085D01*
X61310780Y-30578514D02*
X60310780Y-30578514D01*
X61310780Y-30007085D02*
X60739352Y-30435657D01*
X60310780Y-30007085D02*
X60882209Y-30578514D01*
D11*
X87761831Y-70269182D02*
X87976117Y-70340611D01*
X88333260Y-70340611D01*
X88476117Y-70269182D01*
X88547545Y-70197754D01*
X88618974Y-70054897D01*
X88618974Y-69912040D01*
X88547545Y-69769182D01*
X88476117Y-69697754D01*
X88333260Y-69626325D01*
X88047545Y-69554897D01*
X87904688Y-69483468D01*
X87833260Y-69412040D01*
X87761831Y-69269182D01*
X87761831Y-69126325D01*
X87833260Y-68983468D01*
X87904688Y-68912040D01*
X88047545Y-68840611D01*
X88404688Y-68840611D01*
X88618974Y-68912040D01*
X89261831Y-70340611D02*
X89261831Y-68840611D01*
X89618974Y-68840611D01*
X89833260Y-68912040D01*
X89976117Y-69054897D01*
X90047545Y-69197754D01*
X90118974Y-69483468D01*
X90118974Y-69697754D01*
X90047545Y-69983468D01*
X89976117Y-70126325D01*
X89833260Y-70269182D01*
X89618974Y-70340611D01*
X89261831Y-70340611D01*
X90690402Y-69912040D02*
X91404688Y-69912040D01*
X90547545Y-70340611D02*
X91047545Y-68840611D01*
X91547545Y-70340611D01*
X77132085Y-70269182D02*
X77346371Y-70340611D01*
X77703514Y-70340611D01*
X77846371Y-70269182D01*
X77917800Y-70197754D01*
X77989228Y-70054897D01*
X77989228Y-69912040D01*
X77917800Y-69769182D01*
X77846371Y-69697754D01*
X77703514Y-69626325D01*
X77417800Y-69554897D01*
X77274942Y-69483468D01*
X77203514Y-69412040D01*
X77132085Y-69269182D01*
X77132085Y-69126325D01*
X77203514Y-68983468D01*
X77274942Y-68912040D01*
X77417800Y-68840611D01*
X77774942Y-68840611D01*
X77989228Y-68912040D01*
X79489228Y-70197754D02*
X79417800Y-70269182D01*
X79203514Y-70340611D01*
X79060657Y-70340611D01*
X78846371Y-70269182D01*
X78703514Y-70126325D01*
X78632085Y-69983468D01*
X78560657Y-69697754D01*
X78560657Y-69483468D01*
X78632085Y-69197754D01*
X78703514Y-69054897D01*
X78846371Y-68912040D01*
X79060657Y-68840611D01*
X79203514Y-68840611D01*
X79417800Y-68912040D01*
X79489228Y-68983468D01*
X80846371Y-70340611D02*
X80132085Y-70340611D01*
X80132085Y-68840611D01*
X65420382Y-61774331D02*
X66277525Y-61774331D01*
X65848954Y-63274331D02*
X65848954Y-61774331D01*
X66634668Y-61774331D02*
X67634668Y-63274331D01*
X67634668Y-61774331D02*
X66634668Y-63274331D01*
X57067640Y-63274331D02*
X56567640Y-62560045D01*
X56210497Y-63274331D02*
X56210497Y-61774331D01*
X56781925Y-61774331D01*
X56924782Y-61845760D01*
X56996211Y-61917188D01*
X57067640Y-62060045D01*
X57067640Y-62274331D01*
X56996211Y-62417188D01*
X56924782Y-62488617D01*
X56781925Y-62560045D01*
X56210497Y-62560045D01*
X57567640Y-61774331D02*
X58567640Y-63274331D01*
X58567640Y-61774331D02*
X57567640Y-63274331D01*
X48130557Y-73527854D02*
X48059128Y-73599282D01*
X47844842Y-73670711D01*
X47701985Y-73670711D01*
X47487700Y-73599282D01*
X47344842Y-73456425D01*
X47273414Y-73313568D01*
X47201985Y-73027854D01*
X47201985Y-72813568D01*
X47273414Y-72527854D01*
X47344842Y-72384997D01*
X47487700Y-72242140D01*
X47701985Y-72170711D01*
X47844842Y-72170711D01*
X48059128Y-72242140D01*
X48130557Y-72313568D01*
X48701985Y-73242140D02*
X49416271Y-73242140D01*
X48559128Y-73670711D02*
X49059128Y-72170711D01*
X49559128Y-73670711D01*
X50059128Y-73670711D02*
X50059128Y-72170711D01*
X50559128Y-73242140D01*
X51059128Y-72170711D01*
X51059128Y-73670711D01*
X51559128Y-72170711D02*
X52059128Y-73670711D01*
X52559128Y-72170711D01*
X53059128Y-73670711D02*
X53059128Y-72170711D01*
X53773414Y-72884997D02*
X54273414Y-72884997D01*
X54487700Y-73670711D02*
X53773414Y-73670711D01*
X53773414Y-72170711D01*
X54487700Y-72170711D01*
X54987700Y-72170711D02*
X55344842Y-73670711D01*
X55630557Y-72599282D01*
X55916271Y-73670711D01*
X56273414Y-72170711D01*
X57773414Y-72170711D02*
X58273414Y-73670711D01*
X58773414Y-72170711D01*
X59273414Y-73527854D02*
X59344842Y-73599282D01*
X59273414Y-73670711D01*
X59201985Y-73599282D01*
X59273414Y-73527854D01*
X59273414Y-73670711D01*
X59916271Y-72313568D02*
X59987700Y-72242140D01*
X60130557Y-72170711D01*
X60487700Y-72170711D01*
X60630557Y-72242140D01*
X60701985Y-72313568D01*
X60773414Y-72456425D01*
X60773414Y-72599282D01*
X60701985Y-72813568D01*
X59844842Y-73670711D01*
X60773414Y-73670711D01*
X47451985Y-74720711D02*
X47951985Y-76220711D01*
X48451985Y-74720711D01*
X48951985Y-76077854D02*
X49023414Y-76149282D01*
X48951985Y-76220711D01*
X48880557Y-76149282D01*
X48951985Y-76077854D01*
X48951985Y-76220711D01*
X50594842Y-74720711D02*
X51451985Y-74720711D01*
X51023414Y-76220711D02*
X51023414Y-74720711D01*
X52166271Y-76220711D02*
X52023414Y-76149282D01*
X51951985Y-76077854D01*
X51880557Y-75934997D01*
X51880557Y-75506425D01*
X51951985Y-75363568D01*
X52023414Y-75292140D01*
X52166271Y-75220711D01*
X52380557Y-75220711D01*
X52523414Y-75292140D01*
X52594842Y-75363568D01*
X52666271Y-75506425D01*
X52666271Y-75934997D01*
X52594842Y-76077854D01*
X52523414Y-76149282D01*
X52380557Y-76220711D01*
X52166271Y-76220711D01*
X53523414Y-76220711D02*
X53380557Y-76149282D01*
X53309128Y-76006425D01*
X53309128Y-74720711D01*
X54666271Y-76149282D02*
X54523414Y-76220711D01*
X54237700Y-76220711D01*
X54094842Y-76149282D01*
X54023414Y-76006425D01*
X54023414Y-75434997D01*
X54094842Y-75292140D01*
X54237700Y-75220711D01*
X54523414Y-75220711D01*
X54666271Y-75292140D01*
X54737700Y-75434997D01*
X54737700Y-75577854D01*
X54023414Y-75720711D01*
X55380557Y-75220711D02*
X55380557Y-76220711D01*
X55380557Y-75363568D02*
X55451985Y-75292140D01*
X55594842Y-75220711D01*
X55809128Y-75220711D01*
X55951985Y-75292140D01*
X56023414Y-75434997D01*
X56023414Y-76220711D01*
X56523414Y-75220711D02*
X57094842Y-75220711D01*
X56737700Y-74720711D02*
X56737700Y-76006425D01*
X56809128Y-76149282D01*
X56951985Y-76220711D01*
X57094842Y-76220711D01*
X57594842Y-76220711D02*
X57594842Y-75220711D01*
X57594842Y-74720711D02*
X57523414Y-74792140D01*
X57594842Y-74863568D01*
X57666271Y-74792140D01*
X57594842Y-74720711D01*
X57594842Y-74863568D01*
X58309128Y-75220711D02*
X58309128Y-76220711D01*
X58309128Y-75363568D02*
X58380557Y-75292140D01*
X58523414Y-75220711D01*
X58737700Y-75220711D01*
X58880557Y-75292140D01*
X58951985Y-75434997D01*
X58951985Y-76220711D01*
X59880557Y-76220711D02*
X59737700Y-76149282D01*
X59666271Y-76077854D01*
X59594842Y-75934997D01*
X59594842Y-75506425D01*
X59666271Y-75363568D01*
X59737700Y-75292140D01*
X59880557Y-75220711D01*
X60094842Y-75220711D01*
X60237700Y-75292140D01*
X60309128Y-75363568D01*
X60380557Y-75506425D01*
X60380557Y-75934997D01*
X60309128Y-76077854D01*
X60237700Y-76149282D01*
X60094842Y-76220711D01*
X59880557Y-76220711D01*
X50130557Y-78770711D02*
X49273414Y-78770711D01*
X49701985Y-78770711D02*
X49701985Y-77270711D01*
X49559128Y-77484997D01*
X49416271Y-77627854D01*
X49273414Y-77699282D01*
X51416271Y-77270711D02*
X51130557Y-77270711D01*
X50987700Y-77342140D01*
X50916271Y-77413568D01*
X50773414Y-77627854D01*
X50701985Y-77913568D01*
X50701985Y-78484997D01*
X50773414Y-78627854D01*
X50844842Y-78699282D01*
X50987700Y-78770711D01*
X51273414Y-78770711D01*
X51416271Y-78699282D01*
X51487700Y-78627854D01*
X51559128Y-78484997D01*
X51559128Y-78127854D01*
X51487700Y-77984997D01*
X51416271Y-77913568D01*
X51273414Y-77842140D01*
X50987700Y-77842140D01*
X50844842Y-77913568D01*
X50773414Y-77984997D01*
X50701985Y-78127854D01*
X52201985Y-78627854D02*
X52273414Y-78699282D01*
X52201985Y-78770711D01*
X52130557Y-78699282D01*
X52201985Y-78627854D01*
X52201985Y-78770711D01*
X53201985Y-77270711D02*
X53344842Y-77270711D01*
X53487700Y-77342140D01*
X53559128Y-77413568D01*
X53630557Y-77556425D01*
X53701985Y-77842140D01*
X53701985Y-78199282D01*
X53630557Y-78484997D01*
X53559128Y-78627854D01*
X53487700Y-78699282D01*
X53344842Y-78770711D01*
X53201985Y-78770711D01*
X53059128Y-78699282D01*
X52987700Y-78627854D01*
X52916271Y-78484997D01*
X52844842Y-78199282D01*
X52844842Y-77842140D01*
X52916271Y-77556425D01*
X52987700Y-77413568D01*
X53059128Y-77342140D01*
X53201985Y-77270711D01*
X54987700Y-77770711D02*
X54987700Y-78770711D01*
X54630557Y-77199282D02*
X54273414Y-78270711D01*
X55201985Y-78270711D01*
X55773414Y-78627854D02*
X55844842Y-78699282D01*
X55773414Y-78770711D01*
X55701985Y-78699282D01*
X55773414Y-78627854D01*
X55773414Y-78770711D01*
X57273414Y-78770711D02*
X56416271Y-78770711D01*
X56844842Y-78770711D02*
X56844842Y-77270711D01*
X56701985Y-77484997D01*
X56559128Y-77627854D01*
X56416271Y-77699282D01*
X57987700Y-78770711D02*
X58273414Y-78770711D01*
X58416271Y-78699282D01*
X58487700Y-78627854D01*
X58630557Y-78413568D01*
X58701985Y-78127854D01*
X58701985Y-77556425D01*
X58630557Y-77413568D01*
X58559128Y-77342140D01*
X58416271Y-77270711D01*
X58130557Y-77270711D01*
X57987700Y-77342140D01*
X57916271Y-77413568D01*
X57844842Y-77556425D01*
X57844842Y-77913568D01*
X57916271Y-78056425D01*
X57987700Y-78127854D01*
X58130557Y-78199282D01*
X58416271Y-78199282D01*
X58559128Y-78127854D01*
X58630557Y-78056425D01*
X58701985Y-77913568D01*
D12*
X19964400Y-91389200D02*
X119938800Y-91389200D01*
D11*
X50517200Y-95501542D02*
X50731485Y-95572971D01*
X51088628Y-95572971D01*
X51231485Y-95501542D01*
X51302914Y-95430114D01*
X51374342Y-95287257D01*
X51374342Y-95144400D01*
X51302914Y-95001542D01*
X51231485Y-94930114D01*
X51088628Y-94858685D01*
X50802914Y-94787257D01*
X50660057Y-94715828D01*
X50588628Y-94644400D01*
X50517200Y-94501542D01*
X50517200Y-94358685D01*
X50588628Y-94215828D01*
X50660057Y-94144400D01*
X50802914Y-94072971D01*
X51160057Y-94072971D01*
X51374342Y-94144400D01*
X52231485Y-95572971D02*
X52088628Y-95501542D01*
X52017200Y-95430114D01*
X51945771Y-95287257D01*
X51945771Y-94858685D01*
X52017200Y-94715828D01*
X52088628Y-94644400D01*
X52231485Y-94572971D01*
X52445771Y-94572971D01*
X52588628Y-94644400D01*
X52660057Y-94715828D01*
X52731485Y-94858685D01*
X52731485Y-95287257D01*
X52660057Y-95430114D01*
X52588628Y-95501542D01*
X52445771Y-95572971D01*
X52231485Y-95572971D01*
X53588628Y-95572971D02*
X53445771Y-95501542D01*
X53374342Y-95358685D01*
X53374342Y-94072971D01*
X54802914Y-95572971D02*
X54802914Y-94787257D01*
X54731485Y-94644400D01*
X54588628Y-94572971D01*
X54302914Y-94572971D01*
X54160057Y-94644400D01*
X54802914Y-95501542D02*
X54660057Y-95572971D01*
X54302914Y-95572971D01*
X54160057Y-95501542D01*
X54088628Y-95358685D01*
X54088628Y-95215828D01*
X54160057Y-95072971D01*
X54302914Y-95001542D01*
X54660057Y-95001542D01*
X54802914Y-94930114D01*
X55517200Y-95572971D02*
X55517200Y-94572971D01*
X55517200Y-94858685D02*
X55588628Y-94715828D01*
X55660057Y-94644400D01*
X55802914Y-94572971D01*
X55945771Y-94572971D01*
X58445771Y-95430114D02*
X58374342Y-95501542D01*
X58160057Y-95572971D01*
X58017200Y-95572971D01*
X57802914Y-95501542D01*
X57660057Y-95358685D01*
X57588628Y-95215828D01*
X57517200Y-94930114D01*
X57517200Y-94715828D01*
X57588628Y-94430114D01*
X57660057Y-94287257D01*
X57802914Y-94144400D01*
X58017200Y-94072971D01*
X58160057Y-94072971D01*
X58374342Y-94144400D01*
X58445771Y-94215828D01*
X59088628Y-95572971D02*
X59088628Y-94072971D01*
X59731485Y-95572971D02*
X59731485Y-94787257D01*
X59660057Y-94644400D01*
X59517200Y-94572971D01*
X59302914Y-94572971D01*
X59160057Y-94644400D01*
X59088628Y-94715828D01*
X61088628Y-95572971D02*
X61088628Y-94787257D01*
X61017200Y-94644400D01*
X60874342Y-94572971D01*
X60588628Y-94572971D01*
X60445771Y-94644400D01*
X61088628Y-95501542D02*
X60945771Y-95572971D01*
X60588628Y-95572971D01*
X60445771Y-95501542D01*
X60374342Y-95358685D01*
X60374342Y-95215828D01*
X60445771Y-95072971D01*
X60588628Y-95001542D01*
X60945771Y-95001542D01*
X61088628Y-94930114D01*
X61802914Y-95572971D02*
X61802914Y-94572971D01*
X61802914Y-94858685D02*
X61874342Y-94715828D01*
X61945771Y-94644400D01*
X62088628Y-94572971D01*
X62231485Y-94572971D01*
X63374342Y-94572971D02*
X63374342Y-95787257D01*
X63302914Y-95930114D01*
X63231485Y-96001542D01*
X63088628Y-96072971D01*
X62874342Y-96072971D01*
X62731485Y-96001542D01*
X63374342Y-95501542D02*
X63231485Y-95572971D01*
X62945771Y-95572971D01*
X62802914Y-95501542D01*
X62731485Y-95430114D01*
X62660057Y-95287257D01*
X62660057Y-94858685D01*
X62731485Y-94715828D01*
X62802914Y-94644400D01*
X62945771Y-94572971D01*
X63231485Y-94572971D01*
X63374342Y-94644400D01*
X64660057Y-95501542D02*
X64517200Y-95572971D01*
X64231485Y-95572971D01*
X64088628Y-95501542D01*
X64017200Y-95358685D01*
X64017200Y-94787257D01*
X64088628Y-94644400D01*
X64231485Y-94572971D01*
X64517200Y-94572971D01*
X64660057Y-94644400D01*
X64731485Y-94787257D01*
X64731485Y-94930114D01*
X64017200Y-95072971D01*
X65374342Y-95572971D02*
X65374342Y-94572971D01*
X65374342Y-94858685D02*
X65445771Y-94715828D01*
X65517200Y-94644400D01*
X65660057Y-94572971D01*
X65802914Y-94572971D01*
X67231485Y-94072971D02*
X67731485Y-95572971D01*
X68231485Y-94072971D01*
X69517200Y-95572971D02*
X68660057Y-95572971D01*
X69088628Y-95572971D02*
X69088628Y-94072971D01*
X68945771Y-94287257D01*
X68802914Y-94430114D01*
X68660057Y-94501542D01*
X70160057Y-95430114D02*
X70231485Y-95501542D01*
X70160057Y-95572971D01*
X70088628Y-95501542D01*
X70160057Y-95430114D01*
X70160057Y-95572971D01*
X71160057Y-94072971D02*
X71302914Y-94072971D01*
X71445771Y-94144400D01*
X71517200Y-94215828D01*
X71588628Y-94358685D01*
X71660057Y-94644400D01*
X71660057Y-95001542D01*
X71588628Y-95287257D01*
X71517200Y-95430114D01*
X71445771Y-95501542D01*
X71302914Y-95572971D01*
X71160057Y-95572971D01*
X71017200Y-95501542D01*
X70945771Y-95430114D01*
X70874342Y-95287257D01*
X70802914Y-95001542D01*
X70802914Y-94644400D01*
X70874342Y-94358685D01*
X70945771Y-94215828D01*
X71017200Y-94144400D01*
X71160057Y-94072971D01*
X73231485Y-94072971D02*
X73731485Y-95572971D01*
X74231485Y-94072971D01*
X74731485Y-95430114D02*
X74802914Y-95501542D01*
X74731485Y-95572971D01*
X74660057Y-95501542D01*
X74731485Y-95430114D01*
X74731485Y-95572971D01*
X75231485Y-94072971D02*
X76088628Y-94072971D01*
X75660057Y-95572971D02*
X75660057Y-94072971D01*
X76802914Y-95572971D02*
X76660057Y-95501542D01*
X76588628Y-95430114D01*
X76517200Y-95287257D01*
X76517200Y-94858685D01*
X76588628Y-94715828D01*
X76660057Y-94644400D01*
X76802914Y-94572971D01*
X77017200Y-94572971D01*
X77160057Y-94644400D01*
X77231485Y-94715828D01*
X77302914Y-94858685D01*
X77302914Y-95287257D01*
X77231485Y-95430114D01*
X77160057Y-95501542D01*
X77017200Y-95572971D01*
X76802914Y-95572971D01*
X78160057Y-95572971D02*
X78017200Y-95501542D01*
X77945771Y-95358685D01*
X77945771Y-94072971D01*
X79302914Y-95501542D02*
X79160057Y-95572971D01*
X78874342Y-95572971D01*
X78731485Y-95501542D01*
X78660057Y-95358685D01*
X78660057Y-94787257D01*
X78731485Y-94644400D01*
X78874342Y-94572971D01*
X79160057Y-94572971D01*
X79302914Y-94644400D01*
X79374342Y-94787257D01*
X79374342Y-94930114D01*
X78660057Y-95072971D01*
X80017200Y-94572971D02*
X80017200Y-95572971D01*
X80017200Y-94715828D02*
X80088628Y-94644400D01*
X80231485Y-94572971D01*
X80445771Y-94572971D01*
X80588628Y-94644400D01*
X80660057Y-94787257D01*
X80660057Y-95572971D01*
X81160057Y-94572971D02*
X81731485Y-94572971D01*
X81374342Y-94072971D02*
X81374342Y-95358685D01*
X81445771Y-95501542D01*
X81588628Y-95572971D01*
X81731485Y-95572971D01*
X82231485Y-95572971D02*
X82231485Y-94572971D01*
X82231485Y-94072971D02*
X82160057Y-94144400D01*
X82231485Y-94215828D01*
X82302914Y-94144400D01*
X82231485Y-94072971D01*
X82231485Y-94215828D01*
X82945771Y-94572971D02*
X82945771Y-95572971D01*
X82945771Y-94715828D02*
X83017200Y-94644400D01*
X83160057Y-94572971D01*
X83374342Y-94572971D01*
X83517200Y-94644400D01*
X83588628Y-94787257D01*
X83588628Y-95572971D01*
X84517200Y-95572971D02*
X84374342Y-95501542D01*
X84302914Y-95430114D01*
X84231485Y-95287257D01*
X84231485Y-94858685D01*
X84302914Y-94715828D01*
X84374342Y-94644400D01*
X84517200Y-94572971D01*
X84731485Y-94572971D01*
X84874342Y-94644400D01*
X84945771Y-94715828D01*
X85017200Y-94858685D01*
X85017200Y-95287257D01*
X84945771Y-95430114D01*
X84874342Y-95501542D01*
X84731485Y-95572971D01*
X84517200Y-95572971D01*
X107554057Y-117799657D02*
X107768342Y-117871085D01*
X107839771Y-117942514D01*
X107911200Y-118085371D01*
X107911200Y-118299657D01*
X107839771Y-118442514D01*
X107768342Y-118513942D01*
X107625485Y-118585371D01*
X107054057Y-118585371D01*
X107054057Y-117085371D01*
X107554057Y-117085371D01*
X107696914Y-117156800D01*
X107768342Y-117228228D01*
X107839771Y-117371085D01*
X107839771Y-117513942D01*
X107768342Y-117656800D01*
X107696914Y-117728228D01*
X107554057Y-117799657D01*
X107054057Y-117799657D01*
X108482628Y-118156800D02*
X109196914Y-118156800D01*
X108339771Y-118585371D02*
X108839771Y-117085371D01*
X109339771Y-118585371D01*
X109625485Y-117085371D02*
X110482628Y-117085371D01*
X110054057Y-118585371D02*
X110054057Y-117085371D01*
X107076228Y-96263542D02*
X107290514Y-96334971D01*
X107647657Y-96334971D01*
X107790514Y-96263542D01*
X107861942Y-96192114D01*
X107933371Y-96049257D01*
X107933371Y-95906400D01*
X107861942Y-95763542D01*
X107790514Y-95692114D01*
X107647657Y-95620685D01*
X107361942Y-95549257D01*
X107219085Y-95477828D01*
X107147657Y-95406400D01*
X107076228Y-95263542D01*
X107076228Y-95120685D01*
X107147657Y-94977828D01*
X107219085Y-94906400D01*
X107361942Y-94834971D01*
X107719085Y-94834971D01*
X107933371Y-94906400D01*
X108576228Y-96334971D02*
X108576228Y-94834971D01*
X109147657Y-94834971D01*
X109290514Y-94906400D01*
X109361942Y-94977828D01*
X109433371Y-95120685D01*
X109433371Y-95334971D01*
X109361942Y-95477828D01*
X109290514Y-95549257D01*
X109147657Y-95620685D01*
X108576228Y-95620685D01*
D13*
G04 #@! TO.C,J6*
X95961200Y-45881600D02*
X94631200Y-45881600D01*
X94631200Y-45881600D02*
X94631200Y-44551600D01*
X97231200Y-45881600D02*
X97231200Y-43281600D01*
X97231200Y-43281600D02*
X94631200Y-43281600D01*
X94631200Y-43281600D02*
X94631200Y-40681600D01*
X99831200Y-40681600D02*
X94631200Y-40681600D01*
X99831200Y-45881600D02*
X99831200Y-40681600D01*
X99831200Y-45881600D02*
X97231200Y-45881600D01*
D14*
G04 #@! TO.C,J1*
X23962160Y-60752960D02*
X23462160Y-60752960D01*
X25712160Y-58352960D02*
X25712160Y-58652960D01*
X23962160Y-52652960D02*
X23512160Y-52652960D01*
X25712160Y-54802960D02*
X25712160Y-55102960D01*
X20762160Y-52652960D02*
X19962160Y-52652960D01*
X19962160Y-52652960D02*
X19962160Y-53152960D01*
X19962160Y-60302960D02*
X19962160Y-60752960D01*
X19962160Y-60752960D02*
X20812160Y-60752960D01*
D15*
G04 #@! TO.C,U1*
X35331400Y-57937400D02*
X44729400Y-57937400D01*
X35331400Y-54025800D02*
G75*
G03X34950400Y-54406800I0J-381000D01*
G01*
X45110400Y-57556400D02*
G75*
G02X44729400Y-57937400I-381000J0D01*
G01*
X35331400Y-57937400D02*
G75*
G02X34950400Y-57556400I0J381000D01*
G01*
X45110400Y-54406800D02*
G75*
G03X44729400Y-54025800I-381000J0D01*
G01*
X44729400Y-54025800D02*
X35331400Y-54025800D01*
X45110400Y-57556400D02*
X45110400Y-56489600D01*
X45110400Y-56489600D02*
X45110400Y-55473600D01*
X45110400Y-55473600D02*
X45110400Y-54406800D01*
X45110400Y-56489600D02*
G75*
G02X45110400Y-55473600I0J508000D01*
G01*
D16*
X45110400Y-54381400D02*
X34950400Y-54381400D01*
D12*
G04 #@! TO.C,C6*
X27635200Y-37287200D02*
X26111200Y-35763200D01*
X26111200Y-42367200D02*
X27635200Y-40843200D01*
G04 #@! TO.C,C9*
X38557200Y-26492200D02*
X40081200Y-28016200D01*
X43637200Y-28016200D02*
X45161200Y-26492200D01*
D15*
G04 #@! TO.C,U3*
X71932800Y-48793400D02*
X71450200Y-48793400D01*
X81559400Y-49276000D02*
X81559400Y-48793400D01*
X81076800Y-58902600D02*
X81559400Y-58902600D01*
X71450200Y-58902600D02*
X71932800Y-58902600D01*
X81559400Y-58902600D02*
X81559400Y-58420000D01*
X81559400Y-48793400D02*
X81076800Y-48793400D01*
X71450200Y-48793400D02*
X71450200Y-49276000D01*
X71450200Y-58420000D02*
X71450200Y-58902600D01*
D14*
X71064380Y-49174400D02*
G75*
G03X71064380Y-49174400I-198380J0D01*
G01*
D12*
G04 #@! TO.C,U10*
X42082000Y-84305800D02*
G75*
G03X42082000Y-84305800I-100000J0D01*
G01*
D17*
X41442000Y-82260800D02*
X41442000Y-77860800D01*
X46442000Y-82260800D02*
X46442000Y-77860800D01*
D14*
G04 #@! TO.C,U7*
X66709600Y-80588000D02*
X66709600Y-80188000D01*
X66709600Y-80188000D02*
X66409600Y-79888000D01*
X66409600Y-79888000D02*
X66409600Y-79088000D01*
X61809600Y-79688000D02*
X61509600Y-79688000D01*
X61509600Y-79688000D02*
X61509600Y-79988000D01*
X66409600Y-83888000D02*
X66709600Y-83888000D01*
X66709600Y-83888000D02*
X66709600Y-83588000D01*
X61809600Y-83888000D02*
X61509600Y-83888000D01*
X61509600Y-83888000D02*
X61509600Y-83588000D01*
G04 #@! TO.C,Y1*
X46786800Y-50266600D02*
X35433000Y-50266600D01*
X46812200Y-44881800D02*
X35382200Y-44881800D01*
G04 #@! TO.C,Y2*
X63068200Y-44856400D02*
X51638200Y-44856400D01*
X63042800Y-50241200D02*
X51689000Y-50241200D01*
D13*
G04 #@! TO.C,C17*
X117400800Y-27591867D02*
X117400800Y-27249333D01*
X116380800Y-27591867D02*
X116380800Y-27249333D01*
G04 #@! TO.C,C27*
X101974467Y-79042800D02*
X101631933Y-79042800D01*
X101974467Y-80062800D02*
X101631933Y-80062800D01*
G04 #@! TO.C,C28*
X108414667Y-80113600D02*
X108072133Y-80113600D01*
X108414667Y-79093600D02*
X108072133Y-79093600D01*
G04 #@! TO.C,C29*
X100632800Y-73515067D02*
X100632800Y-73172533D01*
X101652800Y-73515067D02*
X101652800Y-73172533D01*
G04 #@! TO.C,D5*
X28967200Y-55232200D02*
X32907200Y-55232200D01*
X28967200Y-55232200D02*
X28967200Y-49642200D01*
X32907200Y-55232200D02*
X32907200Y-49642200D01*
G04 #@! TO.C,D6*
X27218200Y-46747200D02*
X21628200Y-46747200D01*
X27218200Y-50687200D02*
X21628200Y-50687200D01*
X27218200Y-50687200D02*
X27218200Y-46747200D01*
G04 #@! TO.C,D7*
X50600000Y-23690200D02*
X54485000Y-23690200D01*
X54485000Y-23690200D02*
X54485000Y-21420200D01*
X54485000Y-21420200D02*
X50600000Y-21420200D01*
G04 #@! TO.C,D8*
X67676800Y-26098600D02*
X67676800Y-31688600D01*
X71616800Y-26098600D02*
X71616800Y-31688600D01*
X71616800Y-26098600D02*
X67676800Y-26098600D01*
G04 #@! TO.C,D9*
X59672600Y-25220200D02*
X59672600Y-29105200D01*
X61942600Y-25220200D02*
X59672600Y-25220200D01*
X61942600Y-29105200D02*
X61942600Y-25220200D01*
G04 #@! TO.C,D10*
X110604800Y-41366000D02*
X110604800Y-36866000D01*
X113524800Y-41356000D02*
X110604800Y-41366000D01*
X113524800Y-41366000D02*
X113524800Y-36866000D01*
G04 #@! TO.C,D11*
X103127200Y-85005800D02*
X107012200Y-85005800D01*
X107012200Y-85005800D02*
X107012200Y-82735800D01*
X107012200Y-82735800D02*
X103127200Y-82735800D01*
G04 #@! TO.C,D12*
X112899000Y-82735800D02*
X109014000Y-82735800D01*
X112899000Y-85005800D02*
X112899000Y-82735800D01*
X109014000Y-85005800D02*
X112899000Y-85005800D01*
G04 #@! TO.C,J13*
X119795600Y-77225200D02*
X117195600Y-77225200D01*
X119795600Y-77225200D02*
X119795600Y-69485200D01*
X119795600Y-69485200D02*
X114595600Y-69485200D01*
X114595600Y-74625200D02*
X114595600Y-69485200D01*
X117195600Y-74625200D02*
X114595600Y-74625200D01*
X117195600Y-77225200D02*
X117195600Y-74625200D01*
X114595600Y-77225200D02*
X114595600Y-75895200D01*
X115925600Y-77225200D02*
X114595600Y-77225200D01*
G04 #@! TO.C,Q1*
X99007200Y-39730800D02*
X99007200Y-38800800D01*
X99007200Y-36570800D02*
X99007200Y-37500800D01*
X99007200Y-36570800D02*
X96847200Y-36570800D01*
X99007200Y-39730800D02*
X97547200Y-39730800D01*
G04 #@! TO.C,R13*
X112981200Y-29281333D02*
X112981200Y-29623867D01*
X111961200Y-29281333D02*
X111961200Y-29623867D01*
G04 #@! TO.C,R19*
X69695600Y-85757867D02*
X69695600Y-85415333D01*
X70715600Y-85757867D02*
X70715600Y-85415333D01*
G04 #@! TO.C,R33*
X114597333Y-79703200D02*
X114939867Y-79703200D01*
X114597333Y-80723200D02*
X114939867Y-80723200D01*
G04 #@! TO.C,R34*
X104858667Y-69136800D02*
X104516133Y-69136800D01*
X104858667Y-70156800D02*
X104516133Y-70156800D01*
G04 #@! TO.C,R37*
X100429600Y-82265733D02*
X100429600Y-82608267D01*
X101449600Y-82265733D02*
X101449600Y-82608267D01*
G04 #@! TO.C,R38*
X107156067Y-88495600D02*
X106813533Y-88495600D01*
X107156067Y-87475600D02*
X106813533Y-87475600D01*
G04 #@! TO.C,R39*
X108134333Y-82044000D02*
X108476867Y-82044000D01*
X108134333Y-81024000D02*
X108476867Y-81024000D01*
G04 #@! TO.C,SW1*
X83804000Y-32678000D02*
X88304000Y-32678000D01*
X82554000Y-28678000D02*
X82554000Y-30178000D01*
X88304000Y-26178000D02*
X83804000Y-26178000D01*
X89554000Y-30178000D02*
X89554000Y-28678000D01*
G04 #@! TO.C,U4*
X119795600Y-40039600D02*
X117195600Y-40039600D01*
X119795600Y-40039600D02*
X119795600Y-29759600D01*
X119795600Y-29759600D02*
X114595600Y-29759600D01*
X114595600Y-37439600D02*
X114595600Y-29759600D01*
X117195600Y-37439600D02*
X114595600Y-37439600D01*
X117195600Y-40039600D02*
X117195600Y-37439600D01*
X114595600Y-40039600D02*
X114595600Y-38709600D01*
X115925600Y-40039600D02*
X114595600Y-40039600D01*
D18*
G04 #@! TO.C,U11*
X110911200Y-72357400D02*
X106411200Y-72357400D01*
X112036200Y-77907400D02*
X106411200Y-77907400D01*
D13*
G04 #@! TO.C,C1*
X45332467Y-43893200D02*
X44989933Y-43893200D01*
X45332467Y-42873200D02*
X44989933Y-42873200D01*
G04 #@! TO.C,C2*
X36861933Y-43893200D02*
X37204467Y-43893200D01*
X36861933Y-42873200D02*
X37204467Y-42873200D01*
G04 #@! TO.C,C3*
X25125467Y-43635200D02*
X24782933Y-43635200D01*
X25125467Y-44655200D02*
X24782933Y-44655200D01*
G04 #@! TO.C,C4*
X40130000Y-62809333D02*
X40130000Y-63151867D01*
X41150000Y-62809333D02*
X41150000Y-63151867D01*
G04 #@! TO.C,C5*
X44807600Y-62566733D02*
X44807600Y-62909267D01*
X43787600Y-62566733D02*
X43787600Y-62909267D01*
G04 #@! TO.C,C7*
X25012467Y-34241200D02*
X24669933Y-34241200D01*
X25012467Y-33221200D02*
X24669933Y-33221200D01*
G04 #@! TO.C,C8*
X36523200Y-27106467D02*
X36523200Y-26763933D01*
X37543200Y-27106467D02*
X37543200Y-26763933D01*
G04 #@! TO.C,C11*
X53117933Y-43893200D02*
X53460467Y-43893200D01*
X53117933Y-42873200D02*
X53460467Y-42873200D01*
G04 #@! TO.C,C12*
X86784333Y-52347400D02*
X87126867Y-52347400D01*
X86784333Y-53367400D02*
X87126867Y-53367400D01*
G04 #@! TO.C,C13*
X77776800Y-44632467D02*
X77776800Y-44289933D01*
X76756800Y-44632467D02*
X76756800Y-44289933D01*
G04 #@! TO.C,C14*
X75812467Y-63146400D02*
X75469933Y-63146400D01*
X75812467Y-62126400D02*
X75469933Y-62126400D01*
G04 #@! TO.C,C15*
X66860467Y-52525200D02*
X66517933Y-52525200D01*
X66860467Y-53545200D02*
X66517933Y-53545200D01*
G04 #@! TO.C,C16*
X87109840Y-55160093D02*
X87109840Y-55502627D01*
X88129840Y-55160093D02*
X88129840Y-55502627D01*
G04 #@! TO.C,C18*
X112399867Y-63959200D02*
X112057333Y-63959200D01*
X112399867Y-62939200D02*
X112057333Y-62939200D01*
G04 #@! TO.C,C19*
X103376000Y-40581733D02*
X103376000Y-40924267D01*
X104396000Y-40581733D02*
X104396000Y-40924267D01*
G04 #@! TO.C,C20*
X57943933Y-85447600D02*
X58286467Y-85447600D01*
X57943933Y-84427600D02*
X58286467Y-84427600D01*
G04 #@! TO.C,C21*
X65298733Y-76506800D02*
X65641267Y-76506800D01*
X65298733Y-75486800D02*
X65641267Y-75486800D01*
G04 #@! TO.C,C22*
X68886800Y-85415333D02*
X68886800Y-85757867D01*
X67866800Y-85415333D02*
X67866800Y-85757867D01*
G04 #@! TO.C,C24*
X35151600Y-76636667D02*
X35151600Y-76294133D01*
X36171600Y-76636667D02*
X36171600Y-76294133D01*
G04 #@! TO.C,C25*
X25499600Y-65195267D02*
X25499600Y-64852733D01*
X26519600Y-65195267D02*
X26519600Y-64852733D01*
G04 #@! TO.C,C26*
X39147933Y-74830400D02*
X39490467Y-74830400D01*
X39147933Y-73810400D02*
X39490467Y-73810400D01*
G04 #@! TO.C,D1*
X63373200Y-67073400D02*
X67258200Y-67073400D01*
X67258200Y-67073400D02*
X67258200Y-64803400D01*
X67258200Y-64803400D02*
X63373200Y-64803400D01*
G04 #@! TO.C,D2*
X56462200Y-67073400D02*
X60347200Y-67073400D01*
X56462200Y-64803400D02*
X56462200Y-67073400D01*
X60347200Y-64803400D02*
X56462200Y-64803400D01*
G04 #@! TO.C,D3*
X28967200Y-58012600D02*
X28967200Y-63602600D01*
X32907200Y-58012600D02*
X32907200Y-63602600D01*
X32907200Y-58012600D02*
X28967200Y-58012600D01*
G04 #@! TO.C,D4*
X46416400Y-53302400D02*
X50916400Y-53302400D01*
X46426400Y-56222400D02*
X46416400Y-53302400D01*
X46416400Y-56222400D02*
X50916400Y-56222400D01*
G04 #@! TO.C,FB1*
X89693933Y-54150800D02*
X90036467Y-54150800D01*
X89693933Y-55170800D02*
X90036467Y-55170800D01*
G04 #@! TO.C,J2*
X56836000Y-38363200D02*
X56836000Y-35763200D01*
X56836000Y-38363200D02*
X64576000Y-38363200D01*
X64576000Y-38363200D02*
X64576000Y-33163200D01*
X59436000Y-33163200D02*
X64576000Y-33163200D01*
X59436000Y-35763200D02*
X59436000Y-33163200D01*
X56836000Y-35763200D02*
X59436000Y-35763200D01*
X56836000Y-33163200D02*
X58166000Y-33163200D01*
X56836000Y-34493200D02*
X56836000Y-33163200D01*
G04 #@! TO.C,J3*
X84226400Y-70976800D02*
X84226400Y-68316800D01*
X84226400Y-70976800D02*
X86826400Y-70976800D01*
X86826400Y-70976800D02*
X86826400Y-68316800D01*
X84226400Y-68316800D02*
X86826400Y-68316800D01*
X81626400Y-68316800D02*
X82956400Y-68316800D01*
X81626400Y-69646800D02*
X81626400Y-68316800D01*
G04 #@! TO.C,J5*
X59274400Y-62534800D02*
X59274400Y-61204800D01*
X59274400Y-61204800D02*
X60604400Y-61204800D01*
X61874400Y-61204800D02*
X64474400Y-61204800D01*
X64474400Y-63864800D02*
X64474400Y-61204800D01*
X61874400Y-63864800D02*
X64474400Y-63864800D01*
X61874400Y-63864800D02*
X61874400Y-61204800D01*
G04 #@! TO.C,J7*
X103022400Y-52162400D02*
X104352400Y-52162400D01*
X104352400Y-52162400D02*
X104352400Y-53492400D01*
X101752400Y-52162400D02*
X101752400Y-54762400D01*
X101752400Y-54762400D02*
X104352400Y-54762400D01*
X104352400Y-54762400D02*
X104352400Y-57362400D01*
X99152400Y-57362400D02*
X104352400Y-57362400D01*
X99152400Y-52162400D02*
X99152400Y-57362400D01*
X99152400Y-52162400D02*
X101752400Y-52162400D01*
G04 #@! TO.C,J8*
X78619200Y-88849200D02*
X78619200Y-87519200D01*
X78619200Y-87519200D02*
X79949200Y-87519200D01*
X81219200Y-87519200D02*
X93979200Y-87519200D01*
X93979200Y-90179200D02*
X93979200Y-87519200D01*
X81219200Y-90179200D02*
X93979200Y-90179200D01*
X81219200Y-90179200D02*
X81219200Y-87519200D01*
G04 #@! TO.C,J10*
X39868800Y-71078400D02*
X39868800Y-68478400D01*
X39868800Y-71078400D02*
X45068800Y-71078400D01*
X45068800Y-71078400D02*
X45068800Y-65878400D01*
X42468800Y-65878400D02*
X45068800Y-65878400D01*
X42468800Y-68478400D02*
X42468800Y-65878400D01*
X39868800Y-68478400D02*
X42468800Y-68478400D01*
X39868800Y-65878400D02*
X41198800Y-65878400D01*
X39868800Y-67208400D02*
X39868800Y-65878400D01*
G04 #@! TO.C,J11*
X28694200Y-83854200D02*
X22394200Y-83854200D01*
X27994200Y-70984200D02*
X22394200Y-70984200D01*
X32404200Y-83854200D02*
X30594200Y-83854200D01*
X32404200Y-70984200D02*
X32404200Y-82244200D01*
X31244200Y-70984200D02*
X32404200Y-70984200D01*
X32404200Y-83744200D02*
X32404200Y-83854200D01*
G04 #@! TO.C,J12*
X94488000Y-80882800D02*
X93158000Y-80882800D01*
X93158000Y-80882800D02*
X93158000Y-79552800D01*
X95758000Y-80882800D02*
X95758000Y-78282800D01*
X95758000Y-78282800D02*
X93158000Y-78282800D01*
X93158000Y-78282800D02*
X93158000Y-75682800D01*
X98358000Y-75682800D02*
X93158000Y-75682800D01*
X98358000Y-80882800D02*
X98358000Y-75682800D01*
X98358000Y-80882800D02*
X95758000Y-80882800D01*
G04 #@! TO.C,Q3*
X103884000Y-89565600D02*
X102424000Y-89565600D01*
X103884000Y-86405600D02*
X101724000Y-86405600D01*
X103884000Y-86405600D02*
X103884000Y-87335600D01*
X103884000Y-89565600D02*
X103884000Y-88635600D01*
G04 #@! TO.C,Q4*
X111758000Y-89565600D02*
X110298000Y-89565600D01*
X111758000Y-86405600D02*
X109598000Y-86405600D01*
X111758000Y-86405600D02*
X111758000Y-87335600D01*
X111758000Y-89565600D02*
X111758000Y-88635600D01*
G04 #@! TO.C,R1*
X64111600Y-70173667D02*
X64111600Y-69831133D01*
X63091600Y-70173667D02*
X63091600Y-69831133D01*
G04 #@! TO.C,R2*
X54032333Y-56182800D02*
X54374867Y-56182800D01*
X54032333Y-57202800D02*
X54374867Y-57202800D01*
G04 #@! TO.C,R3*
X54032333Y-55272400D02*
X54374867Y-55272400D01*
X54032333Y-54252400D02*
X54374867Y-54252400D01*
G04 #@! TO.C,R4*
X59637200Y-70122867D02*
X59637200Y-69780333D01*
X60657200Y-70122867D02*
X60657200Y-69780333D01*
G04 #@! TO.C,R5*
X47275933Y-23065200D02*
X47618467Y-23065200D01*
X47275933Y-22045200D02*
X47618467Y-22045200D01*
G04 #@! TO.C,R8*
X57181933Y-51915600D02*
X57524467Y-51915600D01*
X57181933Y-52935600D02*
X57524467Y-52935600D01*
G04 #@! TO.C,R9*
X74627200Y-44340733D02*
X74627200Y-44683267D01*
X73607200Y-44340733D02*
X73607200Y-44683267D01*
G04 #@! TO.C,R11*
X79296800Y-66275133D02*
X79296800Y-66617667D01*
X80316800Y-66275133D02*
X80316800Y-66617667D01*
G04 #@! TO.C,R12*
X64305333Y-29415200D02*
X64647867Y-29415200D01*
X64305333Y-28395200D02*
X64647867Y-28395200D01*
G04 #@! TO.C,R14*
X102516400Y-39022067D02*
X102516400Y-38679533D01*
X101496400Y-39022067D02*
X101496400Y-38679533D01*
G04 #@! TO.C,R15*
X94456067Y-37695600D02*
X94113533Y-37695600D01*
X94456067Y-36675600D02*
X94113533Y-36675600D01*
G04 #@! TO.C,R16*
X94113533Y-39626000D02*
X94456067Y-39626000D01*
X94113533Y-38606000D02*
X94456067Y-38606000D01*
G04 #@! TO.C,R17*
X69473667Y-81383600D02*
X69131133Y-81383600D01*
X69473667Y-80363600D02*
X69131133Y-80363600D01*
G04 #@! TO.C,R18*
X69462467Y-82243200D02*
X69119933Y-82243200D01*
X69462467Y-83263200D02*
X69119933Y-83263200D01*
G04 #@! TO.C,R31*
X25204267Y-67460400D02*
X24861733Y-67460400D01*
X25204267Y-68480400D02*
X24861733Y-68480400D01*
G04 #@! TO.C,R32*
X42877200Y-73310933D02*
X42877200Y-73653467D01*
X41857200Y-73310933D02*
X41857200Y-73653467D01*
G04 #@! TO.C,R35*
X104830667Y-67206400D02*
X104488133Y-67206400D01*
X104830667Y-68226400D02*
X104488133Y-68226400D01*
G04 #@! TO.C,R36*
X110408933Y-69594000D02*
X110751467Y-69594000D01*
X110408933Y-70614000D02*
X110751467Y-70614000D01*
G04 #@! TO.C,U5*
X119819200Y-64372800D02*
X117219200Y-64372800D01*
X119819200Y-64372800D02*
X119819200Y-43932800D01*
X119819200Y-43932800D02*
X114619200Y-43932800D01*
X114619200Y-61772800D02*
X114619200Y-43932800D01*
X117219200Y-61772800D02*
X114619200Y-61772800D01*
X117219200Y-64372800D02*
X117219200Y-61772800D01*
X114619200Y-64372800D02*
X114619200Y-63042800D01*
X115949200Y-64372800D02*
X114619200Y-64372800D01*
G04 #@! TO.C,U8*
X58115200Y-90179200D02*
X58115200Y-87519200D01*
X58115200Y-90179200D02*
X65795200Y-90179200D01*
X65795200Y-90179200D02*
X65795200Y-87519200D01*
X58115200Y-87519200D02*
X65795200Y-87519200D01*
X55515200Y-87519200D02*
X56845200Y-87519200D01*
X55515200Y-88849200D02*
X55515200Y-87519200D01*
G04 #@! TO.C,C10*
X61588467Y-42873200D02*
X61245933Y-42873200D01*
X61588467Y-43893200D02*
X61245933Y-43893200D01*
G04 #@! TO.C,R6*
X73505600Y-25228733D02*
X73505600Y-25571267D01*
X74525600Y-25228733D02*
X74525600Y-25571267D01*
G04 #@! TO.C,R7*
X74719333Y-30732000D02*
X75061867Y-30732000D01*
X74719333Y-31752000D02*
X75061867Y-31752000D01*
G04 #@! TO.C,R10*
X77569600Y-66275133D02*
X77569600Y-66617667D01*
X78589600Y-66275133D02*
X78589600Y-66617667D01*
G04 #@! TO.C,U2*
X28951200Y-24439200D02*
X27451200Y-24439200D01*
X27451200Y-24439200D02*
X27451200Y-24709200D01*
X27451200Y-24709200D02*
X24621200Y-24709200D01*
X28951200Y-31339200D02*
X27451200Y-31339200D01*
X27451200Y-31339200D02*
X27451200Y-31069200D01*
X27451200Y-31069200D02*
X26351200Y-31069200D01*
G04 #@! TO.C,U3*
X41859200Y-105663200D02*
X43739200Y-105663200D01*
X41859200Y-105663200D02*
X39979200Y-105663200D01*
X41859200Y-100483200D02*
X43739200Y-100483200D01*
X41859200Y-100483200D02*
X38334200Y-100483200D01*
G04 #@! TO.C,C5*
X51339933Y-99159600D02*
X51682467Y-99159600D01*
X51339933Y-100179600D02*
X51682467Y-100179600D01*
G04 #@! TO.C,R12*
X47449200Y-100729867D02*
X47449200Y-100387333D01*
X46429200Y-100729867D02*
X46429200Y-100387333D01*
G04 #@! TO.C,R15*
X39672800Y-108222867D02*
X39672800Y-107880333D01*
X40692800Y-108222867D02*
X40692800Y-107880333D01*
G04 #@! TO.C,R11*
X49328800Y-100715867D02*
X49328800Y-100373333D01*
X48308800Y-100715867D02*
X48308800Y-100373333D01*
G04 #@! TO.C,R13*
X51693867Y-100937600D02*
X51351333Y-100937600D01*
X51693867Y-101957600D02*
X51351333Y-101957600D01*
G04 #@! TO.C,R14*
X37945600Y-108222867D02*
X37945600Y-107880333D01*
X38965600Y-108222867D02*
X38965600Y-107880333D01*
G04 #@! TO.C,C4*
X45311600Y-95699733D02*
X45311600Y-96042267D01*
X46331600Y-95699733D02*
X46331600Y-96042267D01*
G04 #@! TO.C,C1*
X49887600Y-116706467D02*
X49887600Y-116363933D01*
X48867600Y-116706467D02*
X48867600Y-116363933D01*
G04 #@! TO.C,C2*
X47750000Y-108262267D02*
X47750000Y-107919733D01*
X48770000Y-108262267D02*
X48770000Y-107919733D01*
G04 #@! TO.C,C3*
X36777600Y-101650800D02*
G75*
G03X36777600Y-101650800I-2620000J0D01*
G01*
X34157600Y-104230800D02*
X34157600Y-99070800D01*
X34117600Y-104230800D02*
X34117600Y-99070800D01*
X34077600Y-104229800D02*
X34077600Y-99071800D01*
X34037600Y-104228800D02*
X34037600Y-99072800D01*
X33997600Y-104226800D02*
X33997600Y-99074800D01*
X33957600Y-104223800D02*
X33957600Y-99077800D01*
X33917600Y-104219800D02*
X33917600Y-102690800D01*
X33917600Y-100610800D02*
X33917600Y-99081800D01*
X33877600Y-104215800D02*
X33877600Y-102690800D01*
X33877600Y-100610800D02*
X33877600Y-99085800D01*
X33837600Y-104211800D02*
X33837600Y-102690800D01*
X33837600Y-100610800D02*
X33837600Y-99089800D01*
X33797600Y-104206800D02*
X33797600Y-102690800D01*
X33797600Y-100610800D02*
X33797600Y-99094800D01*
X33757600Y-104200800D02*
X33757600Y-102690800D01*
X33757600Y-100610800D02*
X33757600Y-99100800D01*
X33717600Y-104193800D02*
X33717600Y-102690800D01*
X33717600Y-100610800D02*
X33717600Y-99107800D01*
X33677600Y-104186800D02*
X33677600Y-102690800D01*
X33677600Y-100610800D02*
X33677600Y-99114800D01*
X33637600Y-104178800D02*
X33637600Y-102690800D01*
X33637600Y-100610800D02*
X33637600Y-99122800D01*
X33597600Y-104170800D02*
X33597600Y-102690800D01*
X33597600Y-100610800D02*
X33597600Y-99130800D01*
X33557600Y-104161800D02*
X33557600Y-102690800D01*
X33557600Y-100610800D02*
X33557600Y-99139800D01*
X33517600Y-104151800D02*
X33517600Y-102690800D01*
X33517600Y-100610800D02*
X33517600Y-99149800D01*
X33477600Y-104141800D02*
X33477600Y-102690800D01*
X33477600Y-100610800D02*
X33477600Y-99159800D01*
X33436600Y-104130800D02*
X33436600Y-102690800D01*
X33436600Y-100610800D02*
X33436600Y-99170800D01*
X33396600Y-104118800D02*
X33396600Y-102690800D01*
X33396600Y-100610800D02*
X33396600Y-99182800D01*
X33356600Y-104105800D02*
X33356600Y-102690800D01*
X33356600Y-100610800D02*
X33356600Y-99195800D01*
X33316600Y-104092800D02*
X33316600Y-102690800D01*
X33316600Y-100610800D02*
X33316600Y-99208800D01*
X33276600Y-104078800D02*
X33276600Y-102690800D01*
X33276600Y-100610800D02*
X33276600Y-99222800D01*
X33236600Y-104064800D02*
X33236600Y-102690800D01*
X33236600Y-100610800D02*
X33236600Y-99236800D01*
X33196600Y-104048800D02*
X33196600Y-102690800D01*
X33196600Y-100610800D02*
X33196600Y-99252800D01*
X33156600Y-104032800D02*
X33156600Y-102690800D01*
X33156600Y-100610800D02*
X33156600Y-99268800D01*
X33116600Y-104015800D02*
X33116600Y-102690800D01*
X33116600Y-100610800D02*
X33116600Y-99285800D01*
X33076600Y-103998800D02*
X33076600Y-102690800D01*
X33076600Y-100610800D02*
X33076600Y-99302800D01*
X33036600Y-103979800D02*
X33036600Y-102690800D01*
X33036600Y-100610800D02*
X33036600Y-99321800D01*
X32996600Y-103960800D02*
X32996600Y-102690800D01*
X32996600Y-100610800D02*
X32996600Y-99340800D01*
X32956600Y-103940800D02*
X32956600Y-102690800D01*
X32956600Y-100610800D02*
X32956600Y-99360800D01*
X32916600Y-103918800D02*
X32916600Y-102690800D01*
X32916600Y-100610800D02*
X32916600Y-99382800D01*
X32876600Y-103897800D02*
X32876600Y-102690800D01*
X32876600Y-100610800D02*
X32876600Y-99403800D01*
X32836600Y-103874800D02*
X32836600Y-102690800D01*
X32836600Y-100610800D02*
X32836600Y-99426800D01*
X32796600Y-103850800D02*
X32796600Y-102690800D01*
X32796600Y-100610800D02*
X32796600Y-99450800D01*
X32756600Y-103825800D02*
X32756600Y-102690800D01*
X32756600Y-100610800D02*
X32756600Y-99475800D01*
X32716600Y-103799800D02*
X32716600Y-102690800D01*
X32716600Y-100610800D02*
X32716600Y-99501800D01*
X32676600Y-103772800D02*
X32676600Y-102690800D01*
X32676600Y-100610800D02*
X32676600Y-99528800D01*
X32636600Y-103745800D02*
X32636600Y-102690800D01*
X32636600Y-100610800D02*
X32636600Y-99555800D01*
X32596600Y-103715800D02*
X32596600Y-102690800D01*
X32596600Y-100610800D02*
X32596600Y-99585800D01*
X32556600Y-103685800D02*
X32556600Y-102690800D01*
X32556600Y-100610800D02*
X32556600Y-99615800D01*
X32516600Y-103654800D02*
X32516600Y-102690800D01*
X32516600Y-100610800D02*
X32516600Y-99646800D01*
X32476600Y-103621800D02*
X32476600Y-102690800D01*
X32476600Y-100610800D02*
X32476600Y-99679800D01*
X32436600Y-103587800D02*
X32436600Y-102690800D01*
X32436600Y-100610800D02*
X32436600Y-99713800D01*
X32396600Y-103551800D02*
X32396600Y-102690800D01*
X32396600Y-100610800D02*
X32396600Y-99749800D01*
X32356600Y-103514800D02*
X32356600Y-102690800D01*
X32356600Y-100610800D02*
X32356600Y-99786800D01*
X32316600Y-103476800D02*
X32316600Y-102690800D01*
X32316600Y-100610800D02*
X32316600Y-99824800D01*
X32276600Y-103435800D02*
X32276600Y-102690800D01*
X32276600Y-100610800D02*
X32276600Y-99865800D01*
X32236600Y-103393800D02*
X32236600Y-102690800D01*
X32236600Y-100610800D02*
X32236600Y-99907800D01*
X32196600Y-103349800D02*
X32196600Y-102690800D01*
X32196600Y-100610800D02*
X32196600Y-99951800D01*
X32156600Y-103303800D02*
X32156600Y-102690800D01*
X32156600Y-100610800D02*
X32156600Y-99997800D01*
X32116600Y-103255800D02*
X32116600Y-102690800D01*
X32116600Y-100610800D02*
X32116600Y-100045800D01*
X32076600Y-103204800D02*
X32076600Y-102690800D01*
X32076600Y-100610800D02*
X32076600Y-100096800D01*
X32036600Y-103150800D02*
X32036600Y-102690800D01*
X32036600Y-100610800D02*
X32036600Y-100150800D01*
X31996600Y-103093800D02*
X31996600Y-102690800D01*
X31996600Y-100610800D02*
X31996600Y-100207800D01*
X31956600Y-103033800D02*
X31956600Y-102690800D01*
X31956600Y-100610800D02*
X31956600Y-100267800D01*
X31916600Y-102969800D02*
X31916600Y-102690800D01*
X31916600Y-100610800D02*
X31916600Y-100331800D01*
X31876600Y-102901800D02*
X31876600Y-102690800D01*
X31876600Y-100610800D02*
X31876600Y-100399800D01*
X31836600Y-102828800D02*
X31836600Y-100472800D01*
X31796600Y-102748800D02*
X31796600Y-100552800D01*
X31756600Y-102661800D02*
X31756600Y-100639800D01*
X31716600Y-102565800D02*
X31716600Y-100735800D01*
X31676600Y-102455800D02*
X31676600Y-100845800D01*
X31636600Y-102327800D02*
X31636600Y-100973800D01*
X31596600Y-102168800D02*
X31596600Y-101132800D01*
X31556600Y-101934800D02*
X31556600Y-101366800D01*
X36962375Y-103125800D02*
X36462375Y-103125800D01*
X36712375Y-103375800D02*
X36712375Y-102875800D01*
G04 #@! TO.C,C6*
X62206600Y-107218267D02*
X62206600Y-106875733D01*
X61186600Y-107218267D02*
X61186600Y-106875733D01*
G04 #@! TO.C,C7*
X68471867Y-110619000D02*
X68129333Y-110619000D01*
X68471867Y-109599000D02*
X68129333Y-109599000D01*
G04 #@! TO.C,C8*
X77493400Y-113685533D02*
X77493400Y-114028067D01*
X78513400Y-113685533D02*
X78513400Y-114028067D01*
G04 #@! TO.C,C9*
X88136000Y-112644133D02*
X88136000Y-112986667D01*
X89156000Y-112644133D02*
X89156000Y-112986667D01*
G04 #@! TO.C,C10*
X93833767Y-100090700D02*
X93491233Y-100090700D01*
X93833767Y-99070700D02*
X93491233Y-99070700D01*
G04 #@! TO.C,C11*
X93654667Y-112164400D02*
X93312133Y-112164400D01*
X93654667Y-113184400D02*
X93312133Y-113184400D01*
G04 #@! TO.C,C12*
X100543900Y-104400167D02*
X100543900Y-104057633D01*
X101563900Y-104400167D02*
X101563900Y-104057633D01*
G04 #@! TO.C,C13*
X100543900Y-107931133D02*
X100543900Y-108273667D01*
X101563900Y-107931133D02*
X101563900Y-108273667D01*
G04 #@! TO.C,C14*
X103405400Y-107881633D02*
X103405400Y-108224167D01*
X102385400Y-107881633D02*
X102385400Y-108224167D01*
G04 #@! TO.C,C15*
X102385400Y-104414167D02*
X102385400Y-104071633D01*
X103405400Y-104414167D02*
X103405400Y-104071633D01*
G04 #@! TO.C,D1*
X49603200Y-108354800D02*
X49603200Y-105714800D01*
X49603200Y-108354800D02*
X52403200Y-108354800D01*
X52403200Y-108354800D02*
X52403200Y-105714800D01*
G04 #@! TO.C,D2*
X54378400Y-104903600D02*
X54378400Y-107543600D01*
X57178400Y-104903600D02*
X54378400Y-104903600D01*
X57178400Y-104903600D02*
X57178400Y-107543600D01*
G04 #@! TO.C,D3*
X37135400Y-105014800D02*
X34315400Y-105014800D01*
X37135400Y-108954800D02*
X34315400Y-108954800D01*
X37135400Y-108954800D02*
X37135400Y-105014800D01*
G04 #@! TO.C,D4*
X37135400Y-113780800D02*
X37135400Y-109840800D01*
X37135400Y-113780800D02*
X34315400Y-113780800D01*
X37135400Y-109840800D02*
X34315400Y-109840800D01*
G04 #@! TO.C,D5*
X37059200Y-94042000D02*
X34239200Y-94042000D01*
X37059200Y-97982000D02*
X34239200Y-97982000D01*
X37059200Y-97982000D02*
X37059200Y-94042000D01*
G04 #@! TO.C,D6*
X73744200Y-106034500D02*
X73744200Y-110094500D01*
X76014200Y-106034500D02*
X73744200Y-106034500D01*
X76014200Y-110094500D02*
X76014200Y-106034500D01*
G04 #@! TO.C,D7*
X73169400Y-110094500D02*
X73169400Y-106034500D01*
X73169400Y-106034500D02*
X70899400Y-106034500D01*
X70899400Y-106034500D02*
X70899400Y-110094500D01*
G04 #@! TO.C,D8*
X77049400Y-111201800D02*
X80989400Y-111201800D01*
X77049400Y-111201800D02*
X77049400Y-108381800D01*
X80989400Y-111201800D02*
X80989400Y-108381800D01*
G04 #@! TO.C,D10*
X94560800Y-114057200D02*
X92760800Y-114057200D01*
X94560800Y-115457200D02*
X92760800Y-115457200D01*
X94560800Y-115457200D02*
X94560800Y-114057200D01*
G04 #@! TO.C,J1*
X27290356Y-110365482D02*
G75*
G02X27435600Y-111048800I-1534756J-683318D01*
G01*
X25072558Y-109513374D02*
G75*
G02X26439600Y-109513800I683042J-1535426D01*
G01*
X24220174Y-111731842D02*
G75*
G02X24220600Y-110364800I1535426J683042D01*
G01*
X26438642Y-112584226D02*
G75*
G02X25071600Y-112583800I-683042J1535426D01*
G01*
X27435853Y-111019995D02*
G75*
G02X27290600Y-111732800I-1680253J-28805D01*
G01*
X27435600Y-106048800D02*
G75*
G03X27435600Y-106048800I-1680000J0D01*
G01*
X27435600Y-101048800D02*
G75*
G03X27435600Y-101048800I-1680000J0D01*
G01*
X27435600Y-96048800D02*
G75*
G03X27435600Y-96048800I-1680000J0D01*
G01*
X29855600Y-113608800D02*
X29855600Y-93487800D01*
X28355600Y-113608800D02*
X28355600Y-93487800D01*
X23454600Y-113608800D02*
X23454600Y-93487800D01*
X20494600Y-113608800D02*
X20494600Y-93487800D01*
X30415600Y-113608800D02*
X30415600Y-93487800D01*
X20494600Y-113608800D02*
X30415600Y-113608800D01*
X20494600Y-93487800D02*
X30415600Y-93487800D01*
X24686600Y-104773800D02*
X24732600Y-104820800D01*
X26994600Y-107082800D02*
X27029600Y-107117800D01*
X24480600Y-104978800D02*
X24516600Y-105013800D01*
X26778600Y-107275800D02*
X26824600Y-107322800D01*
X24686600Y-99773800D02*
X24732600Y-99820800D01*
X26994600Y-102082800D02*
X27029600Y-102117800D01*
X24480600Y-99978800D02*
X24516600Y-100013800D01*
X26778600Y-102275800D02*
X26824600Y-102322800D01*
X24686600Y-94773800D02*
X24732600Y-94820800D01*
X26994600Y-97082800D02*
X27029600Y-97117800D01*
X24480600Y-94978800D02*
X24516600Y-95013800D01*
X26778600Y-97275800D02*
X26824600Y-97322800D01*
X29915600Y-113848800D02*
X30655600Y-113848800D01*
X30655600Y-113848800D02*
X30655600Y-113348800D01*
G04 #@! TO.C,J2*
X73516800Y-118262400D02*
X73516800Y-119592400D01*
X73516800Y-119592400D02*
X72186800Y-119592400D01*
X70916800Y-119592400D02*
X60696800Y-119592400D01*
X60696800Y-116932400D02*
X60696800Y-119592400D01*
X70916800Y-116932400D02*
X60696800Y-116932400D01*
X70916800Y-116932400D02*
X70916800Y-119592400D01*
D17*
G04 #@! TO.C,J3*
X106922400Y-99883900D02*
X106922400Y-112383900D01*
X120922400Y-112383900D02*
X120922400Y-99883900D01*
X108772400Y-112383900D02*
X106922400Y-112383900D01*
X108772400Y-99883900D02*
X106922400Y-99883900D01*
X112522400Y-112383900D02*
X120922400Y-112383900D01*
X112522400Y-99883900D02*
X120922400Y-99883900D01*
D13*
G04 #@! TO.C,Q1*
X53007800Y-116273700D02*
X53007800Y-115343700D01*
X53007800Y-113113700D02*
X53007800Y-114043700D01*
X53007800Y-113113700D02*
X50847800Y-113113700D01*
X53007800Y-116273700D02*
X51547800Y-116273700D01*
G04 #@! TO.C,Q2*
X59606300Y-113997200D02*
X59606300Y-115457200D01*
X56446300Y-113997200D02*
X56446300Y-116157200D01*
X56446300Y-113997200D02*
X57376300Y-113997200D01*
X59606300Y-113997200D02*
X58676300Y-113997200D01*
G04 #@! TO.C,Q3*
X65702400Y-99598400D02*
X65702400Y-100528400D01*
X65702400Y-102758400D02*
X65702400Y-101828400D01*
X65702400Y-102758400D02*
X67862400Y-102758400D01*
X65702400Y-99598400D02*
X67162400Y-99598400D01*
G04 #@! TO.C,Q4*
X95204400Y-103468900D02*
X95204400Y-104928900D01*
X92044400Y-103468900D02*
X92044400Y-105628900D01*
X92044400Y-103468900D02*
X92974400Y-103468900D01*
X95204400Y-103468900D02*
X94274400Y-103468900D01*
G04 #@! TO.C,Q5*
X95077400Y-107278900D02*
X94147400Y-107278900D01*
X91917400Y-107278900D02*
X92847400Y-107278900D01*
X91917400Y-107278900D02*
X91917400Y-109438900D01*
X95077400Y-107278900D02*
X95077400Y-108738900D01*
G04 #@! TO.C,Q6*
X95854400Y-101242400D02*
X95854400Y-99782400D01*
X99014400Y-101242400D02*
X99014400Y-99082400D01*
X99014400Y-101242400D02*
X98084400Y-101242400D01*
X95854400Y-101242400D02*
X96784400Y-101242400D01*
G04 #@! TO.C,Q7*
X98950900Y-110961900D02*
X98020900Y-110961900D01*
X95790900Y-110961900D02*
X96720900Y-110961900D01*
X95790900Y-110961900D02*
X95790900Y-113121900D01*
X98950900Y-110961900D02*
X98950900Y-112421900D01*
G04 #@! TO.C,Q8*
X98130900Y-105872400D02*
X98130900Y-104942400D01*
X98130900Y-102712400D02*
X98130900Y-103642400D01*
X98130900Y-102712400D02*
X95970900Y-102712400D01*
X98130900Y-105872400D02*
X96670900Y-105872400D01*
G04 #@! TO.C,Q9*
X98130900Y-109682400D02*
X96670900Y-109682400D01*
X98130900Y-106522400D02*
X95970900Y-106522400D01*
X98130900Y-106522400D02*
X98130900Y-107452400D01*
X98130900Y-109682400D02*
X98130900Y-108752400D01*
G04 #@! TO.C,R1*
X46077600Y-107931133D02*
X46077600Y-108273667D01*
X45057600Y-107931133D02*
X45057600Y-108273667D01*
G04 #@! TO.C,R2*
X43035067Y-109524200D02*
X42692533Y-109524200D01*
X43035067Y-108504200D02*
X42692533Y-108504200D01*
G04 #@! TO.C,R3*
X39164800Y-116593467D02*
X39164800Y-116250933D01*
X40184800Y-116593467D02*
X40184800Y-116250933D01*
G04 #@! TO.C,R4*
X40378533Y-113997200D02*
X40721067Y-113997200D01*
X40378533Y-112977200D02*
X40721067Y-112977200D01*
G04 #@! TO.C,R5*
X42013600Y-116604867D02*
X42013600Y-116262333D01*
X40993600Y-116604867D02*
X40993600Y-116262333D01*
G04 #@! TO.C,R6*
X52341567Y-110695200D02*
X51999033Y-110695200D01*
X52341567Y-109675200D02*
X51999033Y-109675200D01*
G04 #@! TO.C,R7*
X52355567Y-112409700D02*
X52013033Y-112409700D01*
X52355567Y-111389700D02*
X52013033Y-111389700D01*
G04 #@! TO.C,R8*
X52090533Y-117997700D02*
X52433067Y-117997700D01*
X52090533Y-116977700D02*
X52433067Y-116977700D01*
G04 #@! TO.C,R9*
X54595300Y-114522433D02*
X54595300Y-114864967D01*
X55615300Y-114522433D02*
X55615300Y-114864967D01*
G04 #@! TO.C,R10*
X55872533Y-116977700D02*
X56215067Y-116977700D01*
X55872533Y-117997700D02*
X56215067Y-117997700D01*
G04 #@! TO.C,R16*
X60946565Y-109587597D02*
X60604031Y-109587597D01*
X60946565Y-110607597D02*
X60604031Y-110607597D01*
G04 #@! TO.C,R17*
X60946565Y-112512597D02*
X60604031Y-112512597D01*
X60946565Y-111492597D02*
X60604031Y-111492597D01*
G04 #@! TO.C,R18*
X64675867Y-110619000D02*
X64333333Y-110619000D01*
X64675867Y-109599000D02*
X64333333Y-109599000D01*
G04 #@! TO.C,R19*
X61186600Y-103093733D02*
X61186600Y-103436267D01*
X62206600Y-103093733D02*
X62206600Y-103436267D01*
G04 #@! TO.C,R20*
X64661867Y-112524000D02*
X64319333Y-112524000D01*
X64661867Y-111504000D02*
X64319333Y-111504000D01*
G04 #@! TO.C,R21*
X70762400Y-101059133D02*
X70762400Y-101401667D01*
X71782400Y-101059133D02*
X71782400Y-101401667D01*
G04 #@! TO.C,R22*
X69877400Y-101415667D02*
X69877400Y-101073133D01*
X68857400Y-101415667D02*
X68857400Y-101073133D01*
G04 #@! TO.C,R23*
X63142400Y-101274667D02*
X63142400Y-100932133D01*
X64162400Y-101274667D02*
X64162400Y-100932133D01*
G04 #@! TO.C,R24*
X75338400Y-113048867D02*
X75338400Y-112706333D01*
X74318400Y-113048867D02*
X74318400Y-112706333D01*
G04 #@! TO.C,R25*
X71473600Y-113048867D02*
X71473600Y-112706333D01*
X72493600Y-113048867D02*
X72493600Y-112706333D01*
G04 #@! TO.C,R26*
X80626133Y-113463800D02*
X80968667Y-113463800D01*
X80626133Y-112443800D02*
X80968667Y-112443800D01*
G04 #@! TO.C,R27*
X82196400Y-115703533D02*
X82196400Y-116046067D01*
X81176400Y-115703533D02*
X81176400Y-116046067D01*
G04 #@! TO.C,R28*
X83208400Y-115703533D02*
X83208400Y-116046067D01*
X84228400Y-115703533D02*
X84228400Y-116046067D01*
G04 #@! TO.C,R29*
X85494400Y-116032067D02*
X85494400Y-115689533D01*
X86514400Y-116032067D02*
X86514400Y-115689533D01*
G04 #@! TO.C,R30*
X97645067Y-98046000D02*
X97302533Y-98046000D01*
X97645067Y-97026000D02*
X97302533Y-97026000D01*
G04 #@! TO.C,R31*
X97136133Y-115216400D02*
X97478667Y-115216400D01*
X97136133Y-114196400D02*
X97478667Y-114196400D01*
G04 #@! TO.C,R32*
X93847767Y-100912200D02*
X93505233Y-100912200D01*
X93847767Y-101932200D02*
X93505233Y-101932200D01*
G04 #@! TO.C,R33*
X93619167Y-111342900D02*
X93276633Y-111342900D01*
X93619167Y-110322900D02*
X93276633Y-110322900D01*
G04 #@! TO.C,U1*
X48030600Y-114376200D02*
X48030600Y-110851200D01*
X48030600Y-114376200D02*
X48030600Y-116256200D01*
X42850600Y-114376200D02*
X42850600Y-112496200D01*
X42850600Y-114376200D02*
X42850600Y-116256200D01*
G04 #@! TO.C,U2*
X36019200Y-114701200D02*
X37479200Y-114701200D01*
X36019200Y-117861200D02*
X38179200Y-117861200D01*
X36019200Y-117861200D02*
X36019200Y-116931200D01*
X36019200Y-114701200D02*
X36019200Y-115631200D01*
G04 #@! TO.C,U4*
X66649600Y-108635000D02*
X68529600Y-108635000D01*
X66649600Y-108635000D02*
X64769600Y-108635000D01*
X66649600Y-103455000D02*
X68529600Y-103455000D01*
X66649600Y-103455000D02*
X63124600Y-103455000D01*
G04 #@! TO.C,U5*
X83961400Y-113547800D02*
X85761400Y-113547800D01*
X85761400Y-110327800D02*
X83311400Y-110327800D01*
G04 #@! TO.C,D11*
X104927200Y-117076600D02*
X100867200Y-117076600D01*
X100867200Y-117076600D02*
X100867200Y-119346600D01*
X100867200Y-119346600D02*
X104927200Y-119346600D01*
G04 #@! TO.C,D12*
X100852900Y-96029400D02*
X104912900Y-96029400D01*
X100852900Y-93759400D02*
X100852900Y-96029400D01*
X104912900Y-93759400D02*
X100852900Y-93759400D01*
G04 #@! TO.C,R34*
X104290400Y-104463667D02*
X104290400Y-104121133D01*
X105310400Y-104463667D02*
X105310400Y-104121133D01*
G04 #@! TO.C,R35*
X105310400Y-108210167D02*
X105310400Y-107867633D01*
X104290400Y-108210167D02*
X104290400Y-107867633D01*
G04 #@! TO.C,J3*
D19*
X110494780Y-109648185D02*
X110494780Y-110219614D01*
X110494780Y-109933900D02*
X109494780Y-109933900D01*
X109637638Y-110029138D01*
X109732876Y-110124376D01*
X109780495Y-110219614D01*
G04 #@! TD*
M02*
