M48
;DRILL file {KiCad (5.0.0)} date 04/16/19 16:09:14
;FORMAT={-:-/ absolute / metric / decimal}
FMAT,2
METRIC,TZ
T1C0.330
T2C0.400
T3C0.800
T4C0.920
T5C1.000
T6C1.100
T7C1.300
T8C2.300
%
G90
G05
M71
T1
X107.911Y-73.582
X107.911Y-75.082
X107.911Y-76.582
X109.411Y-73.582
X109.411Y-75.082
X109.411Y-76.582
T2
X21.793Y-28.143
X21.793Y-30.556
X21.793Y-32.715
X23.33Y-75.578
X23.33Y-76.479
X24.206Y-65.227
X24.435Y-74.625
X25.146Y-80.518
X25.959Y-69.596
X29.972Y-81.89
X31.953Y-47.117
X34.239Y-69.418
X34.239Y-70.434
X34.239Y-71.577
X34.341Y-41.707
X34.366Y-88.087
X38.913Y-118.923
X38.964Y-110.771
X38.964Y-110.771
X39.167Y-84.125
X39.167Y-85.395
X39.192Y-83.007
X39.446Y-43.51
X39.827Y-40.132
X40.206Y-76.147
X40.437Y-78.791
X40.437Y-85.446
X40.64Y-118.923
X40.97Y-43.129
X40.97Y-72.847
X40.97Y-75.387
X41.046Y-40.132
X41.504Y-112.116
X41.554Y-110.998
X41.758Y-85.496
X41.834Y-102.438
X41.961Y-51.054
X42.367Y-40.081
X42.442Y-118.872
X42.581Y-75.39
X42.748Y-43.51
X42.774Y-62.128
X42.774Y-63.043
X42.774Y-64.059
X43.028Y-51.054
X43.536Y-37.338
X43.536Y-38.76
X43.536Y-40.081
X44.044Y-118.872
X44.247Y-51.054
X44.399Y-65.075
X44.755Y-78.791
X45.212Y-51.105
X45.242Y-72.826
X45.466Y-98.196
X45.669Y-114.859
X45.669Y-118.923
X45.771Y-60.909
X45.923Y-62.306
X46.584Y-103.734
X46.634Y-98.196
X46.787Y-113.843
X46.838Y-61.633
X46.838Y-62.306
X46.888Y-106.985
X46.888Y-108.102
X46.939Y-109.271
X47.295Y-118.923
X47.638Y-61.633
X47.65Y-62.319
X47.854Y-98.196
X47.93Y-27.915
X49.124Y-98.196
X49.225Y-58.623
X49.301Y-27.915
X49.327Y-44.399
X49.327Y-114.249
X49.352Y-43.51
X49.53Y-79.858
X49.581Y-109.322
X49.835Y-113.081
X49.987Y-59.385
X50.394Y-98.146
X50.622Y-43.51
X50.711Y-27.915
X50.749Y-60.147
X50.749Y-82.347
X52.146Y-27.902
X53.34Y-52.832
X53.34Y-61.931
X53.759Y-27.902
X54.153Y-102.565
X54.153Y-103.937
X54.204Y-101.143
X54.305Y-84.912
X54.458Y-111.76
X55.575Y-43.383
X55.829Y-111.811
X57.048Y-111.862
X57.226Y-43.383
X58.318Y-111.608
X58.877Y-43.383
X58.979Y-117.348
X58.979Y-118.567
X60.096Y-106.897
X60.096Y-108.509
X60.528Y-56.236
X60.782Y-77.292
X61.671Y-74.879
X61.773Y-113.843
X61.976Y-100.584
X63.195Y-57.048
X63.805Y-115.57
X64.173Y-50.66
X64.846Y-51.486
X64.973Y-115.57
X65.621Y-50.648
X65.888Y-105.41
X65.888Y-106.68
X65.888Y-107.95
X66.116Y-58.75
X66.142Y-114.351
X66.192Y-115.57
X66.751Y-32.461
X66.751Y-49.733
X66.751Y-59.639
X67.259Y-114.351
X67.513Y-48.082
X67.564Y-40.64
X68.021Y-60.02
X68.402Y-35.509
X68.402Y-51.511
X68.529Y-74.879
X68.529Y-77.292
X68.91Y-53.797
X68.91Y-57.988
X69.19Y-112.065
X69.545Y-61.214
X69.799Y-59.766
X69.901Y-39.726
X70.18Y-47.828
X70.409Y-113.03
X70.663Y-61.214
X70.714Y-115.57
X71.73Y-61.265
X71.73Y-62.382
X71.73Y-63.348
X72.339Y-50.876
X72.339Y-52.019
X72.339Y-53.162
X72.339Y-98.908
X72.39Y-115.57
X72.441Y-84.988
X72.466Y-57.607
X72.695Y-65.583
X73.05Y-39.522
X73.05Y-54.204
X73.355Y-56.972
X73.609Y-61.214
X74.016Y-33.884
X74.117Y-70.688
X74.117Y-115.519
X74.371Y-65.583
X74.498Y-54.305
X74.498Y-55.575
X74.879Y-34.544
X75.133Y-50.114
X75.387Y-65.583
X75.639Y-54.338
X75.768Y-35.382
X75.768Y-45.415
X75.794Y-115.519
X76.403Y-38.176
X76.403Y-65.735
X76.454Y-113.487
X76.505Y-112.37
X77.277Y-57.391
X77.419Y-50.114
X78.687Y-57.399
X78.689Y-50.114
X78.969Y-41.313
X79.057Y-30.48
X79.832Y-41.326
X79.858Y-30.467
X79.858Y-114.96
X79.959Y-74.879
X80.089Y-57.399
X80.34Y-51.511
X80.34Y-52.781
X80.34Y-53.924
X80.658Y-41.326
X80.683Y-30.467
X81.686Y-111.709
X81.737Y-110.134
X84.036Y-37.109
X85.039Y-77.292
X85.509Y-37.109
X85.55Y-55.946
X85.801Y-118.516
X86.439Y-56.007
X87.033Y-37.109
X88.29Y-115.875
X88.419Y-64.924
X88.798Y-108.661
X88.849Y-106.578
X88.885Y-56.035
X89.319Y-52.438
X89.319Y-53.391
X89.459Y-115.875
X90.018Y-108.661
X90.068Y-107.594
X90.068Y-107.594
X90.094Y-56.06
X90.17Y-98.501
X90.17Y-105.156
X90.17Y-105.156
X90.5Y-63.068
X90.526Y-111.963
X90.551Y-53.276
X91.135Y-106.006
X91.338Y-98.232
X91.707Y-53.289
X93.365Y-55.296
X98.806Y-96.215
X99.619Y-75.54
X99.67Y-76.505
X99.72Y-77.419
X100.432Y-69.037
X101.397Y-85.608
X101.651Y-70.155
X102.057Y-77.978
X102.311Y-69.647
X102.718Y-77.318
X103.378Y-71.882
X103.429Y-60.503
X103.835Y-73.
X103.835Y-78.943
X104.038Y-80.518
X104.14Y-73.762
X104.597Y-76.149
X104.597Y-79.248
X104.8Y-66.407
X104.902Y-80.518
X105.258Y-78.435
X105.562Y-57.658
X105.969Y-80.518
X106.121Y-58.369
X106.121Y-78.435
X106.375Y-62.433
X106.731Y-59.385
X107.747Y-45.466
X108.407Y-43.078
X108.605Y-67.465
X110.541Y-79.451
X110.541Y-80.569
X110.541Y-81.585
X110.592Y-78.537
X112.166Y-79.4
X112.471Y-31.75
X112.471Y-34.95
X112.827Y-74.117
X112.878Y-72.085
X112.979Y-77.318
X113.132Y-65.329
T3
X32.908Y-101.651
X35.408Y-101.651
T4
X107.932Y-102.634
X107.932Y-105.134
X107.932Y-107.134
X107.932Y-109.634
T5
X115.926Y-31.09
X115.926Y-33.63
X115.926Y-36.17
X115.926Y-38.71
X118.466Y-31.09
X118.466Y-33.63
X118.466Y-36.17
X118.466Y-38.71
X58.166Y-34.493
X58.166Y-37.033
X60.706Y-34.493
X60.706Y-37.033
X63.246Y-34.493
X63.246Y-37.033
X95.961Y-42.012
X95.961Y-44.552
X98.501Y-42.012
X98.501Y-44.552
X56.845Y-88.849
X59.385Y-88.849
X61.925Y-88.849
X64.465Y-88.849
X100.482Y-53.492
X100.482Y-56.032
X103.022Y-53.492
X103.022Y-56.032
X94.488Y-77.013
X94.488Y-79.553
X97.028Y-77.013
X97.028Y-79.553
X79.949Y-88.849
X82.489Y-88.849
X85.029Y-88.849
X87.569Y-88.849
X90.109Y-88.849
X92.649Y-88.849
X115.926Y-70.815
X115.926Y-73.355
X115.926Y-75.895
X118.466Y-70.815
X118.466Y-73.355
X118.466Y-75.895
X62.027Y-118.262
X64.567Y-118.262
X67.107Y-118.262
X69.647Y-118.262
X72.187Y-118.262
X82.956Y-69.647
X85.496Y-69.647
X115.949Y-45.263
X115.949Y-47.803
X115.949Y-50.343
X115.949Y-52.883
X115.949Y-55.423
X115.949Y-57.963
X115.949Y-60.503
X115.949Y-63.043
X118.489Y-45.263
X118.489Y-47.803
X118.489Y-50.343
X118.489Y-52.883
X118.489Y-55.423
X118.489Y-57.963
X118.489Y-60.503
X118.489Y-63.043
X41.199Y-67.208
X41.199Y-69.748
X43.739Y-67.208
X43.739Y-69.748
X60.604Y-62.535
X63.144Y-62.535
T6
X82.804Y-27.178
X82.804Y-31.678
X89.304Y-27.178
X89.304Y-31.678
T7
X25.756Y-96.049
X25.756Y-101.049
X25.756Y-106.049
X25.756Y-111.049
T8
X110.642Y-99.564
X110.642Y-112.704
T0
M30
