G04 #@! TF.GenerationSoftware,KiCad,Pcbnew,(5.0.0)*
G04 #@! TF.CreationDate,2019-04-16T16:00:33+02:00*
G04 #@! TF.ProjectId,CameraSystem,43616D65726153797374656D2E6B6963,rev?*
G04 #@! TF.SameCoordinates,Original*
G04 #@! TF.FileFunction,Soldermask,Bot*
G04 #@! TF.FilePolarity,Negative*
%FSLAX46Y46*%
G04 Gerber Fmt 4.6, Leading zero omitted, Abs format (unit mm)*
G04 Created by KiCad (PCBNEW (5.0.0)) date 04/16/19 16:00:33*
%MOMM*%
%LPD*%
G01*
G04 APERTURE LIST*
%ADD10O,2.100000X2.100000*%
%ADD11R,2.100000X2.100000*%
%ADD12C,10.400000*%
%ADD13C,2.400000*%
%ADD14C,2.600000*%
G04 APERTURE END LIST*
D10*
G04 #@! TO.C,J6*
X98552000Y-42062400D03*
X96012000Y-42062400D03*
X98552000Y-44602400D03*
D11*
X96012000Y-44602400D03*
G04 #@! TD*
D12*
G04 #@! TO.C,K2*
X40058340Y-113266220D03*
G04 #@! TD*
G04 #@! TO.C,K1*
X90167460Y-105803700D03*
G04 #@! TD*
G04 #@! TO.C,K3*
X27294840Y-105883540D03*
G04 #@! TD*
G04 #@! TO.C,K4*
X40040560Y-98953320D03*
G04 #@! TD*
G04 #@! TO.C,K5*
X52740560Y-105859580D03*
G04 #@! TD*
G04 #@! TO.C,K6*
X65364360Y-105859580D03*
G04 #@! TD*
G04 #@! TO.C,K7*
X77599540Y-105986580D03*
G04 #@! TD*
D11*
G04 #@! TO.C,J13*
X115976400Y-75946000D03*
D10*
X118516400Y-75946000D03*
X115976400Y-73406000D03*
X118516400Y-73406000D03*
X115976400Y-70866000D03*
X118516400Y-70866000D03*
G04 #@! TD*
D13*
G04 #@! TO.C,SW1*
X82854800Y-31728800D03*
X82854800Y-27228800D03*
X89354800Y-31728800D03*
X89354800Y-27228800D03*
G04 #@! TD*
D11*
G04 #@! TO.C,U4*
X115976400Y-38760400D03*
D10*
X118516400Y-38760400D03*
X115976400Y-36220400D03*
X118516400Y-36220400D03*
X115976400Y-33680400D03*
X118516400Y-33680400D03*
X115976400Y-31140400D03*
X118516400Y-31140400D03*
G04 #@! TD*
D11*
G04 #@! TO.C,J2*
X58216800Y-34544000D03*
D10*
X58216800Y-37084000D03*
X60756800Y-34544000D03*
X60756800Y-37084000D03*
X63296800Y-34544000D03*
X63296800Y-37084000D03*
G04 #@! TD*
D11*
G04 #@! TO.C,J3*
X83007200Y-69697600D03*
D10*
X85547200Y-69697600D03*
G04 #@! TD*
G04 #@! TO.C,J5*
X63195200Y-62585600D03*
D11*
X60655200Y-62585600D03*
G04 #@! TD*
D10*
G04 #@! TO.C,J7*
X100533200Y-56083200D03*
X103073200Y-56083200D03*
X100533200Y-53543200D03*
D11*
X103073200Y-53543200D03*
G04 #@! TD*
D10*
G04 #@! TO.C,J8*
X92700000Y-88900000D03*
X90160000Y-88900000D03*
X87620000Y-88900000D03*
X85080000Y-88900000D03*
X82540000Y-88900000D03*
D11*
X80000000Y-88900000D03*
G04 #@! TD*
G04 #@! TO.C,J9*
X80010000Y-93980000D03*
D10*
X82550000Y-93980000D03*
X85090000Y-93980000D03*
X87630000Y-93980000D03*
X90170000Y-93980000D03*
X92710000Y-93980000D03*
G04 #@! TD*
D11*
G04 #@! TO.C,J10*
X41249600Y-67259200D03*
D10*
X41249600Y-69799200D03*
X43789600Y-67259200D03*
X43789600Y-69799200D03*
G04 #@! TD*
G04 #@! TO.C,J12*
X97078800Y-77063600D03*
X94538800Y-77063600D03*
X97078800Y-79603600D03*
D11*
X94538800Y-79603600D03*
G04 #@! TD*
G04 #@! TO.C,U5*
X116000000Y-63093600D03*
D10*
X118540000Y-63093600D03*
X116000000Y-60553600D03*
X118540000Y-60553600D03*
X116000000Y-58013600D03*
X118540000Y-58013600D03*
X116000000Y-55473600D03*
X118540000Y-55473600D03*
X116000000Y-52933600D03*
X118540000Y-52933600D03*
X116000000Y-50393600D03*
X118540000Y-50393600D03*
X116000000Y-47853600D03*
X118540000Y-47853600D03*
X116000000Y-45313600D03*
X118540000Y-45313600D03*
G04 #@! TD*
D11*
G04 #@! TO.C,U8*
X56896000Y-88900000D03*
D10*
X59436000Y-88900000D03*
X61976000Y-88900000D03*
X64516000Y-88900000D03*
G04 #@! TD*
D14*
G04 #@! TO.C,REF\002A\002A*
X23000000Y-88000000D03*
G04 #@! TD*
G04 #@! TO.C,REF\002A\002A*
X23000000Y-95000000D03*
G04 #@! TD*
G04 #@! TO.C,REF\002A\002A*
X23000000Y-117000000D03*
G04 #@! TD*
G04 #@! TO.C,REF\002A\002A*
X117000000Y-117000000D03*
G04 #@! TD*
G04 #@! TO.C,REF\002A\002A*
X117000000Y-95000000D03*
G04 #@! TD*
G04 #@! TO.C,REF\002A\002A*
X117000000Y-88000000D03*
G04 #@! TD*
G04 #@! TO.C,REF\002A\002A*
X117000000Y-23000000D03*
G04 #@! TD*
G04 #@! TO.C,REF\002A\002A*
X23000000Y-23000000D03*
G04 #@! TD*
M02*
