G04 #@! TF.GenerationSoftware,KiCad,Pcbnew,(5.0.0)*
G04 #@! TF.CreationDate,2018-10-17T18:23:54+02:00*
G04 #@! TF.ProjectId,CameraSystem,43616D65726153797374656D2E6B6963,rev?*
G04 #@! TF.SameCoordinates,Original*
G04 #@! TF.FileFunction,Legend,Bot*
G04 #@! TF.FilePolarity,Positive*
%FSLAX46Y46*%
G04 Gerber Fmt 4.6, Leading zero omitted, Abs format (unit mm)*
G04 Created by KiCad (PCBNEW (5.0.0)) date 10/17/18 18:23:54*
%MOMM*%
%LPD*%
G01*
G04 APERTURE LIST*
%ADD10C,0.200000*%
%ADD11C,0.150000*%
G04 APERTURE END LIST*
D10*
X91704919Y-107906914D02*
X91466823Y-108145009D01*
X90752538Y-108383104D01*
X90276347Y-108383104D01*
X89562061Y-108145009D01*
X89085871Y-107668819D01*
X88847776Y-107192628D01*
X88609680Y-106240247D01*
X88609680Y-105525961D01*
X88847776Y-104573580D01*
X89085871Y-104097390D01*
X89562061Y-103621200D01*
X90276347Y-103383104D01*
X90752538Y-103383104D01*
X91466823Y-103621200D01*
X91704919Y-103859295D01*
X78104002Y-105764057D02*
X78818288Y-106002152D01*
X79056383Y-106240247D01*
X79294479Y-106716438D01*
X79294479Y-107430723D01*
X79056383Y-107906914D01*
X78818288Y-108145009D01*
X78342098Y-108383104D01*
X76437336Y-108383104D01*
X76437336Y-103383104D01*
X78104002Y-103383104D01*
X78580193Y-103621200D01*
X78818288Y-103859295D01*
X79056383Y-104335485D01*
X79056383Y-104811676D01*
X78818288Y-105287866D01*
X78580193Y-105525961D01*
X78104002Y-105764057D01*
X76437336Y-105764057D01*
X64260243Y-106954533D02*
X66641196Y-106954533D01*
X63784053Y-108383104D02*
X65450720Y-103383104D01*
X67117386Y-108383104D01*
X40053871Y-116632529D02*
X36894111Y-113472769D01*
X40053871Y-110196169D02*
X40053871Y-116632529D01*
X40033551Y-116632529D02*
X43132351Y-113533729D01*
X50217184Y-106044344D02*
X56653544Y-106044344D01*
X56653544Y-106064664D02*
X53554744Y-102965864D01*
X56653544Y-106044344D02*
X53493784Y-109204104D01*
X40000611Y-94499885D02*
X43160371Y-97659645D01*
X40000611Y-100936245D02*
X40000611Y-94499885D01*
X40020931Y-94499885D02*
X36922131Y-97598685D01*
X23682960Y-105971340D02*
X26781760Y-109070140D01*
X23682960Y-105991660D02*
X26842720Y-102831900D01*
X30119320Y-105991660D02*
X23682960Y-105991660D01*
G04 #@! TO.C,K2*
D11*
X34070435Y-113434600D02*
X34070435Y-112434600D01*
X33499006Y-113434600D02*
X33927578Y-112863172D01*
X33499006Y-112434600D02*
X34070435Y-113006029D01*
X33118054Y-112529839D02*
X33070435Y-112482220D01*
X32975197Y-112434600D01*
X32737101Y-112434600D01*
X32641863Y-112482220D01*
X32594244Y-112529839D01*
X32546625Y-112625077D01*
X32546625Y-112720315D01*
X32594244Y-112863172D01*
X33165673Y-113434600D01*
X32546625Y-113434600D01*
G04 #@! TO.C,K1*
X90778555Y-112434080D02*
X90778555Y-111434080D01*
X90207126Y-112434080D02*
X90635698Y-111862652D01*
X90207126Y-111434080D02*
X90778555Y-112005509D01*
X89254745Y-112434080D02*
X89826174Y-112434080D01*
X89540460Y-112434080D02*
X89540460Y-111434080D01*
X89635698Y-111576938D01*
X89730936Y-111672176D01*
X89826174Y-111719795D01*
G04 #@! TO.C,K3*
X28236135Y-112386920D02*
X28236135Y-111386920D01*
X27664706Y-112386920D02*
X28093278Y-111815492D01*
X27664706Y-111386920D02*
X28236135Y-111958349D01*
X27331373Y-111386920D02*
X26712325Y-111386920D01*
X27045659Y-111767873D01*
X26902801Y-111767873D01*
X26807563Y-111815492D01*
X26759944Y-111863111D01*
X26712325Y-111958349D01*
X26712325Y-112196444D01*
X26759944Y-112291682D01*
X26807563Y-112339301D01*
X26902801Y-112386920D01*
X27188516Y-112386920D01*
X27283754Y-112339301D01*
X27331373Y-112291682D01*
G04 #@! TO.C,K4*
X35703655Y-103552700D02*
X35703655Y-102552700D01*
X35132226Y-103552700D02*
X35560798Y-102981272D01*
X35132226Y-102552700D02*
X35703655Y-103124129D01*
X34275083Y-102886034D02*
X34275083Y-103552700D01*
X34513179Y-102505081D02*
X34751274Y-103219367D01*
X34132226Y-103219367D01*
G04 #@! TO.C,K5*
X53656455Y-112362960D02*
X53656455Y-111362960D01*
X53085026Y-112362960D02*
X53513598Y-111791532D01*
X53085026Y-111362960D02*
X53656455Y-111934389D01*
X52180264Y-111362960D02*
X52656455Y-111362960D01*
X52704074Y-111839151D01*
X52656455Y-111791532D01*
X52561217Y-111743913D01*
X52323121Y-111743913D01*
X52227883Y-111791532D01*
X52180264Y-111839151D01*
X52132645Y-111934389D01*
X52132645Y-112172484D01*
X52180264Y-112267722D01*
X52227883Y-112315341D01*
X52323121Y-112362960D01*
X52561217Y-112362960D01*
X52656455Y-112315341D01*
X52704074Y-112267722D01*
G04 #@! TO.C,K6*
X66000855Y-112362960D02*
X66000855Y-111362960D01*
X65429426Y-112362960D02*
X65857998Y-111791532D01*
X65429426Y-111362960D02*
X66000855Y-111934389D01*
X64572283Y-111362960D02*
X64762760Y-111362960D01*
X64857998Y-111410580D01*
X64905617Y-111458199D01*
X65000855Y-111601056D01*
X65048474Y-111791532D01*
X65048474Y-112172484D01*
X65000855Y-112267722D01*
X64953236Y-112315341D01*
X64857998Y-112362960D01*
X64667521Y-112362960D01*
X64572283Y-112315341D01*
X64524664Y-112267722D01*
X64477045Y-112172484D01*
X64477045Y-111934389D01*
X64524664Y-111839151D01*
X64572283Y-111791532D01*
X64667521Y-111743913D01*
X64857998Y-111743913D01*
X64953236Y-111791532D01*
X65000855Y-111839151D01*
X65048474Y-111934389D01*
G04 #@! TO.C,K7*
X78591635Y-112870960D02*
X78591635Y-111870960D01*
X78020206Y-112870960D02*
X78448778Y-112299532D01*
X78020206Y-111870960D02*
X78591635Y-112442389D01*
X77686873Y-111870960D02*
X77020206Y-111870960D01*
X77448778Y-112870960D01*
G04 #@! TD*
M02*
