G04 #@! TF.GenerationSoftware,KiCad,Pcbnew,(5.0.0)*
G04 #@! TF.CreationDate,2018-10-17T18:23:54+02:00*
G04 #@! TF.ProjectId,CameraSystem,43616D65726153797374656D2E6B6963,rev?*
G04 #@! TF.SameCoordinates,Original*
G04 #@! TF.FileFunction,Soldermask,Bot*
G04 #@! TF.FilePolarity,Negative*
%FSLAX46Y46*%
G04 Gerber Fmt 4.6, Leading zero omitted, Abs format (unit mm)*
G04 Created by KiCad (PCBNEW (5.0.0)) date 10/17/18 18:23:54*
%MOMM*%
%LPD*%
G01*
G04 APERTURE LIST*
%ADD10C,3.400000*%
%ADD11O,2.100000X2.100000*%
%ADD12R,2.100000X2.100000*%
%ADD13C,10.400000*%
%ADD14R,2.500000X2.500000*%
%ADD15C,2.500000*%
G04 APERTURE END LIST*
D10*
G04 #@! TO.C,REF\002A\002A*
X24000000Y-87440000D03*
G04 #@! TD*
G04 #@! TO.C,REF\002A\002A*
X24000000Y-95440000D03*
G04 #@! TD*
G04 #@! TO.C,REF\002A\002A*
X24000000Y-116000000D03*
G04 #@! TD*
G04 #@! TO.C,REF\002A\002A*
X116000000Y-116000000D03*
G04 #@! TD*
G04 #@! TO.C,REF\002A\002A*
X116000000Y-95440000D03*
G04 #@! TD*
G04 #@! TO.C,REF\002A\002A*
X116000000Y-87440000D03*
G04 #@! TD*
G04 #@! TO.C,REF\002A\002A*
X116000000Y-24000000D03*
G04 #@! TD*
D11*
G04 #@! TO.C,J12*
X92710000Y-93980000D03*
X90170000Y-93980000D03*
X87630000Y-93980000D03*
X85090000Y-93980000D03*
X82550000Y-93980000D03*
D12*
X80010000Y-93980000D03*
G04 #@! TD*
D13*
G04 #@! TO.C,K2*
X40058340Y-113266220D03*
G04 #@! TD*
D11*
G04 #@! TO.C,J2*
X63296800Y-32004000D03*
X63296800Y-34544000D03*
X60756800Y-32004000D03*
X60756800Y-34544000D03*
X58216800Y-32004000D03*
D12*
X58216800Y-34544000D03*
G04 #@! TD*
G04 #@! TO.C,J3*
X83007200Y-69697600D03*
D11*
X85547200Y-69697600D03*
G04 #@! TD*
G04 #@! TO.C,J4*
X51663600Y-35560000D03*
X51663600Y-33020000D03*
D12*
X51663600Y-30480000D03*
G04 #@! TD*
D11*
G04 #@! TO.C,J5*
X63195200Y-62484000D03*
D12*
X60655200Y-62484000D03*
G04 #@! TD*
G04 #@! TO.C,J11*
X80000000Y-88900000D03*
D11*
X82540000Y-88900000D03*
X85080000Y-88900000D03*
X87620000Y-88900000D03*
X90160000Y-88900000D03*
X92700000Y-88900000D03*
G04 #@! TD*
G04 #@! TO.C,J14*
X113460000Y-70840000D03*
X116000000Y-70840000D03*
X113460000Y-73380000D03*
X116000000Y-73380000D03*
X113460000Y-75920000D03*
X116000000Y-75920000D03*
X113460000Y-78460000D03*
X116000000Y-78460000D03*
X113460000Y-81000000D03*
D12*
X116000000Y-81000000D03*
G04 #@! TD*
D13*
G04 #@! TO.C,K1*
X90167460Y-105803700D03*
G04 #@! TD*
G04 #@! TO.C,K3*
X27294840Y-105883540D03*
G04 #@! TD*
G04 #@! TO.C,K4*
X40040560Y-98953320D03*
G04 #@! TD*
G04 #@! TO.C,K5*
X52740560Y-105859580D03*
G04 #@! TD*
G04 #@! TO.C,K6*
X65364360Y-105859580D03*
G04 #@! TD*
G04 #@! TO.C,K7*
X77599540Y-105986580D03*
G04 #@! TD*
D14*
G04 #@! TO.C,S1*
X84124800Y-24790400D03*
D15*
X89124800Y-29790400D03*
X89124800Y-24790400D03*
X84124800Y-29790400D03*
G04 #@! TD*
D11*
G04 #@! TO.C,U9*
X64516000Y-88900000D03*
X61976000Y-88900000D03*
X59436000Y-88900000D03*
D12*
X56896000Y-88900000D03*
G04 #@! TD*
D11*
G04 #@! TO.C,U4*
X113460000Y-29044400D03*
X116000000Y-29044400D03*
X113460000Y-31584400D03*
X116000000Y-31584400D03*
X113460000Y-34124400D03*
X116000000Y-34124400D03*
X113460000Y-36664400D03*
D12*
X116000000Y-36664400D03*
G04 #@! TD*
D11*
G04 #@! TO.C,U6*
X113460000Y-45313600D03*
X116000000Y-45313600D03*
X113460000Y-47853600D03*
X116000000Y-47853600D03*
X113460000Y-50393600D03*
X116000000Y-50393600D03*
X113460000Y-52933600D03*
X116000000Y-52933600D03*
X113460000Y-55473600D03*
X116000000Y-55473600D03*
X113460000Y-58013600D03*
X116000000Y-58013600D03*
X113460000Y-60553600D03*
X116000000Y-60553600D03*
X113460000Y-63093600D03*
D12*
X116000000Y-63093600D03*
G04 #@! TD*
D10*
G04 #@! TO.C,REF\002A\002A*
X24000000Y-24000000D03*
G04 #@! TD*
M02*
