M48
;DRILL file {KiCad (5.0.0)} date 04/16/19 16:00:36
;FORMAT={-:-/ absolute / metric / decimal}
FMAT,2
METRIC,TZ
T1C0.330
T2C0.400
T3C1.000
T4C1.100
%
G90
G05
M71
T1
X107.962Y-73.633
X107.962Y-75.133
X107.962Y-76.633
X109.462Y-73.633
X109.462Y-75.133
X109.462Y-76.633
T2
X21.844Y-28.194
X21.844Y-30.607
X21.844Y-32.766
X23.381Y-75.629
X23.381Y-76.53
X24.257Y-65.278
X24.486Y-74.676
X25.197Y-80.569
X26.01Y-69.647
X30.023Y-81.94
X32.004Y-47.168
X34.29Y-69.469
X34.29Y-70.485
X34.29Y-71.628
X34.392Y-41.758
X34.417Y-88.138
X35.046Y-106.
X39.218Y-84.176
X39.218Y-85.446
X39.243Y-83.058
X39.497Y-43.561
X39.878Y-40.183
X40.257Y-76.198
X40.488Y-78.842
X40.488Y-85.496
X41.021Y-43.18
X41.021Y-72.898
X41.021Y-75.438
X41.097Y-40.183
X41.808Y-85.547
X42.012Y-51.105
X42.418Y-40.132
X42.631Y-75.441
X42.794Y-104.922
X42.799Y-43.561
X42.824Y-62.179
X42.824Y-63.094
X42.824Y-64.11
X43.078Y-51.105
X43.586Y-37.389
X43.586Y-38.811
X43.586Y-40.132
X44.298Y-51.105
X44.45Y-65.126
X44.806Y-78.842
X45.11Y-118.11
X45.263Y-51.156
X45.293Y-72.877
X45.822Y-60.96
X45.974Y-62.357
X46.736Y-114.427
X46.736Y-115.57
X46.888Y-61.684
X46.888Y-62.357
X47.688Y-61.684
X47.701Y-62.37
X47.981Y-27.965
X49.276Y-58.674
X49.352Y-27.965
X49.378Y-44.45
X49.403Y-43.561
X49.581Y-79.908
X50.038Y-59.436
X50.673Y-43.561
X50.762Y-27.965
X50.8Y-60.198
X50.8Y-82.398
X52.197Y-27.953
X53.391Y-52.883
X53.391Y-61.982
X53.81Y-27.953
X54.356Y-84.963
X54.483Y-112.268
X55.626Y-43.434
X55.753Y-112.268
X57.277Y-43.434
X57.752Y-110.833
X58.928Y-43.434
X60.579Y-56.286
X60.833Y-77.343
X61.722Y-74.93
X63.246Y-57.099
X64.224Y-50.711
X64.897Y-51.537
X65.672Y-50.698
X66.167Y-58.801
X66.802Y-32.512
X66.802Y-49.784
X66.802Y-59.69
X67.564Y-48.133
X67.615Y-40.691
X68.072Y-60.071
X68.453Y-35.56
X68.453Y-51.562
X68.58Y-74.93
X68.58Y-77.343
X68.961Y-53.848
X68.961Y-58.039
X69.596Y-61.265
X69.85Y-59.817
X69.952Y-39.776
X70.231Y-47.879
X70.325Y-110.96
X70.714Y-61.265
X71.78Y-61.316
X71.78Y-62.433
X71.78Y-63.398
X72.39Y-50.927
X72.39Y-52.07
X72.39Y-53.213
X72.492Y-85.039
X72.517Y-57.658
X72.746Y-65.634
X73.101Y-39.573
X73.101Y-54.254
X73.406Y-57.023
X73.66Y-61.265
X74.066Y-33.934
X74.168Y-70.739
X74.422Y-65.634
X74.549Y-54.356
X74.549Y-55.626
X74.93Y-34.595
X75.184Y-50.165
X75.438Y-65.634
X75.689Y-54.389
X75.819Y-35.433
X75.819Y-45.466
X76.454Y-38.227
X76.454Y-65.786
X77.328Y-57.442
X77.47Y-50.165
X78.737Y-57.45
X78.74Y-50.165
X79.019Y-41.364
X79.108Y-30.531
X79.883Y-41.377
X79.908Y-30.518
X80.01Y-74.93
X80.14Y-57.45
X80.391Y-51.562
X80.391Y-52.832
X80.391Y-53.975
X80.709Y-41.377
X80.734Y-30.518
X82.591Y-110.172
X84.087Y-37.16
X85.09Y-77.343
X85.56Y-37.16
X85.601Y-55.997
X86.49Y-56.058
X87.084Y-37.16
X88.47Y-64.975
X88.936Y-56.086
X89.37Y-52.489
X89.37Y-53.442
X90.145Y-56.111
X90.551Y-63.119
X90.602Y-53.327
X91.757Y-53.34
X93.415Y-55.347
X96.558Y-106.957
X99.67Y-75.59
X99.72Y-76.556
X99.771Y-77.47
X100.482Y-69.088
X101.092Y-104.013
X101.448Y-85.659
X101.6Y-98.298
X101.6Y-99.441
X101.702Y-70.206
X102.108Y-78.029
X102.235Y-104.013
X102.362Y-69.698
X102.743Y-98.298
X102.768Y-77.368
X103.429Y-71.933
X103.48Y-60.554
X103.886Y-73.05
X103.886Y-78.994
X104.089Y-80.569
X104.191Y-73.812
X104.648Y-76.2
X104.648Y-79.299
X104.851Y-66.458
X104.953Y-80.569
X105.308Y-78.486
X105.613Y-57.709
X106.02Y-80.569
X106.172Y-58.42
X106.172Y-78.486
X106.172Y-115.951
X106.172Y-117.475
X106.426Y-62.484
X106.782Y-59.436
X107.798Y-45.517
X108.458Y-43.129
X108.656Y-67.516
X109.474Y-103.886
X109.855Y-99.441
X109.855Y-100.457
X110.236Y-103.886
X110.592Y-79.502
X110.592Y-80.62
X110.592Y-81.636
X110.642Y-78.588
X111.252Y-111.76
X111.379Y-113.157
X111.582Y-104.089
X111.633Y-99.466
X112.217Y-79.451
X112.522Y-31.801
X112.522Y-35.001
X112.878Y-74.168
X112.928Y-72.136
X113.03Y-77.368
X113.182Y-65.38
T3
X80.01Y-93.98
X82.55Y-93.98
X85.09Y-93.98
X87.63Y-93.98
X90.17Y-93.98
X92.71Y-93.98
X41.25Y-67.259
X41.25Y-69.799
X43.79Y-67.259
X43.79Y-69.799
X94.539Y-77.064
X94.539Y-79.604
X97.079Y-77.064
X97.079Y-79.604
X60.655Y-62.586
X63.195Y-62.586
X100.533Y-53.543
X100.533Y-56.083
X103.073Y-53.543
X103.073Y-56.083
X80.Y-88.9
X82.54Y-88.9
X85.08Y-88.9
X87.62Y-88.9
X90.16Y-88.9
X92.7Y-88.9
X96.012Y-42.062
X96.012Y-44.602
X98.552Y-42.062
X98.552Y-44.602
X56.896Y-88.9
X59.436Y-88.9
X61.976Y-88.9
X64.516Y-88.9
X115.976Y-31.14
X115.976Y-33.68
X115.976Y-36.22
X115.976Y-38.76
X118.516Y-31.14
X118.516Y-33.68
X118.516Y-36.22
X118.516Y-38.76
X116.Y-45.314
X116.Y-47.854
X116.Y-50.394
X116.Y-52.934
X116.Y-55.474
X116.Y-58.014
X116.Y-60.554
X116.Y-63.094
X118.54Y-45.314
X118.54Y-47.854
X118.54Y-50.394
X118.54Y-52.934
X118.54Y-55.474
X118.54Y-58.014
X118.54Y-60.554
X118.54Y-63.094
X83.007Y-69.698
X85.547Y-69.698
X58.217Y-34.544
X58.217Y-37.084
X60.757Y-34.544
X60.757Y-37.084
X63.297Y-34.544
X63.297Y-37.084
X115.976Y-70.866
X115.976Y-73.406
X115.976Y-75.946
X118.516Y-70.866
X118.516Y-73.406
X118.516Y-75.946
T4
X82.855Y-27.229
X82.855Y-31.729
X89.355Y-27.229
X89.355Y-31.729
T0
M30
