M48
;DRILL file {KiCad (5.0.0)} date 10/17/18 18:24:00
;FORMAT={-:-/ absolute / metric / decimal}
FMAT,2
METRIC,TZ
T1C0.400
T2C1.000
T3C1.100
T4C3.000
%
G90
G05
M71
T1
X21.844Y-30.607
X23.368Y-30.607
X24.257Y-65.278
X25.019Y-30.607
X29.332Y-57.714
X30.046Y-54.478
X30.256Y-57.714
X30.48Y-83.566
X30.851Y-51.867
X31.008Y-56.487
X31.008Y-57.33
X31.206Y-54.478
X32.639Y-47.879
X32.766Y-41.783
X33.053Y-52.54
X33.066Y-53.739
X33.528Y-83.566
X34.29Y-69.469
X34.29Y-70.485
X34.29Y-71.628
X34.417Y-88.138
X35.046Y-106.
X39.243Y-83.058
X39.497Y-43.561
X39.957Y-80.693
X40.257Y-76.198
X40.386Y-83.058
X41.021Y-43.18
X41.021Y-72.898
X41.021Y-75.438
X41.046Y-78.273
X41.897Y-80.688
X42.631Y-75.441
X42.794Y-104.922
X42.799Y-43.561
X44.323Y-65.151
X44.323Y-80.772
X45.085Y-60.96
X45.11Y-118.11
X45.212Y-85.09
X45.339Y-79.502
X45.943Y-74.326
X45.974Y-62.357
X46.736Y-27.559
X46.736Y-40.894
X46.736Y-114.427
X46.736Y-115.57
X48.006Y-43.561
X49.276Y-58.674
X49.403Y-43.561
X50.038Y-59.436
X50.673Y-43.561
X50.8Y-60.198
X54.356Y-84.963
X54.483Y-112.268
X55.626Y-43.434
X55.753Y-112.268
X57.277Y-43.434
X57.752Y-110.833
X58.928Y-43.434
X60.579Y-56.286
X60.833Y-77.343
X61.722Y-74.93
X63.246Y-57.099
X65.151Y-40.894
X65.532Y-38.989
X65.786Y-50.927
X66.167Y-58.801
X66.802Y-49.784
X66.802Y-59.69
X67.564Y-39.878
X67.564Y-48.133
X68.072Y-60.071
X68.453Y-51.562
X68.58Y-29.21
X68.58Y-74.93
X68.58Y-77.343
X68.961Y-53.848
X68.961Y-58.039
X69.85Y-59.817
X70.231Y-47.879
X70.325Y-110.96
X72.263Y-84.963
X72.39Y-50.927
X72.39Y-52.07
X72.39Y-53.213
X72.517Y-57.658
X73.279Y-36.068
X73.279Y-54.356
X73.406Y-57.023
X73.66Y-62.992
X74.041Y-34.798
X74.168Y-70.739
X74.549Y-54.356
X74.549Y-55.626
X74.93Y-34.036
X75.184Y-50.165
X75.311Y-65.786
X75.689Y-54.389
X75.819Y-35.433
X75.819Y-45.466
X76.454Y-38.227
X77.328Y-57.442
X77.47Y-50.165
X78.737Y-57.45
X78.74Y-50.165
X79.121Y-43.942
X79.248Y-22.352
X79.294Y-39.197
X80.01Y-74.93
X80.14Y-57.45
X80.391Y-51.562
X80.391Y-52.832
X80.391Y-53.975
X82.591Y-110.172
X85.09Y-77.343
X85.601Y-55.997
X86.49Y-56.058
X88.47Y-64.975
X88.936Y-56.086
X90.145Y-56.111
X90.551Y-63.119
X91.313Y-39.497
X91.821Y-44.831
X91.821Y-52.705
X92.456Y-54.61
X93.091Y-44.958
X93.415Y-55.347
X96.558Y-106.957
X101.092Y-102.87
X101.092Y-104.013
X101.6Y-98.298
X101.6Y-99.441
X102.235Y-104.013
X102.743Y-98.298
X106.172Y-115.951
X106.172Y-117.475
X106.426Y-62.484
X109.474Y-103.886
X109.855Y-99.441
X109.855Y-100.457
X110.236Y-103.886
X111.252Y-111.76
X111.379Y-113.157
X111.582Y-104.089
X111.633Y-99.466
T2
X80.Y-88.9
X82.54Y-88.9
X85.08Y-88.9
X87.62Y-88.9
X90.16Y-88.9
X92.7Y-88.9
X56.896Y-88.9
X59.436Y-88.9
X61.976Y-88.9
X64.516Y-88.9
X83.007Y-69.698
X85.547Y-69.698
X80.01Y-93.98
X82.55Y-93.98
X85.09Y-93.98
X87.63Y-93.98
X90.17Y-93.98
X92.71Y-93.98
X113.46Y-29.044
X113.46Y-31.584
X113.46Y-34.124
X113.46Y-36.664
X116.Y-29.044
X116.Y-31.584
X116.Y-34.124
X116.Y-36.664
X60.655Y-62.484
X63.195Y-62.484
X58.217Y-32.004
X58.217Y-34.544
X60.757Y-32.004
X60.757Y-34.544
X63.297Y-32.004
X63.297Y-34.544
X113.46Y-70.84
X113.46Y-73.38
X113.46Y-75.92
X113.46Y-78.46
X113.46Y-81.
X116.Y-70.84
X116.Y-73.38
X116.Y-75.92
X116.Y-78.46
X116.Y-81.
X113.46Y-45.314
X113.46Y-47.854
X113.46Y-50.394
X113.46Y-52.934
X113.46Y-55.474
X113.46Y-58.014
X113.46Y-60.554
X113.46Y-63.094
X116.Y-45.314
X116.Y-47.854
X116.Y-50.394
X116.Y-52.934
X116.Y-55.474
X116.Y-58.014
X116.Y-60.554
X116.Y-63.094
X51.664Y-30.48
X51.664Y-33.02
X51.664Y-35.56
T3
X84.125Y-24.79
X84.125Y-29.79
X89.125Y-24.79
X89.125Y-29.79
T4
X24.Y-87.44
X24.Y-95.44
X116.Y-95.44
X116.Y-24.
X116.Y-87.44
X24.Y-24.
X24.Y-116.
X116.Y-116.
T0
M30
