G04 #@! TF.GenerationSoftware,KiCad,Pcbnew,(5.0.0)*
G04 #@! TF.CreationDate,2018-10-17T18:23:54+02:00*
G04 #@! TF.ProjectId,CameraSystem,43616D65726153797374656D2E6B6963,rev?*
G04 #@! TF.SameCoordinates,Original*
G04 #@! TF.FileFunction,Soldermask,Top*
G04 #@! TF.FilePolarity,Negative*
%FSLAX46Y46*%
G04 Gerber Fmt 4.6, Leading zero omitted, Abs format (unit mm)*
G04 Created by KiCad (PCBNEW (5.0.0)) date 10/17/18 18:23:54*
%MOMM*%
%LPD*%
G01*
G04 APERTURE LIST*
%ADD10R,1.200000X1.200000*%
%ADD11C,3.400000*%
%ADD12R,0.850000X0.700000*%
%ADD13R,1.000000X1.200000*%
%ADD14R,2.150000X1.100000*%
%ADD15R,1.900000X1.900000*%
%ADD16R,1.900000X1.700000*%
%ADD17R,1.900000X1.200000*%
%ADD18R,1.800000X1.200000*%
%ADD19R,1.950000X1.400000*%
%ADD20R,1.400000X1.850000*%
%ADD21O,2.100000X2.100000*%
%ADD22R,2.100000X2.100000*%
%ADD23R,2.370000X1.000000*%
%ADD24R,1.750000X0.800000*%
%ADD25R,2.000000X2.500000*%
%ADD26R,2.300000X2.300000*%
%ADD27R,2.300000X2.200000*%
%ADD28R,1.060400X2.432000*%
%ADD29R,1.200000X1.000000*%
%ADD30R,3.600000X2.000000*%
%ADD31R,2.000000X3.600000*%
%ADD32R,1.300000X1.200000*%
%ADD33R,3.600000X1.900000*%
%ADD34R,3.550000X1.400000*%
%ADD35R,1.440000X0.740000*%
%ADD36R,2.500000X2.500000*%
%ADD37C,2.500000*%
%ADD38R,1.873200X0.908000*%
%ADD39R,0.908000X1.873200*%
%ADD40R,0.810000X1.860000*%
%ADD41R,0.950000X1.700000*%
%ADD42R,1.000000X2.400000*%
%ADD43R,6.000000X2.500000*%
%ADD44R,7.400000X7.400000*%
%ADD45R,2.900000X1.900000*%
G04 APERTURE END LIST*
D10*
G04 #@! TO.C,D2*
X60198000Y-67169800D03*
X60198000Y-65519800D03*
G04 #@! TD*
D11*
G04 #@! TO.C,REF\002A\002A*
X24000000Y-87440000D03*
G04 #@! TD*
G04 #@! TO.C,REF\002A\002A*
X24000000Y-95440000D03*
G04 #@! TD*
G04 #@! TO.C,REF\002A\002A*
X24000000Y-116000000D03*
G04 #@! TD*
G04 #@! TO.C,REF\002A\002A*
X116000000Y-116000000D03*
G04 #@! TD*
G04 #@! TO.C,REF\002A\002A*
X116000000Y-95440000D03*
G04 #@! TD*
G04 #@! TO.C,REF\002A\002A*
X116000000Y-87440000D03*
G04 #@! TD*
G04 #@! TO.C,REF\002A\002A*
X116000000Y-24000000D03*
G04 #@! TD*
D12*
G04 #@! TO.C,D1*
X29669100Y-56766080D03*
X29669100Y-55766080D03*
X28319100Y-55766080D03*
X28319100Y-56266080D03*
X28319100Y-56766080D03*
G04 #@! TD*
D13*
G04 #@! TO.C,C21*
X116078000Y-65786000D03*
X114678000Y-65786000D03*
G04 #@! TD*
D14*
G04 #@! TO.C,J8*
X32131000Y-76000000D03*
X32131000Y-77100000D03*
X32131000Y-78200000D03*
X32131000Y-79300000D03*
X32131000Y-74900000D03*
X32131000Y-73800000D03*
X32131000Y-72700000D03*
X32131000Y-80400000D03*
D15*
X32006000Y-70250000D03*
D16*
X32006000Y-81600000D03*
D17*
X24406000Y-81850000D03*
D18*
X23881000Y-69900000D03*
D19*
X21456000Y-70300000D03*
D20*
X22906000Y-81525000D03*
G04 #@! TD*
D21*
G04 #@! TO.C,J12*
X92710000Y-93980000D03*
X90170000Y-93980000D03*
X87630000Y-93980000D03*
X85090000Y-93980000D03*
X82550000Y-93980000D03*
D22*
X80010000Y-93980000D03*
G04 #@! TD*
D23*
G04 #@! TO.C,U10*
X108642000Y-117475000D03*
X108642000Y-116205000D03*
X108642000Y-114935000D03*
X108642000Y-113665000D03*
X108642000Y-112395000D03*
X108642000Y-111125000D03*
X108642000Y-109855000D03*
X103702000Y-109855000D03*
X103702000Y-111125000D03*
X103702000Y-112395000D03*
X103702000Y-113665000D03*
X103702000Y-114935000D03*
X103702000Y-116205000D03*
X103702000Y-117475000D03*
G04 #@! TD*
D24*
G04 #@! TO.C,J1*
X25087960Y-56753760D03*
X25087960Y-56103760D03*
X25087960Y-58053760D03*
X25087960Y-57403760D03*
X25087960Y-55453760D03*
D25*
X24962960Y-59853760D03*
X24962960Y-53653760D03*
D26*
X22412960Y-57953760D03*
X22412960Y-55553760D03*
D27*
X22412960Y-60553760D03*
X22412960Y-52953760D03*
G04 #@! TD*
D28*
G04 #@! TO.C,U1*
X43256200Y-52959000D03*
X43256200Y-59105800D03*
X41986200Y-52959000D03*
X40716200Y-52959000D03*
X41986200Y-59105800D03*
X40716200Y-59105800D03*
X39446200Y-52959000D03*
X39446200Y-59105800D03*
X38176200Y-52959000D03*
X38176200Y-59105800D03*
X36906200Y-52959000D03*
X35636200Y-52959000D03*
X36906200Y-59105800D03*
X35636200Y-59105800D03*
X34366200Y-52959000D03*
X34366200Y-59105800D03*
G04 #@! TD*
D13*
G04 #@! TO.C,C3*
X44512000Y-43434000D03*
X45912000Y-43434000D03*
G04 #@! TD*
G04 #@! TO.C,C4*
X36384000Y-43434000D03*
X37784000Y-43434000D03*
G04 #@! TD*
G04 #@! TO.C,C5*
X30926000Y-53086000D03*
X29526000Y-53086000D03*
G04 #@! TD*
D29*
G04 #@! TO.C,C6*
X39420800Y-63692000D03*
X39420800Y-62292000D03*
G04 #@! TD*
G04 #@! TO.C,C7*
X43281600Y-62342800D03*
X43281600Y-63742800D03*
G04 #@! TD*
D30*
G04 #@! TO.C,C8*
X25264000Y-40894000D03*
X29464000Y-40894000D03*
G04 #@! TD*
D31*
G04 #@! TO.C,C9*
X41910000Y-27627000D03*
X41910000Y-23427000D03*
G04 #@! TD*
D29*
G04 #@! TO.C,C10*
X71069200Y-29808400D03*
X71069200Y-28408400D03*
G04 #@! TD*
D13*
G04 #@! TO.C,C11*
X62168000Y-43434000D03*
X60768000Y-43434000D03*
G04 #@! TD*
G04 #@! TO.C,C12*
X54040000Y-43434000D03*
X52640000Y-43434000D03*
G04 #@! TD*
G04 #@! TO.C,C13*
X86461600Y-53136800D03*
X87861600Y-53136800D03*
G04 #@! TD*
D29*
G04 #@! TO.C,C14*
X77317600Y-43812000D03*
X77317600Y-45212000D03*
G04 #@! TD*
G04 #@! TO.C,C15*
X76555600Y-64098400D03*
X76555600Y-62698400D03*
G04 #@! TD*
D13*
G04 #@! TO.C,C16*
X66040000Y-53086000D03*
X67440000Y-53086000D03*
G04 #@! TD*
D29*
G04 #@! TO.C,C17*
X87670640Y-54682160D03*
X87670640Y-56082160D03*
G04 #@! TD*
G04 #@! TO.C,C18*
X108559600Y-23430000D03*
X108559600Y-24830000D03*
G04 #@! TD*
G04 #@! TO.C,C19*
X37236400Y-80692800D03*
X37236400Y-82092800D03*
G04 #@! TD*
D13*
G04 #@! TO.C,C20*
X40070000Y-74371200D03*
X38670000Y-74371200D03*
G04 #@! TD*
D29*
G04 #@! TO.C,C22*
X86106000Y-42988000D03*
X86106000Y-44388000D03*
G04 #@! TD*
D13*
G04 #@! TO.C,C23*
X58866000Y-84988400D03*
X57466000Y-84988400D03*
G04 #@! TD*
G04 #@! TO.C,C24*
X66220800Y-76047600D03*
X64820800Y-76047600D03*
G04 #@! TD*
D29*
G04 #@! TO.C,C25*
X70053200Y-84440800D03*
X70053200Y-85840800D03*
G04 #@! TD*
D13*
G04 #@! TO.C,C26*
X113033000Y-117475000D03*
X111633000Y-117475000D03*
G04 #@! TD*
D29*
G04 #@! TO.C,C27*
X21996400Y-65241400D03*
X21996400Y-63841400D03*
G04 #@! TD*
D10*
G04 #@! TO.C,D3*
X63652400Y-65519800D03*
X63652400Y-67169800D03*
G04 #@! TD*
G04 #@! TO.C,D4*
X50928000Y-22606000D03*
X52578000Y-22606000D03*
G04 #@! TD*
D32*
G04 #@! TO.C,D5*
X76622400Y-24551600D03*
X78622400Y-25501600D03*
X76622400Y-26451600D03*
G04 #@! TD*
D10*
G04 #@! TO.C,D6*
X47943000Y-39116000D03*
X49593000Y-39116000D03*
G04 #@! TD*
D33*
G04 #@! TO.C,F1*
X29464000Y-45965000D03*
X29464000Y-50165000D03*
G04 #@! TD*
D13*
G04 #@! TO.C,FB1*
X90616000Y-54711600D03*
X89216000Y-54711600D03*
G04 #@! TD*
D21*
G04 #@! TO.C,J2*
X63296800Y-32004000D03*
X63296800Y-34544000D03*
X60756800Y-32004000D03*
X60756800Y-34544000D03*
X58216800Y-32004000D03*
D22*
X58216800Y-34544000D03*
G04 #@! TD*
G04 #@! TO.C,J3*
X83007200Y-69697600D03*
D21*
X85547200Y-69697600D03*
G04 #@! TD*
G04 #@! TO.C,J4*
X51663600Y-35560000D03*
X51663600Y-33020000D03*
D22*
X51663600Y-30480000D03*
G04 #@! TD*
D21*
G04 #@! TO.C,J5*
X63195200Y-62484000D03*
D22*
X60655200Y-62484000D03*
G04 #@! TD*
D34*
G04 #@! TO.C,J6*
X97805000Y-24688800D03*
X102855000Y-24688800D03*
X97805000Y-27228800D03*
X102855000Y-27228800D03*
G04 #@! TD*
G04 #@! TO.C,J7*
X38673800Y-68326000D03*
X43723800Y-68326000D03*
X38673800Y-70866000D03*
X43723800Y-70866000D03*
G04 #@! TD*
G04 #@! TO.C,J9*
X96281000Y-42468800D03*
X101331000Y-42468800D03*
X96281000Y-45008800D03*
X101331000Y-45008800D03*
G04 #@! TD*
G04 #@! TO.C,J10*
X96331800Y-53848000D03*
X101381800Y-53848000D03*
X96331800Y-56388000D03*
X101381800Y-56388000D03*
G04 #@! TD*
D22*
G04 #@! TO.C,J11*
X80000000Y-88900000D03*
D21*
X82540000Y-88900000D03*
X85080000Y-88900000D03*
X87620000Y-88900000D03*
X90160000Y-88900000D03*
X92700000Y-88900000D03*
G04 #@! TD*
D34*
G04 #@! TO.C,J13*
X106106200Y-83108800D03*
X101056200Y-83108800D03*
X106106200Y-80568800D03*
X101056200Y-80568800D03*
G04 #@! TD*
D21*
G04 #@! TO.C,J14*
X113460000Y-70840000D03*
X116000000Y-70840000D03*
X113460000Y-73380000D03*
X116000000Y-73380000D03*
X113460000Y-75920000D03*
X116000000Y-75920000D03*
X113460000Y-78460000D03*
X116000000Y-78460000D03*
X113460000Y-81000000D03*
D22*
X116000000Y-81000000D03*
G04 #@! TD*
D35*
G04 #@! TO.C,Q1*
X104275600Y-32562800D03*
X102175600Y-33512800D03*
X102175600Y-31612800D03*
G04 #@! TD*
G04 #@! TO.C,Q2*
X99652800Y-38201600D03*
X97552800Y-39151600D03*
X97552800Y-37251600D03*
G04 #@! TD*
G04 #@! TO.C,Q3*
X107789000Y-96992400D03*
X107789000Y-98892400D03*
X109889000Y-97942400D03*
G04 #@! TD*
G04 #@! TO.C,Q4*
X107789000Y-101462800D03*
X107789000Y-103362800D03*
X109889000Y-102412800D03*
G04 #@! TD*
D13*
G04 #@! TO.C,R1*
X47994800Y-57150000D03*
X46594800Y-57150000D03*
G04 #@! TD*
G04 #@! TO.C,R2*
X46594800Y-55118000D03*
X47994800Y-55118000D03*
G04 #@! TD*
D29*
G04 #@! TO.C,R3*
X60198000Y-69302400D03*
X60198000Y-70702400D03*
G04 #@! TD*
G04 #@! TO.C,R4*
X63652400Y-70753200D03*
X63652400Y-69353200D03*
G04 #@! TD*
D13*
G04 #@! TO.C,R5*
X46798000Y-22606000D03*
X48198000Y-22606000D03*
G04 #@! TD*
D29*
G04 #@! TO.C,R6*
X58216800Y-37490400D03*
X58216800Y-38890400D03*
G04 #@! TD*
G04 #@! TO.C,R7*
X60756800Y-38890400D03*
X60756800Y-37490400D03*
G04 #@! TD*
G04 #@! TO.C,R8*
X74066400Y-24750800D03*
X74066400Y-26150800D03*
G04 #@! TD*
D13*
G04 #@! TO.C,R9*
X74026800Y-29768800D03*
X75426800Y-29768800D03*
G04 #@! TD*
D29*
G04 #@! TO.C,R10*
X60706000Y-28959000D03*
X60706000Y-27559000D03*
G04 #@! TD*
D13*
G04 #@! TO.C,R11*
X56704000Y-52476400D03*
X58104000Y-52476400D03*
G04 #@! TD*
G04 #@! TO.C,R12*
X23356800Y-67691000D03*
X21956800Y-67691000D03*
G04 #@! TD*
D29*
G04 #@! TO.C,R16*
X74168000Y-45262800D03*
X74168000Y-43862800D03*
G04 #@! TD*
G04 #@! TO.C,R19*
X78130400Y-65797200D03*
X78130400Y-67197200D03*
G04 #@! TD*
G04 #@! TO.C,R20*
X79857600Y-65797200D03*
X79857600Y-67197200D03*
G04 #@! TD*
D13*
G04 #@! TO.C,R21*
X52770000Y-39116000D03*
X51370000Y-39116000D03*
G04 #@! TD*
G04 #@! TO.C,R22*
X99760000Y-31648400D03*
X98360000Y-31648400D03*
G04 #@! TD*
G04 #@! TO.C,R23*
X99760000Y-29972000D03*
X98360000Y-29972000D03*
G04 #@! TD*
G04 #@! TO.C,R24*
X104281200Y-29972000D03*
X102881200Y-29972000D03*
G04 #@! TD*
D29*
G04 #@! TO.C,R25*
X42418000Y-72833000D03*
X42418000Y-74233000D03*
G04 #@! TD*
G04 #@! TO.C,R26*
X102057200Y-39601600D03*
X102057200Y-38201600D03*
G04 #@! TD*
D13*
G04 #@! TO.C,R27*
X93635600Y-37236400D03*
X95035600Y-37236400D03*
G04 #@! TD*
G04 #@! TO.C,R28*
X93635600Y-39166800D03*
X95035600Y-39166800D03*
G04 #@! TD*
G04 #@! TO.C,R29*
X70053200Y-80975200D03*
X68653200Y-80975200D03*
G04 #@! TD*
G04 #@! TO.C,R30*
X68642000Y-82651600D03*
X70042000Y-82651600D03*
G04 #@! TD*
G04 #@! TO.C,R31*
X104379800Y-96977200D03*
X105779800Y-96977200D03*
G04 #@! TD*
G04 #@! TO.C,R32*
X105779800Y-98907600D03*
X104379800Y-98907600D03*
G04 #@! TD*
G04 #@! TO.C,R33*
X111604600Y-97942400D03*
X113004600Y-97942400D03*
G04 #@! TD*
G04 #@! TO.C,R34*
X106937000Y-107188000D03*
X105537000Y-107188000D03*
G04 #@! TD*
G04 #@! TO.C,R35*
X105791000Y-101447600D03*
X104391000Y-101447600D03*
G04 #@! TD*
G04 #@! TO.C,R36*
X104379800Y-103327200D03*
X105779800Y-103327200D03*
G04 #@! TD*
G04 #@! TO.C,R37*
X112993400Y-102412800D03*
X111593400Y-102412800D03*
G04 #@! TD*
G04 #@! TO.C,R38*
X97753400Y-118110000D03*
X96353400Y-118110000D03*
G04 #@! TD*
G04 #@! TO.C,R39*
X96353400Y-115036600D03*
X97753400Y-115036600D03*
G04 #@! TD*
G04 #@! TO.C,R40*
X96328000Y-111887000D03*
X97728000Y-111887000D03*
G04 #@! TD*
G04 #@! TO.C,R41*
X97728000Y-116586000D03*
X96328000Y-116586000D03*
G04 #@! TD*
G04 #@! TO.C,R42*
X97793000Y-113411000D03*
X96393000Y-113411000D03*
G04 #@! TD*
G04 #@! TO.C,R43*
X97728000Y-110261400D03*
X96328000Y-110261400D03*
G04 #@! TD*
D36*
G04 #@! TO.C,S1*
X84124800Y-24790400D03*
D37*
X89124800Y-29790400D03*
X89124800Y-24790400D03*
X84124800Y-29790400D03*
G04 #@! TD*
D38*
G04 #@! TO.C,U3*
X70815200Y-49911000D03*
X70815200Y-50698400D03*
X70815200Y-51511200D03*
X70815200Y-52298600D03*
X70815200Y-53111400D03*
X70815200Y-53898800D03*
X70815200Y-54686200D03*
X70815200Y-55499000D03*
X70815200Y-56286400D03*
X70815200Y-57099200D03*
X70815200Y-57886600D03*
D39*
X72567800Y-59639200D03*
X73355200Y-59639200D03*
X74168000Y-59639200D03*
X74955400Y-59639200D03*
X75768200Y-59639200D03*
X76555600Y-59639200D03*
X77343000Y-59639200D03*
X78155800Y-59639200D03*
X78943200Y-59639200D03*
X79756000Y-59639200D03*
X80543400Y-59639200D03*
D38*
X82296000Y-57886600D03*
X82296000Y-57099200D03*
X82296000Y-56286400D03*
X82296000Y-55499000D03*
X82296000Y-54686200D03*
X82296000Y-53898800D03*
X82296000Y-53111400D03*
X82296000Y-52298600D03*
X82296000Y-51511200D03*
X82296000Y-50698400D03*
X82296000Y-49911000D03*
D39*
X80543400Y-48158400D03*
X79756000Y-48158400D03*
X78943200Y-48158400D03*
X78155800Y-48158400D03*
X77343000Y-48158400D03*
X76555600Y-48158400D03*
X75768200Y-48158400D03*
X74955400Y-48158400D03*
X74168000Y-48158400D03*
X73355200Y-48158400D03*
X72567800Y-48158400D03*
G04 #@! TD*
D40*
G04 #@! TO.C,U5*
X42042800Y-82996600D03*
X42692800Y-82996600D03*
X43342800Y-82996600D03*
X43992800Y-82996600D03*
X44642800Y-82996600D03*
X45292800Y-82996600D03*
X45942800Y-82996600D03*
X45942800Y-77226600D03*
X45292800Y-77226600D03*
X44642800Y-77226600D03*
X43992800Y-77226600D03*
X43342800Y-77226600D03*
X42692800Y-77226600D03*
X42042800Y-77226600D03*
G04 #@! TD*
D41*
G04 #@! TO.C,U7*
X88524000Y-41910000D03*
X88524000Y-44410000D03*
X90424000Y-41910000D03*
X89474000Y-41910000D03*
X90424000Y-44410000D03*
G04 #@! TD*
D42*
G04 #@! TO.C,U8*
X66065400Y-79388800D03*
X64795400Y-79388800D03*
X62255400Y-79388800D03*
X62255400Y-84288800D03*
X63525400Y-84288800D03*
X64795400Y-84288800D03*
X66065400Y-84288800D03*
X63525400Y-79388800D03*
G04 #@! TD*
D21*
G04 #@! TO.C,U9*
X64516000Y-88900000D03*
X61976000Y-88900000D03*
X59436000Y-88900000D03*
D22*
X56896000Y-88900000D03*
G04 #@! TD*
D43*
G04 #@! TO.C,Y1*
X45898000Y-47625000D03*
X36398000Y-47625000D03*
G04 #@! TD*
G04 #@! TO.C,Y2*
X52654000Y-47599600D03*
X62154000Y-47599600D03*
G04 #@! TD*
D13*
G04 #@! TO.C,C1*
X29399000Y-36068000D03*
X30799000Y-36068000D03*
G04 #@! TD*
D29*
G04 #@! TO.C,C2*
X37084000Y-26286000D03*
X37084000Y-27686000D03*
G04 #@! TD*
D44*
G04 #@! TO.C,U2*
X30226000Y-30607000D03*
D45*
X23376000Y-28307000D03*
X23376000Y-32907000D03*
G04 #@! TD*
D21*
G04 #@! TO.C,U4*
X113460000Y-29044400D03*
X116000000Y-29044400D03*
X113460000Y-31584400D03*
X116000000Y-31584400D03*
X113460000Y-34124400D03*
X116000000Y-34124400D03*
X113460000Y-36664400D03*
D22*
X116000000Y-36664400D03*
G04 #@! TD*
D21*
G04 #@! TO.C,U6*
X113460000Y-45313600D03*
X116000000Y-45313600D03*
X113460000Y-47853600D03*
X116000000Y-47853600D03*
X113460000Y-50393600D03*
X116000000Y-50393600D03*
X113460000Y-52933600D03*
X116000000Y-52933600D03*
X113460000Y-55473600D03*
X116000000Y-55473600D03*
X113460000Y-58013600D03*
X116000000Y-58013600D03*
X113460000Y-60553600D03*
X116000000Y-60553600D03*
X113460000Y-63093600D03*
D22*
X116000000Y-63093600D03*
G04 #@! TD*
D11*
G04 #@! TO.C,REF\002A\002A*
X24000000Y-24000000D03*
G04 #@! TD*
M02*
