G04 #@! TF.GenerationSoftware,KiCad,Pcbnew,(5.0.0)*
G04 #@! TF.CreationDate,2019-04-16T15:51:45+02:00*
G04 #@! TF.ProjectId,CameraSystem,43616D65726153797374656D2E6B6963,rev?*
G04 #@! TF.SameCoordinates,Original*
G04 #@! TF.FileFunction,Legend,Bot*
G04 #@! TF.FilePolarity,Positive*
%FSLAX46Y46*%
G04 Gerber Fmt 4.6, Leading zero omitted, Abs format (unit mm)*
G04 Created by KiCad (PCBNEW (5.0.0)) date 04/16/19 15:51:45*
%MOMM*%
%LPD*%
G01*
G04 APERTURE LIST*
%ADD10C,0.200000*%
G04 APERTURE END LIST*
D10*
X91704919Y-107906914D02*
X91466823Y-108145009D01*
X90752538Y-108383104D01*
X90276347Y-108383104D01*
X89562061Y-108145009D01*
X89085871Y-107668819D01*
X88847776Y-107192628D01*
X88609680Y-106240247D01*
X88609680Y-105525961D01*
X88847776Y-104573580D01*
X89085871Y-104097390D01*
X89562061Y-103621200D01*
X90276347Y-103383104D01*
X90752538Y-103383104D01*
X91466823Y-103621200D01*
X91704919Y-103859295D01*
X78104002Y-105764057D02*
X78818288Y-106002152D01*
X79056383Y-106240247D01*
X79294479Y-106716438D01*
X79294479Y-107430723D01*
X79056383Y-107906914D01*
X78818288Y-108145009D01*
X78342098Y-108383104D01*
X76437336Y-108383104D01*
X76437336Y-103383104D01*
X78104002Y-103383104D01*
X78580193Y-103621200D01*
X78818288Y-103859295D01*
X79056383Y-104335485D01*
X79056383Y-104811676D01*
X78818288Y-105287866D01*
X78580193Y-105525961D01*
X78104002Y-105764057D01*
X76437336Y-105764057D01*
X64260243Y-106954533D02*
X66641196Y-106954533D01*
X63784053Y-108383104D02*
X65450720Y-103383104D01*
X67117386Y-108383104D01*
X40053871Y-116632529D02*
X36894111Y-113472769D01*
X40053871Y-110196169D02*
X40053871Y-116632529D01*
X40033551Y-116632529D02*
X43132351Y-113533729D01*
X50217184Y-106044344D02*
X56653544Y-106044344D01*
X56653544Y-106064664D02*
X53554744Y-102965864D01*
X56653544Y-106044344D02*
X53493784Y-109204104D01*
X40000611Y-94499885D02*
X43160371Y-97659645D01*
X40000611Y-100936245D02*
X40000611Y-94499885D01*
X40020931Y-94499885D02*
X36922131Y-97598685D01*
X23682960Y-105971340D02*
X26781760Y-109070140D01*
X23682960Y-105991660D02*
X26842720Y-102831900D01*
X30119320Y-105991660D02*
X23682960Y-105991660D01*
M02*
