M48
METRIC,TZ
T1C0.400
T2C0.800
T3C0.900
T4C1.000
T5C3.000
T6C3.500
%
G90
G05
T1
X79600Y-105925
X88880Y-109500
X89590Y-110460
X94050Y-96150
X95890Y-96060
X96160Y-88770
X98150Y-104900
X98160Y-92210
X99166Y-110476
X99166Y-112254
X99420Y-45452
X100436Y-45452
X101180Y-94910
X102990Y-58490
X103300Y-98775
X103350Y-95000
X103940Y-71690
X105460Y-106920
X105640Y-96330
X106460Y-103730
X106560Y-109360
X107210Y-115600
X107990Y-96680
X108770Y-102730
X108790Y-60480
X109090Y-58490
X109500Y-113840
X109550Y-110050
X110260Y-115980
X110340Y-118000
X110790Y-90860
X111250Y-108890
X111280Y-106540
X111310Y-103710
X111470Y-60430
X111910Y-91380
X111910Y-96970
X112690Y-92300
X112810Y-96970
X113550Y-117320
X113644Y-74916
X113900Y-96990
X113920Y-92330
X114660Y-74916
X115230Y-72620
X115680Y-97380
X116070Y-106400
X117100Y-88920
X117140Y-89900
X117708Y-97268
X117740Y-66090
X118320Y-89980
X118330Y-88890
X118470Y-108190
X118690Y-54040
X120290Y-39830
X121340Y-52170
X121415Y-58490
X124058Y-120636
X124820Y-120636
X125836Y-120636
X126250Y-89410
X126310Y-90380
X126720Y-51510
X128400Y-53420
T2
X80300Y-89050
X80300Y-91550
X80300Y-94050
X80300Y-96550
X80300Y-99050
X80300Y-101550
X97225Y-118875
X97225Y-121375
X99725Y-118875
X99725Y-121375
X102225Y-118875
X102225Y-121375
X104725Y-118875
X104725Y-121375
X110400Y-34870
X112900Y-34870
X115400Y-34870
X117900Y-34870
X127988Y-95163
X127988Y-97663
X127988Y-100163
X127988Y-102663
X127988Y-105163
X127988Y-107663
X127988Y-110163
X127988Y-112663
X127988Y-115163
X130487Y-95163
X130487Y-97663
X130487Y-100163
X130487Y-102663
X130487Y-105163
X130487Y-107663
X130487Y-110163
X130487Y-112663
X130487Y-115163
T3
X76730Y-67170
X76730Y-69710
X76730Y-72250
X76730Y-74790
X76730Y-77330
X79270Y-67170
X79270Y-69710
X79270Y-72250
X79270Y-74790
X79270Y-77330
X87040Y-118460
X87040Y-121000
X87060Y-124040
X87060Y-126580
X89580Y-118460
X89580Y-121000
X89600Y-124040
X89600Y-126580
X91430Y-84830
X91430Y-87370
X91430Y-89910
X93970Y-84830
X93970Y-87370
X93970Y-89910
T4
X78675Y-111100
X78675Y-117900
X83675Y-111100
X83675Y-117900
X104615Y-74790
X104615Y-79790
X106640Y-51315
X106640Y-56315
X111415Y-74790
X111415Y-79790
X113440Y-51315
X113440Y-56315
X114140Y-63890
X114140Y-68890
X114140Y-84865
X114140Y-89865
X120940Y-63890
X120940Y-68890
X120940Y-84865
X120940Y-89865
X124140Y-51340
X124140Y-56340
X124140Y-74790
X124140Y-79790
X130940Y-51340
X130940Y-56340
X130940Y-74790
X130940Y-79790
T5
X75592Y-39610
X78592Y-44310
T6
X81592Y-39610
T0
M30
