M48
;DRILL file {KiCad (5.0.0)} date 11/05/18 16:41:35
;FORMAT={-:-/ absolute / metric / decimal}
FMAT,2
METRIC,TZ
T1C0.750
T2C0.800
T3C0.900
T4C1.000
%
G90
G05
M71
T1
X117.602Y-77.216
X118.872Y-75.946
X118.872Y-78.486
X99.314Y-77.216
X100.584Y-75.946
X100.584Y-78.486
T2
X100.584Y-60.706
X100.584Y-68.326
X125.476Y-90.947
X125.476Y-93.447
X106.426Y-82.296
X106.426Y-84.796
X100.838Y-89.154
X100.838Y-96.774
X89.662Y-89.154
X89.662Y-96.774
X81.828Y-79.756
X84.328Y-79.756
X81.828Y-92.197
X84.328Y-92.197
X94.996Y-90.947
X94.996Y-93.447
X75.438Y-78.232
X75.438Y-83.112
X118.872Y-60.706
X118.872Y-68.326
X111.76Y-60.706
X111.76Y-68.326
X118.872Y-89.154
X118.872Y-96.774
X81.828Y-69.552
X84.328Y-69.552
X94.996Y-83.82
X94.996Y-86.32
X112.014Y-89.154
X112.014Y-96.774
X89.662Y-60.706
X89.662Y-68.326
X67.818Y-75.692
X67.818Y-83.312
X125.984Y-69.596
X125.984Y-72.096
T3
X67.818Y-90.932
X67.818Y-93.472
T4
X73.995Y-90.922
X73.995Y-93.462
X76.535Y-90.922
X76.535Y-93.462
X73.995Y-68.277
X73.995Y-70.817
X76.535Y-68.277
X76.535Y-70.817
X125.984Y-61.456
X65.278Y-62.23
X65.278Y-64.77
X67.818Y-62.23
X67.818Y-64.77
T0
M30
