G04 #@! TF.GenerationSoftware,KiCad,Pcbnew,(5.0.0)*
G04 #@! TF.CreationDate,2018-11-05T16:41:38+01:00*
G04 #@! TF.ProjectId,RF_transmitter,52465F7472616E736D69747465722E6B,rev?*
G04 #@! TF.SameCoordinates,Original*
G04 #@! TF.FileFunction,Soldermask,Bot*
G04 #@! TF.FilePolarity,Negative*
%FSLAX46Y46*%
G04 Gerber Fmt 4.6, Leading zero omitted, Abs format (unit mm)*
G04 Created by KiCad (PCBNEW (5.0.0)) date 11/05/18 16:41:38*
%MOMM*%
%LPD*%
G01*
G04 APERTURE LIST*
%ADD10C,2.000000*%
%ADD11R,2.200000X2.200000*%
%ADD12C,2.200000*%
%ADD13R,2.100000X2.100000*%
%ADD14O,2.100000X2.100000*%
%ADD15R,1.700000X1.700000*%
%ADD16C,1.700000*%
%ADD17O,2.000000X2.000000*%
%ADD18C,1.900000*%
G04 APERTURE END LIST*
D10*
G04 #@! TO.C,C1*
X84328000Y-69552079D03*
X81828000Y-69552079D03*
G04 #@! TD*
G04 #@! TO.C,C2*
X81828000Y-92197000D03*
X84328000Y-92197000D03*
G04 #@! TD*
G04 #@! TO.C,C3*
X84328000Y-79756000D03*
X81828000Y-79756000D03*
G04 #@! TD*
G04 #@! TO.C,C4*
X94996000Y-86320000D03*
X94996000Y-83820000D03*
G04 #@! TD*
G04 #@! TO.C,C5*
X94996000Y-90947000D03*
X94996000Y-93447000D03*
G04 #@! TD*
G04 #@! TO.C,C6*
X106426000Y-82296000D03*
X106426000Y-84796000D03*
G04 #@! TD*
G04 #@! TO.C,C7*
X125984000Y-72096000D03*
X125984000Y-69596000D03*
G04 #@! TD*
G04 #@! TO.C,C8*
X125476000Y-93447000D03*
X125476000Y-90947000D03*
G04 #@! TD*
D11*
G04 #@! TO.C,D1*
X67818000Y-93472000D03*
D12*
X67818000Y-90932000D03*
G04 #@! TD*
D13*
G04 #@! TO.C,J1*
X67818000Y-62230000D03*
D14*
X67818000Y-64770000D03*
X65278000Y-62230000D03*
X65278000Y-64770000D03*
G04 #@! TD*
D13*
G04 #@! TO.C,J2*
X125984000Y-61456000D03*
G04 #@! TD*
D15*
G04 #@! TO.C,Q1*
X100584000Y-78486000D03*
D16*
X100584000Y-75946000D03*
X99314000Y-77216000D03*
G04 #@! TD*
G04 #@! TO.C,Q2*
X117602000Y-77216000D03*
X118872000Y-75946000D03*
D15*
X118872000Y-78486000D03*
G04 #@! TD*
D10*
G04 #@! TO.C,R1*
X67818000Y-75692000D03*
D17*
X67818000Y-83312000D03*
G04 #@! TD*
G04 #@! TO.C,R2*
X89662000Y-68326000D03*
D10*
X89662000Y-60706000D03*
G04 #@! TD*
G04 #@! TO.C,R3*
X89662000Y-89154000D03*
D17*
X89662000Y-96774000D03*
G04 #@! TD*
G04 #@! TO.C,R4*
X100584000Y-68326000D03*
D10*
X100584000Y-60706000D03*
G04 #@! TD*
G04 #@! TO.C,R5*
X100838000Y-89154000D03*
D17*
X100838000Y-96774000D03*
G04 #@! TD*
G04 #@! TO.C,R6*
X111760000Y-68326000D03*
D10*
X111760000Y-60706000D03*
G04 #@! TD*
G04 #@! TO.C,R7*
X112014000Y-89154000D03*
D17*
X112014000Y-96774000D03*
G04 #@! TD*
D10*
G04 #@! TO.C,R8*
X118872000Y-60706000D03*
D17*
X118872000Y-68326000D03*
G04 #@! TD*
G04 #@! TO.C,R9*
X118872000Y-96774000D03*
D10*
X118872000Y-89154000D03*
G04 #@! TD*
D13*
G04 #@! TO.C,SW1*
X73995000Y-68277079D03*
D14*
X76535000Y-68277079D03*
X73995000Y-70817079D03*
X76535000Y-70817079D03*
G04 #@! TD*
G04 #@! TO.C,SW2*
X76535000Y-93462000D03*
X73995000Y-93462000D03*
X76535000Y-90922000D03*
D13*
X73995000Y-90922000D03*
G04 #@! TD*
D18*
G04 #@! TO.C,Y1*
X75438000Y-78232000D03*
X75438000Y-83112000D03*
G04 #@! TD*
M02*
