G04 #@! TF.GenerationSoftware,KiCad,Pcbnew,(5.0.0)*
G04 #@! TF.CreationDate,2018-11-05T16:41:38+01:00*
G04 #@! TF.ProjectId,RF_transmitter,52465F7472616E736D69747465722E6B,rev?*
G04 #@! TF.SameCoordinates,Original*
G04 #@! TF.FileFunction,Legend,Top*
G04 #@! TF.FilePolarity,Positive*
%FSLAX46Y46*%
G04 Gerber Fmt 4.6, Leading zero omitted, Abs format (unit mm)*
G04 Created by KiCad (PCBNEW (5.0.0)) date 11/05/18 16:41:38*
%MOMM*%
%LPD*%
G01*
G04 APERTURE LIST*
%ADD10C,0.120000*%
%ADD11C,0.150000*%
G04 APERTURE END LIST*
D10*
G04 #@! TO.C,C1*
X85698000Y-70922079D02*
X80458000Y-70922079D01*
X85698000Y-68182079D02*
X80458000Y-68182079D01*
X85698000Y-70922079D02*
X85698000Y-68182079D01*
X80458000Y-70922079D02*
X80458000Y-68182079D01*
G04 #@! TO.C,C2*
X80458000Y-93567000D02*
X80458000Y-90827000D01*
X85698000Y-93567000D02*
X85698000Y-90827000D01*
X85698000Y-90827000D02*
X80458000Y-90827000D01*
X85698000Y-93567000D02*
X80458000Y-93567000D01*
G04 #@! TO.C,C3*
X85698000Y-81126000D02*
X80458000Y-81126000D01*
X85698000Y-78386000D02*
X80458000Y-78386000D01*
X85698000Y-81126000D02*
X85698000Y-78386000D01*
X80458000Y-81126000D02*
X80458000Y-78386000D01*
G04 #@! TO.C,C4*
X96366000Y-87690000D02*
X93626000Y-87690000D01*
X96366000Y-82450000D02*
X93626000Y-82450000D01*
X93626000Y-82450000D02*
X93626000Y-87690000D01*
X96366000Y-82450000D02*
X96366000Y-87690000D01*
G04 #@! TO.C,C5*
X96366000Y-89577000D02*
X96366000Y-94817000D01*
X93626000Y-89577000D02*
X93626000Y-94817000D01*
X96366000Y-89577000D02*
X93626000Y-89577000D01*
X96366000Y-94817000D02*
X93626000Y-94817000D01*
G04 #@! TO.C,C6*
X107796000Y-80926000D02*
X107796000Y-86166000D01*
X105056000Y-80926000D02*
X105056000Y-86166000D01*
X107796000Y-80926000D02*
X105056000Y-80926000D01*
X107796000Y-86166000D02*
X105056000Y-86166000D01*
G04 #@! TO.C,C7*
X127354000Y-73466000D02*
X124614000Y-73466000D01*
X127354000Y-68226000D02*
X124614000Y-68226000D01*
X124614000Y-68226000D02*
X124614000Y-73466000D01*
X127354000Y-68226000D02*
X127354000Y-73466000D01*
G04 #@! TO.C,C8*
X126846000Y-94817000D02*
X124106000Y-94817000D01*
X126846000Y-89577000D02*
X124106000Y-89577000D01*
X124106000Y-89577000D02*
X124106000Y-94817000D01*
X126846000Y-89577000D02*
X126846000Y-94817000D01*
G04 #@! TO.C,D1*
X66739392Y-90529665D02*
G75*
G03X66582484Y-93762000I1078608J-1672335D01*
G01*
X68896608Y-90529665D02*
G75*
G02X69053516Y-93762000I-1078608J-1672335D01*
G01*
X66738163Y-91160870D02*
G75*
G03X66738000Y-93242961I1079837J-1041130D01*
G01*
X68897837Y-91160870D02*
G75*
G02X68898000Y-93242961I-1079837J-1041130D01*
G01*
X66582000Y-93762000D02*
X66738000Y-93762000D01*
X68898000Y-93762000D02*
X69054000Y-93762000D01*
G04 #@! TO.C,J1*
X63948000Y-60900000D02*
X63948000Y-66100000D01*
X66548000Y-60900000D02*
X63948000Y-60900000D01*
X69148000Y-66100000D02*
X63948000Y-66100000D01*
X66548000Y-60900000D02*
X66548000Y-63500000D01*
X66548000Y-63500000D02*
X69148000Y-63500000D01*
X69148000Y-63500000D02*
X69148000Y-66100000D01*
X67818000Y-60900000D02*
X69148000Y-60900000D01*
X69148000Y-60900000D02*
X69148000Y-62230000D01*
G04 #@! TO.C,J2*
X124654000Y-62786000D02*
X127314000Y-62786000D01*
X124654000Y-62726000D02*
X124654000Y-62786000D01*
X127314000Y-62726000D02*
X127314000Y-62786000D01*
X124654000Y-62726000D02*
X127314000Y-62726000D01*
X124654000Y-61456000D02*
X124654000Y-60126000D01*
X124654000Y-60126000D02*
X125984000Y-60126000D01*
G04 #@! TO.C,Q1*
X102422478Y-75377522D02*
G75*
G03X97984000Y-77216000I-1838478J-1838478D01*
G01*
X102422478Y-79054478D02*
G75*
G02X97984000Y-77216000I-1838478J1838478D01*
G01*
X102434000Y-79016000D02*
X102434000Y-75416000D01*
G04 #@! TO.C,Q2*
X120722000Y-79016000D02*
X120722000Y-75416000D01*
X120710478Y-79054478D02*
G75*
G02X116272000Y-77216000I-1838478J1838478D01*
G01*
X120710478Y-75377522D02*
G75*
G03X116272000Y-77216000I-1838478J-1838478D01*
G01*
G04 #@! TO.C,R1*
X68858000Y-76232000D02*
X69188000Y-76232000D01*
X69188000Y-76232000D02*
X69188000Y-82772000D01*
X69188000Y-82772000D02*
X68858000Y-82772000D01*
X66778000Y-76232000D02*
X66448000Y-76232000D01*
X66448000Y-76232000D02*
X66448000Y-82772000D01*
X66448000Y-82772000D02*
X66778000Y-82772000D01*
G04 #@! TO.C,R2*
X88292000Y-67786000D02*
X88622000Y-67786000D01*
X88292000Y-61246000D02*
X88292000Y-67786000D01*
X88622000Y-61246000D02*
X88292000Y-61246000D01*
X91032000Y-67786000D02*
X90702000Y-67786000D01*
X91032000Y-61246000D02*
X91032000Y-67786000D01*
X90702000Y-61246000D02*
X91032000Y-61246000D01*
G04 #@! TO.C,R3*
X90702000Y-89694000D02*
X91032000Y-89694000D01*
X91032000Y-89694000D02*
X91032000Y-96234000D01*
X91032000Y-96234000D02*
X90702000Y-96234000D01*
X88622000Y-89694000D02*
X88292000Y-89694000D01*
X88292000Y-89694000D02*
X88292000Y-96234000D01*
X88292000Y-96234000D02*
X88622000Y-96234000D01*
G04 #@! TO.C,R4*
X99214000Y-67786000D02*
X99544000Y-67786000D01*
X99214000Y-61246000D02*
X99214000Y-67786000D01*
X99544000Y-61246000D02*
X99214000Y-61246000D01*
X101954000Y-67786000D02*
X101624000Y-67786000D01*
X101954000Y-61246000D02*
X101954000Y-67786000D01*
X101624000Y-61246000D02*
X101954000Y-61246000D01*
G04 #@! TO.C,R5*
X101878000Y-89694000D02*
X102208000Y-89694000D01*
X102208000Y-89694000D02*
X102208000Y-96234000D01*
X102208000Y-96234000D02*
X101878000Y-96234000D01*
X99798000Y-89694000D02*
X99468000Y-89694000D01*
X99468000Y-89694000D02*
X99468000Y-96234000D01*
X99468000Y-96234000D02*
X99798000Y-96234000D01*
G04 #@! TO.C,R6*
X110390000Y-67786000D02*
X110720000Y-67786000D01*
X110390000Y-61246000D02*
X110390000Y-67786000D01*
X110720000Y-61246000D02*
X110390000Y-61246000D01*
X113130000Y-67786000D02*
X112800000Y-67786000D01*
X113130000Y-61246000D02*
X113130000Y-67786000D01*
X112800000Y-61246000D02*
X113130000Y-61246000D01*
G04 #@! TO.C,R7*
X113054000Y-89694000D02*
X113384000Y-89694000D01*
X113384000Y-89694000D02*
X113384000Y-96234000D01*
X113384000Y-96234000D02*
X113054000Y-96234000D01*
X110974000Y-89694000D02*
X110644000Y-89694000D01*
X110644000Y-89694000D02*
X110644000Y-96234000D01*
X110644000Y-96234000D02*
X110974000Y-96234000D01*
G04 #@! TO.C,R8*
X119912000Y-61246000D02*
X120242000Y-61246000D01*
X120242000Y-61246000D02*
X120242000Y-67786000D01*
X120242000Y-67786000D02*
X119912000Y-67786000D01*
X117832000Y-61246000D02*
X117502000Y-61246000D01*
X117502000Y-61246000D02*
X117502000Y-67786000D01*
X117502000Y-67786000D02*
X117832000Y-67786000D01*
G04 #@! TO.C,R9*
X117502000Y-96234000D02*
X117832000Y-96234000D01*
X117502000Y-89694000D02*
X117502000Y-96234000D01*
X117832000Y-89694000D02*
X117502000Y-89694000D01*
X120242000Y-96234000D02*
X119912000Y-96234000D01*
X120242000Y-89694000D02*
X120242000Y-96234000D01*
X119912000Y-89694000D02*
X120242000Y-89694000D01*
G04 #@! TO.C,SW1*
X72665000Y-72147079D02*
X77865000Y-72147079D01*
X72665000Y-69547079D02*
X72665000Y-72147079D01*
X77865000Y-66947079D02*
X77865000Y-72147079D01*
X72665000Y-69547079D02*
X75265000Y-69547079D01*
X75265000Y-69547079D02*
X75265000Y-66947079D01*
X75265000Y-66947079D02*
X77865000Y-66947079D01*
X72665000Y-68277079D02*
X72665000Y-66947079D01*
X72665000Y-66947079D02*
X73995000Y-66947079D01*
G04 #@! TO.C,SW2*
X72665000Y-89592000D02*
X73995000Y-89592000D01*
X72665000Y-90922000D02*
X72665000Y-89592000D01*
X75265000Y-89592000D02*
X77865000Y-89592000D01*
X75265000Y-92192000D02*
X75265000Y-89592000D01*
X72665000Y-92192000D02*
X75265000Y-92192000D01*
X77865000Y-89592000D02*
X77865000Y-94792000D01*
X72665000Y-92192000D02*
X72665000Y-94792000D01*
X72665000Y-94792000D02*
X77865000Y-94792000D01*
G04 #@! TO.C,Y1*
X77963000Y-77547000D02*
X77963000Y-83797000D01*
X72913000Y-77547000D02*
X72913000Y-83797000D01*
X72913000Y-77547000D02*
G75*
G02X77963000Y-77547000I2525000J0D01*
G01*
X72913000Y-83797000D02*
G75*
G03X77963000Y-83797000I2525000J0D01*
G01*
G04 #@! TO.C,BT1*
D11*
X57586571Y-80104834D02*
X57634190Y-79961977D01*
X57681809Y-79914358D01*
X57777047Y-79866739D01*
X57919904Y-79866739D01*
X58015142Y-79914358D01*
X58062761Y-79961977D01*
X58110380Y-80057215D01*
X58110380Y-80438167D01*
X57110380Y-80438167D01*
X57110380Y-80104834D01*
X57158000Y-80009596D01*
X57205619Y-79961977D01*
X57300857Y-79914358D01*
X57396095Y-79914358D01*
X57491333Y-79961977D01*
X57538952Y-80009596D01*
X57586571Y-80104834D01*
X57586571Y-80438167D01*
X57110380Y-79581024D02*
X57110380Y-79009596D01*
X58110380Y-79295310D02*
X57110380Y-79295310D01*
X58110380Y-78152453D02*
X58110380Y-78723881D01*
X58110380Y-78438167D02*
X57110380Y-78438167D01*
X57253238Y-78533405D01*
X57348476Y-78628643D01*
X57396095Y-78723881D01*
G04 #@! TO.C,C1*
X82911333Y-72409221D02*
X82863714Y-72456840D01*
X82720857Y-72504459D01*
X82625619Y-72504459D01*
X82482761Y-72456840D01*
X82387523Y-72361602D01*
X82339904Y-72266364D01*
X82292285Y-72075888D01*
X82292285Y-71933031D01*
X82339904Y-71742555D01*
X82387523Y-71647317D01*
X82482761Y-71552079D01*
X82625619Y-71504459D01*
X82720857Y-71504459D01*
X82863714Y-71552079D01*
X82911333Y-71599698D01*
X83863714Y-72504459D02*
X83292285Y-72504459D01*
X83578000Y-72504459D02*
X83578000Y-71504459D01*
X83482761Y-71647317D01*
X83387523Y-71742555D01*
X83292285Y-71790174D01*
G04 #@! TO.C,C2*
X82911333Y-95054142D02*
X82863714Y-95101761D01*
X82720857Y-95149380D01*
X82625619Y-95149380D01*
X82482761Y-95101761D01*
X82387523Y-95006523D01*
X82339904Y-94911285D01*
X82292285Y-94720809D01*
X82292285Y-94577952D01*
X82339904Y-94387476D01*
X82387523Y-94292238D01*
X82482761Y-94197000D01*
X82625619Y-94149380D01*
X82720857Y-94149380D01*
X82863714Y-94197000D01*
X82911333Y-94244619D01*
X83292285Y-94244619D02*
X83339904Y-94197000D01*
X83435142Y-94149380D01*
X83673238Y-94149380D01*
X83768476Y-94197000D01*
X83816095Y-94244619D01*
X83863714Y-94339857D01*
X83863714Y-94435095D01*
X83816095Y-94577952D01*
X83244666Y-95149380D01*
X83863714Y-95149380D01*
G04 #@! TO.C,C3*
X82911333Y-82613142D02*
X82863714Y-82660761D01*
X82720857Y-82708380D01*
X82625619Y-82708380D01*
X82482761Y-82660761D01*
X82387523Y-82565523D01*
X82339904Y-82470285D01*
X82292285Y-82279809D01*
X82292285Y-82136952D01*
X82339904Y-81946476D01*
X82387523Y-81851238D01*
X82482761Y-81756000D01*
X82625619Y-81708380D01*
X82720857Y-81708380D01*
X82863714Y-81756000D01*
X82911333Y-81803619D01*
X83244666Y-81708380D02*
X83863714Y-81708380D01*
X83530380Y-82089333D01*
X83673238Y-82089333D01*
X83768476Y-82136952D01*
X83816095Y-82184571D01*
X83863714Y-82279809D01*
X83863714Y-82517904D01*
X83816095Y-82613142D01*
X83768476Y-82660761D01*
X83673238Y-82708380D01*
X83387523Y-82708380D01*
X83292285Y-82660761D01*
X83244666Y-82613142D01*
G04 #@! TO.C,C4*
X97853142Y-85236666D02*
X97900761Y-85284285D01*
X97948380Y-85427142D01*
X97948380Y-85522380D01*
X97900761Y-85665238D01*
X97805523Y-85760476D01*
X97710285Y-85808095D01*
X97519809Y-85855714D01*
X97376952Y-85855714D01*
X97186476Y-85808095D01*
X97091238Y-85760476D01*
X96996000Y-85665238D01*
X96948380Y-85522380D01*
X96948380Y-85427142D01*
X96996000Y-85284285D01*
X97043619Y-85236666D01*
X97281714Y-84379523D02*
X97948380Y-84379523D01*
X96900761Y-84617619D02*
X97615047Y-84855714D01*
X97615047Y-84236666D01*
G04 #@! TO.C,C5*
X97853142Y-92363666D02*
X97900761Y-92411285D01*
X97948380Y-92554142D01*
X97948380Y-92649380D01*
X97900761Y-92792238D01*
X97805523Y-92887476D01*
X97710285Y-92935095D01*
X97519809Y-92982714D01*
X97376952Y-92982714D01*
X97186476Y-92935095D01*
X97091238Y-92887476D01*
X96996000Y-92792238D01*
X96948380Y-92649380D01*
X96948380Y-92554142D01*
X96996000Y-92411285D01*
X97043619Y-92363666D01*
X96948380Y-91458904D02*
X96948380Y-91935095D01*
X97424571Y-91982714D01*
X97376952Y-91935095D01*
X97329333Y-91839857D01*
X97329333Y-91601761D01*
X97376952Y-91506523D01*
X97424571Y-91458904D01*
X97519809Y-91411285D01*
X97757904Y-91411285D01*
X97853142Y-91458904D01*
X97900761Y-91506523D01*
X97948380Y-91601761D01*
X97948380Y-91839857D01*
X97900761Y-91935095D01*
X97853142Y-91982714D01*
G04 #@! TO.C,C6*
X109283142Y-83712666D02*
X109330761Y-83760285D01*
X109378380Y-83903142D01*
X109378380Y-83998380D01*
X109330761Y-84141238D01*
X109235523Y-84236476D01*
X109140285Y-84284095D01*
X108949809Y-84331714D01*
X108806952Y-84331714D01*
X108616476Y-84284095D01*
X108521238Y-84236476D01*
X108426000Y-84141238D01*
X108378380Y-83998380D01*
X108378380Y-83903142D01*
X108426000Y-83760285D01*
X108473619Y-83712666D01*
X108378380Y-82855523D02*
X108378380Y-83046000D01*
X108426000Y-83141238D01*
X108473619Y-83188857D01*
X108616476Y-83284095D01*
X108806952Y-83331714D01*
X109187904Y-83331714D01*
X109283142Y-83284095D01*
X109330761Y-83236476D01*
X109378380Y-83141238D01*
X109378380Y-82950761D01*
X109330761Y-82855523D01*
X109283142Y-82807904D01*
X109187904Y-82760285D01*
X108949809Y-82760285D01*
X108854571Y-82807904D01*
X108806952Y-82855523D01*
X108759333Y-82950761D01*
X108759333Y-83141238D01*
X108806952Y-83236476D01*
X108854571Y-83284095D01*
X108949809Y-83331714D01*
G04 #@! TO.C,C7*
X123547142Y-69508666D02*
X123594761Y-69556285D01*
X123642380Y-69699142D01*
X123642380Y-69794380D01*
X123594761Y-69937238D01*
X123499523Y-70032476D01*
X123404285Y-70080095D01*
X123213809Y-70127714D01*
X123070952Y-70127714D01*
X122880476Y-70080095D01*
X122785238Y-70032476D01*
X122690000Y-69937238D01*
X122642380Y-69794380D01*
X122642380Y-69699142D01*
X122690000Y-69556285D01*
X122737619Y-69508666D01*
X122642380Y-69175333D02*
X122642380Y-68508666D01*
X123642380Y-68937238D01*
G04 #@! TO.C,C8*
X128333142Y-92363666D02*
X128380761Y-92411285D01*
X128428380Y-92554142D01*
X128428380Y-92649380D01*
X128380761Y-92792238D01*
X128285523Y-92887476D01*
X128190285Y-92935095D01*
X127999809Y-92982714D01*
X127856952Y-92982714D01*
X127666476Y-92935095D01*
X127571238Y-92887476D01*
X127476000Y-92792238D01*
X127428380Y-92649380D01*
X127428380Y-92554142D01*
X127476000Y-92411285D01*
X127523619Y-92363666D01*
X127856952Y-91792238D02*
X127809333Y-91887476D01*
X127761714Y-91935095D01*
X127666476Y-91982714D01*
X127618857Y-91982714D01*
X127523619Y-91935095D01*
X127476000Y-91887476D01*
X127428380Y-91792238D01*
X127428380Y-91601761D01*
X127476000Y-91506523D01*
X127523619Y-91458904D01*
X127618857Y-91411285D01*
X127666476Y-91411285D01*
X127761714Y-91458904D01*
X127809333Y-91506523D01*
X127856952Y-91601761D01*
X127856952Y-91792238D01*
X127904571Y-91887476D01*
X127952190Y-91935095D01*
X128047428Y-91982714D01*
X128237904Y-91982714D01*
X128333142Y-91935095D01*
X128380761Y-91887476D01*
X128428380Y-91792238D01*
X128428380Y-91601761D01*
X128380761Y-91506523D01*
X128333142Y-91458904D01*
X128237904Y-91411285D01*
X128047428Y-91411285D01*
X127952190Y-91458904D01*
X127904571Y-91506523D01*
X127856952Y-91601761D01*
G04 #@! TO.C,D1*
X65310380Y-92940095D02*
X64310380Y-92940095D01*
X64310380Y-92702000D01*
X64358000Y-92559142D01*
X64453238Y-92463904D01*
X64548476Y-92416285D01*
X64738952Y-92368666D01*
X64881809Y-92368666D01*
X65072285Y-92416285D01*
X65167523Y-92463904D01*
X65262761Y-92559142D01*
X65310380Y-92702000D01*
X65310380Y-92940095D01*
X65310380Y-91416285D02*
X65310380Y-91987714D01*
X65310380Y-91702000D02*
X64310380Y-91702000D01*
X64453238Y-91797238D01*
X64548476Y-91892476D01*
X64596095Y-91987714D01*
G04 #@! TO.C,J1*
X69600380Y-63833333D02*
X70314666Y-63833333D01*
X70457523Y-63880952D01*
X70552761Y-63976190D01*
X70600380Y-64119047D01*
X70600380Y-64214285D01*
X70600380Y-62833333D02*
X70600380Y-63404761D01*
X70600380Y-63119047D02*
X69600380Y-63119047D01*
X69743238Y-63214285D01*
X69838476Y-63309523D01*
X69886095Y-63404761D01*
G04 #@! TO.C,J2*
X122642380Y-61801333D02*
X123356666Y-61801333D01*
X123499523Y-61848952D01*
X123594761Y-61944190D01*
X123642380Y-62087047D01*
X123642380Y-62182285D01*
X122737619Y-61372761D02*
X122690000Y-61325142D01*
X122642380Y-61229904D01*
X122642380Y-60991809D01*
X122690000Y-60896571D01*
X122737619Y-60848952D01*
X122832857Y-60801333D01*
X122928095Y-60801333D01*
X123070952Y-60848952D01*
X123642380Y-61420380D01*
X123642380Y-60801333D01*
G04 #@! TO.C,Q1*
X97571619Y-77311238D02*
X97524000Y-77406476D01*
X97428761Y-77501714D01*
X97285904Y-77644571D01*
X97238285Y-77739809D01*
X97238285Y-77835047D01*
X97476380Y-77787428D02*
X97428761Y-77882666D01*
X97333523Y-77977904D01*
X97143047Y-78025523D01*
X96809714Y-78025523D01*
X96619238Y-77977904D01*
X96524000Y-77882666D01*
X96476380Y-77787428D01*
X96476380Y-77596952D01*
X96524000Y-77501714D01*
X96619238Y-77406476D01*
X96809714Y-77358857D01*
X97143047Y-77358857D01*
X97333523Y-77406476D01*
X97428761Y-77501714D01*
X97476380Y-77596952D01*
X97476380Y-77787428D01*
X97476380Y-76406476D02*
X97476380Y-76977904D01*
X97476380Y-76692190D02*
X96476380Y-76692190D01*
X96619238Y-76787428D01*
X96714476Y-76882666D01*
X96762095Y-76977904D01*
G04 #@! TO.C,Q2*
X115859619Y-77311238D02*
X115812000Y-77406476D01*
X115716761Y-77501714D01*
X115573904Y-77644571D01*
X115526285Y-77739809D01*
X115526285Y-77835047D01*
X115764380Y-77787428D02*
X115716761Y-77882666D01*
X115621523Y-77977904D01*
X115431047Y-78025523D01*
X115097714Y-78025523D01*
X114907238Y-77977904D01*
X114812000Y-77882666D01*
X114764380Y-77787428D01*
X114764380Y-77596952D01*
X114812000Y-77501714D01*
X114907238Y-77406476D01*
X115097714Y-77358857D01*
X115431047Y-77358857D01*
X115621523Y-77406476D01*
X115716761Y-77501714D01*
X115764380Y-77596952D01*
X115764380Y-77787428D01*
X114859619Y-76977904D02*
X114812000Y-76930285D01*
X114764380Y-76835047D01*
X114764380Y-76596952D01*
X114812000Y-76501714D01*
X114859619Y-76454095D01*
X114954857Y-76406476D01*
X115050095Y-76406476D01*
X115192952Y-76454095D01*
X115764380Y-77025523D01*
X115764380Y-76406476D01*
G04 #@! TO.C,R1*
X70640380Y-79668666D02*
X70164190Y-80002000D01*
X70640380Y-80240095D02*
X69640380Y-80240095D01*
X69640380Y-79859142D01*
X69688000Y-79763904D01*
X69735619Y-79716285D01*
X69830857Y-79668666D01*
X69973714Y-79668666D01*
X70068952Y-79716285D01*
X70116571Y-79763904D01*
X70164190Y-79859142D01*
X70164190Y-80240095D01*
X70640380Y-78716285D02*
X70640380Y-79287714D01*
X70640380Y-79002000D02*
X69640380Y-79002000D01*
X69783238Y-79097238D01*
X69878476Y-79192476D01*
X69926095Y-79287714D01*
G04 #@! TO.C,R2*
X92484380Y-64682666D02*
X92008190Y-65016000D01*
X92484380Y-65254095D02*
X91484380Y-65254095D01*
X91484380Y-64873142D01*
X91532000Y-64777904D01*
X91579619Y-64730285D01*
X91674857Y-64682666D01*
X91817714Y-64682666D01*
X91912952Y-64730285D01*
X91960571Y-64777904D01*
X92008190Y-64873142D01*
X92008190Y-65254095D01*
X91579619Y-64301714D02*
X91532000Y-64254095D01*
X91484380Y-64158857D01*
X91484380Y-63920761D01*
X91532000Y-63825523D01*
X91579619Y-63777904D01*
X91674857Y-63730285D01*
X91770095Y-63730285D01*
X91912952Y-63777904D01*
X92484380Y-64349333D01*
X92484380Y-63730285D01*
G04 #@! TO.C,R3*
X92484380Y-93130666D02*
X92008190Y-93464000D01*
X92484380Y-93702095D02*
X91484380Y-93702095D01*
X91484380Y-93321142D01*
X91532000Y-93225904D01*
X91579619Y-93178285D01*
X91674857Y-93130666D01*
X91817714Y-93130666D01*
X91912952Y-93178285D01*
X91960571Y-93225904D01*
X92008190Y-93321142D01*
X92008190Y-93702095D01*
X91484380Y-92797333D02*
X91484380Y-92178285D01*
X91865333Y-92511619D01*
X91865333Y-92368761D01*
X91912952Y-92273523D01*
X91960571Y-92225904D01*
X92055809Y-92178285D01*
X92293904Y-92178285D01*
X92389142Y-92225904D01*
X92436761Y-92273523D01*
X92484380Y-92368761D01*
X92484380Y-92654476D01*
X92436761Y-92749714D01*
X92389142Y-92797333D01*
G04 #@! TO.C,R4*
X103406380Y-64682666D02*
X102930190Y-65016000D01*
X103406380Y-65254095D02*
X102406380Y-65254095D01*
X102406380Y-64873142D01*
X102454000Y-64777904D01*
X102501619Y-64730285D01*
X102596857Y-64682666D01*
X102739714Y-64682666D01*
X102834952Y-64730285D01*
X102882571Y-64777904D01*
X102930190Y-64873142D01*
X102930190Y-65254095D01*
X102739714Y-63825523D02*
X103406380Y-63825523D01*
X102358761Y-64063619D02*
X103073047Y-64301714D01*
X103073047Y-63682666D01*
G04 #@! TO.C,R5*
X103660380Y-93130666D02*
X103184190Y-93464000D01*
X103660380Y-93702095D02*
X102660380Y-93702095D01*
X102660380Y-93321142D01*
X102708000Y-93225904D01*
X102755619Y-93178285D01*
X102850857Y-93130666D01*
X102993714Y-93130666D01*
X103088952Y-93178285D01*
X103136571Y-93225904D01*
X103184190Y-93321142D01*
X103184190Y-93702095D01*
X102660380Y-92225904D02*
X102660380Y-92702095D01*
X103136571Y-92749714D01*
X103088952Y-92702095D01*
X103041333Y-92606857D01*
X103041333Y-92368761D01*
X103088952Y-92273523D01*
X103136571Y-92225904D01*
X103231809Y-92178285D01*
X103469904Y-92178285D01*
X103565142Y-92225904D01*
X103612761Y-92273523D01*
X103660380Y-92368761D01*
X103660380Y-92606857D01*
X103612761Y-92702095D01*
X103565142Y-92749714D01*
G04 #@! TO.C,R6*
X114582380Y-64682666D02*
X114106190Y-65016000D01*
X114582380Y-65254095D02*
X113582380Y-65254095D01*
X113582380Y-64873142D01*
X113630000Y-64777904D01*
X113677619Y-64730285D01*
X113772857Y-64682666D01*
X113915714Y-64682666D01*
X114010952Y-64730285D01*
X114058571Y-64777904D01*
X114106190Y-64873142D01*
X114106190Y-65254095D01*
X113582380Y-63825523D02*
X113582380Y-64016000D01*
X113630000Y-64111238D01*
X113677619Y-64158857D01*
X113820476Y-64254095D01*
X114010952Y-64301714D01*
X114391904Y-64301714D01*
X114487142Y-64254095D01*
X114534761Y-64206476D01*
X114582380Y-64111238D01*
X114582380Y-63920761D01*
X114534761Y-63825523D01*
X114487142Y-63777904D01*
X114391904Y-63730285D01*
X114153809Y-63730285D01*
X114058571Y-63777904D01*
X114010952Y-63825523D01*
X113963333Y-63920761D01*
X113963333Y-64111238D01*
X114010952Y-64206476D01*
X114058571Y-64254095D01*
X114153809Y-64301714D01*
G04 #@! TO.C,R7*
X114836380Y-93130666D02*
X114360190Y-93464000D01*
X114836380Y-93702095D02*
X113836380Y-93702095D01*
X113836380Y-93321142D01*
X113884000Y-93225904D01*
X113931619Y-93178285D01*
X114026857Y-93130666D01*
X114169714Y-93130666D01*
X114264952Y-93178285D01*
X114312571Y-93225904D01*
X114360190Y-93321142D01*
X114360190Y-93702095D01*
X113836380Y-92797333D02*
X113836380Y-92130666D01*
X114836380Y-92559238D01*
G04 #@! TO.C,R8*
X121694380Y-64682666D02*
X121218190Y-65016000D01*
X121694380Y-65254095D02*
X120694380Y-65254095D01*
X120694380Y-64873142D01*
X120742000Y-64777904D01*
X120789619Y-64730285D01*
X120884857Y-64682666D01*
X121027714Y-64682666D01*
X121122952Y-64730285D01*
X121170571Y-64777904D01*
X121218190Y-64873142D01*
X121218190Y-65254095D01*
X121122952Y-64111238D02*
X121075333Y-64206476D01*
X121027714Y-64254095D01*
X120932476Y-64301714D01*
X120884857Y-64301714D01*
X120789619Y-64254095D01*
X120742000Y-64206476D01*
X120694380Y-64111238D01*
X120694380Y-63920761D01*
X120742000Y-63825523D01*
X120789619Y-63777904D01*
X120884857Y-63730285D01*
X120932476Y-63730285D01*
X121027714Y-63777904D01*
X121075333Y-63825523D01*
X121122952Y-63920761D01*
X121122952Y-64111238D01*
X121170571Y-64206476D01*
X121218190Y-64254095D01*
X121313428Y-64301714D01*
X121503904Y-64301714D01*
X121599142Y-64254095D01*
X121646761Y-64206476D01*
X121694380Y-64111238D01*
X121694380Y-63920761D01*
X121646761Y-63825523D01*
X121599142Y-63777904D01*
X121503904Y-63730285D01*
X121313428Y-63730285D01*
X121218190Y-63777904D01*
X121170571Y-63825523D01*
X121122952Y-63920761D01*
G04 #@! TO.C,R9*
X121694380Y-93130666D02*
X121218190Y-93464000D01*
X121694380Y-93702095D02*
X120694380Y-93702095D01*
X120694380Y-93321142D01*
X120742000Y-93225904D01*
X120789619Y-93178285D01*
X120884857Y-93130666D01*
X121027714Y-93130666D01*
X121122952Y-93178285D01*
X121170571Y-93225904D01*
X121218190Y-93321142D01*
X121218190Y-93702095D01*
X121694380Y-92654476D02*
X121694380Y-92464000D01*
X121646761Y-92368761D01*
X121599142Y-92321142D01*
X121456285Y-92225904D01*
X121265809Y-92178285D01*
X120884857Y-92178285D01*
X120789619Y-92225904D01*
X120742000Y-92273523D01*
X120694380Y-92368761D01*
X120694380Y-92559238D01*
X120742000Y-92654476D01*
X120789619Y-92702095D01*
X120884857Y-92749714D01*
X121122952Y-92749714D01*
X121218190Y-92702095D01*
X121265809Y-92654476D01*
X121313428Y-92559238D01*
X121313428Y-92368761D01*
X121265809Y-92273523D01*
X121218190Y-92225904D01*
X121122952Y-92178285D01*
G04 #@! TO.C,SW1*
X73931666Y-66351840D02*
X74074523Y-66399459D01*
X74312619Y-66399459D01*
X74407857Y-66351840D01*
X74455476Y-66304221D01*
X74503095Y-66208983D01*
X74503095Y-66113745D01*
X74455476Y-66018507D01*
X74407857Y-65970888D01*
X74312619Y-65923269D01*
X74122142Y-65875650D01*
X74026904Y-65828031D01*
X73979285Y-65780412D01*
X73931666Y-65685174D01*
X73931666Y-65589936D01*
X73979285Y-65494698D01*
X74026904Y-65447079D01*
X74122142Y-65399459D01*
X74360238Y-65399459D01*
X74503095Y-65447079D01*
X74836428Y-65399459D02*
X75074523Y-66399459D01*
X75265000Y-65685174D01*
X75455476Y-66399459D01*
X75693571Y-65399459D01*
X76598333Y-66399459D02*
X76026904Y-66399459D01*
X76312619Y-66399459D02*
X76312619Y-65399459D01*
X76217380Y-65542317D01*
X76122142Y-65637555D01*
X76026904Y-65685174D01*
G04 #@! TO.C,SW2*
X73931666Y-88996761D02*
X74074523Y-89044380D01*
X74312619Y-89044380D01*
X74407857Y-88996761D01*
X74455476Y-88949142D01*
X74503095Y-88853904D01*
X74503095Y-88758666D01*
X74455476Y-88663428D01*
X74407857Y-88615809D01*
X74312619Y-88568190D01*
X74122142Y-88520571D01*
X74026904Y-88472952D01*
X73979285Y-88425333D01*
X73931666Y-88330095D01*
X73931666Y-88234857D01*
X73979285Y-88139619D01*
X74026904Y-88092000D01*
X74122142Y-88044380D01*
X74360238Y-88044380D01*
X74503095Y-88092000D01*
X74836428Y-88044380D02*
X75074523Y-89044380D01*
X75265000Y-88330095D01*
X75455476Y-89044380D01*
X75693571Y-88044380D01*
X76026904Y-88139619D02*
X76074523Y-88092000D01*
X76169761Y-88044380D01*
X76407857Y-88044380D01*
X76503095Y-88092000D01*
X76550714Y-88139619D01*
X76598333Y-88234857D01*
X76598333Y-88330095D01*
X76550714Y-88472952D01*
X75979285Y-89044380D01*
X76598333Y-89044380D01*
G04 #@! TO.C,Y1*
X78939190Y-81148190D02*
X79415380Y-81148190D01*
X78415380Y-81481523D02*
X78939190Y-81148190D01*
X78415380Y-80814857D01*
X79415380Y-79957714D02*
X79415380Y-80529142D01*
X79415380Y-80243428D02*
X78415380Y-80243428D01*
X78558238Y-80338666D01*
X78653476Y-80433904D01*
X78701095Y-80529142D01*
G04 #@! TD*
M02*
