G04 #@! TF.GenerationSoftware,KiCad,Pcbnew,(5.0.0)*
G04 #@! TF.CreationDate,2019-04-16T16:09:12+02:00*
G04 #@! TF.ProjectId,,00000000000000000000000000000000,rev?*
G04 #@! TF.SameCoordinates,Original*
G04 #@! TF.FileFunction,Profile,NP*
%FSLAX46Y46*%
G04 Gerber Fmt 4.6, Leading zero omitted, Abs format (unit mm)*
G04 Created by KiCad (PCBNEW (5.0.0)) date 04/16/19 16:09:12*
%MOMM*%
%LPD*%
G01*
G04 APERTURE LIST*
%ADD10C,0.200000*%
%ADD11C,0.050000*%
G04 APERTURE END LIST*
D10*
X20000000Y-20000000D02*
X20000000Y-120000000D01*
X120000000Y-20000000D02*
X120000000Y-120000000D01*
X20000000Y-120000000D02*
X120000000Y-120000000D01*
X20000000Y-20000000D02*
X120000000Y-20000000D01*
G04 #@! TO.C,J3*
D11*
X121194780Y-110652947D02*
X120194780Y-110652947D01*
X120194780Y-110271995D01*
X120242400Y-110176757D01*
X120290019Y-110129138D01*
X120385257Y-110081519D01*
X120528114Y-110081519D01*
X120623352Y-110129138D01*
X120670971Y-110176757D01*
X120718590Y-110271995D01*
X120718590Y-110652947D01*
X121099542Y-109081519D02*
X121147161Y-109129138D01*
X121194780Y-109271995D01*
X121194780Y-109367233D01*
X121147161Y-109510090D01*
X121051923Y-109605328D01*
X120956685Y-109652947D01*
X120766209Y-109700566D01*
X120623352Y-109700566D01*
X120432876Y-109652947D01*
X120337638Y-109605328D01*
X120242400Y-109510090D01*
X120194780Y-109367233D01*
X120194780Y-109271995D01*
X120242400Y-109129138D01*
X120290019Y-109081519D01*
X120670971Y-108319614D02*
X120718590Y-108176757D01*
X120766209Y-108129138D01*
X120861447Y-108081519D01*
X121004304Y-108081519D01*
X121099542Y-108129138D01*
X121147161Y-108176757D01*
X121194780Y-108271995D01*
X121194780Y-108652947D01*
X120194780Y-108652947D01*
X120194780Y-108319614D01*
X120242400Y-108224376D01*
X120290019Y-108176757D01*
X120385257Y-108129138D01*
X120480495Y-108129138D01*
X120575733Y-108176757D01*
X120623352Y-108224376D01*
X120670971Y-108319614D01*
X120670971Y-108652947D01*
X119957400Y-107891042D02*
X119957400Y-106986280D01*
X120670971Y-107652947D02*
X120670971Y-107319614D01*
X121194780Y-107176757D02*
X121194780Y-107652947D01*
X120194780Y-107652947D01*
X120194780Y-107176757D01*
X119957400Y-106986280D02*
X119957400Y-106081519D01*
X120528114Y-106748185D02*
X121194780Y-106748185D01*
X120623352Y-106748185D02*
X120575733Y-106700566D01*
X120528114Y-106605328D01*
X120528114Y-106462471D01*
X120575733Y-106367233D01*
X120670971Y-106319614D01*
X121194780Y-106319614D01*
X119957400Y-106081519D02*
X119957400Y-105176757D01*
X121194780Y-105414852D02*
X120194780Y-105414852D01*
X121147161Y-105414852D02*
X121194780Y-105510090D01*
X121194780Y-105700566D01*
X121147161Y-105795804D01*
X121099542Y-105843423D01*
X121004304Y-105891042D01*
X120718590Y-105891042D01*
X120623352Y-105843423D01*
X120575733Y-105795804D01*
X120528114Y-105700566D01*
X120528114Y-105510090D01*
X120575733Y-105414852D01*
X110494780Y-109648185D02*
X110494780Y-110219614D01*
X110494780Y-109933900D02*
X109494780Y-109933900D01*
X109637638Y-110029138D01*
X109732876Y-110124376D01*
X109780495Y-110219614D01*
X109728114Y-102843423D02*
X110394780Y-102843423D01*
X109347161Y-103081519D02*
X110061447Y-103319614D01*
X110061447Y-102700566D01*
G04 #@! TD*
M02*
