G04 #@! TF.GenerationSoftware,KiCad,Pcbnew,(5.0.0)*
G04 #@! TF.CreationDate,2019-04-15T16:44:06+02:00*
G04 #@! TF.ProjectId,SolarPanelCharger,536F6C617250616E656C436861726765,rev?*
G04 #@! TF.SameCoordinates,Original*
G04 #@! TF.FileFunction,Legend,Top*
G04 #@! TF.FilePolarity,Positive*
%FSLAX46Y46*%
G04 Gerber Fmt 4.6, Leading zero omitted, Abs format (unit mm)*
G04 Created by KiCad (PCBNEW (5.0.0)) date 04/15/19 16:44:06*
%MOMM*%
%LPD*%
G01*
G04 APERTURE LIST*
%ADD10C,0.300000*%
%ADD11C,0.120000*%
%ADD12C,0.127000*%
%ADD13C,0.050000*%
G04 APERTURE END LIST*
D10*
X50517200Y-22451142D02*
X50731485Y-22522571D01*
X51088628Y-22522571D01*
X51231485Y-22451142D01*
X51302914Y-22379714D01*
X51374342Y-22236857D01*
X51374342Y-22094000D01*
X51302914Y-21951142D01*
X51231485Y-21879714D01*
X51088628Y-21808285D01*
X50802914Y-21736857D01*
X50660057Y-21665428D01*
X50588628Y-21594000D01*
X50517200Y-21451142D01*
X50517200Y-21308285D01*
X50588628Y-21165428D01*
X50660057Y-21094000D01*
X50802914Y-21022571D01*
X51160057Y-21022571D01*
X51374342Y-21094000D01*
X52231485Y-22522571D02*
X52088628Y-22451142D01*
X52017200Y-22379714D01*
X51945771Y-22236857D01*
X51945771Y-21808285D01*
X52017200Y-21665428D01*
X52088628Y-21594000D01*
X52231485Y-21522571D01*
X52445771Y-21522571D01*
X52588628Y-21594000D01*
X52660057Y-21665428D01*
X52731485Y-21808285D01*
X52731485Y-22236857D01*
X52660057Y-22379714D01*
X52588628Y-22451142D01*
X52445771Y-22522571D01*
X52231485Y-22522571D01*
X53588628Y-22522571D02*
X53445771Y-22451142D01*
X53374342Y-22308285D01*
X53374342Y-21022571D01*
X54802914Y-22522571D02*
X54802914Y-21736857D01*
X54731485Y-21594000D01*
X54588628Y-21522571D01*
X54302914Y-21522571D01*
X54160057Y-21594000D01*
X54802914Y-22451142D02*
X54660057Y-22522571D01*
X54302914Y-22522571D01*
X54160057Y-22451142D01*
X54088628Y-22308285D01*
X54088628Y-22165428D01*
X54160057Y-22022571D01*
X54302914Y-21951142D01*
X54660057Y-21951142D01*
X54802914Y-21879714D01*
X55517200Y-22522571D02*
X55517200Y-21522571D01*
X55517200Y-21808285D02*
X55588628Y-21665428D01*
X55660057Y-21594000D01*
X55802914Y-21522571D01*
X55945771Y-21522571D01*
X58445771Y-22379714D02*
X58374342Y-22451142D01*
X58160057Y-22522571D01*
X58017200Y-22522571D01*
X57802914Y-22451142D01*
X57660057Y-22308285D01*
X57588628Y-22165428D01*
X57517200Y-21879714D01*
X57517200Y-21665428D01*
X57588628Y-21379714D01*
X57660057Y-21236857D01*
X57802914Y-21094000D01*
X58017200Y-21022571D01*
X58160057Y-21022571D01*
X58374342Y-21094000D01*
X58445771Y-21165428D01*
X59088628Y-22522571D02*
X59088628Y-21022571D01*
X59731485Y-22522571D02*
X59731485Y-21736857D01*
X59660057Y-21594000D01*
X59517200Y-21522571D01*
X59302914Y-21522571D01*
X59160057Y-21594000D01*
X59088628Y-21665428D01*
X61088628Y-22522571D02*
X61088628Y-21736857D01*
X61017200Y-21594000D01*
X60874342Y-21522571D01*
X60588628Y-21522571D01*
X60445771Y-21594000D01*
X61088628Y-22451142D02*
X60945771Y-22522571D01*
X60588628Y-22522571D01*
X60445771Y-22451142D01*
X60374342Y-22308285D01*
X60374342Y-22165428D01*
X60445771Y-22022571D01*
X60588628Y-21951142D01*
X60945771Y-21951142D01*
X61088628Y-21879714D01*
X61802914Y-22522571D02*
X61802914Y-21522571D01*
X61802914Y-21808285D02*
X61874342Y-21665428D01*
X61945771Y-21594000D01*
X62088628Y-21522571D01*
X62231485Y-21522571D01*
X63374342Y-21522571D02*
X63374342Y-22736857D01*
X63302914Y-22879714D01*
X63231485Y-22951142D01*
X63088628Y-23022571D01*
X62874342Y-23022571D01*
X62731485Y-22951142D01*
X63374342Y-22451142D02*
X63231485Y-22522571D01*
X62945771Y-22522571D01*
X62802914Y-22451142D01*
X62731485Y-22379714D01*
X62660057Y-22236857D01*
X62660057Y-21808285D01*
X62731485Y-21665428D01*
X62802914Y-21594000D01*
X62945771Y-21522571D01*
X63231485Y-21522571D01*
X63374342Y-21594000D01*
X64660057Y-22451142D02*
X64517200Y-22522571D01*
X64231485Y-22522571D01*
X64088628Y-22451142D01*
X64017200Y-22308285D01*
X64017200Y-21736857D01*
X64088628Y-21594000D01*
X64231485Y-21522571D01*
X64517200Y-21522571D01*
X64660057Y-21594000D01*
X64731485Y-21736857D01*
X64731485Y-21879714D01*
X64017200Y-22022571D01*
X65374342Y-22522571D02*
X65374342Y-21522571D01*
X65374342Y-21808285D02*
X65445771Y-21665428D01*
X65517200Y-21594000D01*
X65660057Y-21522571D01*
X65802914Y-21522571D01*
X67231485Y-21022571D02*
X67731485Y-22522571D01*
X68231485Y-21022571D01*
X69517200Y-22522571D02*
X68660057Y-22522571D01*
X69088628Y-22522571D02*
X69088628Y-21022571D01*
X68945771Y-21236857D01*
X68802914Y-21379714D01*
X68660057Y-21451142D01*
X70160057Y-22379714D02*
X70231485Y-22451142D01*
X70160057Y-22522571D01*
X70088628Y-22451142D01*
X70160057Y-22379714D01*
X70160057Y-22522571D01*
X71160057Y-21022571D02*
X71302914Y-21022571D01*
X71445771Y-21094000D01*
X71517200Y-21165428D01*
X71588628Y-21308285D01*
X71660057Y-21594000D01*
X71660057Y-21951142D01*
X71588628Y-22236857D01*
X71517200Y-22379714D01*
X71445771Y-22451142D01*
X71302914Y-22522571D01*
X71160057Y-22522571D01*
X71017200Y-22451142D01*
X70945771Y-22379714D01*
X70874342Y-22236857D01*
X70802914Y-21951142D01*
X70802914Y-21594000D01*
X70874342Y-21308285D01*
X70945771Y-21165428D01*
X71017200Y-21094000D01*
X71160057Y-21022571D01*
X73231485Y-21022571D02*
X73731485Y-22522571D01*
X74231485Y-21022571D01*
X74731485Y-22379714D02*
X74802914Y-22451142D01*
X74731485Y-22522571D01*
X74660057Y-22451142D01*
X74731485Y-22379714D01*
X74731485Y-22522571D01*
X75231485Y-21022571D02*
X76088628Y-21022571D01*
X75660057Y-22522571D02*
X75660057Y-21022571D01*
X76802914Y-22522571D02*
X76660057Y-22451142D01*
X76588628Y-22379714D01*
X76517200Y-22236857D01*
X76517200Y-21808285D01*
X76588628Y-21665428D01*
X76660057Y-21594000D01*
X76802914Y-21522571D01*
X77017200Y-21522571D01*
X77160057Y-21594000D01*
X77231485Y-21665428D01*
X77302914Y-21808285D01*
X77302914Y-22236857D01*
X77231485Y-22379714D01*
X77160057Y-22451142D01*
X77017200Y-22522571D01*
X76802914Y-22522571D01*
X78160057Y-22522571D02*
X78017200Y-22451142D01*
X77945771Y-22308285D01*
X77945771Y-21022571D01*
X79302914Y-22451142D02*
X79160057Y-22522571D01*
X78874342Y-22522571D01*
X78731485Y-22451142D01*
X78660057Y-22308285D01*
X78660057Y-21736857D01*
X78731485Y-21594000D01*
X78874342Y-21522571D01*
X79160057Y-21522571D01*
X79302914Y-21594000D01*
X79374342Y-21736857D01*
X79374342Y-21879714D01*
X78660057Y-22022571D01*
X80017200Y-21522571D02*
X80017200Y-22522571D01*
X80017200Y-21665428D02*
X80088628Y-21594000D01*
X80231485Y-21522571D01*
X80445771Y-21522571D01*
X80588628Y-21594000D01*
X80660057Y-21736857D01*
X80660057Y-22522571D01*
X81160057Y-21522571D02*
X81731485Y-21522571D01*
X81374342Y-21022571D02*
X81374342Y-22308285D01*
X81445771Y-22451142D01*
X81588628Y-22522571D01*
X81731485Y-22522571D01*
X82231485Y-22522571D02*
X82231485Y-21522571D01*
X82231485Y-21022571D02*
X82160057Y-21094000D01*
X82231485Y-21165428D01*
X82302914Y-21094000D01*
X82231485Y-21022571D01*
X82231485Y-21165428D01*
X82945771Y-21522571D02*
X82945771Y-22522571D01*
X82945771Y-21665428D02*
X83017200Y-21594000D01*
X83160057Y-21522571D01*
X83374342Y-21522571D01*
X83517200Y-21594000D01*
X83588628Y-21736857D01*
X83588628Y-22522571D01*
X84517200Y-22522571D02*
X84374342Y-22451142D01*
X84302914Y-22379714D01*
X84231485Y-22236857D01*
X84231485Y-21808285D01*
X84302914Y-21665428D01*
X84374342Y-21594000D01*
X84517200Y-21522571D01*
X84731485Y-21522571D01*
X84874342Y-21594000D01*
X84945771Y-21665428D01*
X85017200Y-21808285D01*
X85017200Y-22236857D01*
X84945771Y-22379714D01*
X84874342Y-22451142D01*
X84731485Y-22522571D01*
X84517200Y-22522571D01*
X107554057Y-44749257D02*
X107768342Y-44820685D01*
X107839771Y-44892114D01*
X107911200Y-45034971D01*
X107911200Y-45249257D01*
X107839771Y-45392114D01*
X107768342Y-45463542D01*
X107625485Y-45534971D01*
X107054057Y-45534971D01*
X107054057Y-44034971D01*
X107554057Y-44034971D01*
X107696914Y-44106400D01*
X107768342Y-44177828D01*
X107839771Y-44320685D01*
X107839771Y-44463542D01*
X107768342Y-44606400D01*
X107696914Y-44677828D01*
X107554057Y-44749257D01*
X107054057Y-44749257D01*
X108482628Y-45106400D02*
X109196914Y-45106400D01*
X108339771Y-45534971D02*
X108839771Y-44034971D01*
X109339771Y-45534971D01*
X109625485Y-44034971D02*
X110482628Y-44034971D01*
X110054057Y-45534971D02*
X110054057Y-44034971D01*
X107076228Y-23213142D02*
X107290514Y-23284571D01*
X107647657Y-23284571D01*
X107790514Y-23213142D01*
X107861942Y-23141714D01*
X107933371Y-22998857D01*
X107933371Y-22856000D01*
X107861942Y-22713142D01*
X107790514Y-22641714D01*
X107647657Y-22570285D01*
X107361942Y-22498857D01*
X107219085Y-22427428D01*
X107147657Y-22356000D01*
X107076228Y-22213142D01*
X107076228Y-22070285D01*
X107147657Y-21927428D01*
X107219085Y-21856000D01*
X107361942Y-21784571D01*
X107719085Y-21784571D01*
X107933371Y-21856000D01*
X108576228Y-23284571D02*
X108576228Y-21784571D01*
X109147657Y-21784571D01*
X109290514Y-21856000D01*
X109361942Y-21927428D01*
X109433371Y-22070285D01*
X109433371Y-22284571D01*
X109361942Y-22427428D01*
X109290514Y-22498857D01*
X109147657Y-22570285D01*
X108576228Y-22570285D01*
D11*
G04 #@! TO.C,U3*
X41859200Y-32612800D02*
X43739200Y-32612800D01*
X41859200Y-32612800D02*
X39979200Y-32612800D01*
X41859200Y-27432800D02*
X43739200Y-27432800D01*
X41859200Y-27432800D02*
X38334200Y-27432800D01*
G04 #@! TO.C,C5*
X51339933Y-26109200D02*
X51682467Y-26109200D01*
X51339933Y-27129200D02*
X51682467Y-27129200D01*
G04 #@! TO.C,R12*
X47449200Y-27679467D02*
X47449200Y-27336933D01*
X46429200Y-27679467D02*
X46429200Y-27336933D01*
G04 #@! TO.C,R15*
X39672800Y-35172467D02*
X39672800Y-34829933D01*
X40692800Y-35172467D02*
X40692800Y-34829933D01*
G04 #@! TO.C,R11*
X49328800Y-27665467D02*
X49328800Y-27322933D01*
X48308800Y-27665467D02*
X48308800Y-27322933D01*
G04 #@! TO.C,R13*
X51693867Y-27887200D02*
X51351333Y-27887200D01*
X51693867Y-28907200D02*
X51351333Y-28907200D01*
G04 #@! TO.C,R14*
X37945600Y-35172467D02*
X37945600Y-34829933D01*
X38965600Y-35172467D02*
X38965600Y-34829933D01*
G04 #@! TO.C,C4*
X45311600Y-22649333D02*
X45311600Y-22991867D01*
X46331600Y-22649333D02*
X46331600Y-22991867D01*
G04 #@! TO.C,C1*
X49887600Y-43656067D02*
X49887600Y-43313533D01*
X48867600Y-43656067D02*
X48867600Y-43313533D01*
G04 #@! TO.C,C2*
X47750000Y-35211867D02*
X47750000Y-34869333D01*
X48770000Y-35211867D02*
X48770000Y-34869333D01*
G04 #@! TO.C,C3*
X36777600Y-28600400D02*
G75*
G03X36777600Y-28600400I-2620000J0D01*
G01*
X34157600Y-31180400D02*
X34157600Y-26020400D01*
X34117600Y-31180400D02*
X34117600Y-26020400D01*
X34077600Y-31179400D02*
X34077600Y-26021400D01*
X34037600Y-31178400D02*
X34037600Y-26022400D01*
X33997600Y-31176400D02*
X33997600Y-26024400D01*
X33957600Y-31173400D02*
X33957600Y-26027400D01*
X33917600Y-31169400D02*
X33917600Y-29640400D01*
X33917600Y-27560400D02*
X33917600Y-26031400D01*
X33877600Y-31165400D02*
X33877600Y-29640400D01*
X33877600Y-27560400D02*
X33877600Y-26035400D01*
X33837600Y-31161400D02*
X33837600Y-29640400D01*
X33837600Y-27560400D02*
X33837600Y-26039400D01*
X33797600Y-31156400D02*
X33797600Y-29640400D01*
X33797600Y-27560400D02*
X33797600Y-26044400D01*
X33757600Y-31150400D02*
X33757600Y-29640400D01*
X33757600Y-27560400D02*
X33757600Y-26050400D01*
X33717600Y-31143400D02*
X33717600Y-29640400D01*
X33717600Y-27560400D02*
X33717600Y-26057400D01*
X33677600Y-31136400D02*
X33677600Y-29640400D01*
X33677600Y-27560400D02*
X33677600Y-26064400D01*
X33637600Y-31128400D02*
X33637600Y-29640400D01*
X33637600Y-27560400D02*
X33637600Y-26072400D01*
X33597600Y-31120400D02*
X33597600Y-29640400D01*
X33597600Y-27560400D02*
X33597600Y-26080400D01*
X33557600Y-31111400D02*
X33557600Y-29640400D01*
X33557600Y-27560400D02*
X33557600Y-26089400D01*
X33517600Y-31101400D02*
X33517600Y-29640400D01*
X33517600Y-27560400D02*
X33517600Y-26099400D01*
X33477600Y-31091400D02*
X33477600Y-29640400D01*
X33477600Y-27560400D02*
X33477600Y-26109400D01*
X33436600Y-31080400D02*
X33436600Y-29640400D01*
X33436600Y-27560400D02*
X33436600Y-26120400D01*
X33396600Y-31068400D02*
X33396600Y-29640400D01*
X33396600Y-27560400D02*
X33396600Y-26132400D01*
X33356600Y-31055400D02*
X33356600Y-29640400D01*
X33356600Y-27560400D02*
X33356600Y-26145400D01*
X33316600Y-31042400D02*
X33316600Y-29640400D01*
X33316600Y-27560400D02*
X33316600Y-26158400D01*
X33276600Y-31028400D02*
X33276600Y-29640400D01*
X33276600Y-27560400D02*
X33276600Y-26172400D01*
X33236600Y-31014400D02*
X33236600Y-29640400D01*
X33236600Y-27560400D02*
X33236600Y-26186400D01*
X33196600Y-30998400D02*
X33196600Y-29640400D01*
X33196600Y-27560400D02*
X33196600Y-26202400D01*
X33156600Y-30982400D02*
X33156600Y-29640400D01*
X33156600Y-27560400D02*
X33156600Y-26218400D01*
X33116600Y-30965400D02*
X33116600Y-29640400D01*
X33116600Y-27560400D02*
X33116600Y-26235400D01*
X33076600Y-30948400D02*
X33076600Y-29640400D01*
X33076600Y-27560400D02*
X33076600Y-26252400D01*
X33036600Y-30929400D02*
X33036600Y-29640400D01*
X33036600Y-27560400D02*
X33036600Y-26271400D01*
X32996600Y-30910400D02*
X32996600Y-29640400D01*
X32996600Y-27560400D02*
X32996600Y-26290400D01*
X32956600Y-30890400D02*
X32956600Y-29640400D01*
X32956600Y-27560400D02*
X32956600Y-26310400D01*
X32916600Y-30868400D02*
X32916600Y-29640400D01*
X32916600Y-27560400D02*
X32916600Y-26332400D01*
X32876600Y-30847400D02*
X32876600Y-29640400D01*
X32876600Y-27560400D02*
X32876600Y-26353400D01*
X32836600Y-30824400D02*
X32836600Y-29640400D01*
X32836600Y-27560400D02*
X32836600Y-26376400D01*
X32796600Y-30800400D02*
X32796600Y-29640400D01*
X32796600Y-27560400D02*
X32796600Y-26400400D01*
X32756600Y-30775400D02*
X32756600Y-29640400D01*
X32756600Y-27560400D02*
X32756600Y-26425400D01*
X32716600Y-30749400D02*
X32716600Y-29640400D01*
X32716600Y-27560400D02*
X32716600Y-26451400D01*
X32676600Y-30722400D02*
X32676600Y-29640400D01*
X32676600Y-27560400D02*
X32676600Y-26478400D01*
X32636600Y-30695400D02*
X32636600Y-29640400D01*
X32636600Y-27560400D02*
X32636600Y-26505400D01*
X32596600Y-30665400D02*
X32596600Y-29640400D01*
X32596600Y-27560400D02*
X32596600Y-26535400D01*
X32556600Y-30635400D02*
X32556600Y-29640400D01*
X32556600Y-27560400D02*
X32556600Y-26565400D01*
X32516600Y-30604400D02*
X32516600Y-29640400D01*
X32516600Y-27560400D02*
X32516600Y-26596400D01*
X32476600Y-30571400D02*
X32476600Y-29640400D01*
X32476600Y-27560400D02*
X32476600Y-26629400D01*
X32436600Y-30537400D02*
X32436600Y-29640400D01*
X32436600Y-27560400D02*
X32436600Y-26663400D01*
X32396600Y-30501400D02*
X32396600Y-29640400D01*
X32396600Y-27560400D02*
X32396600Y-26699400D01*
X32356600Y-30464400D02*
X32356600Y-29640400D01*
X32356600Y-27560400D02*
X32356600Y-26736400D01*
X32316600Y-30426400D02*
X32316600Y-29640400D01*
X32316600Y-27560400D02*
X32316600Y-26774400D01*
X32276600Y-30385400D02*
X32276600Y-29640400D01*
X32276600Y-27560400D02*
X32276600Y-26815400D01*
X32236600Y-30343400D02*
X32236600Y-29640400D01*
X32236600Y-27560400D02*
X32236600Y-26857400D01*
X32196600Y-30299400D02*
X32196600Y-29640400D01*
X32196600Y-27560400D02*
X32196600Y-26901400D01*
X32156600Y-30253400D02*
X32156600Y-29640400D01*
X32156600Y-27560400D02*
X32156600Y-26947400D01*
X32116600Y-30205400D02*
X32116600Y-29640400D01*
X32116600Y-27560400D02*
X32116600Y-26995400D01*
X32076600Y-30154400D02*
X32076600Y-29640400D01*
X32076600Y-27560400D02*
X32076600Y-27046400D01*
X32036600Y-30100400D02*
X32036600Y-29640400D01*
X32036600Y-27560400D02*
X32036600Y-27100400D01*
X31996600Y-30043400D02*
X31996600Y-29640400D01*
X31996600Y-27560400D02*
X31996600Y-27157400D01*
X31956600Y-29983400D02*
X31956600Y-29640400D01*
X31956600Y-27560400D02*
X31956600Y-27217400D01*
X31916600Y-29919400D02*
X31916600Y-29640400D01*
X31916600Y-27560400D02*
X31916600Y-27281400D01*
X31876600Y-29851400D02*
X31876600Y-29640400D01*
X31876600Y-27560400D02*
X31876600Y-27349400D01*
X31836600Y-29778400D02*
X31836600Y-27422400D01*
X31796600Y-29698400D02*
X31796600Y-27502400D01*
X31756600Y-29611400D02*
X31756600Y-27589400D01*
X31716600Y-29515400D02*
X31716600Y-27685400D01*
X31676600Y-29405400D02*
X31676600Y-27795400D01*
X31636600Y-29277400D02*
X31636600Y-27923400D01*
X31596600Y-29118400D02*
X31596600Y-28082400D01*
X31556600Y-28884400D02*
X31556600Y-28316400D01*
X36962375Y-30075400D02*
X36462375Y-30075400D01*
X36712375Y-30325400D02*
X36712375Y-29825400D01*
G04 #@! TO.C,C6*
X62206600Y-34167867D02*
X62206600Y-33825333D01*
X61186600Y-34167867D02*
X61186600Y-33825333D01*
G04 #@! TO.C,C7*
X68471867Y-37568600D02*
X68129333Y-37568600D01*
X68471867Y-36548600D02*
X68129333Y-36548600D01*
G04 #@! TO.C,C8*
X77493400Y-40635133D02*
X77493400Y-40977667D01*
X78513400Y-40635133D02*
X78513400Y-40977667D01*
G04 #@! TO.C,C9*
X88136000Y-39593733D02*
X88136000Y-39936267D01*
X89156000Y-39593733D02*
X89156000Y-39936267D01*
G04 #@! TO.C,C10*
X93833767Y-27040300D02*
X93491233Y-27040300D01*
X93833767Y-26020300D02*
X93491233Y-26020300D01*
G04 #@! TO.C,C11*
X93654667Y-39114000D02*
X93312133Y-39114000D01*
X93654667Y-40134000D02*
X93312133Y-40134000D01*
G04 #@! TO.C,C12*
X100543900Y-31349767D02*
X100543900Y-31007233D01*
X101563900Y-31349767D02*
X101563900Y-31007233D01*
G04 #@! TO.C,C13*
X100543900Y-34880733D02*
X100543900Y-35223267D01*
X101563900Y-34880733D02*
X101563900Y-35223267D01*
G04 #@! TO.C,C14*
X103405400Y-34831233D02*
X103405400Y-35173767D01*
X102385400Y-34831233D02*
X102385400Y-35173767D01*
G04 #@! TO.C,C15*
X102385400Y-31363767D02*
X102385400Y-31021233D01*
X103405400Y-31363767D02*
X103405400Y-31021233D01*
G04 #@! TO.C,D1*
X49603200Y-35304400D02*
X49603200Y-32664400D01*
X49603200Y-35304400D02*
X52403200Y-35304400D01*
X52403200Y-35304400D02*
X52403200Y-32664400D01*
G04 #@! TO.C,D2*
X54378400Y-31853200D02*
X54378400Y-34493200D01*
X57178400Y-31853200D02*
X54378400Y-31853200D01*
X57178400Y-31853200D02*
X57178400Y-34493200D01*
G04 #@! TO.C,D3*
X37135400Y-31964400D02*
X34315400Y-31964400D01*
X37135400Y-35904400D02*
X34315400Y-35904400D01*
X37135400Y-35904400D02*
X37135400Y-31964400D01*
G04 #@! TO.C,D4*
X37135400Y-40730400D02*
X37135400Y-36790400D01*
X37135400Y-40730400D02*
X34315400Y-40730400D01*
X37135400Y-36790400D02*
X34315400Y-36790400D01*
G04 #@! TO.C,D5*
X37059200Y-20991600D02*
X34239200Y-20991600D01*
X37059200Y-24931600D02*
X34239200Y-24931600D01*
X37059200Y-24931600D02*
X37059200Y-20991600D01*
G04 #@! TO.C,D6*
X73744200Y-32984100D02*
X73744200Y-37044100D01*
X76014200Y-32984100D02*
X73744200Y-32984100D01*
X76014200Y-37044100D02*
X76014200Y-32984100D01*
G04 #@! TO.C,D7*
X73169400Y-37044100D02*
X73169400Y-32984100D01*
X73169400Y-32984100D02*
X70899400Y-32984100D01*
X70899400Y-32984100D02*
X70899400Y-37044100D01*
G04 #@! TO.C,D8*
X77049400Y-38151400D02*
X80989400Y-38151400D01*
X77049400Y-38151400D02*
X77049400Y-35331400D01*
X80989400Y-38151400D02*
X80989400Y-35331400D01*
G04 #@! TO.C,D10*
X94560800Y-41006800D02*
X92760800Y-41006800D01*
X94560800Y-42406800D02*
X92760800Y-42406800D01*
X94560800Y-42406800D02*
X94560800Y-41006800D01*
G04 #@! TO.C,J1*
X27290356Y-37315082D02*
G75*
G02X27435600Y-37998400I-1534756J-683318D01*
G01*
X25072558Y-36462974D02*
G75*
G02X26439600Y-36463400I683042J-1535426D01*
G01*
X24220174Y-38681442D02*
G75*
G02X24220600Y-37314400I1535426J683042D01*
G01*
X26438642Y-39533826D02*
G75*
G02X25071600Y-39533400I-683042J1535426D01*
G01*
X27435853Y-37969595D02*
G75*
G02X27290600Y-38682400I-1680253J-28805D01*
G01*
X27435600Y-32998400D02*
G75*
G03X27435600Y-32998400I-1680000J0D01*
G01*
X27435600Y-27998400D02*
G75*
G03X27435600Y-27998400I-1680000J0D01*
G01*
X27435600Y-22998400D02*
G75*
G03X27435600Y-22998400I-1680000J0D01*
G01*
X29855600Y-40558400D02*
X29855600Y-20437400D01*
X28355600Y-40558400D02*
X28355600Y-20437400D01*
X23454600Y-40558400D02*
X23454600Y-20437400D01*
X20494600Y-40558400D02*
X20494600Y-20437400D01*
X30415600Y-40558400D02*
X30415600Y-20437400D01*
X20494600Y-40558400D02*
X30415600Y-40558400D01*
X20494600Y-20437400D02*
X30415600Y-20437400D01*
X24686600Y-31723400D02*
X24732600Y-31770400D01*
X26994600Y-34032400D02*
X27029600Y-34067400D01*
X24480600Y-31928400D02*
X24516600Y-31963400D01*
X26778600Y-34225400D02*
X26824600Y-34272400D01*
X24686600Y-26723400D02*
X24732600Y-26770400D01*
X26994600Y-29032400D02*
X27029600Y-29067400D01*
X24480600Y-26928400D02*
X24516600Y-26963400D01*
X26778600Y-29225400D02*
X26824600Y-29272400D01*
X24686600Y-21723400D02*
X24732600Y-21770400D01*
X26994600Y-24032400D02*
X27029600Y-24067400D01*
X24480600Y-21928400D02*
X24516600Y-21963400D01*
X26778600Y-24225400D02*
X26824600Y-24272400D01*
X29915600Y-40798400D02*
X30655600Y-40798400D01*
X30655600Y-40798400D02*
X30655600Y-40298400D01*
G04 #@! TO.C,J2*
X73516800Y-45212000D02*
X73516800Y-46542000D01*
X73516800Y-46542000D02*
X72186800Y-46542000D01*
X70916800Y-46542000D02*
X60696800Y-46542000D01*
X60696800Y-43882000D02*
X60696800Y-46542000D01*
X70916800Y-43882000D02*
X60696800Y-43882000D01*
X70916800Y-43882000D02*
X70916800Y-46542000D01*
D12*
G04 #@! TO.C,J3*
X106922400Y-26833500D02*
X106922400Y-39333500D01*
X120922400Y-39333500D02*
X120922400Y-26833500D01*
X108772400Y-39333500D02*
X106922400Y-39333500D01*
X108772400Y-26833500D02*
X106922400Y-26833500D01*
X112522400Y-39333500D02*
X120922400Y-39333500D01*
X112522400Y-26833500D02*
X120922400Y-26833500D01*
D11*
G04 #@! TO.C,Q1*
X53007800Y-43223300D02*
X53007800Y-42293300D01*
X53007800Y-40063300D02*
X53007800Y-40993300D01*
X53007800Y-40063300D02*
X50847800Y-40063300D01*
X53007800Y-43223300D02*
X51547800Y-43223300D01*
G04 #@! TO.C,Q2*
X59606300Y-40946800D02*
X59606300Y-42406800D01*
X56446300Y-40946800D02*
X56446300Y-43106800D01*
X56446300Y-40946800D02*
X57376300Y-40946800D01*
X59606300Y-40946800D02*
X58676300Y-40946800D01*
G04 #@! TO.C,Q3*
X65702400Y-26548000D02*
X65702400Y-27478000D01*
X65702400Y-29708000D02*
X65702400Y-28778000D01*
X65702400Y-29708000D02*
X67862400Y-29708000D01*
X65702400Y-26548000D02*
X67162400Y-26548000D01*
G04 #@! TO.C,Q4*
X95204400Y-30418500D02*
X95204400Y-31878500D01*
X92044400Y-30418500D02*
X92044400Y-32578500D01*
X92044400Y-30418500D02*
X92974400Y-30418500D01*
X95204400Y-30418500D02*
X94274400Y-30418500D01*
G04 #@! TO.C,Q5*
X95077400Y-34228500D02*
X94147400Y-34228500D01*
X91917400Y-34228500D02*
X92847400Y-34228500D01*
X91917400Y-34228500D02*
X91917400Y-36388500D01*
X95077400Y-34228500D02*
X95077400Y-35688500D01*
G04 #@! TO.C,Q6*
X95854400Y-28192000D02*
X95854400Y-26732000D01*
X99014400Y-28192000D02*
X99014400Y-26032000D01*
X99014400Y-28192000D02*
X98084400Y-28192000D01*
X95854400Y-28192000D02*
X96784400Y-28192000D01*
G04 #@! TO.C,Q7*
X98950900Y-37911500D02*
X98020900Y-37911500D01*
X95790900Y-37911500D02*
X96720900Y-37911500D01*
X95790900Y-37911500D02*
X95790900Y-40071500D01*
X98950900Y-37911500D02*
X98950900Y-39371500D01*
G04 #@! TO.C,Q8*
X98130900Y-32822000D02*
X98130900Y-31892000D01*
X98130900Y-29662000D02*
X98130900Y-30592000D01*
X98130900Y-29662000D02*
X95970900Y-29662000D01*
X98130900Y-32822000D02*
X96670900Y-32822000D01*
G04 #@! TO.C,Q9*
X98130900Y-36632000D02*
X96670900Y-36632000D01*
X98130900Y-33472000D02*
X95970900Y-33472000D01*
X98130900Y-33472000D02*
X98130900Y-34402000D01*
X98130900Y-36632000D02*
X98130900Y-35702000D01*
G04 #@! TO.C,R1*
X46077600Y-34880733D02*
X46077600Y-35223267D01*
X45057600Y-34880733D02*
X45057600Y-35223267D01*
G04 #@! TO.C,R2*
X43035067Y-36473800D02*
X42692533Y-36473800D01*
X43035067Y-35453800D02*
X42692533Y-35453800D01*
G04 #@! TO.C,R3*
X39164800Y-43543067D02*
X39164800Y-43200533D01*
X40184800Y-43543067D02*
X40184800Y-43200533D01*
G04 #@! TO.C,R4*
X40378533Y-40946800D02*
X40721067Y-40946800D01*
X40378533Y-39926800D02*
X40721067Y-39926800D01*
G04 #@! TO.C,R5*
X42013600Y-43554467D02*
X42013600Y-43211933D01*
X40993600Y-43554467D02*
X40993600Y-43211933D01*
G04 #@! TO.C,R6*
X52341567Y-37644800D02*
X51999033Y-37644800D01*
X52341567Y-36624800D02*
X51999033Y-36624800D01*
G04 #@! TO.C,R7*
X52355567Y-39359300D02*
X52013033Y-39359300D01*
X52355567Y-38339300D02*
X52013033Y-38339300D01*
G04 #@! TO.C,R8*
X52090533Y-44947300D02*
X52433067Y-44947300D01*
X52090533Y-43927300D02*
X52433067Y-43927300D01*
G04 #@! TO.C,R9*
X54595300Y-41472033D02*
X54595300Y-41814567D01*
X55615300Y-41472033D02*
X55615300Y-41814567D01*
G04 #@! TO.C,R10*
X55872533Y-43927300D02*
X56215067Y-43927300D01*
X55872533Y-44947300D02*
X56215067Y-44947300D01*
G04 #@! TO.C,R16*
X60946565Y-36537197D02*
X60604031Y-36537197D01*
X60946565Y-37557197D02*
X60604031Y-37557197D01*
G04 #@! TO.C,R17*
X60946565Y-39462197D02*
X60604031Y-39462197D01*
X60946565Y-38442197D02*
X60604031Y-38442197D01*
G04 #@! TO.C,R18*
X64675867Y-37568600D02*
X64333333Y-37568600D01*
X64675867Y-36548600D02*
X64333333Y-36548600D01*
G04 #@! TO.C,R19*
X61186600Y-30043333D02*
X61186600Y-30385867D01*
X62206600Y-30043333D02*
X62206600Y-30385867D01*
G04 #@! TO.C,R20*
X64661867Y-39473600D02*
X64319333Y-39473600D01*
X64661867Y-38453600D02*
X64319333Y-38453600D01*
G04 #@! TO.C,R21*
X70762400Y-28008733D02*
X70762400Y-28351267D01*
X71782400Y-28008733D02*
X71782400Y-28351267D01*
G04 #@! TO.C,R22*
X69877400Y-28365267D02*
X69877400Y-28022733D01*
X68857400Y-28365267D02*
X68857400Y-28022733D01*
G04 #@! TO.C,R23*
X63142400Y-28224267D02*
X63142400Y-27881733D01*
X64162400Y-28224267D02*
X64162400Y-27881733D01*
G04 #@! TO.C,R24*
X75338400Y-39998467D02*
X75338400Y-39655933D01*
X74318400Y-39998467D02*
X74318400Y-39655933D01*
G04 #@! TO.C,R25*
X71473600Y-39998467D02*
X71473600Y-39655933D01*
X72493600Y-39998467D02*
X72493600Y-39655933D01*
G04 #@! TO.C,R26*
X80626133Y-40413400D02*
X80968667Y-40413400D01*
X80626133Y-39393400D02*
X80968667Y-39393400D01*
G04 #@! TO.C,R27*
X82196400Y-42653133D02*
X82196400Y-42995667D01*
X81176400Y-42653133D02*
X81176400Y-42995667D01*
G04 #@! TO.C,R28*
X83208400Y-42653133D02*
X83208400Y-42995667D01*
X84228400Y-42653133D02*
X84228400Y-42995667D01*
G04 #@! TO.C,R29*
X85494400Y-42981667D02*
X85494400Y-42639133D01*
X86514400Y-42981667D02*
X86514400Y-42639133D01*
G04 #@! TO.C,R30*
X97645067Y-24995600D02*
X97302533Y-24995600D01*
X97645067Y-23975600D02*
X97302533Y-23975600D01*
G04 #@! TO.C,R31*
X97136133Y-42166000D02*
X97478667Y-42166000D01*
X97136133Y-41146000D02*
X97478667Y-41146000D01*
G04 #@! TO.C,R32*
X93847767Y-27861800D02*
X93505233Y-27861800D01*
X93847767Y-28881800D02*
X93505233Y-28881800D01*
G04 #@! TO.C,R33*
X93619167Y-38292500D02*
X93276633Y-38292500D01*
X93619167Y-37272500D02*
X93276633Y-37272500D01*
G04 #@! TO.C,U1*
X48030600Y-41325800D02*
X48030600Y-37800800D01*
X48030600Y-41325800D02*
X48030600Y-43205800D01*
X42850600Y-41325800D02*
X42850600Y-39445800D01*
X42850600Y-41325800D02*
X42850600Y-43205800D01*
G04 #@! TO.C,U2*
X36019200Y-41650800D02*
X37479200Y-41650800D01*
X36019200Y-44810800D02*
X38179200Y-44810800D01*
X36019200Y-44810800D02*
X36019200Y-43880800D01*
X36019200Y-41650800D02*
X36019200Y-42580800D01*
G04 #@! TO.C,U4*
X66649600Y-35584600D02*
X68529600Y-35584600D01*
X66649600Y-35584600D02*
X64769600Y-35584600D01*
X66649600Y-30404600D02*
X68529600Y-30404600D01*
X66649600Y-30404600D02*
X63124600Y-30404600D01*
G04 #@! TO.C,U5*
X83961400Y-40497400D02*
X85761400Y-40497400D01*
X85761400Y-37277400D02*
X83311400Y-37277400D01*
G04 #@! TO.C,D11*
X104927200Y-44026200D02*
X100867200Y-44026200D01*
X100867200Y-44026200D02*
X100867200Y-46296200D01*
X100867200Y-46296200D02*
X104927200Y-46296200D01*
G04 #@! TO.C,D12*
X100852900Y-22979000D02*
X104912900Y-22979000D01*
X100852900Y-20709000D02*
X100852900Y-22979000D01*
X104912900Y-20709000D02*
X100852900Y-20709000D01*
G04 #@! TO.C,R34*
X104290400Y-31413267D02*
X104290400Y-31070733D01*
X105310400Y-31413267D02*
X105310400Y-31070733D01*
G04 #@! TO.C,R35*
X105310400Y-35159767D02*
X105310400Y-34817233D01*
X104290400Y-35159767D02*
X104290400Y-34817233D01*
G04 #@! TO.C,J3*
D13*
X110494780Y-36597785D02*
X110494780Y-37169214D01*
X110494780Y-36883500D02*
X109494780Y-36883500D01*
X109637638Y-36978738D01*
X109732876Y-37073976D01*
X109780495Y-37169214D01*
G04 #@! TD*
M02*
