G04 #@! TF.GenerationSoftware,KiCad,Pcbnew,(5.0.0)*
G04 #@! TF.CreationDate,2019-04-15T16:44:06+02:00*
G04 #@! TF.ProjectId,SolarPanelCharger,536F6C617250616E656C436861726765,rev?*
G04 #@! TF.SameCoordinates,Original*
G04 #@! TF.FileFunction,Soldermask,Top*
G04 #@! TF.FilePolarity,Negative*
%FSLAX46Y46*%
G04 Gerber Fmt 4.6, Leading zero omitted, Abs format (unit mm)*
G04 Created by KiCad (PCBNEW (5.0.0)) date 04/15/19 16:44:06*
%MOMM*%
%LPD*%
G01*
G04 APERTURE LIST*
%ADD10C,0.100000*%
G04 APERTURE END LIST*
D10*
G36*
X73087800Y-46113000D02*
X71285800Y-46113000D01*
X71285800Y-44311000D01*
X73087800Y-44311000D01*
X73087800Y-46113000D01*
X73087800Y-46113000D01*
G37*
G36*
X69757243Y-44317519D02*
X69823427Y-44324037D01*
X69911399Y-44350723D01*
X69993267Y-44375557D01*
X70091557Y-44428095D01*
X70149791Y-44459222D01*
X70185529Y-44488552D01*
X70286986Y-44571814D01*
X70342617Y-44639602D01*
X70399578Y-44709009D01*
X70399579Y-44709011D01*
X70483243Y-44865533D01*
X70493333Y-44898796D01*
X70534763Y-45035373D01*
X70552159Y-45212000D01*
X70534763Y-45388627D01*
X70500416Y-45501853D01*
X70483243Y-45558467D01*
X70409148Y-45697087D01*
X70399578Y-45714991D01*
X70370248Y-45750729D01*
X70286986Y-45852186D01*
X70185529Y-45935448D01*
X70149791Y-45964778D01*
X70149789Y-45964779D01*
X69993267Y-46048443D01*
X69970919Y-46055222D01*
X69823427Y-46099963D01*
X69757242Y-46106482D01*
X69691060Y-46113000D01*
X69602540Y-46113000D01*
X69536358Y-46106482D01*
X69470173Y-46099963D01*
X69322681Y-46055222D01*
X69300333Y-46048443D01*
X69143811Y-45964779D01*
X69143809Y-45964778D01*
X69108071Y-45935448D01*
X69006614Y-45852186D01*
X68923352Y-45750729D01*
X68894022Y-45714991D01*
X68884452Y-45697087D01*
X68810357Y-45558467D01*
X68793184Y-45501853D01*
X68758837Y-45388627D01*
X68741441Y-45212000D01*
X68758837Y-45035373D01*
X68800267Y-44898796D01*
X68810357Y-44865533D01*
X68894021Y-44709011D01*
X68894022Y-44709009D01*
X68950983Y-44639602D01*
X69006614Y-44571814D01*
X69108071Y-44488552D01*
X69143809Y-44459222D01*
X69202043Y-44428095D01*
X69300333Y-44375557D01*
X69382201Y-44350723D01*
X69470173Y-44324037D01*
X69536357Y-44317519D01*
X69602540Y-44311000D01*
X69691060Y-44311000D01*
X69757243Y-44317519D01*
X69757243Y-44317519D01*
G37*
G36*
X67217243Y-44317519D02*
X67283427Y-44324037D01*
X67371399Y-44350723D01*
X67453267Y-44375557D01*
X67551557Y-44428095D01*
X67609791Y-44459222D01*
X67645529Y-44488552D01*
X67746986Y-44571814D01*
X67802617Y-44639602D01*
X67859578Y-44709009D01*
X67859579Y-44709011D01*
X67943243Y-44865533D01*
X67953333Y-44898796D01*
X67994763Y-45035373D01*
X68012159Y-45212000D01*
X67994763Y-45388627D01*
X67960416Y-45501853D01*
X67943243Y-45558467D01*
X67869148Y-45697087D01*
X67859578Y-45714991D01*
X67830248Y-45750729D01*
X67746986Y-45852186D01*
X67645529Y-45935448D01*
X67609791Y-45964778D01*
X67609789Y-45964779D01*
X67453267Y-46048443D01*
X67430919Y-46055222D01*
X67283427Y-46099963D01*
X67217242Y-46106482D01*
X67151060Y-46113000D01*
X67062540Y-46113000D01*
X66996358Y-46106482D01*
X66930173Y-46099963D01*
X66782681Y-46055222D01*
X66760333Y-46048443D01*
X66603811Y-45964779D01*
X66603809Y-45964778D01*
X66568071Y-45935448D01*
X66466614Y-45852186D01*
X66383352Y-45750729D01*
X66354022Y-45714991D01*
X66344452Y-45697087D01*
X66270357Y-45558467D01*
X66253184Y-45501853D01*
X66218837Y-45388627D01*
X66201441Y-45212000D01*
X66218837Y-45035373D01*
X66260267Y-44898796D01*
X66270357Y-44865533D01*
X66354021Y-44709011D01*
X66354022Y-44709009D01*
X66410983Y-44639602D01*
X66466614Y-44571814D01*
X66568071Y-44488552D01*
X66603809Y-44459222D01*
X66662043Y-44428095D01*
X66760333Y-44375557D01*
X66842201Y-44350723D01*
X66930173Y-44324037D01*
X66996357Y-44317519D01*
X67062540Y-44311000D01*
X67151060Y-44311000D01*
X67217243Y-44317519D01*
X67217243Y-44317519D01*
G37*
G36*
X62137243Y-44317519D02*
X62203427Y-44324037D01*
X62291399Y-44350723D01*
X62373267Y-44375557D01*
X62471557Y-44428095D01*
X62529791Y-44459222D01*
X62565529Y-44488552D01*
X62666986Y-44571814D01*
X62722617Y-44639602D01*
X62779578Y-44709009D01*
X62779579Y-44709011D01*
X62863243Y-44865533D01*
X62873333Y-44898796D01*
X62914763Y-45035373D01*
X62932159Y-45212000D01*
X62914763Y-45388627D01*
X62880416Y-45501853D01*
X62863243Y-45558467D01*
X62789148Y-45697087D01*
X62779578Y-45714991D01*
X62750248Y-45750729D01*
X62666986Y-45852186D01*
X62565529Y-45935448D01*
X62529791Y-45964778D01*
X62529789Y-45964779D01*
X62373267Y-46048443D01*
X62350919Y-46055222D01*
X62203427Y-46099963D01*
X62137242Y-46106482D01*
X62071060Y-46113000D01*
X61982540Y-46113000D01*
X61916358Y-46106482D01*
X61850173Y-46099963D01*
X61702681Y-46055222D01*
X61680333Y-46048443D01*
X61523811Y-45964779D01*
X61523809Y-45964778D01*
X61488071Y-45935448D01*
X61386614Y-45852186D01*
X61303352Y-45750729D01*
X61274022Y-45714991D01*
X61264452Y-45697087D01*
X61190357Y-45558467D01*
X61173184Y-45501853D01*
X61138837Y-45388627D01*
X61121441Y-45212000D01*
X61138837Y-45035373D01*
X61180267Y-44898796D01*
X61190357Y-44865533D01*
X61274021Y-44709011D01*
X61274022Y-44709009D01*
X61330983Y-44639602D01*
X61386614Y-44571814D01*
X61488071Y-44488552D01*
X61523809Y-44459222D01*
X61582043Y-44428095D01*
X61680333Y-44375557D01*
X61762201Y-44350723D01*
X61850173Y-44324037D01*
X61916357Y-44317519D01*
X61982540Y-44311000D01*
X62071060Y-44311000D01*
X62137243Y-44317519D01*
X62137243Y-44317519D01*
G37*
G36*
X64677243Y-44317519D02*
X64743427Y-44324037D01*
X64831399Y-44350723D01*
X64913267Y-44375557D01*
X65011557Y-44428095D01*
X65069791Y-44459222D01*
X65105529Y-44488552D01*
X65206986Y-44571814D01*
X65262617Y-44639602D01*
X65319578Y-44709009D01*
X65319579Y-44709011D01*
X65403243Y-44865533D01*
X65413333Y-44898796D01*
X65454763Y-45035373D01*
X65472159Y-45212000D01*
X65454763Y-45388627D01*
X65420416Y-45501853D01*
X65403243Y-45558467D01*
X65329148Y-45697087D01*
X65319578Y-45714991D01*
X65290248Y-45750729D01*
X65206986Y-45852186D01*
X65105529Y-45935448D01*
X65069791Y-45964778D01*
X65069789Y-45964779D01*
X64913267Y-46048443D01*
X64890919Y-46055222D01*
X64743427Y-46099963D01*
X64677242Y-46106482D01*
X64611060Y-46113000D01*
X64522540Y-46113000D01*
X64456358Y-46106482D01*
X64390173Y-46099963D01*
X64242681Y-46055222D01*
X64220333Y-46048443D01*
X64063811Y-45964779D01*
X64063809Y-45964778D01*
X64028071Y-45935448D01*
X63926614Y-45852186D01*
X63843352Y-45750729D01*
X63814022Y-45714991D01*
X63804452Y-45697087D01*
X63730357Y-45558467D01*
X63713184Y-45501853D01*
X63678837Y-45388627D01*
X63661441Y-45212000D01*
X63678837Y-45035373D01*
X63720267Y-44898796D01*
X63730357Y-44865533D01*
X63814021Y-44709011D01*
X63814022Y-44709009D01*
X63870983Y-44639602D01*
X63926614Y-44571814D01*
X64028071Y-44488552D01*
X64063809Y-44459222D01*
X64122043Y-44428095D01*
X64220333Y-44375557D01*
X64302201Y-44350723D01*
X64390173Y-44324037D01*
X64456357Y-44317519D01*
X64522540Y-44311000D01*
X64611060Y-44311000D01*
X64677243Y-44317519D01*
X64677243Y-44317519D01*
G37*
G36*
X102452762Y-44239381D02*
X102487677Y-44249973D01*
X102519865Y-44267178D01*
X102548073Y-44290327D01*
X102571222Y-44318535D01*
X102588427Y-44350723D01*
X102599019Y-44385638D01*
X102603200Y-44428095D01*
X102603200Y-45894305D01*
X102599019Y-45936762D01*
X102588427Y-45971677D01*
X102571222Y-46003865D01*
X102548073Y-46032073D01*
X102519865Y-46055222D01*
X102487677Y-46072427D01*
X102452762Y-46083019D01*
X102410305Y-46087200D01*
X101269095Y-46087200D01*
X101226638Y-46083019D01*
X101191723Y-46072427D01*
X101159535Y-46055222D01*
X101131327Y-46032073D01*
X101108178Y-46003865D01*
X101090973Y-45971677D01*
X101080381Y-45936762D01*
X101076200Y-45894305D01*
X101076200Y-44428095D01*
X101080381Y-44385638D01*
X101090973Y-44350723D01*
X101108178Y-44318535D01*
X101131327Y-44290327D01*
X101159535Y-44267178D01*
X101191723Y-44249973D01*
X101226638Y-44239381D01*
X101269095Y-44235200D01*
X102410305Y-44235200D01*
X102452762Y-44239381D01*
X102452762Y-44239381D01*
G37*
G36*
X105427762Y-44239381D02*
X105462677Y-44249973D01*
X105494865Y-44267178D01*
X105523073Y-44290327D01*
X105546222Y-44318535D01*
X105563427Y-44350723D01*
X105574019Y-44385638D01*
X105578200Y-44428095D01*
X105578200Y-45894305D01*
X105574019Y-45936762D01*
X105563427Y-45971677D01*
X105546222Y-46003865D01*
X105523073Y-46032073D01*
X105494865Y-46055222D01*
X105462677Y-46072427D01*
X105427762Y-46083019D01*
X105385305Y-46087200D01*
X104244095Y-46087200D01*
X104201638Y-46083019D01*
X104166723Y-46072427D01*
X104134535Y-46055222D01*
X104106327Y-46032073D01*
X104083178Y-46003865D01*
X104065973Y-45971677D01*
X104055381Y-45936762D01*
X104051200Y-45894305D01*
X104051200Y-44428095D01*
X104055381Y-44385638D01*
X104065973Y-44350723D01*
X104083178Y-44318535D01*
X104106327Y-44290327D01*
X104134535Y-44267178D01*
X104166723Y-44249973D01*
X104201638Y-44239381D01*
X104244095Y-44235200D01*
X105385305Y-44235200D01*
X105427762Y-44239381D01*
X105427762Y-44239381D01*
G37*
G36*
X23297334Y-42987632D02*
X23506802Y-43074396D01*
X23695323Y-43200362D01*
X23855638Y-43360677D01*
X23981604Y-43549198D01*
X24068368Y-43758666D01*
X24112600Y-43981035D01*
X24112600Y-44207765D01*
X24068368Y-44430134D01*
X23981604Y-44639602D01*
X23855638Y-44828123D01*
X23695323Y-44988438D01*
X23506802Y-45114404D01*
X23297334Y-45201168D01*
X23074965Y-45245400D01*
X22848235Y-45245400D01*
X22625866Y-45201168D01*
X22416398Y-45114404D01*
X22227877Y-44988438D01*
X22067562Y-44828123D01*
X21941596Y-44639602D01*
X21854832Y-44430134D01*
X21810600Y-44207765D01*
X21810600Y-43981035D01*
X21854832Y-43758666D01*
X21941596Y-43549198D01*
X22067562Y-43360677D01*
X22227877Y-43200362D01*
X22416398Y-43074396D01*
X22625866Y-42987632D01*
X22848235Y-42943400D01*
X23074965Y-42943400D01*
X23297334Y-42987632D01*
X23297334Y-42987632D01*
G37*
G36*
X117328134Y-42936832D02*
X117537602Y-43023596D01*
X117726123Y-43149562D01*
X117886438Y-43309877D01*
X118012404Y-43498398D01*
X118099168Y-43707866D01*
X118143400Y-43930235D01*
X118143400Y-44156965D01*
X118099168Y-44379334D01*
X118012404Y-44588802D01*
X117886438Y-44777323D01*
X117726123Y-44937638D01*
X117537602Y-45063604D01*
X117328134Y-45150368D01*
X117105765Y-45194600D01*
X116879035Y-45194600D01*
X116656666Y-45150368D01*
X116447198Y-45063604D01*
X116258677Y-44937638D01*
X116098362Y-44777323D01*
X115972396Y-44588802D01*
X115885632Y-44379334D01*
X115841400Y-44156965D01*
X115841400Y-43930235D01*
X115885632Y-43707866D01*
X115972396Y-43498398D01*
X116098362Y-43309877D01*
X116258677Y-43149562D01*
X116447198Y-43023596D01*
X116656666Y-42936832D01*
X116879035Y-42892600D01*
X117105765Y-42892600D01*
X117328134Y-42936832D01*
X117328134Y-42936832D01*
G37*
G36*
X57333299Y-43915745D02*
X57370793Y-43927119D01*
X57405357Y-43945594D01*
X57435647Y-43970453D01*
X57460506Y-44000743D01*
X57478981Y-44035307D01*
X57490355Y-44072801D01*
X57494800Y-44117938D01*
X57494800Y-44756662D01*
X57490355Y-44801799D01*
X57478981Y-44839293D01*
X57460506Y-44873857D01*
X57435647Y-44904147D01*
X57405357Y-44929006D01*
X57370793Y-44947481D01*
X57333299Y-44958855D01*
X57288162Y-44963300D01*
X56549438Y-44963300D01*
X56504301Y-44958855D01*
X56466807Y-44947481D01*
X56432243Y-44929006D01*
X56401953Y-44904147D01*
X56377094Y-44873857D01*
X56358619Y-44839293D01*
X56347245Y-44801799D01*
X56342800Y-44756662D01*
X56342800Y-44117938D01*
X56347245Y-44072801D01*
X56358619Y-44035307D01*
X56377094Y-44000743D01*
X56401953Y-43970453D01*
X56432243Y-43945594D01*
X56466807Y-43927119D01*
X56504301Y-43915745D01*
X56549438Y-43911300D01*
X57288162Y-43911300D01*
X57333299Y-43915745D01*
X57333299Y-43915745D01*
G37*
G36*
X53551299Y-43915745D02*
X53588793Y-43927119D01*
X53623357Y-43945594D01*
X53653647Y-43970453D01*
X53678506Y-44000743D01*
X53696981Y-44035307D01*
X53708355Y-44072801D01*
X53712800Y-44117938D01*
X53712800Y-44756662D01*
X53708355Y-44801799D01*
X53696981Y-44839293D01*
X53678506Y-44873857D01*
X53653647Y-44904147D01*
X53623357Y-44929006D01*
X53588793Y-44947481D01*
X53551299Y-44958855D01*
X53506162Y-44963300D01*
X52767438Y-44963300D01*
X52722301Y-44958855D01*
X52684807Y-44947481D01*
X52650243Y-44929006D01*
X52619953Y-44904147D01*
X52595094Y-44873857D01*
X52576619Y-44839293D01*
X52565245Y-44801799D01*
X52560800Y-44756662D01*
X52560800Y-44117938D01*
X52565245Y-44072801D01*
X52576619Y-44035307D01*
X52595094Y-44000743D01*
X52619953Y-43970453D01*
X52650243Y-43945594D01*
X52684807Y-43927119D01*
X52722301Y-43915745D01*
X52767438Y-43911300D01*
X53506162Y-43911300D01*
X53551299Y-43915745D01*
X53551299Y-43915745D01*
G37*
G36*
X51801299Y-43915745D02*
X51838793Y-43927119D01*
X51873357Y-43945594D01*
X51903647Y-43970453D01*
X51928506Y-44000743D01*
X51946981Y-44035307D01*
X51958355Y-44072801D01*
X51962800Y-44117938D01*
X51962800Y-44756662D01*
X51958355Y-44801799D01*
X51946981Y-44839293D01*
X51928506Y-44873857D01*
X51903647Y-44904147D01*
X51873357Y-44929006D01*
X51838793Y-44947481D01*
X51801299Y-44958855D01*
X51756162Y-44963300D01*
X51017438Y-44963300D01*
X50972301Y-44958855D01*
X50934807Y-44947481D01*
X50900243Y-44929006D01*
X50869953Y-44904147D01*
X50845094Y-44873857D01*
X50826619Y-44839293D01*
X50815245Y-44801799D01*
X50810800Y-44756662D01*
X50810800Y-44117938D01*
X50815245Y-44072801D01*
X50826619Y-44035307D01*
X50845094Y-44000743D01*
X50869953Y-43970453D01*
X50900243Y-43945594D01*
X50934807Y-43927119D01*
X50972301Y-43915745D01*
X51017438Y-43911300D01*
X51756162Y-43911300D01*
X51801299Y-43915745D01*
X51801299Y-43915745D01*
G37*
G36*
X55583299Y-43915745D02*
X55620793Y-43927119D01*
X55655357Y-43945594D01*
X55685647Y-43970453D01*
X55710506Y-44000743D01*
X55728981Y-44035307D01*
X55740355Y-44072801D01*
X55744800Y-44117938D01*
X55744800Y-44756662D01*
X55740355Y-44801799D01*
X55728981Y-44839293D01*
X55710506Y-44873857D01*
X55685647Y-44904147D01*
X55655357Y-44929006D01*
X55620793Y-44947481D01*
X55583299Y-44958855D01*
X55538162Y-44963300D01*
X54799438Y-44963300D01*
X54754301Y-44958855D01*
X54716807Y-44947481D01*
X54682243Y-44929006D01*
X54651953Y-44904147D01*
X54627094Y-44873857D01*
X54608619Y-44839293D01*
X54597245Y-44801799D01*
X54592800Y-44756662D01*
X54592800Y-44117938D01*
X54597245Y-44072801D01*
X54608619Y-44035307D01*
X54627094Y-44000743D01*
X54651953Y-43970453D01*
X54682243Y-43945594D01*
X54716807Y-43927119D01*
X54754301Y-43915745D01*
X54799438Y-43911300D01*
X55538162Y-43911300D01*
X55583299Y-43915745D01*
X55583299Y-43915745D01*
G37*
G36*
X49742099Y-43788245D02*
X49779593Y-43799619D01*
X49814157Y-43818094D01*
X49844447Y-43842953D01*
X49869306Y-43873243D01*
X49887781Y-43907807D01*
X49899155Y-43945301D01*
X49903600Y-43990438D01*
X49903600Y-44729162D01*
X49899155Y-44774299D01*
X49887781Y-44811793D01*
X49869306Y-44846357D01*
X49844447Y-44876647D01*
X49814157Y-44901506D01*
X49779593Y-44919981D01*
X49742099Y-44931355D01*
X49696962Y-44935800D01*
X49058238Y-44935800D01*
X49013101Y-44931355D01*
X48975607Y-44919981D01*
X48941043Y-44901506D01*
X48910753Y-44876647D01*
X48885894Y-44846357D01*
X48867419Y-44811793D01*
X48856045Y-44774299D01*
X48851600Y-44729162D01*
X48851600Y-43990438D01*
X48856045Y-43945301D01*
X48867419Y-43907807D01*
X48885894Y-43873243D01*
X48910753Y-43842953D01*
X48941043Y-43818094D01*
X48975607Y-43799619D01*
X49013101Y-43788245D01*
X49058238Y-43783800D01*
X49696962Y-43783800D01*
X49742099Y-43788245D01*
X49742099Y-43788245D01*
G37*
G36*
X45080467Y-42827804D02*
X45103892Y-42834910D01*
X45125489Y-42846454D01*
X45144414Y-42861986D01*
X45159946Y-42880911D01*
X45171490Y-42902508D01*
X45178596Y-42925933D01*
X45181600Y-42956438D01*
X45181600Y-44770162D01*
X45178596Y-44800667D01*
X45171490Y-44824092D01*
X45159946Y-44845689D01*
X45144414Y-44864614D01*
X45125489Y-44880146D01*
X45103892Y-44891690D01*
X45080467Y-44898796D01*
X45049962Y-44901800D01*
X44561238Y-44901800D01*
X44530733Y-44898796D01*
X44507308Y-44891690D01*
X44485711Y-44880146D01*
X44466786Y-44864614D01*
X44451254Y-44845689D01*
X44439710Y-44824092D01*
X44432604Y-44800667D01*
X44429600Y-44770162D01*
X44429600Y-42956438D01*
X44432604Y-42925933D01*
X44439710Y-42902508D01*
X44451254Y-42880911D01*
X44466786Y-42861986D01*
X44485711Y-42846454D01*
X44507308Y-42834910D01*
X44530733Y-42827804D01*
X44561238Y-42824800D01*
X45049962Y-42824800D01*
X45080467Y-42827804D01*
X45080467Y-42827804D01*
G37*
G36*
X43810467Y-42827804D02*
X43833892Y-42834910D01*
X43855489Y-42846454D01*
X43874414Y-42861986D01*
X43889946Y-42880911D01*
X43901490Y-42902508D01*
X43908596Y-42925933D01*
X43911600Y-42956438D01*
X43911600Y-44770162D01*
X43908596Y-44800667D01*
X43901490Y-44824092D01*
X43889946Y-44845689D01*
X43874414Y-44864614D01*
X43855489Y-44880146D01*
X43833892Y-44891690D01*
X43810467Y-44898796D01*
X43779962Y-44901800D01*
X43291238Y-44901800D01*
X43260733Y-44898796D01*
X43237308Y-44891690D01*
X43215711Y-44880146D01*
X43196786Y-44864614D01*
X43181254Y-44845689D01*
X43169710Y-44824092D01*
X43162604Y-44800667D01*
X43159600Y-44770162D01*
X43159600Y-42956438D01*
X43162604Y-42925933D01*
X43169710Y-42902508D01*
X43181254Y-42880911D01*
X43196786Y-42861986D01*
X43215711Y-42846454D01*
X43237308Y-42834910D01*
X43260733Y-42827804D01*
X43291238Y-42824800D01*
X43779962Y-42824800D01*
X43810467Y-42827804D01*
X43810467Y-42827804D01*
G37*
G36*
X46350467Y-42827804D02*
X46373892Y-42834910D01*
X46395489Y-42846454D01*
X46414414Y-42861986D01*
X46429946Y-42880911D01*
X46441490Y-42902508D01*
X46448596Y-42925933D01*
X46451600Y-42956438D01*
X46451600Y-44770162D01*
X46448596Y-44800667D01*
X46441490Y-44824092D01*
X46429946Y-44845689D01*
X46414414Y-44864614D01*
X46395489Y-44880146D01*
X46373892Y-44891690D01*
X46350467Y-44898796D01*
X46319962Y-44901800D01*
X45831238Y-44901800D01*
X45800733Y-44898796D01*
X45777308Y-44891690D01*
X45755711Y-44880146D01*
X45736786Y-44864614D01*
X45721254Y-44845689D01*
X45709710Y-44824092D01*
X45702604Y-44800667D01*
X45699600Y-44770162D01*
X45699600Y-42956438D01*
X45702604Y-42925933D01*
X45709710Y-42902508D01*
X45721254Y-42880911D01*
X45736786Y-42861986D01*
X45755711Y-42846454D01*
X45777308Y-42834910D01*
X45800733Y-42827804D01*
X45831238Y-42824800D01*
X46319962Y-42824800D01*
X46350467Y-42827804D01*
X46350467Y-42827804D01*
G37*
G36*
X47620467Y-42827804D02*
X47643892Y-42834910D01*
X47665489Y-42846454D01*
X47684414Y-42861986D01*
X47699946Y-42880911D01*
X47711490Y-42902508D01*
X47718596Y-42925933D01*
X47721600Y-42956438D01*
X47721600Y-44770162D01*
X47718596Y-44800667D01*
X47711490Y-44824092D01*
X47699946Y-44845689D01*
X47684414Y-44864614D01*
X47665489Y-44880146D01*
X47643892Y-44891690D01*
X47620467Y-44898796D01*
X47589962Y-44901800D01*
X47101238Y-44901800D01*
X47070733Y-44898796D01*
X47047308Y-44891690D01*
X47025711Y-44880146D01*
X47006786Y-44864614D01*
X46991254Y-44845689D01*
X46979710Y-44824092D01*
X46972604Y-44800667D01*
X46969600Y-44770162D01*
X46969600Y-42956438D01*
X46972604Y-42925933D01*
X46979710Y-42902508D01*
X46991254Y-42880911D01*
X47006786Y-42861986D01*
X47025711Y-42846454D01*
X47047308Y-42834910D01*
X47070733Y-42827804D01*
X47101238Y-42824800D01*
X47589962Y-42824800D01*
X47620467Y-42827804D01*
X47620467Y-42827804D01*
G37*
G36*
X41868099Y-43686645D02*
X41905593Y-43698019D01*
X41940157Y-43716494D01*
X41970447Y-43741353D01*
X41995306Y-43771643D01*
X42013781Y-43806207D01*
X42025155Y-43843701D01*
X42029600Y-43888838D01*
X42029600Y-44627562D01*
X42025155Y-44672699D01*
X42013781Y-44710193D01*
X41995306Y-44744757D01*
X41970447Y-44775047D01*
X41940157Y-44799906D01*
X41905593Y-44818381D01*
X41868099Y-44829755D01*
X41822962Y-44834200D01*
X41184238Y-44834200D01*
X41139101Y-44829755D01*
X41101607Y-44818381D01*
X41067043Y-44799906D01*
X41036753Y-44775047D01*
X41011894Y-44744757D01*
X40993419Y-44710193D01*
X40982045Y-44672699D01*
X40977600Y-44627562D01*
X40977600Y-43888838D01*
X40982045Y-43843701D01*
X40993419Y-43806207D01*
X41011894Y-43771643D01*
X41036753Y-43741353D01*
X41067043Y-43716494D01*
X41101607Y-43698019D01*
X41139101Y-43686645D01*
X41184238Y-43682200D01*
X41822962Y-43682200D01*
X41868099Y-43686645D01*
X41868099Y-43686645D01*
G37*
G36*
X40039299Y-43675245D02*
X40076793Y-43686619D01*
X40111357Y-43705094D01*
X40141647Y-43729953D01*
X40166506Y-43760243D01*
X40184981Y-43794807D01*
X40196355Y-43832301D01*
X40200800Y-43877438D01*
X40200800Y-44616162D01*
X40196355Y-44661299D01*
X40184981Y-44698793D01*
X40166506Y-44733357D01*
X40141647Y-44763647D01*
X40111357Y-44788506D01*
X40076793Y-44806981D01*
X40039299Y-44818355D01*
X39994162Y-44822800D01*
X39355438Y-44822800D01*
X39310301Y-44818355D01*
X39272807Y-44806981D01*
X39238243Y-44788506D01*
X39207953Y-44763647D01*
X39183094Y-44733357D01*
X39164619Y-44698793D01*
X39153245Y-44661299D01*
X39148800Y-44616162D01*
X39148800Y-43877438D01*
X39153245Y-43832301D01*
X39164619Y-43794807D01*
X39183094Y-43760243D01*
X39207953Y-43729953D01*
X39238243Y-43705094D01*
X39272807Y-43686619D01*
X39310301Y-43675245D01*
X39355438Y-43670800D01*
X39994162Y-43670800D01*
X40039299Y-43675245D01*
X40039299Y-43675245D01*
G37*
G36*
X38280200Y-44631800D02*
X37278200Y-44631800D01*
X37278200Y-43729800D01*
X38280200Y-43729800D01*
X38280200Y-44631800D01*
X38280200Y-44631800D01*
G37*
G36*
X84082899Y-43127845D02*
X84120393Y-43139219D01*
X84154957Y-43157694D01*
X84185247Y-43182553D01*
X84210106Y-43212843D01*
X84228581Y-43247407D01*
X84239955Y-43284901D01*
X84244400Y-43330038D01*
X84244400Y-44068762D01*
X84239955Y-44113899D01*
X84228581Y-44151393D01*
X84210106Y-44185957D01*
X84185247Y-44216247D01*
X84154957Y-44241106D01*
X84120393Y-44259581D01*
X84082899Y-44270955D01*
X84037762Y-44275400D01*
X83399038Y-44275400D01*
X83353901Y-44270955D01*
X83316407Y-44259581D01*
X83281843Y-44241106D01*
X83251553Y-44216247D01*
X83226694Y-44185957D01*
X83208219Y-44151393D01*
X83196845Y-44113899D01*
X83192400Y-44068762D01*
X83192400Y-43330038D01*
X83196845Y-43284901D01*
X83208219Y-43247407D01*
X83226694Y-43212843D01*
X83251553Y-43182553D01*
X83281843Y-43157694D01*
X83316407Y-43139219D01*
X83353901Y-43127845D01*
X83399038Y-43123400D01*
X84037762Y-43123400D01*
X84082899Y-43127845D01*
X84082899Y-43127845D01*
G37*
G36*
X82050899Y-43127845D02*
X82088393Y-43139219D01*
X82122957Y-43157694D01*
X82153247Y-43182553D01*
X82178106Y-43212843D01*
X82196581Y-43247407D01*
X82207955Y-43284901D01*
X82212400Y-43330038D01*
X82212400Y-44068762D01*
X82207955Y-44113899D01*
X82196581Y-44151393D01*
X82178106Y-44185957D01*
X82153247Y-44216247D01*
X82122957Y-44241106D01*
X82088393Y-44259581D01*
X82050899Y-44270955D01*
X82005762Y-44275400D01*
X81367038Y-44275400D01*
X81321901Y-44270955D01*
X81284407Y-44259581D01*
X81249843Y-44241106D01*
X81219553Y-44216247D01*
X81194694Y-44185957D01*
X81176219Y-44151393D01*
X81164845Y-44113899D01*
X81160400Y-44068762D01*
X81160400Y-43330038D01*
X81164845Y-43284901D01*
X81176219Y-43247407D01*
X81194694Y-43212843D01*
X81219553Y-43182553D01*
X81249843Y-43157694D01*
X81284407Y-43139219D01*
X81321901Y-43127845D01*
X81367038Y-43123400D01*
X82005762Y-43123400D01*
X82050899Y-43127845D01*
X82050899Y-43127845D01*
G37*
G36*
X86368899Y-43113845D02*
X86406393Y-43125219D01*
X86440957Y-43143694D01*
X86471247Y-43168553D01*
X86496106Y-43198843D01*
X86514581Y-43233407D01*
X86525955Y-43270901D01*
X86530400Y-43316038D01*
X86530400Y-44054762D01*
X86525955Y-44099899D01*
X86514581Y-44137393D01*
X86496106Y-44171957D01*
X86471247Y-44202247D01*
X86440957Y-44227106D01*
X86406393Y-44245581D01*
X86368899Y-44256955D01*
X86323762Y-44261400D01*
X85685038Y-44261400D01*
X85639901Y-44256955D01*
X85602407Y-44245581D01*
X85567843Y-44227106D01*
X85537553Y-44202247D01*
X85512694Y-44171957D01*
X85494219Y-44137393D01*
X85482845Y-44099899D01*
X85478400Y-44054762D01*
X85478400Y-43316038D01*
X85482845Y-43270901D01*
X85494219Y-43233407D01*
X85512694Y-43198843D01*
X85537553Y-43168553D01*
X85567843Y-43143694D01*
X85602407Y-43125219D01*
X85639901Y-43113845D01*
X85685038Y-43109400D01*
X86323762Y-43109400D01*
X86368899Y-43113845D01*
X86368899Y-43113845D01*
G37*
G36*
X36280200Y-43681800D02*
X35278200Y-43681800D01*
X35278200Y-42779800D01*
X36280200Y-42779800D01*
X36280200Y-43681800D01*
X36280200Y-43681800D01*
G37*
G36*
X57527300Y-43207800D02*
X56625300Y-43207800D01*
X56625300Y-42205800D01*
X57527300Y-42205800D01*
X57527300Y-43207800D01*
X57527300Y-43207800D01*
G37*
G36*
X59427300Y-43207800D02*
X58525300Y-43207800D01*
X58525300Y-42205800D01*
X59427300Y-42205800D01*
X59427300Y-43207800D01*
X59427300Y-43207800D01*
G37*
G36*
X49742099Y-42038245D02*
X49779593Y-42049619D01*
X49814157Y-42068094D01*
X49844447Y-42092953D01*
X49869306Y-42123243D01*
X49887781Y-42157807D01*
X49899155Y-42195301D01*
X49903600Y-42240438D01*
X49903600Y-42979162D01*
X49899155Y-43024299D01*
X49887781Y-43061793D01*
X49869306Y-43096357D01*
X49844447Y-43126647D01*
X49814157Y-43151506D01*
X49779593Y-43169981D01*
X49742099Y-43181355D01*
X49696962Y-43185800D01*
X49058238Y-43185800D01*
X49013101Y-43181355D01*
X48975607Y-43169981D01*
X48941043Y-43151506D01*
X48910753Y-43126647D01*
X48885894Y-43096357D01*
X48867419Y-43061793D01*
X48856045Y-43024299D01*
X48851600Y-42979162D01*
X48851600Y-42240438D01*
X48856045Y-42195301D01*
X48867419Y-42157807D01*
X48885894Y-42123243D01*
X48910753Y-42092953D01*
X48941043Y-42068094D01*
X48975607Y-42049619D01*
X49013101Y-42038245D01*
X49058238Y-42033800D01*
X49696962Y-42033800D01*
X49742099Y-42038245D01*
X49742099Y-42038245D01*
G37*
G36*
X55469799Y-41946745D02*
X55507293Y-41958119D01*
X55541857Y-41976594D01*
X55572147Y-42001453D01*
X55597006Y-42031743D01*
X55615481Y-42066307D01*
X55626855Y-42103801D01*
X55631300Y-42148938D01*
X55631300Y-42887662D01*
X55626855Y-42932799D01*
X55615481Y-42970293D01*
X55597006Y-43004857D01*
X55572147Y-43035147D01*
X55541857Y-43060006D01*
X55507293Y-43078481D01*
X55469799Y-43089855D01*
X55424662Y-43094300D01*
X54785938Y-43094300D01*
X54740801Y-43089855D01*
X54703307Y-43078481D01*
X54668743Y-43060006D01*
X54638453Y-43035147D01*
X54613594Y-43004857D01*
X54595119Y-42970293D01*
X54583745Y-42932799D01*
X54579300Y-42887662D01*
X54579300Y-42148938D01*
X54583745Y-42103801D01*
X54595119Y-42066307D01*
X54613594Y-42031743D01*
X54638453Y-42001453D01*
X54668743Y-41976594D01*
X54703307Y-41958119D01*
X54740801Y-41946745D01*
X54785938Y-41942300D01*
X55424662Y-41942300D01*
X55469799Y-41946745D01*
X55469799Y-41946745D01*
G37*
G36*
X41868099Y-41936645D02*
X41905593Y-41948019D01*
X41940157Y-41966494D01*
X41970447Y-41991353D01*
X41995306Y-42021643D01*
X42013781Y-42056207D01*
X42025155Y-42093701D01*
X42029600Y-42138838D01*
X42029600Y-42877562D01*
X42025155Y-42922699D01*
X42013781Y-42960193D01*
X41995306Y-42994757D01*
X41970447Y-43025047D01*
X41940157Y-43049906D01*
X41905593Y-43068381D01*
X41868099Y-43079755D01*
X41822962Y-43084200D01*
X41184238Y-43084200D01*
X41139101Y-43079755D01*
X41101607Y-43068381D01*
X41067043Y-43049906D01*
X41036753Y-43025047D01*
X41011894Y-42994757D01*
X40993419Y-42960193D01*
X40982045Y-42922699D01*
X40977600Y-42877562D01*
X40977600Y-42138838D01*
X40982045Y-42093701D01*
X40993419Y-42056207D01*
X41011894Y-42021643D01*
X41036753Y-41991353D01*
X41067043Y-41966494D01*
X41101607Y-41948019D01*
X41139101Y-41936645D01*
X41184238Y-41932200D01*
X41822962Y-41932200D01*
X41868099Y-41936645D01*
X41868099Y-41936645D01*
G37*
G36*
X40039299Y-41925245D02*
X40076793Y-41936619D01*
X40111357Y-41955094D01*
X40141647Y-41979953D01*
X40166506Y-42010243D01*
X40184981Y-42044807D01*
X40196355Y-42082301D01*
X40200800Y-42127438D01*
X40200800Y-42866162D01*
X40196355Y-42911299D01*
X40184981Y-42948793D01*
X40166506Y-42983357D01*
X40141647Y-43013647D01*
X40111357Y-43038506D01*
X40076793Y-43056981D01*
X40039299Y-43068355D01*
X39994162Y-43072800D01*
X39355438Y-43072800D01*
X39310301Y-43068355D01*
X39272807Y-43056981D01*
X39238243Y-43038506D01*
X39207953Y-43013647D01*
X39183094Y-42983357D01*
X39164619Y-42948793D01*
X39153245Y-42911299D01*
X39148800Y-42866162D01*
X39148800Y-42127438D01*
X39153245Y-42082301D01*
X39164619Y-42044807D01*
X39183094Y-42010243D01*
X39207953Y-41979953D01*
X39238243Y-41955094D01*
X39272807Y-41936619D01*
X39310301Y-41925245D01*
X39355438Y-41920800D01*
X39994162Y-41920800D01*
X40039299Y-41925245D01*
X40039299Y-41925245D01*
G37*
G36*
X51748800Y-43044300D02*
X50746800Y-43044300D01*
X50746800Y-42142300D01*
X51748800Y-42142300D01*
X51748800Y-43044300D01*
X51748800Y-43044300D01*
G37*
G36*
X38280200Y-42731800D02*
X37278200Y-42731800D01*
X37278200Y-41829800D01*
X38280200Y-41829800D01*
X38280200Y-42731800D01*
X38280200Y-42731800D01*
G37*
G36*
X91711800Y-42602800D02*
X90509800Y-42602800D01*
X90509800Y-40850800D01*
X91711800Y-40850800D01*
X91711800Y-42602800D01*
X91711800Y-42602800D01*
G37*
G36*
X95011800Y-42582800D02*
X93809800Y-42582800D01*
X93809800Y-40830800D01*
X95011800Y-40830800D01*
X95011800Y-42582800D01*
X95011800Y-42582800D01*
G37*
G36*
X84082899Y-41377845D02*
X84120393Y-41389219D01*
X84154957Y-41407694D01*
X84185247Y-41432553D01*
X84210106Y-41462843D01*
X84228581Y-41497407D01*
X84239955Y-41534901D01*
X84244400Y-41580038D01*
X84244400Y-42318762D01*
X84239955Y-42363899D01*
X84228581Y-42401393D01*
X84210106Y-42435957D01*
X84185247Y-42466247D01*
X84154957Y-42491106D01*
X84120393Y-42509581D01*
X84082899Y-42520955D01*
X84037762Y-42525400D01*
X83399038Y-42525400D01*
X83353901Y-42520955D01*
X83316407Y-42509581D01*
X83281843Y-42491106D01*
X83251553Y-42466247D01*
X83226694Y-42435957D01*
X83208219Y-42401393D01*
X83196845Y-42363899D01*
X83192400Y-42318762D01*
X83192400Y-41580038D01*
X83196845Y-41534901D01*
X83208219Y-41497407D01*
X83226694Y-41462843D01*
X83251553Y-41432553D01*
X83281843Y-41407694D01*
X83316407Y-41389219D01*
X83353901Y-41377845D01*
X83399038Y-41373400D01*
X84037762Y-41373400D01*
X84082899Y-41377845D01*
X84082899Y-41377845D01*
G37*
G36*
X82050899Y-41377845D02*
X82088393Y-41389219D01*
X82122957Y-41407694D01*
X82153247Y-41432553D01*
X82178106Y-41462843D01*
X82196581Y-41497407D01*
X82207955Y-41534901D01*
X82212400Y-41580038D01*
X82212400Y-42318762D01*
X82207955Y-42363899D01*
X82196581Y-42401393D01*
X82178106Y-42435957D01*
X82153247Y-42466247D01*
X82122957Y-42491106D01*
X82088393Y-42509581D01*
X82050899Y-42520955D01*
X82005762Y-42525400D01*
X81367038Y-42525400D01*
X81321901Y-42520955D01*
X81284407Y-42509581D01*
X81249843Y-42491106D01*
X81219553Y-42466247D01*
X81194694Y-42435957D01*
X81176219Y-42401393D01*
X81164845Y-42363899D01*
X81160400Y-42318762D01*
X81160400Y-41580038D01*
X81164845Y-41534901D01*
X81176219Y-41497407D01*
X81194694Y-41462843D01*
X81219553Y-41432553D01*
X81249843Y-41407694D01*
X81284407Y-41389219D01*
X81321901Y-41377845D01*
X81367038Y-41373400D01*
X82005762Y-41373400D01*
X82050899Y-41377845D01*
X82050899Y-41377845D01*
G37*
G36*
X86368899Y-41363845D02*
X86406393Y-41375219D01*
X86440957Y-41393694D01*
X86471247Y-41418553D01*
X86496106Y-41448843D01*
X86514581Y-41483407D01*
X86525955Y-41520901D01*
X86530400Y-41566038D01*
X86530400Y-42304762D01*
X86525955Y-42349899D01*
X86514581Y-42387393D01*
X86496106Y-42421957D01*
X86471247Y-42452247D01*
X86440957Y-42477106D01*
X86406393Y-42495581D01*
X86368899Y-42506955D01*
X86323762Y-42511400D01*
X85685038Y-42511400D01*
X85639901Y-42506955D01*
X85602407Y-42495581D01*
X85567843Y-42477106D01*
X85537553Y-42452247D01*
X85512694Y-42421957D01*
X85494219Y-42387393D01*
X85482845Y-42349899D01*
X85478400Y-42304762D01*
X85478400Y-41566038D01*
X85482845Y-41520901D01*
X85494219Y-41483407D01*
X85512694Y-41448843D01*
X85537553Y-41418553D01*
X85567843Y-41393694D01*
X85602407Y-41375219D01*
X85639901Y-41363845D01*
X85685038Y-41359400D01*
X86323762Y-41359400D01*
X86368899Y-41363845D01*
X86368899Y-41363845D01*
G37*
G36*
X78367899Y-41109845D02*
X78405393Y-41121219D01*
X78439957Y-41139694D01*
X78470247Y-41164553D01*
X78495106Y-41194843D01*
X78513581Y-41229407D01*
X78524955Y-41266901D01*
X78529400Y-41312038D01*
X78529400Y-42050762D01*
X78524955Y-42095899D01*
X78513581Y-42133393D01*
X78495106Y-42167957D01*
X78470247Y-42198247D01*
X78439957Y-42223106D01*
X78405393Y-42241581D01*
X78367899Y-42252955D01*
X78322762Y-42257400D01*
X77684038Y-42257400D01*
X77638901Y-42252955D01*
X77601407Y-42241581D01*
X77566843Y-42223106D01*
X77536553Y-42198247D01*
X77511694Y-42167957D01*
X77493219Y-42133393D01*
X77481845Y-42095899D01*
X77477400Y-42050762D01*
X77477400Y-41312038D01*
X77481845Y-41266901D01*
X77493219Y-41229407D01*
X77511694Y-41194843D01*
X77536553Y-41164553D01*
X77566843Y-41139694D01*
X77601407Y-41121219D01*
X77638901Y-41109845D01*
X77684038Y-41105400D01*
X78322762Y-41105400D01*
X78367899Y-41109845D01*
X78367899Y-41109845D01*
G37*
G36*
X98596899Y-41134445D02*
X98634393Y-41145819D01*
X98668957Y-41164294D01*
X98699247Y-41189153D01*
X98724106Y-41219443D01*
X98742581Y-41254007D01*
X98753955Y-41291501D01*
X98758400Y-41336638D01*
X98758400Y-41975362D01*
X98753955Y-42020499D01*
X98742581Y-42057993D01*
X98724106Y-42092557D01*
X98699247Y-42122847D01*
X98668957Y-42147706D01*
X98634393Y-42166181D01*
X98596899Y-42177555D01*
X98551762Y-42182000D01*
X97813038Y-42182000D01*
X97767901Y-42177555D01*
X97730407Y-42166181D01*
X97695843Y-42147706D01*
X97665553Y-42122847D01*
X97640694Y-42092557D01*
X97622219Y-42057993D01*
X97610845Y-42020499D01*
X97606400Y-41975362D01*
X97606400Y-41336638D01*
X97610845Y-41291501D01*
X97622219Y-41254007D01*
X97640694Y-41219443D01*
X97665553Y-41189153D01*
X97695843Y-41164294D01*
X97730407Y-41145819D01*
X97767901Y-41134445D01*
X97813038Y-41130000D01*
X98551762Y-41130000D01*
X98596899Y-41134445D01*
X98596899Y-41134445D01*
G37*
G36*
X96846899Y-41134445D02*
X96884393Y-41145819D01*
X96918957Y-41164294D01*
X96949247Y-41189153D01*
X96974106Y-41219443D01*
X96992581Y-41254007D01*
X97003955Y-41291501D01*
X97008400Y-41336638D01*
X97008400Y-41975362D01*
X97003955Y-42020499D01*
X96992581Y-42057993D01*
X96974106Y-42092557D01*
X96949247Y-42122847D01*
X96918957Y-42147706D01*
X96884393Y-42166181D01*
X96846899Y-42177555D01*
X96801762Y-42182000D01*
X96063038Y-42182000D01*
X96017901Y-42177555D01*
X95980407Y-42166181D01*
X95945843Y-42147706D01*
X95915553Y-42122847D01*
X95890694Y-42092557D01*
X95872219Y-42057993D01*
X95860845Y-42020499D01*
X95856400Y-41975362D01*
X95856400Y-41336638D01*
X95860845Y-41291501D01*
X95872219Y-41254007D01*
X95890694Y-41219443D01*
X95915553Y-41189153D01*
X95945843Y-41164294D01*
X95980407Y-41145819D01*
X96017901Y-41134445D01*
X96063038Y-41130000D01*
X96801762Y-41130000D01*
X96846899Y-41134445D01*
X96846899Y-41134445D01*
G37*
G36*
X53748800Y-42094300D02*
X52746800Y-42094300D01*
X52746800Y-41192300D01*
X53748800Y-41192300D01*
X53748800Y-42094300D01*
X53748800Y-42094300D01*
G37*
G36*
X110975809Y-37977338D02*
X111140897Y-38010176D01*
X111269724Y-38063538D01*
X111451914Y-38139003D01*
X111731827Y-38326035D01*
X111969865Y-38564073D01*
X112156897Y-38843986D01*
X112232362Y-39026176D01*
X112285724Y-39155003D01*
X112314221Y-39298269D01*
X112351400Y-39485177D01*
X112351400Y-39821823D01*
X112350410Y-39826800D01*
X112285724Y-40151997D01*
X112254924Y-40226354D01*
X112156897Y-40463014D01*
X111969865Y-40742927D01*
X111731827Y-40980965D01*
X111451914Y-41167997D01*
X111269724Y-41243462D01*
X111140897Y-41296824D01*
X110981747Y-41328481D01*
X110810723Y-41362500D01*
X110474077Y-41362500D01*
X110303053Y-41328481D01*
X110143903Y-41296824D01*
X110015076Y-41243462D01*
X109832886Y-41167997D01*
X109552973Y-40980965D01*
X109314935Y-40742927D01*
X109127903Y-40463014D01*
X109029876Y-40226354D01*
X108999076Y-40151997D01*
X108934390Y-39826800D01*
X108933400Y-39821823D01*
X108933400Y-39485177D01*
X108970579Y-39298269D01*
X108999076Y-39155003D01*
X109052438Y-39026176D01*
X109127903Y-38843986D01*
X109314935Y-38564073D01*
X109552973Y-38326035D01*
X109832886Y-38139003D01*
X110015076Y-38063538D01*
X110143903Y-38010176D01*
X110308991Y-37977338D01*
X110474077Y-37944500D01*
X110810723Y-37944500D01*
X110975809Y-37977338D01*
X110975809Y-37977338D01*
G37*
G36*
X55469799Y-40196745D02*
X55507293Y-40208119D01*
X55541857Y-40226594D01*
X55572147Y-40251453D01*
X55597006Y-40281743D01*
X55615481Y-40316307D01*
X55626855Y-40353801D01*
X55631300Y-40398938D01*
X55631300Y-41137662D01*
X55626855Y-41182799D01*
X55615481Y-41220293D01*
X55597006Y-41254857D01*
X55572147Y-41285147D01*
X55541857Y-41310006D01*
X55507293Y-41328481D01*
X55469799Y-41339855D01*
X55424662Y-41344300D01*
X54785938Y-41344300D01*
X54740801Y-41339855D01*
X54703307Y-41328481D01*
X54668743Y-41310006D01*
X54638453Y-41285147D01*
X54613594Y-41254857D01*
X54595119Y-41220293D01*
X54583745Y-41182799D01*
X54579300Y-41137662D01*
X54579300Y-40398938D01*
X54583745Y-40353801D01*
X54595119Y-40316307D01*
X54613594Y-40281743D01*
X54638453Y-40251453D01*
X54668743Y-40226594D01*
X54703307Y-40208119D01*
X54740801Y-40196745D01*
X54785938Y-40192300D01*
X55424662Y-40192300D01*
X55469799Y-40196745D01*
X55469799Y-40196745D01*
G37*
G36*
X72348099Y-40130645D02*
X72385593Y-40142019D01*
X72420157Y-40160494D01*
X72450447Y-40185353D01*
X72475306Y-40215643D01*
X72493781Y-40250207D01*
X72505155Y-40287701D01*
X72509600Y-40332838D01*
X72509600Y-41071562D01*
X72505155Y-41116699D01*
X72493781Y-41154193D01*
X72475306Y-41188757D01*
X72450447Y-41219047D01*
X72420157Y-41243906D01*
X72385593Y-41262381D01*
X72348099Y-41273755D01*
X72302962Y-41278200D01*
X71664238Y-41278200D01*
X71619101Y-41273755D01*
X71581607Y-41262381D01*
X71547043Y-41243906D01*
X71516753Y-41219047D01*
X71491894Y-41188757D01*
X71473419Y-41154193D01*
X71462045Y-41116699D01*
X71457600Y-41071562D01*
X71457600Y-40332838D01*
X71462045Y-40287701D01*
X71473419Y-40250207D01*
X71491894Y-40215643D01*
X71516753Y-40185353D01*
X71547043Y-40160494D01*
X71581607Y-40142019D01*
X71619101Y-40130645D01*
X71664238Y-40126200D01*
X72302962Y-40126200D01*
X72348099Y-40130645D01*
X72348099Y-40130645D01*
G37*
G36*
X75192899Y-40130645D02*
X75230393Y-40142019D01*
X75264957Y-40160494D01*
X75295247Y-40185353D01*
X75320106Y-40215643D01*
X75338581Y-40250207D01*
X75349955Y-40287701D01*
X75354400Y-40332838D01*
X75354400Y-41071562D01*
X75349955Y-41116699D01*
X75338581Y-41154193D01*
X75320106Y-41188757D01*
X75295247Y-41219047D01*
X75264957Y-41243906D01*
X75230393Y-41262381D01*
X75192899Y-41273755D01*
X75147762Y-41278200D01*
X74509038Y-41278200D01*
X74463901Y-41273755D01*
X74426407Y-41262381D01*
X74391843Y-41243906D01*
X74361553Y-41219047D01*
X74336694Y-41188757D01*
X74318219Y-41154193D01*
X74306845Y-41116699D01*
X74302400Y-41071562D01*
X74302400Y-40332838D01*
X74306845Y-40287701D01*
X74318219Y-40250207D01*
X74336694Y-40215643D01*
X74361553Y-40185353D01*
X74391843Y-40160494D01*
X74426407Y-40142019D01*
X74463901Y-40130645D01*
X74509038Y-40126200D01*
X75147762Y-40126200D01*
X75192899Y-40130645D01*
X75192899Y-40130645D01*
G37*
G36*
X89010499Y-40068445D02*
X89047993Y-40079819D01*
X89082557Y-40098294D01*
X89112847Y-40123153D01*
X89137706Y-40153443D01*
X89156181Y-40188007D01*
X89167555Y-40225501D01*
X89172000Y-40270638D01*
X89172000Y-41009362D01*
X89167555Y-41054499D01*
X89156181Y-41091993D01*
X89137706Y-41126557D01*
X89112847Y-41156847D01*
X89082557Y-41181706D01*
X89047993Y-41200181D01*
X89010499Y-41211555D01*
X88965362Y-41216000D01*
X88326638Y-41216000D01*
X88281501Y-41211555D01*
X88244007Y-41200181D01*
X88209443Y-41181706D01*
X88179153Y-41156847D01*
X88154294Y-41126557D01*
X88135819Y-41091993D01*
X88124445Y-41054499D01*
X88120000Y-41009362D01*
X88120000Y-40270638D01*
X88124445Y-40225501D01*
X88135819Y-40188007D01*
X88154294Y-40153443D01*
X88179153Y-40123153D01*
X88209443Y-40098294D01*
X88244007Y-40079819D01*
X88281501Y-40068445D01*
X88326638Y-40064000D01*
X88965362Y-40064000D01*
X89010499Y-40068445D01*
X89010499Y-40068445D01*
G37*
G36*
X58477300Y-41207800D02*
X57575300Y-41207800D01*
X57575300Y-40205800D01*
X58477300Y-40205800D01*
X58477300Y-41207800D01*
X58477300Y-41207800D01*
G37*
G36*
X51748800Y-41144300D02*
X50746800Y-41144300D01*
X50746800Y-40242300D01*
X51748800Y-40242300D01*
X51748800Y-41144300D01*
X51748800Y-41144300D01*
G37*
G36*
X40089299Y-39915245D02*
X40126793Y-39926619D01*
X40161357Y-39945094D01*
X40191647Y-39969953D01*
X40216506Y-40000243D01*
X40234981Y-40034807D01*
X40246355Y-40072301D01*
X40250800Y-40117438D01*
X40250800Y-40756162D01*
X40246355Y-40801299D01*
X40234981Y-40838793D01*
X40216506Y-40873357D01*
X40191647Y-40903647D01*
X40161357Y-40928506D01*
X40126793Y-40946981D01*
X40089299Y-40958355D01*
X40044162Y-40962800D01*
X39305438Y-40962800D01*
X39260301Y-40958355D01*
X39222807Y-40946981D01*
X39188243Y-40928506D01*
X39157953Y-40903647D01*
X39133094Y-40873357D01*
X39114619Y-40838793D01*
X39103245Y-40801299D01*
X39098800Y-40756162D01*
X39098800Y-40117438D01*
X39103245Y-40072301D01*
X39114619Y-40034807D01*
X39133094Y-40000243D01*
X39157953Y-39969953D01*
X39188243Y-39945094D01*
X39222807Y-39926619D01*
X39260301Y-39915245D01*
X39305438Y-39910800D01*
X40044162Y-39910800D01*
X40089299Y-39915245D01*
X40089299Y-39915245D01*
G37*
G36*
X41839299Y-39915245D02*
X41876793Y-39926619D01*
X41911357Y-39945094D01*
X41941647Y-39969953D01*
X41966506Y-40000243D01*
X41984981Y-40034807D01*
X41996355Y-40072301D01*
X42000800Y-40117438D01*
X42000800Y-40756162D01*
X41996355Y-40801299D01*
X41984981Y-40838793D01*
X41966506Y-40873357D01*
X41941647Y-40903647D01*
X41911357Y-40928506D01*
X41876793Y-40946981D01*
X41839299Y-40958355D01*
X41794162Y-40962800D01*
X41055438Y-40962800D01*
X41010301Y-40958355D01*
X40972807Y-40946981D01*
X40938243Y-40928506D01*
X40907953Y-40903647D01*
X40883094Y-40873357D01*
X40864619Y-40838793D01*
X40853245Y-40801299D01*
X40848800Y-40756162D01*
X40848800Y-40117438D01*
X40853245Y-40072301D01*
X40864619Y-40034807D01*
X40883094Y-40000243D01*
X40907953Y-39969953D01*
X40938243Y-39945094D01*
X40972807Y-39926619D01*
X41010301Y-39915245D01*
X41055438Y-39910800D01*
X41794162Y-39910800D01*
X41839299Y-39915245D01*
X41839299Y-39915245D01*
G37*
G36*
X78367899Y-39359845D02*
X78405393Y-39371219D01*
X78439957Y-39389694D01*
X78470247Y-39414553D01*
X78495106Y-39444843D01*
X78513581Y-39479407D01*
X78524955Y-39516901D01*
X78529400Y-39562038D01*
X78529400Y-40300762D01*
X78524955Y-40345899D01*
X78513581Y-40383393D01*
X78495106Y-40417957D01*
X78470247Y-40448247D01*
X78439957Y-40473106D01*
X78405393Y-40491581D01*
X78367899Y-40502955D01*
X78322762Y-40507400D01*
X77684038Y-40507400D01*
X77638901Y-40502955D01*
X77601407Y-40491581D01*
X77566843Y-40473106D01*
X77536553Y-40448247D01*
X77511694Y-40417957D01*
X77493219Y-40383393D01*
X77481845Y-40345899D01*
X77477400Y-40300762D01*
X77477400Y-39562038D01*
X77481845Y-39516901D01*
X77493219Y-39479407D01*
X77511694Y-39444843D01*
X77536553Y-39414553D01*
X77566843Y-39389694D01*
X77601407Y-39371219D01*
X77638901Y-39359845D01*
X77684038Y-39355400D01*
X78322762Y-39355400D01*
X78367899Y-39359845D01*
X78367899Y-39359845D01*
G37*
G36*
X80336899Y-39381845D02*
X80374393Y-39393219D01*
X80408957Y-39411694D01*
X80439247Y-39436553D01*
X80464106Y-39466843D01*
X80482581Y-39501407D01*
X80493955Y-39538901D01*
X80498400Y-39584038D01*
X80498400Y-40222762D01*
X80493955Y-40267899D01*
X80482581Y-40305393D01*
X80464106Y-40339957D01*
X80439247Y-40370247D01*
X80408957Y-40395106D01*
X80374393Y-40413581D01*
X80336899Y-40424955D01*
X80291762Y-40429400D01*
X79553038Y-40429400D01*
X79507901Y-40424955D01*
X79470407Y-40413581D01*
X79435843Y-40395106D01*
X79405553Y-40370247D01*
X79380694Y-40339957D01*
X79362219Y-40305393D01*
X79350845Y-40267899D01*
X79346400Y-40222762D01*
X79346400Y-39584038D01*
X79350845Y-39538901D01*
X79362219Y-39501407D01*
X79380694Y-39466843D01*
X79405553Y-39436553D01*
X79435843Y-39411694D01*
X79470407Y-39393219D01*
X79507901Y-39381845D01*
X79553038Y-39377400D01*
X80291762Y-39377400D01*
X80336899Y-39381845D01*
X80336899Y-39381845D01*
G37*
G36*
X82086899Y-39381845D02*
X82124393Y-39393219D01*
X82158957Y-39411694D01*
X82189247Y-39436553D01*
X82214106Y-39466843D01*
X82232581Y-39501407D01*
X82243955Y-39538901D01*
X82248400Y-39584038D01*
X82248400Y-40222762D01*
X82243955Y-40267899D01*
X82232581Y-40305393D01*
X82214106Y-40339957D01*
X82189247Y-40370247D01*
X82158957Y-40395106D01*
X82124393Y-40413581D01*
X82086899Y-40424955D01*
X82041762Y-40429400D01*
X81303038Y-40429400D01*
X81257901Y-40424955D01*
X81220407Y-40413581D01*
X81185843Y-40395106D01*
X81155553Y-40370247D01*
X81130694Y-40339957D01*
X81112219Y-40305393D01*
X81100845Y-40267899D01*
X81096400Y-40222762D01*
X81096400Y-39584038D01*
X81100845Y-39538901D01*
X81112219Y-39501407D01*
X81130694Y-39466843D01*
X81155553Y-39436553D01*
X81185843Y-39411694D01*
X81220407Y-39393219D01*
X81257901Y-39381845D01*
X81303038Y-39377400D01*
X82041762Y-39377400D01*
X82086899Y-39381845D01*
X82086899Y-39381845D01*
G37*
G36*
X84342400Y-40213400D02*
X83180400Y-40213400D01*
X83180400Y-37561400D01*
X84342400Y-37561400D01*
X84342400Y-40213400D01*
X84342400Y-40213400D01*
G37*
G36*
X86542400Y-40213400D02*
X85380400Y-40213400D01*
X85380400Y-37561400D01*
X86542400Y-37561400D01*
X86542400Y-40213400D01*
X86542400Y-40213400D01*
G37*
G36*
X98771900Y-40172500D02*
X97869900Y-40172500D01*
X97869900Y-39170500D01*
X98771900Y-39170500D01*
X98771900Y-40172500D01*
X98771900Y-40172500D01*
G37*
G36*
X96871900Y-40172500D02*
X95969900Y-40172500D01*
X95969900Y-39170500D01*
X96871900Y-39170500D01*
X96871900Y-40172500D01*
X96871900Y-40172500D01*
G37*
G36*
X93022899Y-39102445D02*
X93060393Y-39113819D01*
X93094957Y-39132294D01*
X93125247Y-39157153D01*
X93150106Y-39187443D01*
X93168581Y-39222007D01*
X93179955Y-39259501D01*
X93184400Y-39304638D01*
X93184400Y-39943362D01*
X93179955Y-39988499D01*
X93168581Y-40025993D01*
X93150106Y-40060557D01*
X93125247Y-40090847D01*
X93094957Y-40115706D01*
X93060393Y-40134181D01*
X93022899Y-40145555D01*
X92977762Y-40150000D01*
X92239038Y-40150000D01*
X92193901Y-40145555D01*
X92156407Y-40134181D01*
X92121843Y-40115706D01*
X92091553Y-40090847D01*
X92066694Y-40060557D01*
X92048219Y-40025993D01*
X92036845Y-39988499D01*
X92032400Y-39943362D01*
X92032400Y-39304638D01*
X92036845Y-39259501D01*
X92048219Y-39222007D01*
X92066694Y-39187443D01*
X92091553Y-39157153D01*
X92121843Y-39132294D01*
X92156407Y-39113819D01*
X92193901Y-39102445D01*
X92239038Y-39098000D01*
X92977762Y-39098000D01*
X93022899Y-39102445D01*
X93022899Y-39102445D01*
G37*
G36*
X94772899Y-39102445D02*
X94810393Y-39113819D01*
X94844957Y-39132294D01*
X94875247Y-39157153D01*
X94900106Y-39187443D01*
X94918581Y-39222007D01*
X94929955Y-39259501D01*
X94934400Y-39304638D01*
X94934400Y-39943362D01*
X94929955Y-39988499D01*
X94918581Y-40025993D01*
X94900106Y-40060557D01*
X94875247Y-40090847D01*
X94844957Y-40115706D01*
X94810393Y-40134181D01*
X94772899Y-40145555D01*
X94727762Y-40150000D01*
X93989038Y-40150000D01*
X93943901Y-40145555D01*
X93906407Y-40134181D01*
X93871843Y-40115706D01*
X93841553Y-40090847D01*
X93816694Y-40060557D01*
X93798219Y-40025993D01*
X93786845Y-39988499D01*
X93782400Y-39943362D01*
X93782400Y-39304638D01*
X93786845Y-39259501D01*
X93798219Y-39222007D01*
X93816694Y-39187443D01*
X93841553Y-39157153D01*
X93871843Y-39132294D01*
X93906407Y-39113819D01*
X93943901Y-39102445D01*
X93989038Y-39098000D01*
X94727762Y-39098000D01*
X94772899Y-39102445D01*
X94772899Y-39102445D01*
G37*
G36*
X33286400Y-39901400D02*
X31464400Y-39901400D01*
X31464400Y-37619400D01*
X33286400Y-37619400D01*
X33286400Y-39901400D01*
X33286400Y-39901400D01*
G37*
G36*
X37166400Y-39901400D02*
X35344400Y-39901400D01*
X35344400Y-37619400D01*
X37166400Y-37619400D01*
X37166400Y-39901400D01*
X37166400Y-39901400D01*
G37*
G36*
X47620467Y-37752804D02*
X47643892Y-37759910D01*
X47665489Y-37771454D01*
X47684414Y-37786986D01*
X47699946Y-37805911D01*
X47711490Y-37827508D01*
X47718596Y-37850933D01*
X47721600Y-37881438D01*
X47721600Y-39695162D01*
X47718596Y-39725667D01*
X47711490Y-39749092D01*
X47699946Y-39770689D01*
X47684414Y-39789614D01*
X47665489Y-39805146D01*
X47643892Y-39816690D01*
X47620467Y-39823796D01*
X47589962Y-39826800D01*
X47101238Y-39826800D01*
X47070733Y-39823796D01*
X47047308Y-39816690D01*
X47025711Y-39805146D01*
X47006786Y-39789614D01*
X46991254Y-39770689D01*
X46979710Y-39749092D01*
X46972604Y-39725667D01*
X46969600Y-39695162D01*
X46969600Y-37881438D01*
X46972604Y-37850933D01*
X46979710Y-37827508D01*
X46991254Y-37805911D01*
X47006786Y-37786986D01*
X47025711Y-37771454D01*
X47047308Y-37759910D01*
X47070733Y-37752804D01*
X47101238Y-37749800D01*
X47589962Y-37749800D01*
X47620467Y-37752804D01*
X47620467Y-37752804D01*
G37*
G36*
X46350467Y-37752804D02*
X46373892Y-37759910D01*
X46395489Y-37771454D01*
X46414414Y-37786986D01*
X46429946Y-37805911D01*
X46441490Y-37827508D01*
X46448596Y-37850933D01*
X46451600Y-37881438D01*
X46451600Y-39695162D01*
X46448596Y-39725667D01*
X46441490Y-39749092D01*
X46429946Y-39770689D01*
X46414414Y-39789614D01*
X46395489Y-39805146D01*
X46373892Y-39816690D01*
X46350467Y-39823796D01*
X46319962Y-39826800D01*
X45831238Y-39826800D01*
X45800733Y-39823796D01*
X45777308Y-39816690D01*
X45755711Y-39805146D01*
X45736786Y-39789614D01*
X45721254Y-39770689D01*
X45709710Y-39749092D01*
X45702604Y-39725667D01*
X45699600Y-39695162D01*
X45699600Y-37881438D01*
X45702604Y-37850933D01*
X45709710Y-37827508D01*
X45721254Y-37805911D01*
X45736786Y-37786986D01*
X45755711Y-37771454D01*
X45777308Y-37759910D01*
X45800733Y-37752804D01*
X45831238Y-37749800D01*
X46319962Y-37749800D01*
X46350467Y-37752804D01*
X46350467Y-37752804D01*
G37*
G36*
X45080467Y-37752804D02*
X45103892Y-37759910D01*
X45125489Y-37771454D01*
X45144414Y-37786986D01*
X45159946Y-37805911D01*
X45171490Y-37827508D01*
X45178596Y-37850933D01*
X45181600Y-37881438D01*
X45181600Y-39695162D01*
X45178596Y-39725667D01*
X45171490Y-39749092D01*
X45159946Y-39770689D01*
X45144414Y-39789614D01*
X45125489Y-39805146D01*
X45103892Y-39816690D01*
X45080467Y-39823796D01*
X45049962Y-39826800D01*
X44561238Y-39826800D01*
X44530733Y-39823796D01*
X44507308Y-39816690D01*
X44485711Y-39805146D01*
X44466786Y-39789614D01*
X44451254Y-39770689D01*
X44439710Y-39749092D01*
X44432604Y-39725667D01*
X44429600Y-39695162D01*
X44429600Y-37881438D01*
X44432604Y-37850933D01*
X44439710Y-37827508D01*
X44451254Y-37805911D01*
X44466786Y-37786986D01*
X44485711Y-37771454D01*
X44507308Y-37759910D01*
X44530733Y-37752804D01*
X44561238Y-37749800D01*
X45049962Y-37749800D01*
X45080467Y-37752804D01*
X45080467Y-37752804D01*
G37*
G36*
X43810467Y-37752804D02*
X43833892Y-37759910D01*
X43855489Y-37771454D01*
X43874414Y-37786986D01*
X43889946Y-37805911D01*
X43901490Y-37827508D01*
X43908596Y-37850933D01*
X43911600Y-37881438D01*
X43911600Y-39695162D01*
X43908596Y-39725667D01*
X43901490Y-39749092D01*
X43889946Y-39770689D01*
X43874414Y-39789614D01*
X43855489Y-39805146D01*
X43833892Y-39816690D01*
X43810467Y-39823796D01*
X43779962Y-39826800D01*
X43291238Y-39826800D01*
X43260733Y-39823796D01*
X43237308Y-39816690D01*
X43215711Y-39805146D01*
X43196786Y-39789614D01*
X43181254Y-39770689D01*
X43169710Y-39749092D01*
X43162604Y-39725667D01*
X43159600Y-39695162D01*
X43159600Y-37881438D01*
X43162604Y-37850933D01*
X43169710Y-37827508D01*
X43181254Y-37805911D01*
X43196786Y-37786986D01*
X43215711Y-37771454D01*
X43237308Y-37759910D01*
X43260733Y-37752804D01*
X43291238Y-37749800D01*
X43779962Y-37749800D01*
X43810467Y-37752804D01*
X43810467Y-37752804D01*
G37*
G36*
X75192899Y-38380645D02*
X75230393Y-38392019D01*
X75264957Y-38410494D01*
X75295247Y-38435353D01*
X75320106Y-38465643D01*
X75338581Y-38500207D01*
X75349955Y-38537701D01*
X75354400Y-38582838D01*
X75354400Y-39321562D01*
X75349955Y-39366699D01*
X75338581Y-39404193D01*
X75320106Y-39438757D01*
X75295247Y-39469047D01*
X75264957Y-39493906D01*
X75230393Y-39512381D01*
X75192899Y-39523755D01*
X75147762Y-39528200D01*
X74509038Y-39528200D01*
X74463901Y-39523755D01*
X74426407Y-39512381D01*
X74391843Y-39493906D01*
X74361553Y-39469047D01*
X74336694Y-39438757D01*
X74318219Y-39404193D01*
X74306845Y-39366699D01*
X74302400Y-39321562D01*
X74302400Y-38582838D01*
X74306845Y-38537701D01*
X74318219Y-38500207D01*
X74336694Y-38465643D01*
X74361553Y-38435353D01*
X74391843Y-38410494D01*
X74426407Y-38392019D01*
X74463901Y-38380645D01*
X74509038Y-38376200D01*
X75147762Y-38376200D01*
X75192899Y-38380645D01*
X75192899Y-38380645D01*
G37*
G36*
X72348099Y-38380645D02*
X72385593Y-38392019D01*
X72420157Y-38410494D01*
X72450447Y-38435353D01*
X72475306Y-38465643D01*
X72493781Y-38500207D01*
X72505155Y-38537701D01*
X72509600Y-38582838D01*
X72509600Y-39321562D01*
X72505155Y-39366699D01*
X72493781Y-39404193D01*
X72475306Y-39438757D01*
X72450447Y-39469047D01*
X72420157Y-39493906D01*
X72385593Y-39512381D01*
X72348099Y-39523755D01*
X72302962Y-39528200D01*
X71664238Y-39528200D01*
X71619101Y-39523755D01*
X71581607Y-39512381D01*
X71547043Y-39493906D01*
X71516753Y-39469047D01*
X71491894Y-39438757D01*
X71473419Y-39404193D01*
X71462045Y-39366699D01*
X71457600Y-39321562D01*
X71457600Y-38582838D01*
X71462045Y-38537701D01*
X71473419Y-38500207D01*
X71491894Y-38465643D01*
X71516753Y-38435353D01*
X71547043Y-38410494D01*
X71581607Y-38392019D01*
X71619101Y-38380645D01*
X71664238Y-38376200D01*
X72302962Y-38376200D01*
X72348099Y-38380645D01*
X72348099Y-38380645D01*
G37*
G36*
X65780099Y-38442045D02*
X65817593Y-38453419D01*
X65852157Y-38471894D01*
X65882447Y-38496753D01*
X65907306Y-38527043D01*
X65925781Y-38561607D01*
X65937155Y-38599101D01*
X65941600Y-38644238D01*
X65941600Y-39282962D01*
X65937155Y-39328099D01*
X65925781Y-39365593D01*
X65907306Y-39400157D01*
X65882447Y-39430447D01*
X65852157Y-39455306D01*
X65817593Y-39473781D01*
X65780099Y-39485155D01*
X65734962Y-39489600D01*
X64996238Y-39489600D01*
X64951101Y-39485155D01*
X64913607Y-39473781D01*
X64879043Y-39455306D01*
X64848753Y-39430447D01*
X64823894Y-39400157D01*
X64805419Y-39365593D01*
X64794045Y-39328099D01*
X64789600Y-39282962D01*
X64789600Y-38644238D01*
X64794045Y-38599101D01*
X64805419Y-38561607D01*
X64823894Y-38527043D01*
X64848753Y-38496753D01*
X64879043Y-38471894D01*
X64913607Y-38453419D01*
X64951101Y-38442045D01*
X64996238Y-38437600D01*
X65734962Y-38437600D01*
X65780099Y-38442045D01*
X65780099Y-38442045D01*
G37*
G36*
X64030099Y-38442045D02*
X64067593Y-38453419D01*
X64102157Y-38471894D01*
X64132447Y-38496753D01*
X64157306Y-38527043D01*
X64175781Y-38561607D01*
X64187155Y-38599101D01*
X64191600Y-38644238D01*
X64191600Y-39282962D01*
X64187155Y-39328099D01*
X64175781Y-39365593D01*
X64157306Y-39400157D01*
X64132447Y-39430447D01*
X64102157Y-39455306D01*
X64067593Y-39473781D01*
X64030099Y-39485155D01*
X63984962Y-39489600D01*
X63246238Y-39489600D01*
X63201101Y-39485155D01*
X63163607Y-39473781D01*
X63129043Y-39455306D01*
X63098753Y-39430447D01*
X63073894Y-39400157D01*
X63055419Y-39365593D01*
X63044045Y-39328099D01*
X63039600Y-39282962D01*
X63039600Y-38644238D01*
X63044045Y-38599101D01*
X63055419Y-38561607D01*
X63073894Y-38527043D01*
X63098753Y-38496753D01*
X63129043Y-38471894D01*
X63163607Y-38453419D01*
X63201101Y-38442045D01*
X63246238Y-38437600D01*
X63984962Y-38437600D01*
X64030099Y-38442045D01*
X64030099Y-38442045D01*
G37*
G36*
X62064797Y-38430642D02*
X62102291Y-38442016D01*
X62136855Y-38460491D01*
X62167145Y-38485350D01*
X62192004Y-38515640D01*
X62210479Y-38550204D01*
X62221853Y-38587698D01*
X62226298Y-38632835D01*
X62226298Y-39271559D01*
X62221853Y-39316696D01*
X62210479Y-39354190D01*
X62192004Y-39388754D01*
X62167145Y-39419044D01*
X62136855Y-39443903D01*
X62102291Y-39462378D01*
X62064797Y-39473752D01*
X62019660Y-39478197D01*
X61280936Y-39478197D01*
X61235799Y-39473752D01*
X61198305Y-39462378D01*
X61163741Y-39443903D01*
X61133451Y-39419044D01*
X61108592Y-39388754D01*
X61090117Y-39354190D01*
X61078743Y-39316696D01*
X61074298Y-39271559D01*
X61074298Y-38632835D01*
X61078743Y-38587698D01*
X61090117Y-38550204D01*
X61108592Y-38515640D01*
X61133451Y-38485350D01*
X61163741Y-38460491D01*
X61198305Y-38442016D01*
X61235799Y-38430642D01*
X61280936Y-38426197D01*
X62019660Y-38426197D01*
X62064797Y-38430642D01*
X62064797Y-38430642D01*
G37*
G36*
X60314797Y-38430642D02*
X60352291Y-38442016D01*
X60386855Y-38460491D01*
X60417145Y-38485350D01*
X60442004Y-38515640D01*
X60460479Y-38550204D01*
X60471853Y-38587698D01*
X60476298Y-38632835D01*
X60476298Y-39271559D01*
X60471853Y-39316696D01*
X60460479Y-39354190D01*
X60442004Y-39388754D01*
X60417145Y-39419044D01*
X60386855Y-39443903D01*
X60352291Y-39462378D01*
X60314797Y-39473752D01*
X60269660Y-39478197D01*
X59530936Y-39478197D01*
X59485799Y-39473752D01*
X59448305Y-39462378D01*
X59413741Y-39443903D01*
X59383451Y-39419044D01*
X59358592Y-39388754D01*
X59340117Y-39354190D01*
X59328743Y-39316696D01*
X59324298Y-39271559D01*
X59324298Y-38632835D01*
X59328743Y-38587698D01*
X59340117Y-38550204D01*
X59358592Y-38515640D01*
X59383451Y-38485350D01*
X59413741Y-38460491D01*
X59448305Y-38442016D01*
X59485799Y-38430642D01*
X59530936Y-38426197D01*
X60269660Y-38426197D01*
X60314797Y-38430642D01*
X60314797Y-38430642D01*
G37*
G36*
X89010499Y-38318445D02*
X89047993Y-38329819D01*
X89082557Y-38348294D01*
X89112847Y-38373153D01*
X89137706Y-38403443D01*
X89156181Y-38438007D01*
X89167555Y-38475501D01*
X89172000Y-38520638D01*
X89172000Y-39259362D01*
X89167555Y-39304499D01*
X89156181Y-39341993D01*
X89137706Y-39376557D01*
X89112847Y-39406847D01*
X89082557Y-39431706D01*
X89047993Y-39450181D01*
X89010499Y-39461555D01*
X88965362Y-39466000D01*
X88326638Y-39466000D01*
X88281501Y-39461555D01*
X88244007Y-39450181D01*
X88209443Y-39431706D01*
X88179153Y-39406847D01*
X88154294Y-39376557D01*
X88135819Y-39341993D01*
X88124445Y-39304499D01*
X88120000Y-39259362D01*
X88120000Y-38520638D01*
X88124445Y-38475501D01*
X88135819Y-38438007D01*
X88154294Y-38403443D01*
X88179153Y-38373153D01*
X88209443Y-38348294D01*
X88244007Y-38329819D01*
X88281501Y-38318445D01*
X88326638Y-38314000D01*
X88965362Y-38314000D01*
X89010499Y-38318445D01*
X89010499Y-38318445D01*
G37*
G36*
X53473799Y-38327745D02*
X53511293Y-38339119D01*
X53545857Y-38357594D01*
X53576147Y-38382453D01*
X53601006Y-38412743D01*
X53619481Y-38447307D01*
X53630855Y-38484801D01*
X53635300Y-38529938D01*
X53635300Y-39168662D01*
X53630855Y-39213799D01*
X53619481Y-39251293D01*
X53601006Y-39285857D01*
X53576147Y-39316147D01*
X53545857Y-39341006D01*
X53511293Y-39359481D01*
X53473799Y-39370855D01*
X53428662Y-39375300D01*
X52689938Y-39375300D01*
X52644801Y-39370855D01*
X52607307Y-39359481D01*
X52572743Y-39341006D01*
X52542453Y-39316147D01*
X52517594Y-39285857D01*
X52499119Y-39251293D01*
X52487745Y-39213799D01*
X52483300Y-39168662D01*
X52483300Y-38529938D01*
X52487745Y-38484801D01*
X52499119Y-38447307D01*
X52517594Y-38412743D01*
X52542453Y-38382453D01*
X52572743Y-38357594D01*
X52607307Y-38339119D01*
X52644801Y-38327745D01*
X52689938Y-38323300D01*
X53428662Y-38323300D01*
X53473799Y-38327745D01*
X53473799Y-38327745D01*
G37*
G36*
X51723799Y-38327745D02*
X51761293Y-38339119D01*
X51795857Y-38357594D01*
X51826147Y-38382453D01*
X51851006Y-38412743D01*
X51869481Y-38447307D01*
X51880855Y-38484801D01*
X51885300Y-38529938D01*
X51885300Y-39168662D01*
X51880855Y-39213799D01*
X51869481Y-39251293D01*
X51851006Y-39285857D01*
X51826147Y-39316147D01*
X51795857Y-39341006D01*
X51761293Y-39359481D01*
X51723799Y-39370855D01*
X51678662Y-39375300D01*
X50939938Y-39375300D01*
X50894801Y-39370855D01*
X50857307Y-39359481D01*
X50822743Y-39341006D01*
X50792453Y-39316147D01*
X50767594Y-39285857D01*
X50749119Y-39251293D01*
X50737745Y-39213799D01*
X50733300Y-39168662D01*
X50733300Y-38529938D01*
X50737745Y-38484801D01*
X50749119Y-38447307D01*
X50767594Y-38412743D01*
X50792453Y-38382453D01*
X50822743Y-38357594D01*
X50857307Y-38339119D01*
X50894801Y-38327745D01*
X50939938Y-38323300D01*
X51678662Y-38323300D01*
X51723799Y-38327745D01*
X51723799Y-38327745D01*
G37*
G36*
X27106600Y-39349400D02*
X24404600Y-39349400D01*
X24404600Y-36647400D01*
X27106600Y-36647400D01*
X27106600Y-39349400D01*
X27106600Y-39349400D01*
G37*
G36*
X94737399Y-37260945D02*
X94774893Y-37272319D01*
X94809457Y-37290794D01*
X94839747Y-37315653D01*
X94864606Y-37345943D01*
X94883081Y-37380507D01*
X94894455Y-37418001D01*
X94898900Y-37463138D01*
X94898900Y-38101862D01*
X94894455Y-38146999D01*
X94883081Y-38184493D01*
X94864606Y-38219057D01*
X94839747Y-38249347D01*
X94809457Y-38274206D01*
X94774893Y-38292681D01*
X94737399Y-38304055D01*
X94692262Y-38308500D01*
X93953538Y-38308500D01*
X93908401Y-38304055D01*
X93870907Y-38292681D01*
X93836343Y-38274206D01*
X93806053Y-38249347D01*
X93781194Y-38219057D01*
X93762719Y-38184493D01*
X93751345Y-38146999D01*
X93746900Y-38101862D01*
X93746900Y-37463138D01*
X93751345Y-37418001D01*
X93762719Y-37380507D01*
X93781194Y-37345943D01*
X93806053Y-37315653D01*
X93836343Y-37290794D01*
X93870907Y-37272319D01*
X93908401Y-37260945D01*
X93953538Y-37256500D01*
X94692262Y-37256500D01*
X94737399Y-37260945D01*
X94737399Y-37260945D01*
G37*
G36*
X92987399Y-37260945D02*
X93024893Y-37272319D01*
X93059457Y-37290794D01*
X93089747Y-37315653D01*
X93114606Y-37345943D01*
X93133081Y-37380507D01*
X93144455Y-37418001D01*
X93148900Y-37463138D01*
X93148900Y-38101862D01*
X93144455Y-38146999D01*
X93133081Y-38184493D01*
X93114606Y-38219057D01*
X93089747Y-38249347D01*
X93059457Y-38274206D01*
X93024893Y-38292681D01*
X92987399Y-38304055D01*
X92942262Y-38308500D01*
X92203538Y-38308500D01*
X92158401Y-38304055D01*
X92120907Y-38292681D01*
X92086343Y-38274206D01*
X92056053Y-38249347D01*
X92031194Y-38219057D01*
X92012719Y-38184493D01*
X92001345Y-38146999D01*
X91996900Y-38101862D01*
X91996900Y-37463138D01*
X92001345Y-37418001D01*
X92012719Y-37380507D01*
X92031194Y-37345943D01*
X92056053Y-37315653D01*
X92086343Y-37290794D01*
X92120907Y-37272319D01*
X92158401Y-37260945D01*
X92203538Y-37256500D01*
X92942262Y-37256500D01*
X92987399Y-37260945D01*
X92987399Y-37260945D01*
G37*
G36*
X80160400Y-38182400D02*
X77878400Y-38182400D01*
X77878400Y-36360400D01*
X80160400Y-36360400D01*
X80160400Y-38182400D01*
X80160400Y-38182400D01*
G37*
G36*
X97821900Y-38172500D02*
X96919900Y-38172500D01*
X96919900Y-37170500D01*
X97821900Y-37170500D01*
X97821900Y-38172500D01*
X97821900Y-38172500D01*
G37*
G36*
X72809962Y-36172281D02*
X72844877Y-36182873D01*
X72877065Y-36200078D01*
X72905273Y-36223227D01*
X72928422Y-36251435D01*
X72945627Y-36283623D01*
X72956219Y-36318538D01*
X72960400Y-36360995D01*
X72960400Y-37502205D01*
X72956219Y-37544662D01*
X72945627Y-37579577D01*
X72928422Y-37611765D01*
X72905273Y-37639973D01*
X72877065Y-37663122D01*
X72844877Y-37680327D01*
X72809962Y-37690919D01*
X72767505Y-37695100D01*
X71301295Y-37695100D01*
X71258838Y-37690919D01*
X71223923Y-37680327D01*
X71191735Y-37663122D01*
X71163527Y-37639973D01*
X71140378Y-37611765D01*
X71123173Y-37579577D01*
X71112581Y-37544662D01*
X71108400Y-37502205D01*
X71108400Y-36360995D01*
X71112581Y-36318538D01*
X71123173Y-36283623D01*
X71140378Y-36251435D01*
X71163527Y-36223227D01*
X71191735Y-36200078D01*
X71223923Y-36182873D01*
X71258838Y-36172281D01*
X71301295Y-36168100D01*
X72767505Y-36168100D01*
X72809962Y-36172281D01*
X72809962Y-36172281D01*
G37*
G36*
X75654762Y-36172281D02*
X75689677Y-36182873D01*
X75721865Y-36200078D01*
X75750073Y-36223227D01*
X75773222Y-36251435D01*
X75790427Y-36283623D01*
X75801019Y-36318538D01*
X75805200Y-36360995D01*
X75805200Y-37502205D01*
X75801019Y-37544662D01*
X75790427Y-37579577D01*
X75773222Y-37611765D01*
X75750073Y-37639973D01*
X75721865Y-37663122D01*
X75689677Y-37680327D01*
X75654762Y-37690919D01*
X75612305Y-37695100D01*
X74146095Y-37695100D01*
X74103638Y-37690919D01*
X74068723Y-37680327D01*
X74036535Y-37663122D01*
X74008327Y-37639973D01*
X73985178Y-37611765D01*
X73967973Y-37579577D01*
X73957381Y-37544662D01*
X73953200Y-37502205D01*
X73953200Y-36360995D01*
X73957381Y-36318538D01*
X73967973Y-36283623D01*
X73985178Y-36251435D01*
X74008327Y-36223227D01*
X74036535Y-36200078D01*
X74068723Y-36182873D01*
X74103638Y-36172281D01*
X74146095Y-36168100D01*
X75612305Y-36168100D01*
X75654762Y-36172281D01*
X75654762Y-36172281D01*
G37*
G36*
X51709799Y-36613245D02*
X51747293Y-36624619D01*
X51781857Y-36643094D01*
X51812147Y-36667953D01*
X51837006Y-36698243D01*
X51855481Y-36732807D01*
X51866855Y-36770301D01*
X51871300Y-36815438D01*
X51871300Y-37454162D01*
X51866855Y-37499299D01*
X51855481Y-37536793D01*
X51837006Y-37571357D01*
X51812147Y-37601647D01*
X51781857Y-37626506D01*
X51747293Y-37644981D01*
X51709799Y-37656355D01*
X51664662Y-37660800D01*
X50925938Y-37660800D01*
X50880801Y-37656355D01*
X50843307Y-37644981D01*
X50808743Y-37626506D01*
X50778453Y-37601647D01*
X50753594Y-37571357D01*
X50735119Y-37536793D01*
X50723745Y-37499299D01*
X50719300Y-37454162D01*
X50719300Y-36815438D01*
X50723745Y-36770301D01*
X50735119Y-36732807D01*
X50753594Y-36698243D01*
X50778453Y-36667953D01*
X50808743Y-36643094D01*
X50843307Y-36624619D01*
X50880801Y-36613245D01*
X50925938Y-36608800D01*
X51664662Y-36608800D01*
X51709799Y-36613245D01*
X51709799Y-36613245D01*
G37*
G36*
X53459799Y-36613245D02*
X53497293Y-36624619D01*
X53531857Y-36643094D01*
X53562147Y-36667953D01*
X53587006Y-36698243D01*
X53605481Y-36732807D01*
X53616855Y-36770301D01*
X53621300Y-36815438D01*
X53621300Y-37454162D01*
X53616855Y-37499299D01*
X53605481Y-37536793D01*
X53587006Y-37571357D01*
X53562147Y-37601647D01*
X53531857Y-37626506D01*
X53497293Y-37644981D01*
X53459799Y-37656355D01*
X53414662Y-37660800D01*
X52675938Y-37660800D01*
X52630801Y-37656355D01*
X52593307Y-37644981D01*
X52558743Y-37626506D01*
X52528453Y-37601647D01*
X52503594Y-37571357D01*
X52485119Y-37536793D01*
X52473745Y-37499299D01*
X52469300Y-37454162D01*
X52469300Y-36815438D01*
X52473745Y-36770301D01*
X52485119Y-36732807D01*
X52503594Y-36698243D01*
X52528453Y-36667953D01*
X52558743Y-36643094D01*
X52593307Y-36624619D01*
X52630801Y-36613245D01*
X52675938Y-36608800D01*
X53414662Y-36608800D01*
X53459799Y-36613245D01*
X53459799Y-36613245D01*
G37*
G36*
X65794099Y-36537045D02*
X65831593Y-36548419D01*
X65866157Y-36566894D01*
X65896447Y-36591753D01*
X65921306Y-36622043D01*
X65939781Y-36656607D01*
X65951155Y-36694101D01*
X65955600Y-36739238D01*
X65955600Y-37377962D01*
X65951155Y-37423099D01*
X65939781Y-37460593D01*
X65921306Y-37495157D01*
X65896447Y-37525447D01*
X65866157Y-37550306D01*
X65831593Y-37568781D01*
X65794099Y-37580155D01*
X65748962Y-37584600D01*
X65010238Y-37584600D01*
X64965101Y-37580155D01*
X64927607Y-37568781D01*
X64893043Y-37550306D01*
X64862753Y-37525447D01*
X64837894Y-37495157D01*
X64819419Y-37460593D01*
X64808045Y-37423099D01*
X64803600Y-37377962D01*
X64803600Y-36739238D01*
X64808045Y-36694101D01*
X64819419Y-36656607D01*
X64837894Y-36622043D01*
X64862753Y-36591753D01*
X64893043Y-36566894D01*
X64927607Y-36548419D01*
X64965101Y-36537045D01*
X65010238Y-36532600D01*
X65748962Y-36532600D01*
X65794099Y-36537045D01*
X65794099Y-36537045D01*
G37*
G36*
X64044099Y-36537045D02*
X64081593Y-36548419D01*
X64116157Y-36566894D01*
X64146447Y-36591753D01*
X64171306Y-36622043D01*
X64189781Y-36656607D01*
X64201155Y-36694101D01*
X64205600Y-36739238D01*
X64205600Y-37377962D01*
X64201155Y-37423099D01*
X64189781Y-37460593D01*
X64171306Y-37495157D01*
X64146447Y-37525447D01*
X64116157Y-37550306D01*
X64081593Y-37568781D01*
X64044099Y-37580155D01*
X63998962Y-37584600D01*
X63260238Y-37584600D01*
X63215101Y-37580155D01*
X63177607Y-37568781D01*
X63143043Y-37550306D01*
X63112753Y-37525447D01*
X63087894Y-37495157D01*
X63069419Y-37460593D01*
X63058045Y-37423099D01*
X63053600Y-37377962D01*
X63053600Y-36739238D01*
X63058045Y-36694101D01*
X63069419Y-36656607D01*
X63087894Y-36622043D01*
X63112753Y-36591753D01*
X63143043Y-36566894D01*
X63177607Y-36548419D01*
X63215101Y-36537045D01*
X63260238Y-36532600D01*
X63998962Y-36532600D01*
X64044099Y-36537045D01*
X64044099Y-36537045D01*
G37*
G36*
X69590099Y-36537045D02*
X69627593Y-36548419D01*
X69662157Y-36566894D01*
X69692447Y-36591753D01*
X69717306Y-36622043D01*
X69735781Y-36656607D01*
X69747155Y-36694101D01*
X69751600Y-36739238D01*
X69751600Y-37377962D01*
X69747155Y-37423099D01*
X69735781Y-37460593D01*
X69717306Y-37495157D01*
X69692447Y-37525447D01*
X69662157Y-37550306D01*
X69627593Y-37568781D01*
X69590099Y-37580155D01*
X69544962Y-37584600D01*
X68806238Y-37584600D01*
X68761101Y-37580155D01*
X68723607Y-37568781D01*
X68689043Y-37550306D01*
X68658753Y-37525447D01*
X68633894Y-37495157D01*
X68615419Y-37460593D01*
X68604045Y-37423099D01*
X68599600Y-37377962D01*
X68599600Y-36739238D01*
X68604045Y-36694101D01*
X68615419Y-36656607D01*
X68633894Y-36622043D01*
X68658753Y-36591753D01*
X68689043Y-36566894D01*
X68723607Y-36548419D01*
X68761101Y-36537045D01*
X68806238Y-36532600D01*
X69544962Y-36532600D01*
X69590099Y-36537045D01*
X69590099Y-36537045D01*
G37*
G36*
X67840099Y-36537045D02*
X67877593Y-36548419D01*
X67912157Y-36566894D01*
X67942447Y-36591753D01*
X67967306Y-36622043D01*
X67985781Y-36656607D01*
X67997155Y-36694101D01*
X68001600Y-36739238D01*
X68001600Y-37377962D01*
X67997155Y-37423099D01*
X67985781Y-37460593D01*
X67967306Y-37495157D01*
X67942447Y-37525447D01*
X67912157Y-37550306D01*
X67877593Y-37568781D01*
X67840099Y-37580155D01*
X67794962Y-37584600D01*
X67056238Y-37584600D01*
X67011101Y-37580155D01*
X66973607Y-37568781D01*
X66939043Y-37550306D01*
X66908753Y-37525447D01*
X66883894Y-37495157D01*
X66865419Y-37460593D01*
X66854045Y-37423099D01*
X66849600Y-37377962D01*
X66849600Y-36739238D01*
X66854045Y-36694101D01*
X66865419Y-36656607D01*
X66883894Y-36622043D01*
X66908753Y-36591753D01*
X66939043Y-36566894D01*
X66973607Y-36548419D01*
X67011101Y-36537045D01*
X67056238Y-36532600D01*
X67794962Y-36532600D01*
X67840099Y-36537045D01*
X67840099Y-36537045D01*
G37*
G36*
X62064797Y-36525642D02*
X62102291Y-36537016D01*
X62136855Y-36555491D01*
X62167145Y-36580350D01*
X62192004Y-36610640D01*
X62210479Y-36645204D01*
X62221853Y-36682698D01*
X62226298Y-36727835D01*
X62226298Y-37366559D01*
X62221853Y-37411696D01*
X62210479Y-37449190D01*
X62192004Y-37483754D01*
X62167145Y-37514044D01*
X62136855Y-37538903D01*
X62102291Y-37557378D01*
X62064797Y-37568752D01*
X62019660Y-37573197D01*
X61280936Y-37573197D01*
X61235799Y-37568752D01*
X61198305Y-37557378D01*
X61163741Y-37538903D01*
X61133451Y-37514044D01*
X61108592Y-37483754D01*
X61090117Y-37449190D01*
X61078743Y-37411696D01*
X61074298Y-37366559D01*
X61074298Y-36727835D01*
X61078743Y-36682698D01*
X61090117Y-36645204D01*
X61108592Y-36610640D01*
X61133451Y-36580350D01*
X61163741Y-36555491D01*
X61198305Y-36537016D01*
X61235799Y-36525642D01*
X61280936Y-36521197D01*
X62019660Y-36521197D01*
X62064797Y-36525642D01*
X62064797Y-36525642D01*
G37*
G36*
X60314797Y-36525642D02*
X60352291Y-36537016D01*
X60386855Y-36555491D01*
X60417145Y-36580350D01*
X60442004Y-36610640D01*
X60460479Y-36645204D01*
X60471853Y-36682698D01*
X60476298Y-36727835D01*
X60476298Y-37366559D01*
X60471853Y-37411696D01*
X60460479Y-37449190D01*
X60442004Y-37483754D01*
X60417145Y-37514044D01*
X60386855Y-37538903D01*
X60352291Y-37557378D01*
X60314797Y-37568752D01*
X60269660Y-37573197D01*
X59530936Y-37573197D01*
X59485799Y-37568752D01*
X59448305Y-37557378D01*
X59413741Y-37538903D01*
X59383451Y-37514044D01*
X59358592Y-37483754D01*
X59340117Y-37449190D01*
X59328743Y-37411696D01*
X59324298Y-37366559D01*
X59324298Y-36727835D01*
X59328743Y-36682698D01*
X59340117Y-36645204D01*
X59358592Y-36610640D01*
X59383451Y-36580350D01*
X59413741Y-36555491D01*
X59448305Y-36537016D01*
X59485799Y-36525642D01*
X59530936Y-36521197D01*
X60269660Y-36521197D01*
X60314797Y-36525642D01*
X60314797Y-36525642D01*
G37*
G36*
X108155542Y-35847898D02*
X108294764Y-35905565D01*
X108420059Y-35989285D01*
X108526615Y-36095841D01*
X108610335Y-36221136D01*
X108668002Y-36360358D01*
X108697400Y-36508154D01*
X108697400Y-36658846D01*
X108668002Y-36806642D01*
X108610335Y-36945864D01*
X108526615Y-37071159D01*
X108420059Y-37177715D01*
X108294764Y-37261435D01*
X108155542Y-37319102D01*
X108007746Y-37348500D01*
X107857054Y-37348500D01*
X107709258Y-37319102D01*
X107570036Y-37261435D01*
X107444741Y-37177715D01*
X107338185Y-37071159D01*
X107254465Y-36945864D01*
X107196798Y-36806642D01*
X107167400Y-36658846D01*
X107167400Y-36508154D01*
X107196798Y-36360358D01*
X107254465Y-36221136D01*
X107338185Y-36095841D01*
X107444741Y-35989285D01*
X107570036Y-35905565D01*
X107709258Y-35847898D01*
X107857054Y-35818500D01*
X108007746Y-35818500D01*
X108155542Y-35847898D01*
X108155542Y-35847898D01*
G37*
G36*
X56669400Y-37094200D02*
X54887400Y-37094200D01*
X54887400Y-35292200D01*
X56669400Y-35292200D01*
X56669400Y-37094200D01*
X56669400Y-37094200D01*
G37*
G36*
X45932099Y-35355445D02*
X45969593Y-35366819D01*
X46004157Y-35385294D01*
X46034447Y-35410153D01*
X46059306Y-35440443D01*
X46077781Y-35475007D01*
X46089155Y-35512501D01*
X46093600Y-35557638D01*
X46093600Y-36296362D01*
X46089155Y-36341499D01*
X46077781Y-36378993D01*
X46059306Y-36413557D01*
X46034447Y-36443847D01*
X46004157Y-36468706D01*
X45969593Y-36487181D01*
X45932099Y-36498555D01*
X45886962Y-36503000D01*
X45248238Y-36503000D01*
X45203101Y-36498555D01*
X45165607Y-36487181D01*
X45131043Y-36468706D01*
X45100753Y-36443847D01*
X45075894Y-36413557D01*
X45057419Y-36378993D01*
X45046045Y-36341499D01*
X45041600Y-36296362D01*
X45041600Y-35557638D01*
X45046045Y-35512501D01*
X45057419Y-35475007D01*
X45075894Y-35440443D01*
X45100753Y-35410153D01*
X45131043Y-35385294D01*
X45165607Y-35366819D01*
X45203101Y-35355445D01*
X45248238Y-35351000D01*
X45886962Y-35351000D01*
X45932099Y-35355445D01*
X45932099Y-35355445D01*
G37*
G36*
X101418399Y-35355445D02*
X101455893Y-35366819D01*
X101490457Y-35385294D01*
X101520747Y-35410153D01*
X101545606Y-35440443D01*
X101564081Y-35475007D01*
X101575455Y-35512501D01*
X101579900Y-35557638D01*
X101579900Y-36296362D01*
X101575455Y-36341499D01*
X101564081Y-36378993D01*
X101545606Y-36413557D01*
X101520747Y-36443847D01*
X101490457Y-36468706D01*
X101455893Y-36487181D01*
X101418399Y-36498555D01*
X101373262Y-36503000D01*
X100734538Y-36503000D01*
X100689401Y-36498555D01*
X100651907Y-36487181D01*
X100617343Y-36468706D01*
X100587053Y-36443847D01*
X100562194Y-36413557D01*
X100543719Y-36378993D01*
X100532345Y-36341499D01*
X100527900Y-36296362D01*
X100527900Y-35557638D01*
X100532345Y-35512501D01*
X100543719Y-35475007D01*
X100562194Y-35440443D01*
X100587053Y-35410153D01*
X100617343Y-35385294D01*
X100651907Y-35366819D01*
X100689401Y-35355445D01*
X100734538Y-35351000D01*
X101373262Y-35351000D01*
X101418399Y-35355445D01*
X101418399Y-35355445D01*
G37*
G36*
X48624499Y-35344045D02*
X48661993Y-35355419D01*
X48696557Y-35373894D01*
X48726847Y-35398753D01*
X48751706Y-35429043D01*
X48770181Y-35463607D01*
X48781555Y-35501101D01*
X48786000Y-35546238D01*
X48786000Y-36284962D01*
X48781555Y-36330099D01*
X48770181Y-36367593D01*
X48751706Y-36402157D01*
X48726847Y-36432447D01*
X48696557Y-36457306D01*
X48661993Y-36475781D01*
X48624499Y-36487155D01*
X48579362Y-36491600D01*
X47940638Y-36491600D01*
X47895501Y-36487155D01*
X47858007Y-36475781D01*
X47823443Y-36457306D01*
X47793153Y-36432447D01*
X47768294Y-36402157D01*
X47749819Y-36367593D01*
X47738445Y-36330099D01*
X47734000Y-36284962D01*
X47734000Y-35546238D01*
X47738445Y-35501101D01*
X47749819Y-35463607D01*
X47768294Y-35429043D01*
X47793153Y-35398753D01*
X47823443Y-35373894D01*
X47858007Y-35355419D01*
X47895501Y-35344045D01*
X47940638Y-35339600D01*
X48579362Y-35339600D01*
X48624499Y-35344045D01*
X48624499Y-35344045D01*
G37*
G36*
X42403299Y-35442245D02*
X42440793Y-35453619D01*
X42475357Y-35472094D01*
X42505647Y-35496953D01*
X42530506Y-35527243D01*
X42548981Y-35561807D01*
X42560355Y-35599301D01*
X42564800Y-35644438D01*
X42564800Y-36283162D01*
X42560355Y-36328299D01*
X42548981Y-36365793D01*
X42530506Y-36400357D01*
X42505647Y-36430647D01*
X42475357Y-36455506D01*
X42440793Y-36473981D01*
X42403299Y-36485355D01*
X42358162Y-36489800D01*
X41619438Y-36489800D01*
X41574301Y-36485355D01*
X41536807Y-36473981D01*
X41502243Y-36455506D01*
X41471953Y-36430647D01*
X41447094Y-36400357D01*
X41428619Y-36365793D01*
X41417245Y-36328299D01*
X41412800Y-36283162D01*
X41412800Y-35644438D01*
X41417245Y-35599301D01*
X41428619Y-35561807D01*
X41447094Y-35527243D01*
X41471953Y-35496953D01*
X41502243Y-35472094D01*
X41536807Y-35453619D01*
X41574301Y-35442245D01*
X41619438Y-35437800D01*
X42358162Y-35437800D01*
X42403299Y-35442245D01*
X42403299Y-35442245D01*
G37*
G36*
X44153299Y-35442245D02*
X44190793Y-35453619D01*
X44225357Y-35472094D01*
X44255647Y-35496953D01*
X44280506Y-35527243D01*
X44298981Y-35561807D01*
X44310355Y-35599301D01*
X44314800Y-35644438D01*
X44314800Y-36283162D01*
X44310355Y-36328299D01*
X44298981Y-36365793D01*
X44280506Y-36400357D01*
X44255647Y-36430647D01*
X44225357Y-36455506D01*
X44190793Y-36473981D01*
X44153299Y-36485355D01*
X44108162Y-36489800D01*
X43369438Y-36489800D01*
X43324301Y-36485355D01*
X43286807Y-36473981D01*
X43252243Y-36455506D01*
X43221953Y-36430647D01*
X43197094Y-36400357D01*
X43178619Y-36365793D01*
X43167245Y-36328299D01*
X43162800Y-36283162D01*
X43162800Y-35644438D01*
X43167245Y-35599301D01*
X43178619Y-35561807D01*
X43197094Y-35527243D01*
X43221953Y-35496953D01*
X43252243Y-35472094D01*
X43286807Y-35453619D01*
X43324301Y-35442245D01*
X43369438Y-35437800D01*
X44108162Y-35437800D01*
X44153299Y-35442245D01*
X44153299Y-35442245D01*
G37*
G36*
X94898400Y-36489500D02*
X93996400Y-36489500D01*
X93996400Y-35487500D01*
X94898400Y-35487500D01*
X94898400Y-36489500D01*
X94898400Y-36489500D01*
G37*
G36*
X92998400Y-36489500D02*
X92096400Y-36489500D01*
X92096400Y-35487500D01*
X92998400Y-35487500D01*
X92998400Y-36489500D01*
X92998400Y-36489500D01*
G37*
G36*
X103259899Y-35305945D02*
X103297393Y-35317319D01*
X103331957Y-35335794D01*
X103362247Y-35360653D01*
X103387106Y-35390943D01*
X103405581Y-35425507D01*
X103416955Y-35463001D01*
X103421400Y-35508138D01*
X103421400Y-36246862D01*
X103416955Y-36291999D01*
X103405581Y-36329493D01*
X103387106Y-36364057D01*
X103362247Y-36394347D01*
X103331957Y-36419206D01*
X103297393Y-36437681D01*
X103259899Y-36449055D01*
X103214762Y-36453500D01*
X102576038Y-36453500D01*
X102530901Y-36449055D01*
X102493407Y-36437681D01*
X102458843Y-36419206D01*
X102428553Y-36394347D01*
X102403694Y-36364057D01*
X102385219Y-36329493D01*
X102373845Y-36291999D01*
X102369400Y-36246862D01*
X102369400Y-35508138D01*
X102373845Y-35463001D01*
X102385219Y-35425507D01*
X102403694Y-35390943D01*
X102428553Y-35360653D01*
X102458843Y-35335794D01*
X102493407Y-35317319D01*
X102530901Y-35305945D01*
X102576038Y-35301500D01*
X103214762Y-35301500D01*
X103259899Y-35305945D01*
X103259899Y-35305945D01*
G37*
G36*
X96871900Y-36453000D02*
X95869900Y-36453000D01*
X95869900Y-35551000D01*
X96871900Y-35551000D01*
X96871900Y-36453000D01*
X96871900Y-36453000D01*
G37*
G36*
X40547299Y-35304645D02*
X40584793Y-35316019D01*
X40619357Y-35334494D01*
X40649647Y-35359353D01*
X40674506Y-35389643D01*
X40692981Y-35424207D01*
X40704355Y-35461701D01*
X40708800Y-35506838D01*
X40708800Y-36245562D01*
X40704355Y-36290699D01*
X40692981Y-36328193D01*
X40674506Y-36362757D01*
X40649647Y-36393047D01*
X40619357Y-36417906D01*
X40584793Y-36436381D01*
X40547299Y-36447755D01*
X40502162Y-36452200D01*
X39863438Y-36452200D01*
X39818301Y-36447755D01*
X39780807Y-36436381D01*
X39746243Y-36417906D01*
X39715953Y-36393047D01*
X39691094Y-36362757D01*
X39672619Y-36328193D01*
X39661245Y-36290699D01*
X39656800Y-36245562D01*
X39656800Y-35506838D01*
X39661245Y-35461701D01*
X39672619Y-35424207D01*
X39691094Y-35389643D01*
X39715953Y-35359353D01*
X39746243Y-35334494D01*
X39780807Y-35316019D01*
X39818301Y-35304645D01*
X39863438Y-35300200D01*
X40502162Y-35300200D01*
X40547299Y-35304645D01*
X40547299Y-35304645D01*
G37*
G36*
X38820099Y-35304645D02*
X38857593Y-35316019D01*
X38892157Y-35334494D01*
X38922447Y-35359353D01*
X38947306Y-35389643D01*
X38965781Y-35424207D01*
X38977155Y-35461701D01*
X38981600Y-35506838D01*
X38981600Y-36245562D01*
X38977155Y-36290699D01*
X38965781Y-36328193D01*
X38947306Y-36362757D01*
X38922447Y-36393047D01*
X38892157Y-36417906D01*
X38857593Y-36436381D01*
X38820099Y-36447755D01*
X38774962Y-36452200D01*
X38136238Y-36452200D01*
X38091101Y-36447755D01*
X38053607Y-36436381D01*
X38019043Y-36417906D01*
X37988753Y-36393047D01*
X37963894Y-36362757D01*
X37945419Y-36328193D01*
X37934045Y-36290699D01*
X37929600Y-36245562D01*
X37929600Y-35506838D01*
X37934045Y-35461701D01*
X37945419Y-35424207D01*
X37963894Y-35389643D01*
X37988753Y-35359353D01*
X38019043Y-35334494D01*
X38053607Y-35316019D01*
X38091101Y-35304645D01*
X38136238Y-35300200D01*
X38774962Y-35300200D01*
X38820099Y-35304645D01*
X38820099Y-35304645D01*
G37*
G36*
X105164899Y-35291945D02*
X105202393Y-35303319D01*
X105236957Y-35321794D01*
X105267247Y-35346653D01*
X105292106Y-35376943D01*
X105310581Y-35411507D01*
X105321955Y-35449001D01*
X105326400Y-35494138D01*
X105326400Y-36232862D01*
X105321955Y-36277999D01*
X105310581Y-36315493D01*
X105292106Y-36350057D01*
X105267247Y-36380347D01*
X105236957Y-36405206D01*
X105202393Y-36423681D01*
X105164899Y-36435055D01*
X105119762Y-36439500D01*
X104481038Y-36439500D01*
X104435901Y-36435055D01*
X104398407Y-36423681D01*
X104363843Y-36405206D01*
X104333553Y-36380347D01*
X104308694Y-36350057D01*
X104290219Y-36315493D01*
X104278845Y-36277999D01*
X104274400Y-36232862D01*
X104274400Y-35494138D01*
X104278845Y-35449001D01*
X104290219Y-35411507D01*
X104308694Y-35376943D01*
X104333553Y-35346653D01*
X104363843Y-35321794D01*
X104398407Y-35303319D01*
X104435901Y-35291945D01*
X104481038Y-35287500D01*
X105119762Y-35287500D01*
X105164899Y-35291945D01*
X105164899Y-35291945D01*
G37*
G36*
X87892400Y-36227400D02*
X85640400Y-36227400D01*
X85640400Y-30625400D01*
X87892400Y-30625400D01*
X87892400Y-36227400D01*
X87892400Y-36227400D01*
G37*
G36*
X84042400Y-36227400D02*
X81790400Y-36227400D01*
X81790400Y-30625400D01*
X84042400Y-30625400D01*
X84042400Y-36227400D01*
X84042400Y-36227400D01*
G37*
G36*
X98871900Y-35503000D02*
X97869900Y-35503000D01*
X97869900Y-34601000D01*
X98871900Y-34601000D01*
X98871900Y-35503000D01*
X98871900Y-35503000D01*
G37*
G36*
X62061099Y-34300045D02*
X62098593Y-34311419D01*
X62133157Y-34329894D01*
X62163447Y-34354753D01*
X62188306Y-34385043D01*
X62206781Y-34419607D01*
X62218155Y-34457101D01*
X62222600Y-34502238D01*
X62222600Y-35240962D01*
X62218155Y-35286099D01*
X62206781Y-35323593D01*
X62188306Y-35358157D01*
X62163447Y-35388447D01*
X62133157Y-35413306D01*
X62098593Y-35431781D01*
X62061099Y-35443155D01*
X62015962Y-35447600D01*
X61377238Y-35447600D01*
X61332101Y-35443155D01*
X61294607Y-35431781D01*
X61260043Y-35413306D01*
X61229753Y-35388447D01*
X61204894Y-35358157D01*
X61186419Y-35323593D01*
X61175045Y-35286099D01*
X61170600Y-35240962D01*
X61170600Y-34502238D01*
X61175045Y-34457101D01*
X61186419Y-34419607D01*
X61204894Y-34385043D01*
X61229753Y-34354753D01*
X61260043Y-34329894D01*
X61294607Y-34311419D01*
X61332101Y-34300045D01*
X61377238Y-34295600D01*
X62015962Y-34295600D01*
X62061099Y-34300045D01*
X62061099Y-34300045D01*
G37*
G36*
X70124467Y-34526604D02*
X70147892Y-34533710D01*
X70169489Y-34545254D01*
X70188414Y-34560786D01*
X70203946Y-34579711D01*
X70215490Y-34601308D01*
X70222596Y-34624733D01*
X70225600Y-34655238D01*
X70225600Y-35143962D01*
X70222596Y-35174467D01*
X70215490Y-35197892D01*
X70203946Y-35219489D01*
X70188414Y-35238414D01*
X70169489Y-35253946D01*
X70147892Y-35265490D01*
X70124467Y-35272596D01*
X70093962Y-35275600D01*
X68280238Y-35275600D01*
X68249733Y-35272596D01*
X68226308Y-35265490D01*
X68204711Y-35253946D01*
X68185786Y-35238414D01*
X68170254Y-35219489D01*
X68158710Y-35197892D01*
X68151604Y-35174467D01*
X68148600Y-35143962D01*
X68148600Y-34655238D01*
X68151604Y-34624733D01*
X68158710Y-34601308D01*
X68170254Y-34579711D01*
X68185786Y-34560786D01*
X68204711Y-34545254D01*
X68226308Y-34533710D01*
X68249733Y-34526604D01*
X68280238Y-34523600D01*
X70093962Y-34523600D01*
X70124467Y-34526604D01*
X70124467Y-34526604D01*
G37*
G36*
X65049467Y-34526604D02*
X65072892Y-34533710D01*
X65094489Y-34545254D01*
X65113414Y-34560786D01*
X65128946Y-34579711D01*
X65140490Y-34601308D01*
X65147596Y-34624733D01*
X65150600Y-34655238D01*
X65150600Y-35143962D01*
X65147596Y-35174467D01*
X65140490Y-35197892D01*
X65128946Y-35219489D01*
X65113414Y-35238414D01*
X65094489Y-35253946D01*
X65072892Y-35265490D01*
X65049467Y-35272596D01*
X65018962Y-35275600D01*
X63205238Y-35275600D01*
X63174733Y-35272596D01*
X63151308Y-35265490D01*
X63129711Y-35253946D01*
X63110786Y-35238414D01*
X63095254Y-35219489D01*
X63083710Y-35197892D01*
X63076604Y-35174467D01*
X63073600Y-35143962D01*
X63073600Y-34655238D01*
X63076604Y-34624733D01*
X63083710Y-34601308D01*
X63095254Y-34579711D01*
X63110786Y-34560786D01*
X63129711Y-34545254D01*
X63151308Y-34533710D01*
X63174733Y-34526604D01*
X63205238Y-34523600D01*
X65018962Y-34523600D01*
X65049467Y-34526604D01*
X65049467Y-34526604D01*
G37*
G36*
X51894200Y-35265400D02*
X50112200Y-35265400D01*
X50112200Y-33463400D01*
X51894200Y-33463400D01*
X51894200Y-35265400D01*
X51894200Y-35265400D01*
G37*
G36*
X37166400Y-35075400D02*
X35344400Y-35075400D01*
X35344400Y-32793400D01*
X37166400Y-32793400D01*
X37166400Y-35075400D01*
X37166400Y-35075400D01*
G37*
G36*
X33286400Y-35075400D02*
X31464400Y-35075400D01*
X31464400Y-32793400D01*
X33286400Y-32793400D01*
X33286400Y-35075400D01*
X33286400Y-35075400D01*
G37*
G36*
X108155542Y-33347898D02*
X108294764Y-33405565D01*
X108420059Y-33489285D01*
X108526615Y-33595841D01*
X108610335Y-33721136D01*
X108668002Y-33860358D01*
X108697400Y-34008154D01*
X108697400Y-34158846D01*
X108668002Y-34306642D01*
X108610335Y-34445864D01*
X108526615Y-34571159D01*
X108420059Y-34677715D01*
X108294764Y-34761435D01*
X108155542Y-34819102D01*
X108007746Y-34848500D01*
X107857054Y-34848500D01*
X107709258Y-34819102D01*
X107570036Y-34761435D01*
X107444741Y-34677715D01*
X107338185Y-34571159D01*
X107254465Y-34445864D01*
X107196798Y-34306642D01*
X107167400Y-34158846D01*
X107167400Y-34008154D01*
X107196798Y-33860358D01*
X107254465Y-33721136D01*
X107338185Y-33595841D01*
X107444741Y-33489285D01*
X107570036Y-33405565D01*
X107709258Y-33347898D01*
X107857054Y-33318500D01*
X108007746Y-33318500D01*
X108155542Y-33347898D01*
X108155542Y-33347898D01*
G37*
G36*
X101418399Y-33605445D02*
X101455893Y-33616819D01*
X101490457Y-33635294D01*
X101520747Y-33660153D01*
X101545606Y-33690443D01*
X101564081Y-33725007D01*
X101575455Y-33762501D01*
X101579900Y-33807638D01*
X101579900Y-34546362D01*
X101575455Y-34591499D01*
X101564081Y-34628993D01*
X101545606Y-34663557D01*
X101520747Y-34693847D01*
X101490457Y-34718706D01*
X101455893Y-34737181D01*
X101418399Y-34748555D01*
X101373262Y-34753000D01*
X100734538Y-34753000D01*
X100689401Y-34748555D01*
X100651907Y-34737181D01*
X100617343Y-34718706D01*
X100587053Y-34693847D01*
X100562194Y-34663557D01*
X100543719Y-34628993D01*
X100532345Y-34591499D01*
X100527900Y-34546362D01*
X100527900Y-33807638D01*
X100532345Y-33762501D01*
X100543719Y-33725007D01*
X100562194Y-33690443D01*
X100587053Y-33660153D01*
X100617343Y-33635294D01*
X100651907Y-33616819D01*
X100689401Y-33605445D01*
X100734538Y-33601000D01*
X101373262Y-33601000D01*
X101418399Y-33605445D01*
X101418399Y-33605445D01*
G37*
G36*
X45932099Y-33605445D02*
X45969593Y-33616819D01*
X46004157Y-33635294D01*
X46034447Y-33660153D01*
X46059306Y-33690443D01*
X46077781Y-33725007D01*
X46089155Y-33762501D01*
X46093600Y-33807638D01*
X46093600Y-34546362D01*
X46089155Y-34591499D01*
X46077781Y-34628993D01*
X46059306Y-34663557D01*
X46034447Y-34693847D01*
X46004157Y-34718706D01*
X45969593Y-34737181D01*
X45932099Y-34748555D01*
X45886962Y-34753000D01*
X45248238Y-34753000D01*
X45203101Y-34748555D01*
X45165607Y-34737181D01*
X45131043Y-34718706D01*
X45100753Y-34693847D01*
X45075894Y-34663557D01*
X45057419Y-34628993D01*
X45046045Y-34591499D01*
X45041600Y-34546362D01*
X45041600Y-33807638D01*
X45046045Y-33762501D01*
X45057419Y-33725007D01*
X45075894Y-33690443D01*
X45100753Y-33660153D01*
X45131043Y-33635294D01*
X45165607Y-33616819D01*
X45203101Y-33605445D01*
X45248238Y-33601000D01*
X45886962Y-33601000D01*
X45932099Y-33605445D01*
X45932099Y-33605445D01*
G37*
G36*
X48624499Y-33594045D02*
X48661993Y-33605419D01*
X48696557Y-33623894D01*
X48726847Y-33648753D01*
X48751706Y-33679043D01*
X48770181Y-33713607D01*
X48781555Y-33751101D01*
X48786000Y-33796238D01*
X48786000Y-34534962D01*
X48781555Y-34580099D01*
X48770181Y-34617593D01*
X48751706Y-34652157D01*
X48726847Y-34682447D01*
X48696557Y-34707306D01*
X48661993Y-34725781D01*
X48624499Y-34737155D01*
X48579362Y-34741600D01*
X47940638Y-34741600D01*
X47895501Y-34737155D01*
X47858007Y-34725781D01*
X47823443Y-34707306D01*
X47793153Y-34682447D01*
X47768294Y-34652157D01*
X47749819Y-34617593D01*
X47738445Y-34580099D01*
X47734000Y-34534962D01*
X47734000Y-33796238D01*
X47738445Y-33751101D01*
X47749819Y-33713607D01*
X47768294Y-33679043D01*
X47793153Y-33648753D01*
X47823443Y-33623894D01*
X47858007Y-33605419D01*
X47895501Y-33594045D01*
X47940638Y-33589600D01*
X48579362Y-33589600D01*
X48624499Y-33594045D01*
X48624499Y-33594045D01*
G37*
G36*
X75654762Y-33197281D02*
X75689677Y-33207873D01*
X75721865Y-33225078D01*
X75750073Y-33248227D01*
X75773222Y-33276435D01*
X75790427Y-33308623D01*
X75801019Y-33343538D01*
X75805200Y-33385995D01*
X75805200Y-34527205D01*
X75801019Y-34569662D01*
X75790427Y-34604577D01*
X75773222Y-34636765D01*
X75750073Y-34664973D01*
X75721865Y-34688122D01*
X75689677Y-34705327D01*
X75654762Y-34715919D01*
X75612305Y-34720100D01*
X74146095Y-34720100D01*
X74103638Y-34715919D01*
X74068723Y-34705327D01*
X74036535Y-34688122D01*
X74008327Y-34664973D01*
X73985178Y-34636765D01*
X73967973Y-34604577D01*
X73957381Y-34569662D01*
X73953200Y-34527205D01*
X73953200Y-33385995D01*
X73957381Y-33343538D01*
X73967973Y-33308623D01*
X73985178Y-33276435D01*
X74008327Y-33248227D01*
X74036535Y-33225078D01*
X74068723Y-33207873D01*
X74103638Y-33197281D01*
X74146095Y-33193100D01*
X75612305Y-33193100D01*
X75654762Y-33197281D01*
X75654762Y-33197281D01*
G37*
G36*
X72809962Y-33197281D02*
X72844877Y-33207873D01*
X72877065Y-33225078D01*
X72905273Y-33248227D01*
X72928422Y-33276435D01*
X72945627Y-33308623D01*
X72956219Y-33343538D01*
X72960400Y-33385995D01*
X72960400Y-34527205D01*
X72956219Y-34569662D01*
X72945627Y-34604577D01*
X72928422Y-34636765D01*
X72905273Y-34664973D01*
X72877065Y-34688122D01*
X72844877Y-34705327D01*
X72809962Y-34715919D01*
X72767505Y-34720100D01*
X71301295Y-34720100D01*
X71258838Y-34715919D01*
X71223923Y-34705327D01*
X71191735Y-34688122D01*
X71163527Y-34664973D01*
X71140378Y-34636765D01*
X71123173Y-34604577D01*
X71112581Y-34569662D01*
X71108400Y-34527205D01*
X71108400Y-33385995D01*
X71112581Y-33343538D01*
X71123173Y-33308623D01*
X71140378Y-33276435D01*
X71163527Y-33248227D01*
X71191735Y-33225078D01*
X71223923Y-33207873D01*
X71258838Y-33197281D01*
X71301295Y-33193100D01*
X72767505Y-33193100D01*
X72809962Y-33197281D01*
X72809962Y-33197281D01*
G37*
G36*
X103259899Y-33555945D02*
X103297393Y-33567319D01*
X103331957Y-33585794D01*
X103362247Y-33610653D01*
X103387106Y-33640943D01*
X103405581Y-33675507D01*
X103416955Y-33713001D01*
X103421400Y-33758138D01*
X103421400Y-34496862D01*
X103416955Y-34541999D01*
X103405581Y-34579493D01*
X103387106Y-34614057D01*
X103362247Y-34644347D01*
X103331957Y-34669206D01*
X103297393Y-34687681D01*
X103259899Y-34699055D01*
X103214762Y-34703500D01*
X102576038Y-34703500D01*
X102530901Y-34699055D01*
X102493407Y-34687681D01*
X102458843Y-34669206D01*
X102428553Y-34644347D01*
X102403694Y-34614057D01*
X102385219Y-34579493D01*
X102373845Y-34541999D01*
X102369400Y-34496862D01*
X102369400Y-33758138D01*
X102373845Y-33713001D01*
X102385219Y-33675507D01*
X102403694Y-33640943D01*
X102428553Y-33610653D01*
X102458843Y-33585794D01*
X102493407Y-33567319D01*
X102530901Y-33555945D01*
X102576038Y-33551500D01*
X103214762Y-33551500D01*
X103259899Y-33555945D01*
X103259899Y-33555945D01*
G37*
G36*
X38820099Y-33554645D02*
X38857593Y-33566019D01*
X38892157Y-33584494D01*
X38922447Y-33609353D01*
X38947306Y-33639643D01*
X38965781Y-33674207D01*
X38977155Y-33711701D01*
X38981600Y-33756838D01*
X38981600Y-34495562D01*
X38977155Y-34540699D01*
X38965781Y-34578193D01*
X38947306Y-34612757D01*
X38922447Y-34643047D01*
X38892157Y-34667906D01*
X38857593Y-34686381D01*
X38820099Y-34697755D01*
X38774962Y-34702200D01*
X38136238Y-34702200D01*
X38091101Y-34697755D01*
X38053607Y-34686381D01*
X38019043Y-34667906D01*
X37988753Y-34643047D01*
X37963894Y-34612757D01*
X37945419Y-34578193D01*
X37934045Y-34540699D01*
X37929600Y-34495562D01*
X37929600Y-33756838D01*
X37934045Y-33711701D01*
X37945419Y-33674207D01*
X37963894Y-33639643D01*
X37988753Y-33609353D01*
X38019043Y-33584494D01*
X38053607Y-33566019D01*
X38091101Y-33554645D01*
X38136238Y-33550200D01*
X38774962Y-33550200D01*
X38820099Y-33554645D01*
X38820099Y-33554645D01*
G37*
G36*
X40547299Y-33554645D02*
X40584793Y-33566019D01*
X40619357Y-33584494D01*
X40649647Y-33609353D01*
X40674506Y-33639643D01*
X40692981Y-33674207D01*
X40704355Y-33711701D01*
X40708800Y-33756838D01*
X40708800Y-34495562D01*
X40704355Y-34540699D01*
X40692981Y-34578193D01*
X40674506Y-34612757D01*
X40649647Y-34643047D01*
X40619357Y-34667906D01*
X40584793Y-34686381D01*
X40547299Y-34697755D01*
X40502162Y-34702200D01*
X39863438Y-34702200D01*
X39818301Y-34697755D01*
X39780807Y-34686381D01*
X39746243Y-34667906D01*
X39715953Y-34643047D01*
X39691094Y-34612757D01*
X39672619Y-34578193D01*
X39661245Y-34540699D01*
X39656800Y-34495562D01*
X39656800Y-33756838D01*
X39661245Y-33711701D01*
X39672619Y-33674207D01*
X39691094Y-33639643D01*
X39715953Y-33609353D01*
X39746243Y-33584494D01*
X39780807Y-33566019D01*
X39818301Y-33554645D01*
X39863438Y-33550200D01*
X40502162Y-33550200D01*
X40547299Y-33554645D01*
X40547299Y-33554645D01*
G37*
G36*
X105164899Y-33541945D02*
X105202393Y-33553319D01*
X105236957Y-33571794D01*
X105267247Y-33596653D01*
X105292106Y-33626943D01*
X105310581Y-33661507D01*
X105321955Y-33699001D01*
X105326400Y-33744138D01*
X105326400Y-34482862D01*
X105321955Y-34527999D01*
X105310581Y-34565493D01*
X105292106Y-34600057D01*
X105267247Y-34630347D01*
X105236957Y-34655206D01*
X105202393Y-34673681D01*
X105164899Y-34685055D01*
X105119762Y-34689500D01*
X104481038Y-34689500D01*
X104435901Y-34685055D01*
X104398407Y-34673681D01*
X104363843Y-34655206D01*
X104333553Y-34630347D01*
X104308694Y-34600057D01*
X104290219Y-34565493D01*
X104278845Y-34527999D01*
X104274400Y-34482862D01*
X104274400Y-33744138D01*
X104278845Y-33699001D01*
X104290219Y-33661507D01*
X104308694Y-33626943D01*
X104333553Y-33596653D01*
X104363843Y-33571794D01*
X104398407Y-33553319D01*
X104435901Y-33541945D01*
X104481038Y-33537500D01*
X105119762Y-33537500D01*
X105164899Y-33541945D01*
X105164899Y-33541945D01*
G37*
G36*
X96871900Y-34553000D02*
X95869900Y-34553000D01*
X95869900Y-33651000D01*
X96871900Y-33651000D01*
X96871900Y-34553000D01*
X96871900Y-34553000D01*
G37*
G36*
X93948400Y-34489500D02*
X93046400Y-34489500D01*
X93046400Y-33487500D01*
X93948400Y-33487500D01*
X93948400Y-34489500D01*
X93948400Y-34489500D01*
G37*
G36*
X26019167Y-31673359D02*
X26149672Y-31699318D01*
X26395539Y-31801159D01*
X26531790Y-31892200D01*
X26616815Y-31949012D01*
X26804988Y-32137185D01*
X26804990Y-32137188D01*
X26952841Y-32358461D01*
X27054682Y-32604328D01*
X27069632Y-32679489D01*
X27106600Y-32865337D01*
X27106600Y-33131463D01*
X27091401Y-33207873D01*
X27054682Y-33392472D01*
X26952841Y-33638339D01*
X26809675Y-33852600D01*
X26804988Y-33859615D01*
X26616815Y-34047788D01*
X26616812Y-34047790D01*
X26395539Y-34195641D01*
X26149672Y-34297482D01*
X26058486Y-34315620D01*
X25888663Y-34349400D01*
X25622537Y-34349400D01*
X25452714Y-34315620D01*
X25361528Y-34297482D01*
X25115661Y-34195641D01*
X24894388Y-34047790D01*
X24894385Y-34047788D01*
X24706212Y-33859615D01*
X24701525Y-33852600D01*
X24558359Y-33638339D01*
X24456518Y-33392472D01*
X24419799Y-33207873D01*
X24404600Y-33131463D01*
X24404600Y-32865337D01*
X24441568Y-32679489D01*
X24456518Y-32604328D01*
X24558359Y-32358461D01*
X24706210Y-32137188D01*
X24706212Y-32137185D01*
X24894385Y-31949012D01*
X24979410Y-31892200D01*
X25115661Y-31801159D01*
X25361528Y-31699318D01*
X25492033Y-31673359D01*
X25622537Y-31647400D01*
X25888663Y-31647400D01*
X26019167Y-31673359D01*
X26019167Y-31673359D01*
G37*
G36*
X80160400Y-34302400D02*
X77878400Y-34302400D01*
X77878400Y-32480400D01*
X80160400Y-32480400D01*
X80160400Y-34302400D01*
X80160400Y-34302400D01*
G37*
G36*
X65049467Y-33256604D02*
X65072892Y-33263710D01*
X65094489Y-33275254D01*
X65113414Y-33290786D01*
X65128946Y-33309711D01*
X65140490Y-33331308D01*
X65147596Y-33354733D01*
X65150600Y-33385238D01*
X65150600Y-33873962D01*
X65147596Y-33904467D01*
X65140490Y-33927892D01*
X65128946Y-33949489D01*
X65113414Y-33968414D01*
X65094489Y-33983946D01*
X65072892Y-33995490D01*
X65049467Y-34002596D01*
X65018962Y-34005600D01*
X63205238Y-34005600D01*
X63174733Y-34002596D01*
X63151308Y-33995490D01*
X63129711Y-33983946D01*
X63110786Y-33968414D01*
X63095254Y-33949489D01*
X63083710Y-33927892D01*
X63076604Y-33904467D01*
X63073600Y-33873962D01*
X63073600Y-33385238D01*
X63076604Y-33354733D01*
X63083710Y-33331308D01*
X63095254Y-33309711D01*
X63110786Y-33290786D01*
X63129711Y-33275254D01*
X63151308Y-33263710D01*
X63174733Y-33256604D01*
X63205238Y-33253600D01*
X65018962Y-33253600D01*
X65049467Y-33256604D01*
X65049467Y-33256604D01*
G37*
G36*
X70124467Y-33256604D02*
X70147892Y-33263710D01*
X70169489Y-33275254D01*
X70188414Y-33290786D01*
X70203946Y-33309711D01*
X70215490Y-33331308D01*
X70222596Y-33354733D01*
X70225600Y-33385238D01*
X70225600Y-33873962D01*
X70222596Y-33904467D01*
X70215490Y-33927892D01*
X70203946Y-33949489D01*
X70188414Y-33968414D01*
X70169489Y-33983946D01*
X70147892Y-33995490D01*
X70124467Y-34002596D01*
X70093962Y-34005600D01*
X68280238Y-34005600D01*
X68249733Y-34002596D01*
X68226308Y-33995490D01*
X68204711Y-33983946D01*
X68185786Y-33968414D01*
X68170254Y-33949489D01*
X68158710Y-33927892D01*
X68151604Y-33904467D01*
X68148600Y-33873962D01*
X68148600Y-33385238D01*
X68151604Y-33354733D01*
X68158710Y-33331308D01*
X68170254Y-33309711D01*
X68185786Y-33290786D01*
X68204711Y-33275254D01*
X68226308Y-33263710D01*
X68249733Y-33256604D01*
X68280238Y-33253600D01*
X70093962Y-33253600D01*
X70124467Y-33256604D01*
X70124467Y-33256604D01*
G37*
G36*
X62061099Y-32550045D02*
X62098593Y-32561419D01*
X62133157Y-32579894D01*
X62163447Y-32604753D01*
X62188306Y-32635043D01*
X62206781Y-32669607D01*
X62218155Y-32707101D01*
X62222600Y-32752238D01*
X62222600Y-33490962D01*
X62218155Y-33536099D01*
X62206781Y-33573593D01*
X62188306Y-33608157D01*
X62163447Y-33638447D01*
X62133157Y-33663306D01*
X62098593Y-33681781D01*
X62061099Y-33693155D01*
X62015962Y-33697600D01*
X61377238Y-33697600D01*
X61332101Y-33693155D01*
X61294607Y-33681781D01*
X61260043Y-33663306D01*
X61229753Y-33638447D01*
X61204894Y-33608157D01*
X61186419Y-33573593D01*
X61175045Y-33536099D01*
X61170600Y-33490962D01*
X61170600Y-32752238D01*
X61175045Y-32707101D01*
X61186419Y-32669607D01*
X61204894Y-32635043D01*
X61229753Y-32604753D01*
X61260043Y-32579894D01*
X61294607Y-32561419D01*
X61332101Y-32550045D01*
X61377238Y-32545600D01*
X62015962Y-32545600D01*
X62061099Y-32550045D01*
X62061099Y-32550045D01*
G37*
G36*
X56669400Y-33694200D02*
X54887400Y-33694200D01*
X54887400Y-31892200D01*
X56669400Y-31892200D01*
X56669400Y-33694200D01*
X56669400Y-33694200D01*
G37*
G36*
X108155542Y-31347898D02*
X108294764Y-31405565D01*
X108420059Y-31489285D01*
X108526615Y-31595841D01*
X108610335Y-31721136D01*
X108668002Y-31860358D01*
X108697400Y-32008154D01*
X108697400Y-32158846D01*
X108668002Y-32306642D01*
X108610335Y-32445864D01*
X108526615Y-32571159D01*
X108420059Y-32677715D01*
X108294764Y-32761435D01*
X108155542Y-32819102D01*
X108007746Y-32848500D01*
X107857054Y-32848500D01*
X107709258Y-32819102D01*
X107570036Y-32761435D01*
X107444741Y-32677715D01*
X107338185Y-32571159D01*
X107254465Y-32445864D01*
X107196798Y-32306642D01*
X107167400Y-32158846D01*
X107167400Y-32008154D01*
X107196798Y-31860358D01*
X107254465Y-31721136D01*
X107338185Y-31595841D01*
X107444741Y-31489285D01*
X107570036Y-31405565D01*
X107709258Y-31347898D01*
X107857054Y-31318500D01*
X108007746Y-31318500D01*
X108155542Y-31347898D01*
X108155542Y-31347898D01*
G37*
G36*
X65049467Y-31986604D02*
X65072892Y-31993710D01*
X65094489Y-32005254D01*
X65113414Y-32020786D01*
X65128946Y-32039711D01*
X65140490Y-32061308D01*
X65147596Y-32084733D01*
X65150600Y-32115238D01*
X65150600Y-32603962D01*
X65147596Y-32634467D01*
X65140490Y-32657892D01*
X65128946Y-32679489D01*
X65113414Y-32698414D01*
X65094489Y-32713946D01*
X65072892Y-32725490D01*
X65049467Y-32732596D01*
X65018962Y-32735600D01*
X63205238Y-32735600D01*
X63174733Y-32732596D01*
X63151308Y-32725490D01*
X63129711Y-32713946D01*
X63110786Y-32698414D01*
X63095254Y-32679489D01*
X63083710Y-32657892D01*
X63076604Y-32634467D01*
X63073600Y-32603962D01*
X63073600Y-32115238D01*
X63076604Y-32084733D01*
X63083710Y-32061308D01*
X63095254Y-32039711D01*
X63110786Y-32020786D01*
X63129711Y-32005254D01*
X63151308Y-31993710D01*
X63174733Y-31986604D01*
X63205238Y-31983600D01*
X65018962Y-31983600D01*
X65049467Y-31986604D01*
X65049467Y-31986604D01*
G37*
G36*
X70124467Y-31986604D02*
X70147892Y-31993710D01*
X70169489Y-32005254D01*
X70188414Y-32020786D01*
X70203946Y-32039711D01*
X70215490Y-32061308D01*
X70222596Y-32084733D01*
X70225600Y-32115238D01*
X70225600Y-32603962D01*
X70222596Y-32634467D01*
X70215490Y-32657892D01*
X70203946Y-32679489D01*
X70188414Y-32698414D01*
X70169489Y-32713946D01*
X70147892Y-32725490D01*
X70124467Y-32732596D01*
X70093962Y-32735600D01*
X68280238Y-32735600D01*
X68249733Y-32732596D01*
X68226308Y-32725490D01*
X68204711Y-32713946D01*
X68185786Y-32698414D01*
X68170254Y-32679489D01*
X68158710Y-32657892D01*
X68151604Y-32634467D01*
X68148600Y-32603962D01*
X68148600Y-32115238D01*
X68151604Y-32084733D01*
X68158710Y-32061308D01*
X68170254Y-32039711D01*
X68185786Y-32020786D01*
X68204711Y-32005254D01*
X68226308Y-31993710D01*
X68249733Y-31986604D01*
X68280238Y-31983600D01*
X70093962Y-31983600D01*
X70124467Y-31986604D01*
X70124467Y-31986604D01*
G37*
G36*
X105164899Y-31545445D02*
X105202393Y-31556819D01*
X105236957Y-31575294D01*
X105267247Y-31600153D01*
X105292106Y-31630443D01*
X105310581Y-31665007D01*
X105321955Y-31702501D01*
X105326400Y-31747638D01*
X105326400Y-32486362D01*
X105321955Y-32531499D01*
X105310581Y-32568993D01*
X105292106Y-32603557D01*
X105267247Y-32633847D01*
X105236957Y-32658706D01*
X105202393Y-32677181D01*
X105164899Y-32688555D01*
X105119762Y-32693000D01*
X104481038Y-32693000D01*
X104435901Y-32688555D01*
X104398407Y-32677181D01*
X104363843Y-32658706D01*
X104333553Y-32633847D01*
X104308694Y-32603557D01*
X104290219Y-32568993D01*
X104278845Y-32531499D01*
X104274400Y-32486362D01*
X104274400Y-31747638D01*
X104278845Y-31702501D01*
X104290219Y-31665007D01*
X104308694Y-31630443D01*
X104333553Y-31600153D01*
X104363843Y-31575294D01*
X104398407Y-31556819D01*
X104435901Y-31545445D01*
X104481038Y-31541000D01*
X105119762Y-31541000D01*
X105164899Y-31545445D01*
X105164899Y-31545445D01*
G37*
G36*
X95025400Y-32679500D02*
X94123400Y-32679500D01*
X94123400Y-31677500D01*
X95025400Y-31677500D01*
X95025400Y-32679500D01*
X95025400Y-32679500D01*
G37*
G36*
X93125400Y-32679500D02*
X92223400Y-32679500D01*
X92223400Y-31677500D01*
X93125400Y-31677500D01*
X93125400Y-32679500D01*
X93125400Y-32679500D01*
G37*
G36*
X103259899Y-31495945D02*
X103297393Y-31507319D01*
X103331957Y-31525794D01*
X103362247Y-31550653D01*
X103387106Y-31580943D01*
X103405581Y-31615507D01*
X103416955Y-31653001D01*
X103421400Y-31698138D01*
X103421400Y-32436862D01*
X103416955Y-32481999D01*
X103405581Y-32519493D01*
X103387106Y-32554057D01*
X103362247Y-32584347D01*
X103331957Y-32609206D01*
X103297393Y-32627681D01*
X103259899Y-32639055D01*
X103214762Y-32643500D01*
X102576038Y-32643500D01*
X102530901Y-32639055D01*
X102493407Y-32627681D01*
X102458843Y-32609206D01*
X102428553Y-32584347D01*
X102403694Y-32554057D01*
X102385219Y-32519493D01*
X102373845Y-32481999D01*
X102369400Y-32436862D01*
X102369400Y-31698138D01*
X102373845Y-31653001D01*
X102385219Y-31615507D01*
X102403694Y-31580943D01*
X102428553Y-31550653D01*
X102458843Y-31525794D01*
X102493407Y-31507319D01*
X102530901Y-31495945D01*
X102576038Y-31491500D01*
X103214762Y-31491500D01*
X103259899Y-31495945D01*
X103259899Y-31495945D01*
G37*
G36*
X96871900Y-32643000D02*
X95869900Y-32643000D01*
X95869900Y-31741000D01*
X96871900Y-31741000D01*
X96871900Y-32643000D01*
X96871900Y-32643000D01*
G37*
G36*
X101418399Y-31481945D02*
X101455893Y-31493319D01*
X101490457Y-31511794D01*
X101520747Y-31536653D01*
X101545606Y-31566943D01*
X101564081Y-31601507D01*
X101575455Y-31639001D01*
X101579900Y-31684138D01*
X101579900Y-32422862D01*
X101575455Y-32467999D01*
X101564081Y-32505493D01*
X101545606Y-32540057D01*
X101520747Y-32570347D01*
X101490457Y-32595206D01*
X101455893Y-32613681D01*
X101418399Y-32625055D01*
X101373262Y-32629500D01*
X100734538Y-32629500D01*
X100689401Y-32625055D01*
X100651907Y-32613681D01*
X100617343Y-32595206D01*
X100587053Y-32570347D01*
X100562194Y-32540057D01*
X100543719Y-32505493D01*
X100532345Y-32467999D01*
X100527900Y-32422862D01*
X100527900Y-31684138D01*
X100532345Y-31639001D01*
X100543719Y-31601507D01*
X100562194Y-31566943D01*
X100587053Y-31536653D01*
X100617343Y-31511794D01*
X100651907Y-31493319D01*
X100689401Y-31481945D01*
X100734538Y-31477500D01*
X101373262Y-31477500D01*
X101418399Y-31481945D01*
X101418399Y-31481945D01*
G37*
G36*
X45334067Y-31554804D02*
X45357492Y-31561910D01*
X45379089Y-31573454D01*
X45398014Y-31588986D01*
X45413546Y-31607911D01*
X45425090Y-31629508D01*
X45432196Y-31652933D01*
X45435200Y-31683438D01*
X45435200Y-32172162D01*
X45432196Y-32202667D01*
X45425090Y-32226092D01*
X45413546Y-32247689D01*
X45398014Y-32266614D01*
X45379089Y-32282146D01*
X45357492Y-32293690D01*
X45334067Y-32300796D01*
X45303562Y-32303800D01*
X43489838Y-32303800D01*
X43459333Y-32300796D01*
X43435908Y-32293690D01*
X43414311Y-32282146D01*
X43395386Y-32266614D01*
X43379854Y-32247689D01*
X43368310Y-32226092D01*
X43361204Y-32202667D01*
X43358200Y-32172162D01*
X43358200Y-31683438D01*
X43361204Y-31652933D01*
X43368310Y-31629508D01*
X43379854Y-31607911D01*
X43395386Y-31588986D01*
X43414311Y-31573454D01*
X43435908Y-31561910D01*
X43459333Y-31554804D01*
X43489838Y-31551800D01*
X45303562Y-31551800D01*
X45334067Y-31554804D01*
X45334067Y-31554804D01*
G37*
G36*
X40259067Y-31554804D02*
X40282492Y-31561910D01*
X40304089Y-31573454D01*
X40323014Y-31588986D01*
X40338546Y-31607911D01*
X40350090Y-31629508D01*
X40357196Y-31652933D01*
X40360200Y-31683438D01*
X40360200Y-32172162D01*
X40357196Y-32202667D01*
X40350090Y-32226092D01*
X40338546Y-32247689D01*
X40323014Y-32266614D01*
X40304089Y-32282146D01*
X40282492Y-32293690D01*
X40259067Y-32300796D01*
X40228562Y-32303800D01*
X38414838Y-32303800D01*
X38384333Y-32300796D01*
X38360908Y-32293690D01*
X38339311Y-32282146D01*
X38320386Y-32266614D01*
X38304854Y-32247689D01*
X38293310Y-32226092D01*
X38286204Y-32202667D01*
X38283200Y-32172162D01*
X38283200Y-31683438D01*
X38286204Y-31652933D01*
X38293310Y-31629508D01*
X38304854Y-31607911D01*
X38320386Y-31588986D01*
X38339311Y-31573454D01*
X38360908Y-31561910D01*
X38384333Y-31554804D01*
X38414838Y-31551800D01*
X40228562Y-31551800D01*
X40259067Y-31554804D01*
X40259067Y-31554804D01*
G37*
G36*
X51894200Y-31865400D02*
X50112200Y-31865400D01*
X50112200Y-30063400D01*
X51894200Y-30063400D01*
X51894200Y-31865400D01*
X51894200Y-31865400D01*
G37*
G36*
X98871900Y-31693000D02*
X97869900Y-31693000D01*
X97869900Y-30791000D01*
X98871900Y-30791000D01*
X98871900Y-31693000D01*
X98871900Y-31693000D01*
G37*
G36*
X62061099Y-30518045D02*
X62098593Y-30529419D01*
X62133157Y-30547894D01*
X62163447Y-30572753D01*
X62188306Y-30603043D01*
X62206781Y-30637607D01*
X62218155Y-30675101D01*
X62222600Y-30720238D01*
X62222600Y-31458962D01*
X62218155Y-31504099D01*
X62206781Y-31541593D01*
X62188306Y-31576157D01*
X62163447Y-31606447D01*
X62133157Y-31631306D01*
X62098593Y-31649781D01*
X62061099Y-31661155D01*
X62015962Y-31665600D01*
X61377238Y-31665600D01*
X61332101Y-31661155D01*
X61294607Y-31649781D01*
X61260043Y-31631306D01*
X61229753Y-31606447D01*
X61204894Y-31576157D01*
X61186419Y-31541593D01*
X61175045Y-31504099D01*
X61170600Y-31458962D01*
X61170600Y-30720238D01*
X61175045Y-30675101D01*
X61186419Y-30637607D01*
X61204894Y-30603043D01*
X61229753Y-30572753D01*
X61260043Y-30547894D01*
X61294607Y-30529419D01*
X61332101Y-30518045D01*
X61377238Y-30513600D01*
X62015962Y-30513600D01*
X62061099Y-30518045D01*
X62061099Y-30518045D01*
G37*
G36*
X65049467Y-30716604D02*
X65072892Y-30723710D01*
X65094489Y-30735254D01*
X65113414Y-30750786D01*
X65128946Y-30769711D01*
X65140490Y-30791308D01*
X65147596Y-30814733D01*
X65150600Y-30845238D01*
X65150600Y-31333962D01*
X65147596Y-31364467D01*
X65140490Y-31387892D01*
X65128946Y-31409489D01*
X65113414Y-31428414D01*
X65094489Y-31443946D01*
X65072892Y-31455490D01*
X65049467Y-31462596D01*
X65018962Y-31465600D01*
X63205238Y-31465600D01*
X63174733Y-31462596D01*
X63151308Y-31455490D01*
X63129711Y-31443946D01*
X63110786Y-31428414D01*
X63095254Y-31409489D01*
X63083710Y-31387892D01*
X63076604Y-31364467D01*
X63073600Y-31333962D01*
X63073600Y-30845238D01*
X63076604Y-30814733D01*
X63083710Y-30791308D01*
X63095254Y-30769711D01*
X63110786Y-30750786D01*
X63129711Y-30735254D01*
X63151308Y-30723710D01*
X63174733Y-30716604D01*
X63205238Y-30713600D01*
X65018962Y-30713600D01*
X65049467Y-30716604D01*
X65049467Y-30716604D01*
G37*
G36*
X70124467Y-30716604D02*
X70147892Y-30723710D01*
X70169489Y-30735254D01*
X70188414Y-30750786D01*
X70203946Y-30769711D01*
X70215490Y-30791308D01*
X70222596Y-30814733D01*
X70225600Y-30845238D01*
X70225600Y-31333962D01*
X70222596Y-31364467D01*
X70215490Y-31387892D01*
X70203946Y-31409489D01*
X70188414Y-31428414D01*
X70169489Y-31443946D01*
X70147892Y-31455490D01*
X70124467Y-31462596D01*
X70093962Y-31465600D01*
X68280238Y-31465600D01*
X68249733Y-31462596D01*
X68226308Y-31455490D01*
X68204711Y-31443946D01*
X68185786Y-31428414D01*
X68170254Y-31409489D01*
X68158710Y-31387892D01*
X68151604Y-31364467D01*
X68148600Y-31333962D01*
X68148600Y-30845238D01*
X68151604Y-30814733D01*
X68158710Y-30791308D01*
X68170254Y-30769711D01*
X68185786Y-30750786D01*
X68204711Y-30735254D01*
X68226308Y-30723710D01*
X68249733Y-30716604D01*
X68280238Y-30713600D01*
X70093962Y-30713600D01*
X70124467Y-30716604D01*
X70124467Y-30716604D01*
G37*
G36*
X40259067Y-30284804D02*
X40282492Y-30291910D01*
X40304089Y-30303454D01*
X40323014Y-30318986D01*
X40338546Y-30337911D01*
X40350090Y-30359508D01*
X40357196Y-30382933D01*
X40360200Y-30413438D01*
X40360200Y-30902162D01*
X40357196Y-30932667D01*
X40350090Y-30956092D01*
X40338546Y-30977689D01*
X40323014Y-30996614D01*
X40304089Y-31012146D01*
X40282492Y-31023690D01*
X40259067Y-31030796D01*
X40228562Y-31033800D01*
X38414838Y-31033800D01*
X38384333Y-31030796D01*
X38360908Y-31023690D01*
X38339311Y-31012146D01*
X38320386Y-30996614D01*
X38304854Y-30977689D01*
X38293310Y-30956092D01*
X38286204Y-30932667D01*
X38283200Y-30902162D01*
X38283200Y-30413438D01*
X38286204Y-30382933D01*
X38293310Y-30359508D01*
X38304854Y-30337911D01*
X38320386Y-30318986D01*
X38339311Y-30303454D01*
X38360908Y-30291910D01*
X38384333Y-30284804D01*
X38414838Y-30281800D01*
X40228562Y-30281800D01*
X40259067Y-30284804D01*
X40259067Y-30284804D01*
G37*
G36*
X45334067Y-30284804D02*
X45357492Y-30291910D01*
X45379089Y-30303454D01*
X45398014Y-30318986D01*
X45413546Y-30337911D01*
X45425090Y-30359508D01*
X45432196Y-30382933D01*
X45435200Y-30413438D01*
X45435200Y-30902162D01*
X45432196Y-30932667D01*
X45425090Y-30956092D01*
X45413546Y-30977689D01*
X45398014Y-30996614D01*
X45379089Y-31012146D01*
X45357492Y-31023690D01*
X45334067Y-31030796D01*
X45303562Y-31033800D01*
X43489838Y-31033800D01*
X43459333Y-31030796D01*
X43435908Y-31023690D01*
X43414311Y-31012146D01*
X43395386Y-30996614D01*
X43379854Y-30977689D01*
X43368310Y-30956092D01*
X43361204Y-30932667D01*
X43358200Y-30902162D01*
X43358200Y-30413438D01*
X43361204Y-30382933D01*
X43368310Y-30359508D01*
X43379854Y-30337911D01*
X43395386Y-30318986D01*
X43414311Y-30303454D01*
X43435908Y-30291910D01*
X43459333Y-30284804D01*
X43489838Y-30281800D01*
X45303562Y-30281800D01*
X45334067Y-30284804D01*
X45334067Y-30284804D01*
G37*
G36*
X105164899Y-29795445D02*
X105202393Y-29806819D01*
X105236957Y-29825294D01*
X105267247Y-29850153D01*
X105292106Y-29880443D01*
X105310581Y-29915007D01*
X105321955Y-29952501D01*
X105326400Y-29997638D01*
X105326400Y-30736362D01*
X105321955Y-30781499D01*
X105310581Y-30818993D01*
X105292106Y-30853557D01*
X105267247Y-30883847D01*
X105236957Y-30908706D01*
X105202393Y-30927181D01*
X105164899Y-30938555D01*
X105119762Y-30943000D01*
X104481038Y-30943000D01*
X104435901Y-30938555D01*
X104398407Y-30927181D01*
X104363843Y-30908706D01*
X104333553Y-30883847D01*
X104308694Y-30853557D01*
X104290219Y-30818993D01*
X104278845Y-30781499D01*
X104274400Y-30736362D01*
X104274400Y-29997638D01*
X104278845Y-29952501D01*
X104290219Y-29915007D01*
X104308694Y-29880443D01*
X104333553Y-29850153D01*
X104363843Y-29825294D01*
X104398407Y-29806819D01*
X104435901Y-29795445D01*
X104481038Y-29791000D01*
X105119762Y-29791000D01*
X105164899Y-29795445D01*
X105164899Y-29795445D01*
G37*
G36*
X103259899Y-29745945D02*
X103297393Y-29757319D01*
X103331957Y-29775794D01*
X103362247Y-29800653D01*
X103387106Y-29830943D01*
X103405581Y-29865507D01*
X103416955Y-29903001D01*
X103421400Y-29948138D01*
X103421400Y-30686862D01*
X103416955Y-30731999D01*
X103405581Y-30769493D01*
X103387106Y-30804057D01*
X103362247Y-30834347D01*
X103331957Y-30859206D01*
X103297393Y-30877681D01*
X103259899Y-30889055D01*
X103214762Y-30893500D01*
X102576038Y-30893500D01*
X102530901Y-30889055D01*
X102493407Y-30877681D01*
X102458843Y-30859206D01*
X102428553Y-30834347D01*
X102403694Y-30804057D01*
X102385219Y-30769493D01*
X102373845Y-30731999D01*
X102369400Y-30686862D01*
X102369400Y-29948138D01*
X102373845Y-29903001D01*
X102385219Y-29865507D01*
X102403694Y-29830943D01*
X102428553Y-29800653D01*
X102458843Y-29775794D01*
X102493407Y-29757319D01*
X102530901Y-29745945D01*
X102576038Y-29741500D01*
X103214762Y-29741500D01*
X103259899Y-29745945D01*
X103259899Y-29745945D01*
G37*
G36*
X101418399Y-29731945D02*
X101455893Y-29743319D01*
X101490457Y-29761794D01*
X101520747Y-29786653D01*
X101545606Y-29816943D01*
X101564081Y-29851507D01*
X101575455Y-29889001D01*
X101579900Y-29934138D01*
X101579900Y-30672862D01*
X101575455Y-30717999D01*
X101564081Y-30755493D01*
X101545606Y-30790057D01*
X101520747Y-30820347D01*
X101490457Y-30845206D01*
X101455893Y-30863681D01*
X101418399Y-30875055D01*
X101373262Y-30879500D01*
X100734538Y-30879500D01*
X100689401Y-30875055D01*
X100651907Y-30863681D01*
X100617343Y-30845206D01*
X100587053Y-30820347D01*
X100562194Y-30790057D01*
X100543719Y-30755493D01*
X100532345Y-30717999D01*
X100527900Y-30672862D01*
X100527900Y-29934138D01*
X100532345Y-29889001D01*
X100543719Y-29851507D01*
X100562194Y-29816943D01*
X100587053Y-29786653D01*
X100617343Y-29761794D01*
X100651907Y-29743319D01*
X100689401Y-29731945D01*
X100734538Y-29727500D01*
X101373262Y-29727500D01*
X101418399Y-29731945D01*
X101418399Y-29731945D01*
G37*
G36*
X96871900Y-30743000D02*
X95869900Y-30743000D01*
X95869900Y-29841000D01*
X96871900Y-29841000D01*
X96871900Y-30743000D01*
X96871900Y-30743000D01*
G37*
G36*
X94075400Y-30679500D02*
X93173400Y-30679500D01*
X93173400Y-29677500D01*
X94075400Y-29677500D01*
X94075400Y-30679500D01*
X94075400Y-30679500D01*
G37*
G36*
X108155542Y-28847898D02*
X108294764Y-28905565D01*
X108420059Y-28989285D01*
X108526615Y-29095841D01*
X108610335Y-29221136D01*
X108668002Y-29360358D01*
X108697400Y-29508154D01*
X108697400Y-29658846D01*
X108668002Y-29806642D01*
X108610335Y-29945864D01*
X108526615Y-30071159D01*
X108420059Y-30177715D01*
X108294764Y-30261435D01*
X108155542Y-30319102D01*
X108007746Y-30348500D01*
X107857054Y-30348500D01*
X107709258Y-30319102D01*
X107570036Y-30261435D01*
X107444741Y-30177715D01*
X107338185Y-30071159D01*
X107254465Y-29945864D01*
X107196798Y-29806642D01*
X107167400Y-29658846D01*
X107167400Y-29508154D01*
X107196798Y-29360358D01*
X107254465Y-29221136D01*
X107338185Y-29095841D01*
X107444741Y-28989285D01*
X107570036Y-28905565D01*
X107709258Y-28847898D01*
X107857054Y-28818500D01*
X108007746Y-28818500D01*
X108155542Y-28847898D01*
X108155542Y-28847898D01*
G37*
G36*
X62061099Y-28768045D02*
X62098593Y-28779419D01*
X62133157Y-28797894D01*
X62163447Y-28822753D01*
X62188306Y-28853043D01*
X62206781Y-28887607D01*
X62218155Y-28925101D01*
X62222600Y-28970238D01*
X62222600Y-29708962D01*
X62218155Y-29754099D01*
X62206781Y-29791593D01*
X62188306Y-29826157D01*
X62163447Y-29856447D01*
X62133157Y-29881306D01*
X62098593Y-29899781D01*
X62061099Y-29911155D01*
X62015962Y-29915600D01*
X61377238Y-29915600D01*
X61332101Y-29911155D01*
X61294607Y-29899781D01*
X61260043Y-29881306D01*
X61229753Y-29856447D01*
X61204894Y-29826157D01*
X61186419Y-29791593D01*
X61175045Y-29754099D01*
X61170600Y-29708962D01*
X61170600Y-28970238D01*
X61175045Y-28925101D01*
X61186419Y-28887607D01*
X61204894Y-28853043D01*
X61229753Y-28822753D01*
X61260043Y-28797894D01*
X61294607Y-28779419D01*
X61332101Y-28768045D01*
X61377238Y-28763600D01*
X62015962Y-28763600D01*
X62061099Y-28768045D01*
X62061099Y-28768045D01*
G37*
G36*
X45334067Y-29014804D02*
X45357492Y-29021910D01*
X45379089Y-29033454D01*
X45398014Y-29048986D01*
X45413546Y-29067911D01*
X45425090Y-29089508D01*
X45432196Y-29112933D01*
X45435200Y-29143438D01*
X45435200Y-29632162D01*
X45432196Y-29662667D01*
X45425090Y-29686092D01*
X45413546Y-29707689D01*
X45398014Y-29726614D01*
X45379089Y-29742146D01*
X45357492Y-29753690D01*
X45334067Y-29760796D01*
X45303562Y-29763800D01*
X43489838Y-29763800D01*
X43459333Y-29760796D01*
X43435908Y-29753690D01*
X43414311Y-29742146D01*
X43395386Y-29726614D01*
X43379854Y-29707689D01*
X43368310Y-29686092D01*
X43361204Y-29662667D01*
X43358200Y-29632162D01*
X43358200Y-29143438D01*
X43361204Y-29112933D01*
X43368310Y-29089508D01*
X43379854Y-29067911D01*
X43395386Y-29048986D01*
X43414311Y-29033454D01*
X43435908Y-29021910D01*
X43459333Y-29014804D01*
X43489838Y-29011800D01*
X45303562Y-29011800D01*
X45334067Y-29014804D01*
X45334067Y-29014804D01*
G37*
G36*
X40259067Y-29014804D02*
X40282492Y-29021910D01*
X40304089Y-29033454D01*
X40323014Y-29048986D01*
X40338546Y-29067911D01*
X40350090Y-29089508D01*
X40357196Y-29112933D01*
X40360200Y-29143438D01*
X40360200Y-29632162D01*
X40357196Y-29662667D01*
X40350090Y-29686092D01*
X40338546Y-29707689D01*
X40323014Y-29726614D01*
X40304089Y-29742146D01*
X40282492Y-29753690D01*
X40259067Y-29760796D01*
X40228562Y-29763800D01*
X38414838Y-29763800D01*
X38384333Y-29760796D01*
X38360908Y-29753690D01*
X38339311Y-29742146D01*
X38320386Y-29726614D01*
X38304854Y-29707689D01*
X38293310Y-29686092D01*
X38286204Y-29662667D01*
X38283200Y-29632162D01*
X38283200Y-29143438D01*
X38286204Y-29112933D01*
X38293310Y-29089508D01*
X38304854Y-29067911D01*
X38320386Y-29048986D01*
X38339311Y-29033454D01*
X38360908Y-29021910D01*
X38384333Y-29014804D01*
X38414838Y-29011800D01*
X40228562Y-29011800D01*
X40259067Y-29014804D01*
X40259067Y-29014804D01*
G37*
G36*
X69731899Y-28497445D02*
X69769393Y-28508819D01*
X69803957Y-28527294D01*
X69834247Y-28552153D01*
X69859106Y-28582443D01*
X69877581Y-28617007D01*
X69888955Y-28654501D01*
X69893400Y-28699638D01*
X69893400Y-29438362D01*
X69888955Y-29483499D01*
X69877581Y-29520993D01*
X69859106Y-29555557D01*
X69834247Y-29585847D01*
X69803957Y-29610706D01*
X69769393Y-29629181D01*
X69731899Y-29640555D01*
X69686762Y-29645000D01*
X69048038Y-29645000D01*
X69002901Y-29640555D01*
X68965407Y-29629181D01*
X68930843Y-29610706D01*
X68900553Y-29585847D01*
X68875694Y-29555557D01*
X68857219Y-29520993D01*
X68845845Y-29483499D01*
X68841400Y-29438362D01*
X68841400Y-28699638D01*
X68845845Y-28654501D01*
X68857219Y-28617007D01*
X68875694Y-28582443D01*
X68900553Y-28552153D01*
X68930843Y-28527294D01*
X68965407Y-28508819D01*
X69002901Y-28497445D01*
X69048038Y-28493000D01*
X69686762Y-28493000D01*
X69731899Y-28497445D01*
X69731899Y-28497445D01*
G37*
G36*
X71636899Y-28483445D02*
X71674393Y-28494819D01*
X71708957Y-28513294D01*
X71739247Y-28538153D01*
X71764106Y-28568443D01*
X71782581Y-28603007D01*
X71793955Y-28640501D01*
X71798400Y-28685638D01*
X71798400Y-29424362D01*
X71793955Y-29469499D01*
X71782581Y-29506993D01*
X71764106Y-29541557D01*
X71739247Y-29571847D01*
X71708957Y-29596706D01*
X71674393Y-29615181D01*
X71636899Y-29626555D01*
X71591762Y-29631000D01*
X70953038Y-29631000D01*
X70907901Y-29626555D01*
X70870407Y-29615181D01*
X70835843Y-29596706D01*
X70805553Y-29571847D01*
X70780694Y-29541557D01*
X70762219Y-29506993D01*
X70750845Y-29469499D01*
X70746400Y-29424362D01*
X70746400Y-28685638D01*
X70750845Y-28640501D01*
X70762219Y-28603007D01*
X70780694Y-28568443D01*
X70805553Y-28538153D01*
X70835843Y-28513294D01*
X70870407Y-28494819D01*
X70907901Y-28483445D01*
X70953038Y-28479000D01*
X71591762Y-28479000D01*
X71636899Y-28483445D01*
X71636899Y-28483445D01*
G37*
G36*
X67963400Y-29529000D02*
X66961400Y-29529000D01*
X66961400Y-28627000D01*
X67963400Y-28627000D01*
X67963400Y-29529000D01*
X67963400Y-29529000D01*
G37*
G36*
X64016899Y-28356445D02*
X64054393Y-28367819D01*
X64088957Y-28386294D01*
X64119247Y-28411153D01*
X64144106Y-28441443D01*
X64162581Y-28476007D01*
X64173955Y-28513501D01*
X64178400Y-28558638D01*
X64178400Y-29297362D01*
X64173955Y-29342499D01*
X64162581Y-29379993D01*
X64144106Y-29414557D01*
X64119247Y-29444847D01*
X64088957Y-29469706D01*
X64054393Y-29488181D01*
X64016899Y-29499555D01*
X63971762Y-29504000D01*
X63333038Y-29504000D01*
X63287901Y-29499555D01*
X63250407Y-29488181D01*
X63215843Y-29469706D01*
X63185553Y-29444847D01*
X63160694Y-29414557D01*
X63142219Y-29379993D01*
X63130845Y-29342499D01*
X63126400Y-29297362D01*
X63126400Y-28558638D01*
X63130845Y-28513501D01*
X63142219Y-28476007D01*
X63160694Y-28441443D01*
X63185553Y-28411153D01*
X63215843Y-28386294D01*
X63250407Y-28367819D01*
X63287901Y-28356445D01*
X63333038Y-28352000D01*
X63971762Y-28352000D01*
X64016899Y-28356445D01*
X64016899Y-28356445D01*
G37*
G36*
X33155828Y-27782103D02*
X33310700Y-27846253D01*
X33450081Y-27939385D01*
X33568615Y-28057919D01*
X33661747Y-28197300D01*
X33725897Y-28352172D01*
X33758600Y-28516584D01*
X33758600Y-28684216D01*
X33725897Y-28848628D01*
X33661747Y-29003500D01*
X33568615Y-29142881D01*
X33450081Y-29261415D01*
X33310700Y-29354547D01*
X33155828Y-29418697D01*
X32991416Y-29451400D01*
X32823784Y-29451400D01*
X32659372Y-29418697D01*
X32504500Y-29354547D01*
X32365119Y-29261415D01*
X32246585Y-29142881D01*
X32153453Y-29003500D01*
X32089303Y-28848628D01*
X32056600Y-28684216D01*
X32056600Y-28516584D01*
X32089303Y-28352172D01*
X32153453Y-28197300D01*
X32246585Y-28057919D01*
X32365119Y-27939385D01*
X32504500Y-27846253D01*
X32659372Y-27782103D01*
X32823784Y-27749400D01*
X32991416Y-27749400D01*
X33155828Y-27782103D01*
X33155828Y-27782103D01*
G37*
G36*
X36258600Y-29451400D02*
X34556600Y-29451400D01*
X34556600Y-27749400D01*
X36258600Y-27749400D01*
X36258600Y-29451400D01*
X36258600Y-29451400D01*
G37*
G36*
X26019167Y-26673359D02*
X26149672Y-26699318D01*
X26395539Y-26801159D01*
X26602452Y-26939415D01*
X26616815Y-26949012D01*
X26804988Y-27137185D01*
X26804990Y-27137188D01*
X26952841Y-27358461D01*
X27054682Y-27604328D01*
X27059787Y-27629993D01*
X27106600Y-27865337D01*
X27106600Y-28131463D01*
X27080641Y-28261967D01*
X27054682Y-28392472D01*
X26952841Y-28638339D01*
X26813972Y-28846169D01*
X26804988Y-28859615D01*
X26616815Y-29047788D01*
X26616812Y-29047790D01*
X26395539Y-29195641D01*
X26149672Y-29297482D01*
X26019167Y-29323441D01*
X25888663Y-29349400D01*
X25622537Y-29349400D01*
X25492033Y-29323441D01*
X25361528Y-29297482D01*
X25115661Y-29195641D01*
X24894388Y-29047790D01*
X24894385Y-29047788D01*
X24706212Y-28859615D01*
X24697228Y-28846169D01*
X24558359Y-28638339D01*
X24456518Y-28392472D01*
X24430559Y-28261967D01*
X24404600Y-28131463D01*
X24404600Y-27865337D01*
X24451413Y-27629993D01*
X24456518Y-27604328D01*
X24558359Y-27358461D01*
X24706210Y-27137188D01*
X24706212Y-27137185D01*
X24894385Y-26949012D01*
X24908748Y-26939415D01*
X25115661Y-26801159D01*
X25361528Y-26699318D01*
X25492033Y-26673359D01*
X25622537Y-26647400D01*
X25888663Y-26647400D01*
X26019167Y-26673359D01*
X26019167Y-26673359D01*
G37*
G36*
X78335734Y-26893232D02*
X78545202Y-26979996D01*
X78733723Y-27105962D01*
X78894038Y-27266277D01*
X79020004Y-27454798D01*
X79106768Y-27664266D01*
X79151000Y-27886635D01*
X79151000Y-28113365D01*
X79106768Y-28335734D01*
X79020004Y-28545202D01*
X78894038Y-28733723D01*
X78733723Y-28894038D01*
X78545202Y-29020004D01*
X78335734Y-29106768D01*
X78113365Y-29151000D01*
X77886635Y-29151000D01*
X77664266Y-29106768D01*
X77454798Y-29020004D01*
X77266277Y-28894038D01*
X77105962Y-28733723D01*
X76979996Y-28545202D01*
X76893232Y-28335734D01*
X76849000Y-28113365D01*
X76849000Y-27886635D01*
X76893232Y-27664266D01*
X76979996Y-27454798D01*
X77105962Y-27266277D01*
X77266277Y-27105962D01*
X77454798Y-26979996D01*
X77664266Y-26893232D01*
X77886635Y-26849000D01*
X78113365Y-26849000D01*
X78335734Y-26893232D01*
X78335734Y-26893232D01*
G37*
G36*
X47303699Y-27811645D02*
X47341193Y-27823019D01*
X47375757Y-27841494D01*
X47406047Y-27866353D01*
X47430906Y-27896643D01*
X47449381Y-27931207D01*
X47460755Y-27968701D01*
X47465200Y-28013838D01*
X47465200Y-28752562D01*
X47460755Y-28797699D01*
X47449381Y-28835193D01*
X47430906Y-28869757D01*
X47406047Y-28900047D01*
X47375757Y-28924906D01*
X47341193Y-28943381D01*
X47303699Y-28954755D01*
X47258562Y-28959200D01*
X46619838Y-28959200D01*
X46574701Y-28954755D01*
X46537207Y-28943381D01*
X46502643Y-28924906D01*
X46472353Y-28900047D01*
X46447494Y-28869757D01*
X46429019Y-28835193D01*
X46417645Y-28797699D01*
X46413200Y-28752562D01*
X46413200Y-28013838D01*
X46417645Y-27968701D01*
X46429019Y-27931207D01*
X46447494Y-27896643D01*
X46472353Y-27866353D01*
X46502643Y-27841494D01*
X46537207Y-27823019D01*
X46574701Y-27811645D01*
X46619838Y-27807200D01*
X47258562Y-27807200D01*
X47303699Y-27811645D01*
X47303699Y-27811645D01*
G37*
G36*
X49183299Y-27797645D02*
X49220793Y-27809019D01*
X49255357Y-27827494D01*
X49285647Y-27852353D01*
X49310506Y-27882643D01*
X49328981Y-27917207D01*
X49340355Y-27954701D01*
X49344800Y-27999838D01*
X49344800Y-28738562D01*
X49340355Y-28783699D01*
X49328981Y-28821193D01*
X49310506Y-28855757D01*
X49285647Y-28886047D01*
X49255357Y-28910906D01*
X49220793Y-28929381D01*
X49183299Y-28940755D01*
X49138162Y-28945200D01*
X48499438Y-28945200D01*
X48454301Y-28940755D01*
X48416807Y-28929381D01*
X48382243Y-28910906D01*
X48351953Y-28886047D01*
X48327094Y-28855757D01*
X48308619Y-28821193D01*
X48297245Y-28783699D01*
X48292800Y-28738562D01*
X48292800Y-27999838D01*
X48297245Y-27954701D01*
X48308619Y-27917207D01*
X48327094Y-27882643D01*
X48351953Y-27852353D01*
X48382243Y-27827494D01*
X48416807Y-27809019D01*
X48454301Y-27797645D01*
X48499438Y-27793200D01*
X49138162Y-27793200D01*
X49183299Y-27797645D01*
X49183299Y-27797645D01*
G37*
G36*
X97885400Y-28933000D02*
X96983400Y-28933000D01*
X96983400Y-27931000D01*
X97885400Y-27931000D01*
X97885400Y-28933000D01*
X97885400Y-28933000D01*
G37*
G36*
X52812099Y-27875645D02*
X52849593Y-27887019D01*
X52884157Y-27905494D01*
X52914447Y-27930353D01*
X52939306Y-27960643D01*
X52957781Y-27995207D01*
X52969155Y-28032701D01*
X52973600Y-28077838D01*
X52973600Y-28716562D01*
X52969155Y-28761699D01*
X52957781Y-28799193D01*
X52939306Y-28833757D01*
X52914447Y-28864047D01*
X52884157Y-28888906D01*
X52849593Y-28907381D01*
X52812099Y-28918755D01*
X52766962Y-28923200D01*
X52028238Y-28923200D01*
X51983101Y-28918755D01*
X51945607Y-28907381D01*
X51911043Y-28888906D01*
X51880753Y-28864047D01*
X51855894Y-28833757D01*
X51837419Y-28799193D01*
X51826045Y-28761699D01*
X51821600Y-28716562D01*
X51821600Y-28077838D01*
X51826045Y-28032701D01*
X51837419Y-27995207D01*
X51855894Y-27960643D01*
X51880753Y-27930353D01*
X51911043Y-27905494D01*
X51945607Y-27887019D01*
X51983101Y-27875645D01*
X52028238Y-27871200D01*
X52766962Y-27871200D01*
X52812099Y-27875645D01*
X52812099Y-27875645D01*
G37*
G36*
X51062099Y-27875645D02*
X51099593Y-27887019D01*
X51134157Y-27905494D01*
X51164447Y-27930353D01*
X51189306Y-27960643D01*
X51207781Y-27995207D01*
X51219155Y-28032701D01*
X51223600Y-28077838D01*
X51223600Y-28716562D01*
X51219155Y-28761699D01*
X51207781Y-28799193D01*
X51189306Y-28833757D01*
X51164447Y-28864047D01*
X51134157Y-28888906D01*
X51099593Y-28907381D01*
X51062099Y-28918755D01*
X51016962Y-28923200D01*
X50278238Y-28923200D01*
X50233101Y-28918755D01*
X50195607Y-28907381D01*
X50161043Y-28888906D01*
X50130753Y-28864047D01*
X50105894Y-28833757D01*
X50087419Y-28799193D01*
X50076045Y-28761699D01*
X50071600Y-28716562D01*
X50071600Y-28077838D01*
X50076045Y-28032701D01*
X50087419Y-27995207D01*
X50105894Y-27960643D01*
X50130753Y-27930353D01*
X50161043Y-27905494D01*
X50195607Y-27887019D01*
X50233101Y-27875645D01*
X50278238Y-27871200D01*
X51016962Y-27871200D01*
X51062099Y-27875645D01*
X51062099Y-27875645D01*
G37*
G36*
X94965999Y-27850245D02*
X95003493Y-27861619D01*
X95038057Y-27880094D01*
X95068347Y-27904953D01*
X95093206Y-27935243D01*
X95111681Y-27969807D01*
X95123055Y-28007301D01*
X95127500Y-28052438D01*
X95127500Y-28691162D01*
X95123055Y-28736299D01*
X95111681Y-28773793D01*
X95093206Y-28808357D01*
X95068347Y-28838647D01*
X95038057Y-28863506D01*
X95003493Y-28881981D01*
X94965999Y-28893355D01*
X94920862Y-28897800D01*
X94182138Y-28897800D01*
X94137001Y-28893355D01*
X94099507Y-28881981D01*
X94064943Y-28863506D01*
X94034653Y-28838647D01*
X94009794Y-28808357D01*
X93991319Y-28773793D01*
X93979945Y-28736299D01*
X93975500Y-28691162D01*
X93975500Y-28052438D01*
X93979945Y-28007301D01*
X93991319Y-27969807D01*
X94009794Y-27935243D01*
X94034653Y-27904953D01*
X94064943Y-27880094D01*
X94099507Y-27861619D01*
X94137001Y-27850245D01*
X94182138Y-27845800D01*
X94920862Y-27845800D01*
X94965999Y-27850245D01*
X94965999Y-27850245D01*
G37*
G36*
X93215999Y-27850245D02*
X93253493Y-27861619D01*
X93288057Y-27880094D01*
X93318347Y-27904953D01*
X93343206Y-27935243D01*
X93361681Y-27969807D01*
X93373055Y-28007301D01*
X93377500Y-28052438D01*
X93377500Y-28691162D01*
X93373055Y-28736299D01*
X93361681Y-28773793D01*
X93343206Y-28808357D01*
X93318347Y-28838647D01*
X93288057Y-28863506D01*
X93253493Y-28881981D01*
X93215999Y-28893355D01*
X93170862Y-28897800D01*
X92432138Y-28897800D01*
X92387001Y-28893355D01*
X92349507Y-28881981D01*
X92314943Y-28863506D01*
X92284653Y-28838647D01*
X92259794Y-28808357D01*
X92241319Y-28773793D01*
X92229945Y-28736299D01*
X92225500Y-28691162D01*
X92225500Y-28052438D01*
X92229945Y-28007301D01*
X92241319Y-27969807D01*
X92259794Y-27935243D01*
X92284653Y-27904953D01*
X92314943Y-27880094D01*
X92349507Y-27861619D01*
X92387001Y-27850245D01*
X92432138Y-27845800D01*
X93170862Y-27845800D01*
X93215999Y-27850245D01*
X93215999Y-27850245D01*
G37*
G36*
X65963400Y-28579000D02*
X64961400Y-28579000D01*
X64961400Y-27677000D01*
X65963400Y-27677000D01*
X65963400Y-28579000D01*
X65963400Y-28579000D01*
G37*
G36*
X40259067Y-27744804D02*
X40282492Y-27751910D01*
X40304089Y-27763454D01*
X40323014Y-27778986D01*
X40338546Y-27797911D01*
X40350090Y-27819508D01*
X40357196Y-27842933D01*
X40360200Y-27873438D01*
X40360200Y-28362162D01*
X40357196Y-28392667D01*
X40350090Y-28416092D01*
X40338546Y-28437689D01*
X40323014Y-28456614D01*
X40304089Y-28472146D01*
X40282492Y-28483690D01*
X40259067Y-28490796D01*
X40228562Y-28493800D01*
X38414838Y-28493800D01*
X38384333Y-28490796D01*
X38360908Y-28483690D01*
X38339311Y-28472146D01*
X38320386Y-28456614D01*
X38304854Y-28437689D01*
X38293310Y-28416092D01*
X38286204Y-28392667D01*
X38283200Y-28362162D01*
X38283200Y-27873438D01*
X38286204Y-27842933D01*
X38293310Y-27819508D01*
X38304854Y-27797911D01*
X38320386Y-27778986D01*
X38339311Y-27763454D01*
X38360908Y-27751910D01*
X38384333Y-27744804D01*
X38414838Y-27741800D01*
X40228562Y-27741800D01*
X40259067Y-27744804D01*
X40259067Y-27744804D01*
G37*
G36*
X45334067Y-27744804D02*
X45357492Y-27751910D01*
X45379089Y-27763454D01*
X45398014Y-27778986D01*
X45413546Y-27797911D01*
X45425090Y-27819508D01*
X45432196Y-27842933D01*
X45435200Y-27873438D01*
X45435200Y-28362162D01*
X45432196Y-28392667D01*
X45425090Y-28416092D01*
X45413546Y-28437689D01*
X45398014Y-28456614D01*
X45379089Y-28472146D01*
X45357492Y-28483690D01*
X45334067Y-28490796D01*
X45303562Y-28493800D01*
X43489838Y-28493800D01*
X43459333Y-28490796D01*
X43435908Y-28483690D01*
X43414311Y-28472146D01*
X43395386Y-28456614D01*
X43379854Y-28437689D01*
X43368310Y-28416092D01*
X43361204Y-28392667D01*
X43358200Y-28362162D01*
X43358200Y-27873438D01*
X43361204Y-27842933D01*
X43368310Y-27819508D01*
X43379854Y-27797911D01*
X43395386Y-27778986D01*
X43414311Y-27763454D01*
X43435908Y-27751910D01*
X43459333Y-27744804D01*
X43489838Y-27741800D01*
X45303562Y-27741800D01*
X45334067Y-27744804D01*
X45334067Y-27744804D01*
G37*
G36*
X110975809Y-24837338D02*
X111140897Y-24870176D01*
X111182945Y-24887593D01*
X111451914Y-24999003D01*
X111731827Y-25186035D01*
X111969865Y-25424073D01*
X112156897Y-25703986D01*
X112232362Y-25886176D01*
X112285724Y-26015003D01*
X112302283Y-26098253D01*
X112351400Y-26345177D01*
X112351400Y-26681823D01*
X112321440Y-26832443D01*
X112285724Y-27011997D01*
X112241746Y-27118169D01*
X112156897Y-27323014D01*
X111969865Y-27602927D01*
X111731827Y-27840965D01*
X111451914Y-28027997D01*
X111379675Y-28057919D01*
X111140897Y-28156824D01*
X110810723Y-28222500D01*
X110474077Y-28222500D01*
X110143903Y-28156824D01*
X109905125Y-28057919D01*
X109832886Y-28027997D01*
X109552973Y-27840965D01*
X109314935Y-27602927D01*
X109127903Y-27323014D01*
X109043054Y-27118169D01*
X108999076Y-27011997D01*
X108963360Y-26832443D01*
X108933400Y-26681823D01*
X108933400Y-26345177D01*
X108982517Y-26098253D01*
X108999076Y-26015003D01*
X109052438Y-25886176D01*
X109127903Y-25703986D01*
X109314935Y-25424073D01*
X109552973Y-25186035D01*
X109832886Y-24999003D01*
X110101855Y-24887593D01*
X110143903Y-24870176D01*
X110308991Y-24837338D01*
X110474077Y-24804500D01*
X110810723Y-24804500D01*
X110975809Y-24837338D01*
X110975809Y-24837338D01*
G37*
G36*
X69731899Y-26747445D02*
X69769393Y-26758819D01*
X69803957Y-26777294D01*
X69834247Y-26802153D01*
X69859106Y-26832443D01*
X69877581Y-26867007D01*
X69888955Y-26904501D01*
X69893400Y-26949638D01*
X69893400Y-27688362D01*
X69888955Y-27733499D01*
X69877581Y-27770993D01*
X69859106Y-27805557D01*
X69834247Y-27835847D01*
X69803957Y-27860706D01*
X69769393Y-27879181D01*
X69731899Y-27890555D01*
X69686762Y-27895000D01*
X69048038Y-27895000D01*
X69002901Y-27890555D01*
X68965407Y-27879181D01*
X68930843Y-27860706D01*
X68900553Y-27835847D01*
X68875694Y-27805557D01*
X68857219Y-27770993D01*
X68845845Y-27733499D01*
X68841400Y-27688362D01*
X68841400Y-26949638D01*
X68845845Y-26904501D01*
X68857219Y-26867007D01*
X68875694Y-26832443D01*
X68900553Y-26802153D01*
X68930843Y-26777294D01*
X68965407Y-26758819D01*
X69002901Y-26747445D01*
X69048038Y-26743000D01*
X69686762Y-26743000D01*
X69731899Y-26747445D01*
X69731899Y-26747445D01*
G37*
G36*
X71636899Y-26733445D02*
X71674393Y-26744819D01*
X71708957Y-26763294D01*
X71739247Y-26788153D01*
X71764106Y-26818443D01*
X71782581Y-26853007D01*
X71793955Y-26890501D01*
X71798400Y-26935638D01*
X71798400Y-27674362D01*
X71793955Y-27719499D01*
X71782581Y-27756993D01*
X71764106Y-27791557D01*
X71739247Y-27821847D01*
X71708957Y-27846706D01*
X71674393Y-27865181D01*
X71636899Y-27876555D01*
X71591762Y-27881000D01*
X70953038Y-27881000D01*
X70907901Y-27876555D01*
X70870407Y-27865181D01*
X70835843Y-27846706D01*
X70805553Y-27821847D01*
X70780694Y-27791557D01*
X70762219Y-27756993D01*
X70750845Y-27719499D01*
X70746400Y-27674362D01*
X70746400Y-26935638D01*
X70750845Y-26890501D01*
X70762219Y-26853007D01*
X70780694Y-26818443D01*
X70805553Y-26788153D01*
X70835843Y-26763294D01*
X70870407Y-26744819D01*
X70907901Y-26733445D01*
X70953038Y-26729000D01*
X71591762Y-26729000D01*
X71636899Y-26733445D01*
X71636899Y-26733445D01*
G37*
G36*
X64016899Y-26606445D02*
X64054393Y-26617819D01*
X64088957Y-26636294D01*
X64119247Y-26661153D01*
X64144106Y-26691443D01*
X64162581Y-26726007D01*
X64173955Y-26763501D01*
X64178400Y-26808638D01*
X64178400Y-27547362D01*
X64173955Y-27592499D01*
X64162581Y-27629993D01*
X64144106Y-27664557D01*
X64119247Y-27694847D01*
X64088957Y-27719706D01*
X64054393Y-27738181D01*
X64016899Y-27749555D01*
X63971762Y-27754000D01*
X63333038Y-27754000D01*
X63287901Y-27749555D01*
X63250407Y-27738181D01*
X63215843Y-27719706D01*
X63185553Y-27694847D01*
X63160694Y-27664557D01*
X63142219Y-27629993D01*
X63130845Y-27592499D01*
X63126400Y-27547362D01*
X63126400Y-26808638D01*
X63130845Y-26763501D01*
X63142219Y-26726007D01*
X63160694Y-26691443D01*
X63185553Y-26661153D01*
X63215843Y-26636294D01*
X63250407Y-26617819D01*
X63287901Y-26606445D01*
X63333038Y-26602000D01*
X63971762Y-26602000D01*
X64016899Y-26606445D01*
X64016899Y-26606445D01*
G37*
G36*
X67963400Y-27629000D02*
X66961400Y-27629000D01*
X66961400Y-26727000D01*
X67963400Y-26727000D01*
X67963400Y-27629000D01*
X67963400Y-27629000D01*
G37*
G36*
X47303699Y-26061645D02*
X47341193Y-26073019D01*
X47375757Y-26091494D01*
X47406047Y-26116353D01*
X47430906Y-26146643D01*
X47449381Y-26181207D01*
X47460755Y-26218701D01*
X47465200Y-26263838D01*
X47465200Y-27002562D01*
X47460755Y-27047699D01*
X47449381Y-27085193D01*
X47430906Y-27119757D01*
X47406047Y-27150047D01*
X47375757Y-27174906D01*
X47341193Y-27193381D01*
X47303699Y-27204755D01*
X47258562Y-27209200D01*
X46619838Y-27209200D01*
X46574701Y-27204755D01*
X46537207Y-27193381D01*
X46502643Y-27174906D01*
X46472353Y-27150047D01*
X46447494Y-27119757D01*
X46429019Y-27085193D01*
X46417645Y-27047699D01*
X46413200Y-27002562D01*
X46413200Y-26263838D01*
X46417645Y-26218701D01*
X46429019Y-26181207D01*
X46447494Y-26146643D01*
X46472353Y-26116353D01*
X46502643Y-26091494D01*
X46537207Y-26073019D01*
X46574701Y-26061645D01*
X46619838Y-26057200D01*
X47258562Y-26057200D01*
X47303699Y-26061645D01*
X47303699Y-26061645D01*
G37*
G36*
X49183299Y-26047645D02*
X49220793Y-26059019D01*
X49255357Y-26077494D01*
X49285647Y-26102353D01*
X49310506Y-26132643D01*
X49328981Y-26167207D01*
X49340355Y-26204701D01*
X49344800Y-26249838D01*
X49344800Y-26988562D01*
X49340355Y-27033699D01*
X49328981Y-27071193D01*
X49310506Y-27105757D01*
X49285647Y-27136047D01*
X49255357Y-27160906D01*
X49220793Y-27179381D01*
X49183299Y-27190755D01*
X49138162Y-27195200D01*
X48499438Y-27195200D01*
X48454301Y-27190755D01*
X48416807Y-27179381D01*
X48382243Y-27160906D01*
X48351953Y-27136047D01*
X48327094Y-27105757D01*
X48308619Y-27071193D01*
X48297245Y-27033699D01*
X48292800Y-26988562D01*
X48292800Y-26249838D01*
X48297245Y-26204701D01*
X48308619Y-26167207D01*
X48327094Y-26132643D01*
X48351953Y-26102353D01*
X48382243Y-26077494D01*
X48416807Y-26059019D01*
X48454301Y-26047645D01*
X48499438Y-26043200D01*
X49138162Y-26043200D01*
X49183299Y-26047645D01*
X49183299Y-26047645D01*
G37*
G36*
X51050699Y-26097645D02*
X51088193Y-26109019D01*
X51122757Y-26127494D01*
X51153047Y-26152353D01*
X51177906Y-26182643D01*
X51196381Y-26217207D01*
X51207755Y-26254701D01*
X51212200Y-26299838D01*
X51212200Y-26938562D01*
X51207755Y-26983699D01*
X51196381Y-27021193D01*
X51177906Y-27055757D01*
X51153047Y-27086047D01*
X51122757Y-27110906D01*
X51088193Y-27129381D01*
X51050699Y-27140755D01*
X51005562Y-27145200D01*
X50266838Y-27145200D01*
X50221701Y-27140755D01*
X50184207Y-27129381D01*
X50149643Y-27110906D01*
X50119353Y-27086047D01*
X50094494Y-27055757D01*
X50076019Y-27021193D01*
X50064645Y-26983699D01*
X50060200Y-26938562D01*
X50060200Y-26299838D01*
X50064645Y-26254701D01*
X50076019Y-26217207D01*
X50094494Y-26182643D01*
X50119353Y-26152353D01*
X50149643Y-26127494D01*
X50184207Y-26109019D01*
X50221701Y-26097645D01*
X50266838Y-26093200D01*
X51005562Y-26093200D01*
X51050699Y-26097645D01*
X51050699Y-26097645D01*
G37*
G36*
X52800699Y-26097645D02*
X52838193Y-26109019D01*
X52872757Y-26127494D01*
X52903047Y-26152353D01*
X52927906Y-26182643D01*
X52946381Y-26217207D01*
X52957755Y-26254701D01*
X52962200Y-26299838D01*
X52962200Y-26938562D01*
X52957755Y-26983699D01*
X52946381Y-27021193D01*
X52927906Y-27055757D01*
X52903047Y-27086047D01*
X52872757Y-27110906D01*
X52838193Y-27129381D01*
X52800699Y-27140755D01*
X52755562Y-27145200D01*
X52016838Y-27145200D01*
X51971701Y-27140755D01*
X51934207Y-27129381D01*
X51899643Y-27110906D01*
X51869353Y-27086047D01*
X51844494Y-27055757D01*
X51826019Y-27021193D01*
X51814645Y-26983699D01*
X51810200Y-26938562D01*
X51810200Y-26299838D01*
X51814645Y-26254701D01*
X51826019Y-26217207D01*
X51844494Y-26182643D01*
X51869353Y-26152353D01*
X51899643Y-26127494D01*
X51934207Y-26109019D01*
X51971701Y-26097645D01*
X52016838Y-26093200D01*
X52755562Y-26093200D01*
X52800699Y-26097645D01*
X52800699Y-26097645D01*
G37*
G36*
X94951999Y-26008745D02*
X94989493Y-26020119D01*
X95024057Y-26038594D01*
X95054347Y-26063453D01*
X95079206Y-26093743D01*
X95097681Y-26128307D01*
X95109055Y-26165801D01*
X95113500Y-26210938D01*
X95113500Y-26849662D01*
X95109055Y-26894799D01*
X95097681Y-26932293D01*
X95079206Y-26966857D01*
X95054347Y-26997147D01*
X95024057Y-27022006D01*
X94989493Y-27040481D01*
X94951999Y-27051855D01*
X94906862Y-27056300D01*
X94168138Y-27056300D01*
X94123001Y-27051855D01*
X94085507Y-27040481D01*
X94050943Y-27022006D01*
X94020653Y-26997147D01*
X93995794Y-26966857D01*
X93977319Y-26932293D01*
X93965945Y-26894799D01*
X93961500Y-26849662D01*
X93961500Y-26210938D01*
X93965945Y-26165801D01*
X93977319Y-26128307D01*
X93995794Y-26093743D01*
X94020653Y-26063453D01*
X94050943Y-26038594D01*
X94085507Y-26020119D01*
X94123001Y-26008745D01*
X94168138Y-26004300D01*
X94906862Y-26004300D01*
X94951999Y-26008745D01*
X94951999Y-26008745D01*
G37*
G36*
X93201999Y-26008745D02*
X93239493Y-26020119D01*
X93274057Y-26038594D01*
X93304347Y-26063453D01*
X93329206Y-26093743D01*
X93347681Y-26128307D01*
X93359055Y-26165801D01*
X93363500Y-26210938D01*
X93363500Y-26849662D01*
X93359055Y-26894799D01*
X93347681Y-26932293D01*
X93329206Y-26966857D01*
X93304347Y-26997147D01*
X93274057Y-27022006D01*
X93239493Y-27040481D01*
X93201999Y-27051855D01*
X93156862Y-27056300D01*
X92418138Y-27056300D01*
X92373001Y-27051855D01*
X92335507Y-27040481D01*
X92300943Y-27022006D01*
X92270653Y-26997147D01*
X92245794Y-26966857D01*
X92227319Y-26932293D01*
X92215945Y-26894799D01*
X92211500Y-26849662D01*
X92211500Y-26210938D01*
X92215945Y-26165801D01*
X92227319Y-26128307D01*
X92245794Y-26093743D01*
X92270653Y-26063453D01*
X92300943Y-26038594D01*
X92335507Y-26020119D01*
X92373001Y-26008745D01*
X92418138Y-26004300D01*
X93156862Y-26004300D01*
X93201999Y-26008745D01*
X93201999Y-26008745D01*
G37*
G36*
X96935400Y-26933000D02*
X96033400Y-26933000D01*
X96033400Y-25931000D01*
X96935400Y-25931000D01*
X96935400Y-26933000D01*
X96935400Y-26933000D01*
G37*
G36*
X98835400Y-26933000D02*
X97933400Y-26933000D01*
X97933400Y-25931000D01*
X98835400Y-25931000D01*
X98835400Y-26933000D01*
X98835400Y-26933000D01*
G37*
G36*
X40450600Y-26575400D02*
X38198600Y-26575400D01*
X38198600Y-20973400D01*
X40450600Y-20973400D01*
X40450600Y-26575400D01*
X40450600Y-26575400D01*
G37*
G36*
X44300600Y-26575400D02*
X42048600Y-26575400D01*
X42048600Y-20973400D01*
X44300600Y-20973400D01*
X44300600Y-26575400D01*
X44300600Y-26575400D01*
G37*
G36*
X98763299Y-23964045D02*
X98800793Y-23975419D01*
X98835357Y-23993894D01*
X98865647Y-24018753D01*
X98890506Y-24049043D01*
X98908981Y-24083607D01*
X98920355Y-24121101D01*
X98924800Y-24166238D01*
X98924800Y-24804962D01*
X98920355Y-24850099D01*
X98908981Y-24887593D01*
X98890506Y-24922157D01*
X98865647Y-24952447D01*
X98835357Y-24977306D01*
X98800793Y-24995781D01*
X98763299Y-25007155D01*
X98718162Y-25011600D01*
X97979438Y-25011600D01*
X97934301Y-25007155D01*
X97896807Y-24995781D01*
X97862243Y-24977306D01*
X97831953Y-24952447D01*
X97807094Y-24922157D01*
X97788619Y-24887593D01*
X97777245Y-24850099D01*
X97772800Y-24804962D01*
X97772800Y-24166238D01*
X97777245Y-24121101D01*
X97788619Y-24083607D01*
X97807094Y-24049043D01*
X97831953Y-24018753D01*
X97862243Y-23993894D01*
X97896807Y-23975419D01*
X97934301Y-23964045D01*
X97979438Y-23959600D01*
X98718162Y-23959600D01*
X98763299Y-23964045D01*
X98763299Y-23964045D01*
G37*
G36*
X97013299Y-23964045D02*
X97050793Y-23975419D01*
X97085357Y-23993894D01*
X97115647Y-24018753D01*
X97140506Y-24049043D01*
X97158981Y-24083607D01*
X97170355Y-24121101D01*
X97174800Y-24166238D01*
X97174800Y-24804962D01*
X97170355Y-24850099D01*
X97158981Y-24887593D01*
X97140506Y-24922157D01*
X97115647Y-24952447D01*
X97085357Y-24977306D01*
X97050793Y-24995781D01*
X97013299Y-25007155D01*
X96968162Y-25011600D01*
X96229438Y-25011600D01*
X96184301Y-25007155D01*
X96146807Y-24995781D01*
X96112243Y-24977306D01*
X96081953Y-24952447D01*
X96057094Y-24922157D01*
X96038619Y-24887593D01*
X96027245Y-24850099D01*
X96022800Y-24804962D01*
X96022800Y-24166238D01*
X96027245Y-24121101D01*
X96038619Y-24083607D01*
X96057094Y-24049043D01*
X96081953Y-24018753D01*
X96112243Y-23993894D01*
X96146807Y-23975419D01*
X96184301Y-23964045D01*
X96229438Y-23959600D01*
X96968162Y-23959600D01*
X97013299Y-23964045D01*
X97013299Y-23964045D01*
G37*
G36*
X26019167Y-21673359D02*
X26149672Y-21699318D01*
X26395539Y-21801159D01*
X26616064Y-21948510D01*
X26616815Y-21949012D01*
X26804988Y-22137185D01*
X26804990Y-22137188D01*
X26952841Y-22358461D01*
X27054682Y-22604328D01*
X27076671Y-22714873D01*
X27093094Y-22797436D01*
X27106600Y-22865338D01*
X27106600Y-23131462D01*
X27054682Y-23392472D01*
X26952841Y-23638339D01*
X26805490Y-23858864D01*
X26804988Y-23859615D01*
X26616815Y-24047788D01*
X26616812Y-24047790D01*
X26395539Y-24195641D01*
X26149672Y-24297482D01*
X26019167Y-24323441D01*
X25888663Y-24349400D01*
X25622537Y-24349400D01*
X25492033Y-24323441D01*
X25361528Y-24297482D01*
X25115661Y-24195641D01*
X24894388Y-24047790D01*
X24894385Y-24047788D01*
X24706212Y-23859615D01*
X24705710Y-23858864D01*
X24558359Y-23638339D01*
X24456518Y-23392472D01*
X24404600Y-23131462D01*
X24404600Y-22865338D01*
X24418107Y-22797436D01*
X24434529Y-22714873D01*
X24456518Y-22604328D01*
X24558359Y-22358461D01*
X24706210Y-22137188D01*
X24706212Y-22137185D01*
X24894385Y-21949012D01*
X24895136Y-21948510D01*
X25115661Y-21801159D01*
X25361528Y-21699318D01*
X25492033Y-21673359D01*
X25622537Y-21647400D01*
X25888663Y-21647400D01*
X26019167Y-21673359D01*
X26019167Y-21673359D01*
G37*
G36*
X46186099Y-23124045D02*
X46223593Y-23135419D01*
X46258157Y-23153894D01*
X46288447Y-23178753D01*
X46313306Y-23209043D01*
X46331781Y-23243607D01*
X46343155Y-23281101D01*
X46347600Y-23326238D01*
X46347600Y-24064962D01*
X46343155Y-24110099D01*
X46331781Y-24147593D01*
X46313306Y-24182157D01*
X46288447Y-24212447D01*
X46258157Y-24237306D01*
X46223593Y-24255781D01*
X46186099Y-24267155D01*
X46140962Y-24271600D01*
X45502238Y-24271600D01*
X45457101Y-24267155D01*
X45419607Y-24255781D01*
X45385043Y-24237306D01*
X45354753Y-24212447D01*
X45329894Y-24182157D01*
X45311419Y-24147593D01*
X45300045Y-24110099D01*
X45295600Y-24064962D01*
X45295600Y-23326238D01*
X45300045Y-23281101D01*
X45311419Y-23243607D01*
X45329894Y-23209043D01*
X45354753Y-23178753D01*
X45385043Y-23153894D01*
X45419607Y-23135419D01*
X45457101Y-23124045D01*
X45502238Y-23119600D01*
X46140962Y-23119600D01*
X46186099Y-23124045D01*
X46186099Y-23124045D01*
G37*
G36*
X33210200Y-24102600D02*
X31388200Y-24102600D01*
X31388200Y-21820600D01*
X33210200Y-21820600D01*
X33210200Y-24102600D01*
X33210200Y-24102600D01*
G37*
G36*
X37090200Y-24102600D02*
X35268200Y-24102600D01*
X35268200Y-21820600D01*
X37090200Y-21820600D01*
X37090200Y-24102600D01*
X37090200Y-24102600D01*
G37*
G36*
X117226534Y-21804032D02*
X117436002Y-21890796D01*
X117624523Y-22016762D01*
X117784838Y-22177077D01*
X117910804Y-22365598D01*
X117997568Y-22575066D01*
X118041800Y-22797435D01*
X118041800Y-23024165D01*
X117997568Y-23246534D01*
X117910804Y-23456002D01*
X117784838Y-23644523D01*
X117624523Y-23804838D01*
X117436002Y-23930804D01*
X117226534Y-24017568D01*
X117004165Y-24061800D01*
X116777435Y-24061800D01*
X116555066Y-24017568D01*
X116345598Y-23930804D01*
X116157077Y-23804838D01*
X115996762Y-23644523D01*
X115870796Y-23456002D01*
X115784032Y-23246534D01*
X115739800Y-23024165D01*
X115739800Y-22797435D01*
X115784032Y-22575066D01*
X115870796Y-22365598D01*
X115996762Y-22177077D01*
X116157077Y-22016762D01*
X116345598Y-21890796D01*
X116555066Y-21804032D01*
X116777435Y-21759800D01*
X117004165Y-21759800D01*
X117226534Y-21804032D01*
X117226534Y-21804032D01*
G37*
G36*
X105413462Y-20922181D02*
X105448377Y-20932773D01*
X105480565Y-20949978D01*
X105508773Y-20973127D01*
X105531922Y-21001335D01*
X105549127Y-21033523D01*
X105559719Y-21068438D01*
X105563900Y-21110895D01*
X105563900Y-22577105D01*
X105559719Y-22619562D01*
X105549127Y-22654477D01*
X105531922Y-22686665D01*
X105508773Y-22714873D01*
X105480565Y-22738022D01*
X105448377Y-22755227D01*
X105413462Y-22765819D01*
X105371005Y-22770000D01*
X104229795Y-22770000D01*
X104187338Y-22765819D01*
X104152423Y-22755227D01*
X104120235Y-22738022D01*
X104092027Y-22714873D01*
X104068878Y-22686665D01*
X104051673Y-22654477D01*
X104041081Y-22619562D01*
X104036900Y-22577105D01*
X104036900Y-21110895D01*
X104041081Y-21068438D01*
X104051673Y-21033523D01*
X104068878Y-21001335D01*
X104092027Y-20973127D01*
X104120235Y-20949978D01*
X104152423Y-20932773D01*
X104187338Y-20922181D01*
X104229795Y-20918000D01*
X105371005Y-20918000D01*
X105413462Y-20922181D01*
X105413462Y-20922181D01*
G37*
G36*
X102438462Y-20922181D02*
X102473377Y-20932773D01*
X102505565Y-20949978D01*
X102533773Y-20973127D01*
X102556922Y-21001335D01*
X102574127Y-21033523D01*
X102584719Y-21068438D01*
X102588900Y-21110895D01*
X102588900Y-22577105D01*
X102584719Y-22619562D01*
X102574127Y-22654477D01*
X102556922Y-22686665D01*
X102533773Y-22714873D01*
X102505565Y-22738022D01*
X102473377Y-22755227D01*
X102438462Y-22765819D01*
X102396005Y-22770000D01*
X101254795Y-22770000D01*
X101212338Y-22765819D01*
X101177423Y-22755227D01*
X101145235Y-22738022D01*
X101117027Y-22714873D01*
X101093878Y-22686665D01*
X101076673Y-22654477D01*
X101066081Y-22619562D01*
X101061900Y-22577105D01*
X101061900Y-21110895D01*
X101066081Y-21068438D01*
X101076673Y-21033523D01*
X101093878Y-21001335D01*
X101117027Y-20973127D01*
X101145235Y-20949978D01*
X101177423Y-20932773D01*
X101212338Y-20922181D01*
X101254795Y-20918000D01*
X102396005Y-20918000D01*
X102438462Y-20922181D01*
X102438462Y-20922181D01*
G37*
G36*
X46186099Y-21374045D02*
X46223593Y-21385419D01*
X46258157Y-21403894D01*
X46288447Y-21428753D01*
X46313306Y-21459043D01*
X46331781Y-21493607D01*
X46343155Y-21531101D01*
X46347600Y-21576238D01*
X46347600Y-22314962D01*
X46343155Y-22360099D01*
X46331781Y-22397593D01*
X46313306Y-22432157D01*
X46288447Y-22462447D01*
X46258157Y-22487306D01*
X46223593Y-22505781D01*
X46186099Y-22517155D01*
X46140962Y-22521600D01*
X45502238Y-22521600D01*
X45457101Y-22517155D01*
X45419607Y-22505781D01*
X45385043Y-22487306D01*
X45354753Y-22462447D01*
X45329894Y-22432157D01*
X45311419Y-22397593D01*
X45300045Y-22360099D01*
X45295600Y-22314962D01*
X45295600Y-21576238D01*
X45300045Y-21531101D01*
X45311419Y-21493607D01*
X45329894Y-21459043D01*
X45354753Y-21428753D01*
X45385043Y-21403894D01*
X45419607Y-21385419D01*
X45457101Y-21374045D01*
X45502238Y-21369600D01*
X46140962Y-21369600D01*
X46186099Y-21374045D01*
X46186099Y-21374045D01*
G37*
M02*
