M48
;DRILL file {KiCad (5.0.0)} date 04/15/19 16:44:03
;FORMAT={-:-/ absolute / metric / decimal}
FMAT,2
METRIC,TZ
T1C0.400
T2C0.800
T3C0.920
T4C1.000
T5C1.300
T6C2.300
%
G90
G05
M71
T1
X38.913Y-45.872
X38.964Y-37.72
X38.964Y-37.72
X40.64Y-45.872
X41.504Y-39.065
X41.554Y-37.948
X41.834Y-29.388
X42.442Y-45.822
X44.044Y-45.822
X45.466Y-25.146
X45.669Y-41.808
X45.669Y-45.872
X46.584Y-30.683
X46.634Y-25.146
X46.787Y-40.792
X46.888Y-33.934
X46.888Y-35.052
X46.939Y-36.22
X47.295Y-45.872
X47.854Y-25.146
X49.124Y-25.146
X49.327Y-41.199
X49.581Y-36.271
X49.835Y-40.03
X50.394Y-25.095
X54.153Y-29.515
X54.153Y-30.886
X54.204Y-28.092
X54.458Y-38.71
X55.829Y-38.76
X57.048Y-38.811
X58.318Y-38.557
X58.979Y-44.298
X58.979Y-45.517
X60.096Y-33.846
X60.096Y-35.458
X61.773Y-40.792
X61.976Y-27.534
X63.805Y-42.52
X64.973Y-42.52
X65.888Y-32.36
X65.888Y-33.63
X65.888Y-34.9
X66.142Y-41.3
X66.192Y-42.52
X67.259Y-41.3
X69.19Y-39.014
X70.409Y-39.98
X70.714Y-42.52
X72.339Y-25.857
X72.39Y-42.52
X74.117Y-42.469
X75.794Y-42.469
X76.454Y-40.437
X76.505Y-39.319
X79.858Y-41.91
X81.686Y-38.659
X81.737Y-37.084
X85.801Y-45.466
X88.29Y-42.824
X88.798Y-35.611
X88.849Y-33.528
X89.459Y-42.824
X90.018Y-35.611
X90.068Y-34.544
X90.068Y-34.544
X90.17Y-25.451
X90.17Y-32.106
X90.17Y-32.106
X90.526Y-38.913
X91.135Y-32.956
X91.338Y-25.181
X98.806Y-23.165
T2
X32.908Y-28.6
X35.408Y-28.6
T3
X107.932Y-29.583
X107.932Y-32.084
X107.932Y-34.084
X107.932Y-36.584
T4
X62.027Y-45.212
X64.567Y-45.212
X67.107Y-45.212
X69.647Y-45.212
X72.187Y-45.212
T5
X25.756Y-22.998
X25.756Y-27.998
X25.756Y-32.998
X25.756Y-37.998
T6
X110.642Y-26.514
X110.642Y-39.654
T0
M30
