G04 #@! TF.GenerationSoftware,KiCad,Pcbnew,(5.0.0)*
G04 #@! TF.CreationDate,2019-04-15T16:44:06+02:00*
G04 #@! TF.ProjectId,SolarPanelCharger,536F6C617250616E656C436861726765,rev?*
G04 #@! TF.SameCoordinates,Original*
G04 #@! TF.FileFunction,Copper,L2,Bot,Signal*
G04 #@! TF.FilePolarity,Positive*
%FSLAX46Y46*%
G04 Gerber Fmt 4.6, Leading zero omitted, Abs format (unit mm)*
G04 Created by KiCad (PCBNEW (5.0.0)) date 04/15/19 16:44:06*
%MOMM*%
%LPD*%
G01*
G04 APERTURE LIST*
G04 #@! TA.AperFunction,ComponentPad*
%ADD10R,1.600000X1.600000*%
G04 #@! TD*
G04 #@! TA.AperFunction,ComponentPad*
%ADD11C,1.600000*%
G04 #@! TD*
G04 #@! TA.AperFunction,ComponentPad*
%ADD12R,2.600000X2.600000*%
G04 #@! TD*
G04 #@! TA.AperFunction,ComponentPad*
%ADD13C,2.600000*%
G04 #@! TD*
G04 #@! TA.AperFunction,ComponentPad*
%ADD14O,1.700000X1.700000*%
G04 #@! TD*
G04 #@! TA.AperFunction,ComponentPad*
%ADD15R,1.700000X1.700000*%
G04 #@! TD*
G04 #@! TA.AperFunction,ComponentPad*
%ADD16C,3.316000*%
G04 #@! TD*
G04 #@! TA.AperFunction,ComponentPad*
%ADD17C,1.428000*%
G04 #@! TD*
G04 #@! TA.AperFunction,ViaPad*
%ADD18C,0.800000*%
G04 #@! TD*
G04 #@! TA.AperFunction,Conductor*
%ADD19C,1.000000*%
G04 #@! TD*
G04 #@! TA.AperFunction,Conductor*
%ADD20C,0.500000*%
G04 #@! TD*
G04 #@! TA.AperFunction,Conductor*
%ADD21C,0.254000*%
G04 #@! TD*
G04 APERTURE END LIST*
D10*
G04 #@! TO.P,C3,1*
G04 #@! TO.N,/Buck_5V0/BUCK_IN*
X35407600Y-28600400D03*
D11*
G04 #@! TO.P,C3,2*
G04 #@! TO.N,GND*
X32907600Y-28600400D03*
G04 #@! TD*
D12*
G04 #@! TO.P,J1,1*
G04 #@! TO.N,GND*
X25755600Y-37998400D03*
D13*
G04 #@! TO.P,J1,2*
G04 #@! TO.N,Net-(D4-Pad2)*
X25755600Y-32998400D03*
G04 #@! TO.P,J1,3*
G04 #@! TO.N,Net-(D3-Pad2)*
X25755600Y-27998400D03*
G04 #@! TO.P,J1,4*
G04 #@! TO.N,GND*
X25755600Y-22998400D03*
G04 #@! TD*
D14*
G04 #@! TO.P,J2,5*
G04 #@! TO.N,/BatteryCharger/temp*
X62026800Y-45212000D03*
G04 #@! TO.P,J2,4*
G04 #@! TO.N,GND*
X64566800Y-45212000D03*
G04 #@! TO.P,J2,3*
X67106800Y-45212000D03*
G04 #@! TO.P,J2,2*
G04 #@! TO.N,/BOOST_5V0/BOOST_IN*
X69646800Y-45212000D03*
D15*
G04 #@! TO.P,J2,1*
X72186800Y-45212000D03*
G04 #@! TD*
D16*
G04 #@! TO.P,J3,SHELL*
G04 #@! TO.N,N/C*
X110642400Y-39653500D03*
G04 #@! TO.P,J3,SHELL1*
G04 #@! TO.N,GND*
X110642400Y-26513500D03*
D17*
G04 #@! TO.P,J3,3*
G04 #@! TO.N,N/C*
X107932400Y-32083500D03*
G04 #@! TO.P,J3,2*
X107932400Y-34083500D03*
G04 #@! TO.P,J3,4*
G04 #@! TO.N,GND*
X107932400Y-29583500D03*
G04 #@! TO.P,J3,1*
G04 #@! TO.N,Net-(C12-Pad1)*
X107932400Y-36583500D03*
G04 #@! TD*
D18*
G04 #@! TO.N,*
X40640000Y-45872400D03*
G04 #@! TO.N,GND*
X49326800Y-41198800D03*
X49834800Y-40030400D03*
X46888400Y-33934400D03*
X46888400Y-35052000D03*
X46939200Y-36220400D03*
X45466000Y-25146000D03*
X46634400Y-25146000D03*
X47853600Y-25146000D03*
X49123600Y-25146000D03*
X50393600Y-25095200D03*
X41503600Y-39065200D03*
X41554400Y-37947600D03*
X44043600Y-45821600D03*
X45669200Y-45872400D03*
X47294800Y-45872400D03*
X38912800Y-45872400D03*
X58978800Y-44297600D03*
X58978800Y-45516800D03*
X88290400Y-42824400D03*
X89458800Y-42824400D03*
X70713600Y-42519600D03*
X72390000Y-42519600D03*
X74117200Y-42468800D03*
X75793600Y-42468800D03*
X81737200Y-37084000D03*
X81686400Y-38658800D03*
X65887600Y-32359600D03*
X65887600Y-33629600D03*
X65887600Y-34899600D03*
X66141600Y-41300400D03*
X67259200Y-41300400D03*
X66192400Y-42519600D03*
X64973200Y-42519600D03*
X63804800Y-42519600D03*
X54152800Y-30886400D03*
X54152800Y-29514800D03*
X54203600Y-28092400D03*
X54457600Y-38709600D03*
X60096400Y-35458400D03*
G04 #@! TO.N,/Buck_5V0/BUCK_IN*
X41833800Y-29387800D03*
G04 #@! TO.N,/BatteryCharger/VCC*
X70408800Y-39979600D03*
X61772800Y-40792400D03*
X60096400Y-33846400D03*
X61976000Y-27533600D03*
G04 #@! TO.N,/BOOST_5V0/BOOST_OUT*
X90068400Y-34544000D03*
X90017600Y-35610800D03*
X88798400Y-35610800D03*
X88849200Y-33528000D03*
X76504800Y-39319200D03*
X90068400Y-34544000D03*
X76454000Y-40436800D03*
G04 #@! TO.N,Net-(C10-Pad1)*
X91338400Y-25181228D03*
X91135200Y-32955600D03*
G04 #@! TO.N,Net-(C10-Pad2)*
X90170000Y-25450800D03*
X90170000Y-32105600D03*
X90170000Y-32105600D03*
G04 #@! TO.N,/_EN_BAT*
X55829200Y-38760400D03*
X98806000Y-23164800D03*
G04 #@! TO.N,/EN_BAT*
X57048400Y-38811200D03*
X72339200Y-25857200D03*
X85801200Y-45466000D03*
G04 #@! TO.N,Net-(R6-Pad2)*
X46786800Y-40792400D03*
X49580800Y-36271200D03*
G04 #@! TO.N,/Buck_5V0/EN*
X38963600Y-37720400D03*
X38963600Y-37720400D03*
X46583600Y-30683200D03*
G04 #@! TO.N,/LOGIC_SUPPLY*
X45669200Y-41808400D03*
X42442000Y-45821600D03*
G04 #@! TO.N,/BOOST_5V0/BOOST_IN*
X58318400Y-38557200D03*
X69189600Y-39014400D03*
X79857600Y-41910000D03*
X90525600Y-38912800D03*
G04 #@! TD*
D19*
G04 #@! TO.N,/Buck_5V0/BUCK_IN*
X36195000Y-29387800D02*
X35407600Y-28600400D01*
X41833800Y-29387800D02*
X36195000Y-29387800D01*
D20*
G04 #@! TO.N,/BatteryCharger/VCC*
X70408800Y-39979600D02*
X62585600Y-39979600D01*
X62585600Y-39979600D02*
X61772800Y-40792400D01*
X60096400Y-33846400D02*
X60096400Y-33280715D01*
X60096400Y-33280715D02*
X60096400Y-28397200D01*
X60096400Y-28397200D02*
X61112400Y-27381200D01*
X61112400Y-27381200D02*
X61823600Y-27381200D01*
X61823600Y-27381200D02*
X61976000Y-27533600D01*
G04 #@! TO.N,Net-(C10-Pad1)*
X91338400Y-25746913D02*
X91135200Y-25950113D01*
X91338400Y-25181228D02*
X91338400Y-25746913D01*
X91135200Y-25950113D02*
X91135200Y-32955600D01*
G04 #@! TO.N,Net-(C10-Pad2)*
X90170000Y-25450800D02*
X90170000Y-32105600D01*
G04 #@! TO.N,/_EN_BAT*
X55829200Y-38194715D02*
X56286400Y-37737515D01*
X55829200Y-38760400D02*
X55829200Y-38194715D01*
X56286400Y-37737515D02*
X56286400Y-31217238D01*
X56286400Y-31217238D02*
X56286400Y-28295600D01*
X56286400Y-28295600D02*
X61366400Y-23215600D01*
X59639200Y-23164800D02*
X98806000Y-23164800D01*
G04 #@! TO.N,/EN_BAT*
X57048400Y-38245515D02*
X57302400Y-37991515D01*
X57048400Y-38811200D02*
X57048400Y-38245515D01*
X57302400Y-37991515D02*
X57302400Y-29108400D01*
X57302400Y-29108400D02*
X60553600Y-25857200D01*
X60553600Y-25857200D02*
X72339200Y-25857200D01*
X57048400Y-38811200D02*
X61823600Y-43586400D01*
X61823600Y-43586400D02*
X78536800Y-43586400D01*
X78536800Y-43586400D02*
X80416400Y-45466000D01*
X80416400Y-45466000D02*
X85801200Y-45466000D01*
G04 #@! TO.N,Net-(R6-Pad2)*
X46786800Y-40792400D02*
X49580800Y-37998400D01*
X49580800Y-37998400D02*
X49580800Y-36271200D01*
G04 #@! TO.N,/Buck_5V0/EN*
X38963600Y-37720400D02*
X39546400Y-37720400D01*
X39546400Y-37720400D02*
X46583600Y-30683200D01*
G04 #@! TO.N,/LOGIC_SUPPLY*
X42442000Y-45035600D02*
X45669200Y-41808400D01*
X42442000Y-45821600D02*
X42442000Y-45035600D01*
G04 #@! TO.N,/BOOST_5V0/BOOST_IN*
X58318400Y-38557200D02*
X58775600Y-39014400D01*
X68623915Y-39014400D02*
X69189600Y-39014400D01*
X58775600Y-39014400D02*
X68623915Y-39014400D01*
D19*
X79857600Y-41910000D02*
X87528400Y-41910000D01*
X87528400Y-41910000D02*
X90525600Y-38912800D01*
G04 #@! TD*
D21*
G04 #@! TO.N,GND*
G36*
X119594001Y-46594000D02*
X67607287Y-46594000D01*
X67873724Y-46483645D01*
X68301983Y-46093358D01*
X68489045Y-45695037D01*
X68759299Y-46099501D01*
X69166488Y-46371576D01*
X69525561Y-46443000D01*
X69768039Y-46443000D01*
X70127112Y-46371576D01*
X70534301Y-46099501D01*
X70806376Y-45692312D01*
X70901916Y-45212000D01*
X70806376Y-44731688D01*
X70534301Y-44324499D01*
X70374016Y-44217400D01*
X70977099Y-44217400D01*
X70948336Y-44362000D01*
X70948336Y-46062000D01*
X70977906Y-46210659D01*
X71062114Y-46336686D01*
X71188141Y-46420894D01*
X71336800Y-46450464D01*
X73036800Y-46450464D01*
X73185459Y-46420894D01*
X73311486Y-46336686D01*
X73395694Y-46210659D01*
X73425264Y-46062000D01*
X73425264Y-44362000D01*
X73396501Y-44217400D01*
X78275432Y-44217400D01*
X79926267Y-45868235D01*
X79961474Y-45920926D01*
X80121350Y-46027751D01*
X80170196Y-46060389D01*
X80416400Y-46109362D01*
X80478548Y-46097000D01*
X85327699Y-46097000D01*
X85358799Y-46128100D01*
X85645849Y-46247000D01*
X85956551Y-46247000D01*
X86243601Y-46128100D01*
X86463300Y-45908401D01*
X86582200Y-45621351D01*
X86582200Y-45310649D01*
X86463300Y-45023599D01*
X86243601Y-44803900D01*
X85956551Y-44685000D01*
X85645849Y-44685000D01*
X85358799Y-44803900D01*
X85327699Y-44835000D01*
X80677768Y-44835000D01*
X79591779Y-43749011D01*
X115511400Y-43749011D01*
X115511400Y-44338189D01*
X115736868Y-44882519D01*
X116153481Y-45299132D01*
X116697811Y-45524600D01*
X117286989Y-45524600D01*
X117831319Y-45299132D01*
X118247932Y-44882519D01*
X118473400Y-44338189D01*
X118473400Y-43749011D01*
X118247932Y-43204681D01*
X117831319Y-42788068D01*
X117286989Y-42562600D01*
X116697811Y-42562600D01*
X116153481Y-42788068D01*
X115736868Y-43204681D01*
X115511400Y-43749011D01*
X79591779Y-43749011D01*
X79026933Y-43184165D01*
X78991726Y-43131474D01*
X78783004Y-42992011D01*
X78598948Y-42955400D01*
X78536800Y-42943038D01*
X78474652Y-42955400D01*
X62084968Y-42955400D01*
X58785384Y-39655816D01*
X58837746Y-39645400D01*
X62027432Y-39645400D01*
X61661432Y-40011400D01*
X61617449Y-40011400D01*
X61330399Y-40130300D01*
X61110700Y-40349999D01*
X60991800Y-40637049D01*
X60991800Y-40947751D01*
X61110700Y-41234801D01*
X61330399Y-41454500D01*
X61617449Y-41573400D01*
X61928151Y-41573400D01*
X62215201Y-41454500D01*
X62434900Y-41234801D01*
X62553800Y-40947751D01*
X62553800Y-40903768D01*
X62846968Y-40610600D01*
X69935299Y-40610600D01*
X69966399Y-40641700D01*
X70253449Y-40760600D01*
X70564151Y-40760600D01*
X70851201Y-40641700D01*
X71070900Y-40422001D01*
X71189800Y-40134951D01*
X71189800Y-39824249D01*
X71070900Y-39537199D01*
X70851201Y-39317500D01*
X70564151Y-39198600D01*
X70253449Y-39198600D01*
X69966399Y-39317500D01*
X69935299Y-39348600D01*
X69896518Y-39348600D01*
X69970600Y-39169751D01*
X69970600Y-38859049D01*
X69851700Y-38571999D01*
X69632001Y-38352300D01*
X69344951Y-38233400D01*
X69034249Y-38233400D01*
X68747199Y-38352300D01*
X68716099Y-38383400D01*
X59091758Y-38383400D01*
X58980500Y-38114799D01*
X58760801Y-37895100D01*
X58473751Y-37776200D01*
X58163049Y-37776200D01*
X57933400Y-37871324D01*
X57933400Y-33691049D01*
X59315400Y-33691049D01*
X59315400Y-34001751D01*
X59434300Y-34288801D01*
X59653999Y-34508500D01*
X59941049Y-34627400D01*
X60251751Y-34627400D01*
X60538801Y-34508500D01*
X60758500Y-34288801D01*
X60877400Y-34001751D01*
X60877400Y-33934400D01*
X75260200Y-33934400D01*
X75260200Y-41452800D01*
X75289202Y-41598602D01*
X75371792Y-41722208D01*
X75495398Y-41804798D01*
X75641200Y-41833800D01*
X77419200Y-41833800D01*
X77565002Y-41804798D01*
X77688608Y-41722208D01*
X77771198Y-41598602D01*
X77800200Y-41452800D01*
X77800200Y-40239016D01*
X82248103Y-35791113D01*
X85154872Y-35837252D01*
X86980635Y-37326691D01*
X88248544Y-38391734D01*
X88347798Y-38451998D01*
X88493600Y-38481000D01*
X89711478Y-38481000D01*
X87163479Y-41029000D01*
X79770833Y-41029000D01*
X79513851Y-41080117D01*
X79222435Y-41274835D01*
X79027717Y-41566251D01*
X78959341Y-41910000D01*
X79027717Y-42253749D01*
X79222435Y-42545165D01*
X79513851Y-42739883D01*
X79770833Y-42791000D01*
X87441637Y-42791000D01*
X87528400Y-42808258D01*
X87615163Y-42791000D01*
X87615167Y-42791000D01*
X87872149Y-42739883D01*
X88163565Y-42545165D01*
X88212717Y-42471604D01*
X91209914Y-39474408D01*
X91355483Y-39256549D01*
X91357199Y-39247918D01*
X108603400Y-39247918D01*
X108603400Y-40059082D01*
X108913820Y-40808501D01*
X109487399Y-41382080D01*
X110236818Y-41692500D01*
X111047982Y-41692500D01*
X111797401Y-41382080D01*
X112370980Y-40808501D01*
X112681400Y-40059082D01*
X112681400Y-39247918D01*
X112370980Y-38498499D01*
X111797401Y-37924920D01*
X111047982Y-37614500D01*
X110236818Y-37614500D01*
X109487399Y-37924920D01*
X108913820Y-38498499D01*
X108603400Y-39247918D01*
X91357199Y-39247918D01*
X91423859Y-38912800D01*
X91355483Y-38569052D01*
X91160765Y-38277635D01*
X90869348Y-38082917D01*
X90654060Y-38040093D01*
X91562449Y-37093855D01*
X91639598Y-36975802D01*
X91668600Y-36830000D01*
X91668600Y-36365691D01*
X106837400Y-36365691D01*
X106837400Y-36801309D01*
X107004104Y-37203767D01*
X107312133Y-37511796D01*
X107714591Y-37678500D01*
X108150209Y-37678500D01*
X108552667Y-37511796D01*
X108860696Y-37203767D01*
X109027400Y-36801309D01*
X109027400Y-36365691D01*
X108860696Y-35963233D01*
X108552667Y-35655204D01*
X108150209Y-35488500D01*
X107714591Y-35488500D01*
X107312133Y-35655204D01*
X107004104Y-35963233D01*
X106837400Y-36365691D01*
X91668600Y-36365691D01*
X91668600Y-34340800D01*
X91628316Y-34170289D01*
X91537129Y-34052882D01*
X91172188Y-33736600D01*
X91290551Y-33736600D01*
X91577601Y-33617700D01*
X91797300Y-33398001D01*
X91916200Y-33110951D01*
X91916200Y-32800249D01*
X91797300Y-32513199D01*
X91766200Y-32482099D01*
X91766200Y-31865691D01*
X106837400Y-31865691D01*
X106837400Y-32301309D01*
X107004104Y-32703767D01*
X107312133Y-33011796D01*
X107485241Y-33083500D01*
X107312133Y-33155204D01*
X107004104Y-33463233D01*
X106837400Y-33865691D01*
X106837400Y-34301309D01*
X107004104Y-34703767D01*
X107312133Y-35011796D01*
X107714591Y-35178500D01*
X108150209Y-35178500D01*
X108552667Y-35011796D01*
X108860696Y-34703767D01*
X109027400Y-34301309D01*
X109027400Y-33865691D01*
X108860696Y-33463233D01*
X108552667Y-33155204D01*
X108379559Y-33083500D01*
X108552667Y-33011796D01*
X108860696Y-32703767D01*
X109027400Y-32301309D01*
X109027400Y-31865691D01*
X108860696Y-31463233D01*
X108552667Y-31155204D01*
X108150209Y-30988500D01*
X107714591Y-30988500D01*
X107312133Y-31155204D01*
X107004104Y-31463233D01*
X106837400Y-31865691D01*
X91766200Y-31865691D01*
X91766200Y-30528924D01*
X107166581Y-30528924D01*
X107230143Y-30766140D01*
X107736176Y-30944859D01*
X108272083Y-30916323D01*
X108634657Y-30766140D01*
X108698219Y-30528924D01*
X107932400Y-29763105D01*
X107166581Y-30528924D01*
X91766200Y-30528924D01*
X91766200Y-29387276D01*
X106571041Y-29387276D01*
X106599577Y-29923183D01*
X106749760Y-30285757D01*
X106986976Y-30349319D01*
X107752795Y-29583500D01*
X108112005Y-29583500D01*
X108877824Y-30349319D01*
X109115040Y-30285757D01*
X109293759Y-29779724D01*
X109265223Y-29243817D01*
X109115040Y-28881243D01*
X108877824Y-28817681D01*
X108112005Y-29583500D01*
X107752795Y-29583500D01*
X106986976Y-28817681D01*
X106749760Y-28881243D01*
X106571041Y-29387276D01*
X91766200Y-29387276D01*
X91766200Y-28638076D01*
X107166581Y-28638076D01*
X107932400Y-29403895D01*
X108698219Y-28638076D01*
X108634657Y-28400860D01*
X108128624Y-28222141D01*
X107592717Y-28250677D01*
X107230143Y-28400860D01*
X107166581Y-28638076D01*
X91766200Y-28638076D01*
X91766200Y-28141591D01*
X109193914Y-28141591D01*
X109372977Y-28476776D01*
X110220919Y-28813117D01*
X111133028Y-28799363D01*
X111911823Y-28476776D01*
X112090886Y-28141591D01*
X110642400Y-26693105D01*
X109193914Y-28141591D01*
X91766200Y-28141591D01*
X91766200Y-26219964D01*
X91793326Y-26201839D01*
X91866705Y-26092019D01*
X108342783Y-26092019D01*
X108356537Y-27004128D01*
X108679124Y-27782923D01*
X109014309Y-27961986D01*
X110462795Y-26513500D01*
X110822005Y-26513500D01*
X112270491Y-27961986D01*
X112605676Y-27782923D01*
X112942017Y-26934981D01*
X112928263Y-26022872D01*
X112605676Y-25244077D01*
X112270491Y-25065014D01*
X110822005Y-26513500D01*
X110462795Y-26513500D01*
X109014309Y-25065014D01*
X108679124Y-25244077D01*
X108342783Y-26092019D01*
X91866705Y-26092019D01*
X91932789Y-25993117D01*
X91969400Y-25809061D01*
X91969400Y-25809060D01*
X91981762Y-25746914D01*
X91969400Y-25684767D01*
X91969400Y-25654729D01*
X92000500Y-25623629D01*
X92119400Y-25336579D01*
X92119400Y-25025877D01*
X92061217Y-24885409D01*
X109193914Y-24885409D01*
X110642400Y-26333895D01*
X112090886Y-24885409D01*
X111911823Y-24550224D01*
X111063881Y-24213883D01*
X110151772Y-24227637D01*
X109372977Y-24550224D01*
X109193914Y-24885409D01*
X92061217Y-24885409D01*
X92000500Y-24738827D01*
X91780801Y-24519128D01*
X91493751Y-24400228D01*
X91183049Y-24400228D01*
X90895999Y-24519128D01*
X90676300Y-24738827D01*
X90642977Y-24819276D01*
X90612401Y-24788700D01*
X90325351Y-24669800D01*
X90014649Y-24669800D01*
X89727599Y-24788700D01*
X89507900Y-25008399D01*
X89389000Y-25295449D01*
X89389000Y-25606151D01*
X89507900Y-25893201D01*
X89539000Y-25924301D01*
X89539001Y-31632098D01*
X89507900Y-31663199D01*
X89389000Y-31950249D01*
X89389000Y-32260951D01*
X89507900Y-32548001D01*
X89598899Y-32639000D01*
X76454000Y-32639000D01*
X76287779Y-32677171D01*
X76169237Y-32766877D01*
X75356437Y-33681277D01*
X75289202Y-33788598D01*
X75260200Y-33934400D01*
X60877400Y-33934400D01*
X60877400Y-33691049D01*
X60758500Y-33403999D01*
X60727400Y-33372899D01*
X60727400Y-28658568D01*
X61361934Y-28024035D01*
X61533599Y-28195700D01*
X61820649Y-28314600D01*
X62131351Y-28314600D01*
X62418401Y-28195700D01*
X62638100Y-27976001D01*
X62750182Y-27705411D01*
X76519000Y-27705411D01*
X76519000Y-28294589D01*
X76744468Y-28838919D01*
X77161081Y-29255532D01*
X77705411Y-29481000D01*
X78294589Y-29481000D01*
X78838919Y-29255532D01*
X79255532Y-28838919D01*
X79481000Y-28294589D01*
X79481000Y-27705411D01*
X79255532Y-27161081D01*
X78838919Y-26744468D01*
X78294589Y-26519000D01*
X77705411Y-26519000D01*
X77161081Y-26744468D01*
X76744468Y-27161081D01*
X76519000Y-27705411D01*
X62750182Y-27705411D01*
X62757000Y-27688951D01*
X62757000Y-27378249D01*
X62638100Y-27091199D01*
X62418401Y-26871500D01*
X62131351Y-26752600D01*
X61897814Y-26752600D01*
X61885748Y-26750200D01*
X61823600Y-26737838D01*
X61761452Y-26750200D01*
X61174548Y-26750200D01*
X61112400Y-26737838D01*
X61050252Y-26750200D01*
X60866196Y-26786811D01*
X60657474Y-26926274D01*
X60622269Y-26978962D01*
X59694162Y-27907070D01*
X59641475Y-27942274D01*
X59606271Y-27994961D01*
X59502011Y-28150997D01*
X59453038Y-28397200D01*
X59465401Y-28459353D01*
X59465400Y-33218567D01*
X59465400Y-33372899D01*
X59434300Y-33403999D01*
X59315400Y-33691049D01*
X57933400Y-33691049D01*
X57933400Y-29369768D01*
X60814969Y-26488200D01*
X71865699Y-26488200D01*
X71896799Y-26519300D01*
X72183849Y-26638200D01*
X72494551Y-26638200D01*
X72781601Y-26519300D01*
X73001300Y-26299601D01*
X73120200Y-26012551D01*
X73120200Y-25701849D01*
X73001300Y-25414799D01*
X72781601Y-25195100D01*
X72494551Y-25076200D01*
X72183849Y-25076200D01*
X71896799Y-25195100D01*
X71865699Y-25226200D01*
X60615746Y-25226200D01*
X60553599Y-25213838D01*
X60491452Y-25226200D01*
X60307396Y-25262811D01*
X60098674Y-25402274D01*
X60063469Y-25454962D01*
X56917400Y-28601032D01*
X56917400Y-28556968D01*
X61678569Y-23795800D01*
X98332499Y-23795800D01*
X98363599Y-23826900D01*
X98650649Y-23945800D01*
X98961351Y-23945800D01*
X99248401Y-23826900D01*
X99468100Y-23607201D01*
X99587000Y-23320151D01*
X99587000Y-23009449D01*
X99468100Y-22722399D01*
X99361912Y-22616211D01*
X115409800Y-22616211D01*
X115409800Y-23205389D01*
X115635268Y-23749719D01*
X116051881Y-24166332D01*
X116596211Y-24391800D01*
X117185389Y-24391800D01*
X117729719Y-24166332D01*
X118146332Y-23749719D01*
X118371800Y-23205389D01*
X118371800Y-22616211D01*
X118146332Y-22071881D01*
X117729719Y-21655268D01*
X117185389Y-21429800D01*
X116596211Y-21429800D01*
X116051881Y-21655268D01*
X115635268Y-22071881D01*
X115409800Y-22616211D01*
X99361912Y-22616211D01*
X99248401Y-22502700D01*
X98961351Y-22383800D01*
X98650649Y-22383800D01*
X98363599Y-22502700D01*
X98332499Y-22533800D01*
X59577052Y-22533800D01*
X59392996Y-22570411D01*
X59184274Y-22709874D01*
X59044811Y-22918596D01*
X58995838Y-23164800D01*
X59044811Y-23411004D01*
X59184274Y-23619726D01*
X59392996Y-23759189D01*
X59577052Y-23795800D01*
X59893831Y-23795800D01*
X55884162Y-27805469D01*
X55831475Y-27840674D01*
X55796271Y-27893361D01*
X55692011Y-28049397D01*
X55643038Y-28295600D01*
X55655401Y-28357753D01*
X55655400Y-31279385D01*
X55655401Y-31279390D01*
X55655400Y-37476146D01*
X55426962Y-37704585D01*
X55374275Y-37739789D01*
X55234811Y-37948511D01*
X55201734Y-38114799D01*
X55185838Y-38194715D01*
X55198200Y-38256863D01*
X55198200Y-38286899D01*
X55167100Y-38317999D01*
X55048200Y-38605049D01*
X55048200Y-38915751D01*
X55167100Y-39202801D01*
X55386799Y-39422500D01*
X55673849Y-39541400D01*
X55984551Y-39541400D01*
X56271601Y-39422500D01*
X56413400Y-39280701D01*
X56605999Y-39473300D01*
X56893049Y-39592200D01*
X56937032Y-39592200D01*
X61333467Y-43988635D01*
X61368674Y-44041326D01*
X61465886Y-44106281D01*
X61139299Y-44324499D01*
X60867224Y-44731688D01*
X60771684Y-45212000D01*
X60867224Y-45692312D01*
X61139299Y-46099501D01*
X61546488Y-46371576D01*
X61905561Y-46443000D01*
X62148039Y-46443000D01*
X62507112Y-46371576D01*
X62914301Y-46099501D01*
X63184555Y-45695037D01*
X63371617Y-46093358D01*
X63799876Y-46483645D01*
X64066313Y-46594000D01*
X42618113Y-46594000D01*
X42884401Y-46483700D01*
X43104100Y-46264001D01*
X43223000Y-45976951D01*
X43223000Y-45666249D01*
X43104100Y-45379199D01*
X43073000Y-45348099D01*
X43073000Y-45296968D01*
X45780569Y-42589400D01*
X45824551Y-42589400D01*
X46111601Y-42470500D01*
X46331300Y-42250801D01*
X46450200Y-41963751D01*
X46450200Y-41653049D01*
X46372838Y-41466280D01*
X46631449Y-41573400D01*
X46942151Y-41573400D01*
X47229201Y-41454500D01*
X47448900Y-41234801D01*
X47567800Y-40947751D01*
X47567800Y-40903768D01*
X49983036Y-38488532D01*
X50035726Y-38453326D01*
X50175189Y-38244604D01*
X50211800Y-38060548D01*
X50211800Y-38060547D01*
X50224162Y-37998400D01*
X50211800Y-37936252D01*
X50211800Y-36744701D01*
X50242900Y-36713601D01*
X50361800Y-36426551D01*
X50361800Y-36115849D01*
X50242900Y-35828799D01*
X50023201Y-35609100D01*
X49736151Y-35490200D01*
X49425449Y-35490200D01*
X49138399Y-35609100D01*
X48918700Y-35828799D01*
X48799800Y-36115849D01*
X48799800Y-36426551D01*
X48918700Y-36713601D01*
X48949801Y-36744702D01*
X48949800Y-37737032D01*
X46675432Y-40011400D01*
X46631449Y-40011400D01*
X46344399Y-40130300D01*
X46124700Y-40349999D01*
X46005800Y-40637049D01*
X46005800Y-40947751D01*
X46083162Y-41134520D01*
X45824551Y-41027400D01*
X45513849Y-41027400D01*
X45226799Y-41146300D01*
X45007100Y-41365999D01*
X44888200Y-41653049D01*
X44888200Y-41697031D01*
X42039762Y-44545470D01*
X41987075Y-44580674D01*
X41951871Y-44633361D01*
X41847611Y-44789397D01*
X41798638Y-45035600D01*
X41811000Y-45097748D01*
X41811000Y-45348099D01*
X41779900Y-45379199D01*
X41661000Y-45666249D01*
X41661000Y-45976951D01*
X41779900Y-46264001D01*
X41999599Y-46483700D01*
X42265887Y-46594000D01*
X40938755Y-46594000D01*
X41082401Y-46534500D01*
X41302100Y-46314801D01*
X41421000Y-46027751D01*
X41421000Y-45717049D01*
X41302100Y-45429999D01*
X41082401Y-45210300D01*
X40795351Y-45091400D01*
X40484649Y-45091400D01*
X40197599Y-45210300D01*
X39977900Y-45429999D01*
X39859000Y-45717049D01*
X39859000Y-46027751D01*
X39977900Y-46314801D01*
X40197599Y-46534500D01*
X40341245Y-46594000D01*
X20406000Y-46594000D01*
X20406000Y-43799811D01*
X21480600Y-43799811D01*
X21480600Y-44388989D01*
X21706068Y-44933319D01*
X22122681Y-45349932D01*
X22667011Y-45575400D01*
X23256189Y-45575400D01*
X23800519Y-45349932D01*
X24217132Y-44933319D01*
X24442600Y-44388989D01*
X24442600Y-43799811D01*
X24217132Y-43255481D01*
X23800519Y-42838868D01*
X23256189Y-42613400D01*
X22667011Y-42613400D01*
X22122681Y-42838868D01*
X21706068Y-43255481D01*
X21480600Y-43799811D01*
X20406000Y-43799811D01*
X20406000Y-38284150D01*
X23820600Y-38284150D01*
X23820600Y-39424709D01*
X23917273Y-39658098D01*
X24095901Y-39836727D01*
X24329290Y-39933400D01*
X25469850Y-39933400D01*
X25628600Y-39774650D01*
X25628600Y-38125400D01*
X25882600Y-38125400D01*
X25882600Y-39774650D01*
X26041350Y-39933400D01*
X27181910Y-39933400D01*
X27415299Y-39836727D01*
X27593927Y-39658098D01*
X27690600Y-39424709D01*
X27690600Y-38284150D01*
X27531850Y-38125400D01*
X25882600Y-38125400D01*
X25628600Y-38125400D01*
X23979350Y-38125400D01*
X23820600Y-38284150D01*
X20406000Y-38284150D01*
X20406000Y-36572091D01*
X23820600Y-36572091D01*
X23820600Y-37712650D01*
X23979350Y-37871400D01*
X25628600Y-37871400D01*
X25628600Y-36222150D01*
X25882600Y-36222150D01*
X25882600Y-37871400D01*
X27531850Y-37871400D01*
X27690600Y-37712650D01*
X27690600Y-37565049D01*
X38182600Y-37565049D01*
X38182600Y-37875751D01*
X38301500Y-38162801D01*
X38521199Y-38382500D01*
X38808249Y-38501400D01*
X39118951Y-38501400D01*
X39406001Y-38382500D01*
X39437101Y-38351400D01*
X39484252Y-38351400D01*
X39546400Y-38363762D01*
X39608548Y-38351400D01*
X39792604Y-38314789D01*
X40001326Y-38175326D01*
X40036533Y-38122635D01*
X46694968Y-31464200D01*
X46738951Y-31464200D01*
X47026001Y-31345300D01*
X47245700Y-31125601D01*
X47364600Y-30838551D01*
X47364600Y-30527849D01*
X47245700Y-30240799D01*
X47026001Y-30021100D01*
X46738951Y-29902200D01*
X46428249Y-29902200D01*
X46141199Y-30021100D01*
X45921500Y-30240799D01*
X45802600Y-30527849D01*
X45802600Y-30571832D01*
X39342454Y-37031978D01*
X39118951Y-36939400D01*
X38808249Y-36939400D01*
X38521199Y-37058300D01*
X38301500Y-37277999D01*
X38182600Y-37565049D01*
X27690600Y-37565049D01*
X27690600Y-36572091D01*
X27593927Y-36338702D01*
X27415299Y-36160073D01*
X27181910Y-36063400D01*
X26041350Y-36063400D01*
X25882600Y-36222150D01*
X25628600Y-36222150D01*
X25469850Y-36063400D01*
X24329290Y-36063400D01*
X24095901Y-36160073D01*
X23917273Y-36338702D01*
X23820600Y-36572091D01*
X20406000Y-36572091D01*
X20406000Y-32664028D01*
X24074600Y-32664028D01*
X24074600Y-33332772D01*
X24330517Y-33950610D01*
X24803390Y-34423483D01*
X25421228Y-34679400D01*
X26089972Y-34679400D01*
X26707810Y-34423483D01*
X27180683Y-33950610D01*
X27436600Y-33332772D01*
X27436600Y-32664028D01*
X27180683Y-32046190D01*
X26707810Y-31573317D01*
X26089972Y-31317400D01*
X25421228Y-31317400D01*
X24803390Y-31573317D01*
X24330517Y-32046190D01*
X24074600Y-32664028D01*
X20406000Y-32664028D01*
X20406000Y-27664028D01*
X24074600Y-27664028D01*
X24074600Y-28332772D01*
X24330517Y-28950610D01*
X24803390Y-29423483D01*
X25421228Y-29679400D01*
X26089972Y-29679400D01*
X26261996Y-29608145D01*
X32079461Y-29608145D01*
X32153595Y-29854264D01*
X32690823Y-30047365D01*
X33261054Y-30020178D01*
X33661605Y-29854264D01*
X33735739Y-29608145D01*
X32907600Y-28780005D01*
X32079461Y-29608145D01*
X26261996Y-29608145D01*
X26707810Y-29423483D01*
X27180683Y-28950610D01*
X27415536Y-28383623D01*
X31460635Y-28383623D01*
X31487822Y-28953854D01*
X31653736Y-29354405D01*
X31899855Y-29428539D01*
X32727995Y-28600400D01*
X33087205Y-28600400D01*
X33915345Y-29428539D01*
X34161464Y-29354405D01*
X34219136Y-29193955D01*
X34219136Y-29400400D01*
X34248706Y-29549059D01*
X34332914Y-29675086D01*
X34458941Y-29759294D01*
X34607600Y-29788864D01*
X35350142Y-29788864D01*
X35510685Y-29949407D01*
X35559835Y-30022965D01*
X35851251Y-30217683D01*
X35904501Y-30228275D01*
X36195000Y-30286059D01*
X36281767Y-30268800D01*
X41920567Y-30268800D01*
X42177549Y-30217683D01*
X42468965Y-30022965D01*
X42663683Y-29731549D01*
X42732059Y-29387800D01*
X42663683Y-29044051D01*
X42468965Y-28752635D01*
X42177549Y-28557917D01*
X41920567Y-28506800D01*
X36596064Y-28506800D01*
X36596064Y-27800400D01*
X36566494Y-27651741D01*
X36482286Y-27525714D01*
X36356259Y-27441506D01*
X36207600Y-27411936D01*
X34607600Y-27411936D01*
X34458941Y-27441506D01*
X34332914Y-27525714D01*
X34248706Y-27651741D01*
X34219136Y-27800400D01*
X34219136Y-27985627D01*
X34161464Y-27846395D01*
X33915345Y-27772261D01*
X33087205Y-28600400D01*
X32727995Y-28600400D01*
X31899855Y-27772261D01*
X31653736Y-27846395D01*
X31460635Y-28383623D01*
X27415536Y-28383623D01*
X27436600Y-28332772D01*
X27436600Y-27664028D01*
X27407037Y-27592655D01*
X32079461Y-27592655D01*
X32907600Y-28420795D01*
X33735739Y-27592655D01*
X33661605Y-27346536D01*
X33124377Y-27153435D01*
X32554146Y-27180622D01*
X32153595Y-27346536D01*
X32079461Y-27592655D01*
X27407037Y-27592655D01*
X27180683Y-27046190D01*
X26707810Y-26573317D01*
X26089972Y-26317400D01*
X25421228Y-26317400D01*
X24803390Y-26573317D01*
X24330517Y-27046190D01*
X24074600Y-27664028D01*
X20406000Y-27664028D01*
X20406000Y-24367859D01*
X24565746Y-24367859D01*
X24701104Y-24665855D01*
X25419480Y-24942466D01*
X26189027Y-24923110D01*
X26810096Y-24665855D01*
X26945454Y-24367859D01*
X25755600Y-23178005D01*
X24565746Y-24367859D01*
X20406000Y-24367859D01*
X20406000Y-22662280D01*
X23811534Y-22662280D01*
X23830890Y-23431827D01*
X24088145Y-24052896D01*
X24386141Y-24188254D01*
X25575995Y-22998400D01*
X25935205Y-22998400D01*
X27125059Y-24188254D01*
X27423055Y-24052896D01*
X27699666Y-23334520D01*
X27680310Y-22564973D01*
X27423055Y-21943904D01*
X27125059Y-21808546D01*
X25935205Y-22998400D01*
X25575995Y-22998400D01*
X24386141Y-21808546D01*
X24088145Y-21943904D01*
X23811534Y-22662280D01*
X20406000Y-22662280D01*
X20406000Y-21628941D01*
X24565746Y-21628941D01*
X25755600Y-22818795D01*
X26945454Y-21628941D01*
X26810096Y-21330945D01*
X26091720Y-21054334D01*
X25322173Y-21073690D01*
X24701104Y-21330945D01*
X24565746Y-21628941D01*
X20406000Y-21628941D01*
X20406000Y-20406000D01*
X119594000Y-20406000D01*
X119594001Y-46594000D01*
X119594001Y-46594000D01*
G37*
X119594001Y-46594000D02*
X67607287Y-46594000D01*
X67873724Y-46483645D01*
X68301983Y-46093358D01*
X68489045Y-45695037D01*
X68759299Y-46099501D01*
X69166488Y-46371576D01*
X69525561Y-46443000D01*
X69768039Y-46443000D01*
X70127112Y-46371576D01*
X70534301Y-46099501D01*
X70806376Y-45692312D01*
X70901916Y-45212000D01*
X70806376Y-44731688D01*
X70534301Y-44324499D01*
X70374016Y-44217400D01*
X70977099Y-44217400D01*
X70948336Y-44362000D01*
X70948336Y-46062000D01*
X70977906Y-46210659D01*
X71062114Y-46336686D01*
X71188141Y-46420894D01*
X71336800Y-46450464D01*
X73036800Y-46450464D01*
X73185459Y-46420894D01*
X73311486Y-46336686D01*
X73395694Y-46210659D01*
X73425264Y-46062000D01*
X73425264Y-44362000D01*
X73396501Y-44217400D01*
X78275432Y-44217400D01*
X79926267Y-45868235D01*
X79961474Y-45920926D01*
X80121350Y-46027751D01*
X80170196Y-46060389D01*
X80416400Y-46109362D01*
X80478548Y-46097000D01*
X85327699Y-46097000D01*
X85358799Y-46128100D01*
X85645849Y-46247000D01*
X85956551Y-46247000D01*
X86243601Y-46128100D01*
X86463300Y-45908401D01*
X86582200Y-45621351D01*
X86582200Y-45310649D01*
X86463300Y-45023599D01*
X86243601Y-44803900D01*
X85956551Y-44685000D01*
X85645849Y-44685000D01*
X85358799Y-44803900D01*
X85327699Y-44835000D01*
X80677768Y-44835000D01*
X79591779Y-43749011D01*
X115511400Y-43749011D01*
X115511400Y-44338189D01*
X115736868Y-44882519D01*
X116153481Y-45299132D01*
X116697811Y-45524600D01*
X117286989Y-45524600D01*
X117831319Y-45299132D01*
X118247932Y-44882519D01*
X118473400Y-44338189D01*
X118473400Y-43749011D01*
X118247932Y-43204681D01*
X117831319Y-42788068D01*
X117286989Y-42562600D01*
X116697811Y-42562600D01*
X116153481Y-42788068D01*
X115736868Y-43204681D01*
X115511400Y-43749011D01*
X79591779Y-43749011D01*
X79026933Y-43184165D01*
X78991726Y-43131474D01*
X78783004Y-42992011D01*
X78598948Y-42955400D01*
X78536800Y-42943038D01*
X78474652Y-42955400D01*
X62084968Y-42955400D01*
X58785384Y-39655816D01*
X58837746Y-39645400D01*
X62027432Y-39645400D01*
X61661432Y-40011400D01*
X61617449Y-40011400D01*
X61330399Y-40130300D01*
X61110700Y-40349999D01*
X60991800Y-40637049D01*
X60991800Y-40947751D01*
X61110700Y-41234801D01*
X61330399Y-41454500D01*
X61617449Y-41573400D01*
X61928151Y-41573400D01*
X62215201Y-41454500D01*
X62434900Y-41234801D01*
X62553800Y-40947751D01*
X62553800Y-40903768D01*
X62846968Y-40610600D01*
X69935299Y-40610600D01*
X69966399Y-40641700D01*
X70253449Y-40760600D01*
X70564151Y-40760600D01*
X70851201Y-40641700D01*
X71070900Y-40422001D01*
X71189800Y-40134951D01*
X71189800Y-39824249D01*
X71070900Y-39537199D01*
X70851201Y-39317500D01*
X70564151Y-39198600D01*
X70253449Y-39198600D01*
X69966399Y-39317500D01*
X69935299Y-39348600D01*
X69896518Y-39348600D01*
X69970600Y-39169751D01*
X69970600Y-38859049D01*
X69851700Y-38571999D01*
X69632001Y-38352300D01*
X69344951Y-38233400D01*
X69034249Y-38233400D01*
X68747199Y-38352300D01*
X68716099Y-38383400D01*
X59091758Y-38383400D01*
X58980500Y-38114799D01*
X58760801Y-37895100D01*
X58473751Y-37776200D01*
X58163049Y-37776200D01*
X57933400Y-37871324D01*
X57933400Y-33691049D01*
X59315400Y-33691049D01*
X59315400Y-34001751D01*
X59434300Y-34288801D01*
X59653999Y-34508500D01*
X59941049Y-34627400D01*
X60251751Y-34627400D01*
X60538801Y-34508500D01*
X60758500Y-34288801D01*
X60877400Y-34001751D01*
X60877400Y-33934400D01*
X75260200Y-33934400D01*
X75260200Y-41452800D01*
X75289202Y-41598602D01*
X75371792Y-41722208D01*
X75495398Y-41804798D01*
X75641200Y-41833800D01*
X77419200Y-41833800D01*
X77565002Y-41804798D01*
X77688608Y-41722208D01*
X77771198Y-41598602D01*
X77800200Y-41452800D01*
X77800200Y-40239016D01*
X82248103Y-35791113D01*
X85154872Y-35837252D01*
X86980635Y-37326691D01*
X88248544Y-38391734D01*
X88347798Y-38451998D01*
X88493600Y-38481000D01*
X89711478Y-38481000D01*
X87163479Y-41029000D01*
X79770833Y-41029000D01*
X79513851Y-41080117D01*
X79222435Y-41274835D01*
X79027717Y-41566251D01*
X78959341Y-41910000D01*
X79027717Y-42253749D01*
X79222435Y-42545165D01*
X79513851Y-42739883D01*
X79770833Y-42791000D01*
X87441637Y-42791000D01*
X87528400Y-42808258D01*
X87615163Y-42791000D01*
X87615167Y-42791000D01*
X87872149Y-42739883D01*
X88163565Y-42545165D01*
X88212717Y-42471604D01*
X91209914Y-39474408D01*
X91355483Y-39256549D01*
X91357199Y-39247918D01*
X108603400Y-39247918D01*
X108603400Y-40059082D01*
X108913820Y-40808501D01*
X109487399Y-41382080D01*
X110236818Y-41692500D01*
X111047982Y-41692500D01*
X111797401Y-41382080D01*
X112370980Y-40808501D01*
X112681400Y-40059082D01*
X112681400Y-39247918D01*
X112370980Y-38498499D01*
X111797401Y-37924920D01*
X111047982Y-37614500D01*
X110236818Y-37614500D01*
X109487399Y-37924920D01*
X108913820Y-38498499D01*
X108603400Y-39247918D01*
X91357199Y-39247918D01*
X91423859Y-38912800D01*
X91355483Y-38569052D01*
X91160765Y-38277635D01*
X90869348Y-38082917D01*
X90654060Y-38040093D01*
X91562449Y-37093855D01*
X91639598Y-36975802D01*
X91668600Y-36830000D01*
X91668600Y-36365691D01*
X106837400Y-36365691D01*
X106837400Y-36801309D01*
X107004104Y-37203767D01*
X107312133Y-37511796D01*
X107714591Y-37678500D01*
X108150209Y-37678500D01*
X108552667Y-37511796D01*
X108860696Y-37203767D01*
X109027400Y-36801309D01*
X109027400Y-36365691D01*
X108860696Y-35963233D01*
X108552667Y-35655204D01*
X108150209Y-35488500D01*
X107714591Y-35488500D01*
X107312133Y-35655204D01*
X107004104Y-35963233D01*
X106837400Y-36365691D01*
X91668600Y-36365691D01*
X91668600Y-34340800D01*
X91628316Y-34170289D01*
X91537129Y-34052882D01*
X91172188Y-33736600D01*
X91290551Y-33736600D01*
X91577601Y-33617700D01*
X91797300Y-33398001D01*
X91916200Y-33110951D01*
X91916200Y-32800249D01*
X91797300Y-32513199D01*
X91766200Y-32482099D01*
X91766200Y-31865691D01*
X106837400Y-31865691D01*
X106837400Y-32301309D01*
X107004104Y-32703767D01*
X107312133Y-33011796D01*
X107485241Y-33083500D01*
X107312133Y-33155204D01*
X107004104Y-33463233D01*
X106837400Y-33865691D01*
X106837400Y-34301309D01*
X107004104Y-34703767D01*
X107312133Y-35011796D01*
X107714591Y-35178500D01*
X108150209Y-35178500D01*
X108552667Y-35011796D01*
X108860696Y-34703767D01*
X109027400Y-34301309D01*
X109027400Y-33865691D01*
X108860696Y-33463233D01*
X108552667Y-33155204D01*
X108379559Y-33083500D01*
X108552667Y-33011796D01*
X108860696Y-32703767D01*
X109027400Y-32301309D01*
X109027400Y-31865691D01*
X108860696Y-31463233D01*
X108552667Y-31155204D01*
X108150209Y-30988500D01*
X107714591Y-30988500D01*
X107312133Y-31155204D01*
X107004104Y-31463233D01*
X106837400Y-31865691D01*
X91766200Y-31865691D01*
X91766200Y-30528924D01*
X107166581Y-30528924D01*
X107230143Y-30766140D01*
X107736176Y-30944859D01*
X108272083Y-30916323D01*
X108634657Y-30766140D01*
X108698219Y-30528924D01*
X107932400Y-29763105D01*
X107166581Y-30528924D01*
X91766200Y-30528924D01*
X91766200Y-29387276D01*
X106571041Y-29387276D01*
X106599577Y-29923183D01*
X106749760Y-30285757D01*
X106986976Y-30349319D01*
X107752795Y-29583500D01*
X108112005Y-29583500D01*
X108877824Y-30349319D01*
X109115040Y-30285757D01*
X109293759Y-29779724D01*
X109265223Y-29243817D01*
X109115040Y-28881243D01*
X108877824Y-28817681D01*
X108112005Y-29583500D01*
X107752795Y-29583500D01*
X106986976Y-28817681D01*
X106749760Y-28881243D01*
X106571041Y-29387276D01*
X91766200Y-29387276D01*
X91766200Y-28638076D01*
X107166581Y-28638076D01*
X107932400Y-29403895D01*
X108698219Y-28638076D01*
X108634657Y-28400860D01*
X108128624Y-28222141D01*
X107592717Y-28250677D01*
X107230143Y-28400860D01*
X107166581Y-28638076D01*
X91766200Y-28638076D01*
X91766200Y-28141591D01*
X109193914Y-28141591D01*
X109372977Y-28476776D01*
X110220919Y-28813117D01*
X111133028Y-28799363D01*
X111911823Y-28476776D01*
X112090886Y-28141591D01*
X110642400Y-26693105D01*
X109193914Y-28141591D01*
X91766200Y-28141591D01*
X91766200Y-26219964D01*
X91793326Y-26201839D01*
X91866705Y-26092019D01*
X108342783Y-26092019D01*
X108356537Y-27004128D01*
X108679124Y-27782923D01*
X109014309Y-27961986D01*
X110462795Y-26513500D01*
X110822005Y-26513500D01*
X112270491Y-27961986D01*
X112605676Y-27782923D01*
X112942017Y-26934981D01*
X112928263Y-26022872D01*
X112605676Y-25244077D01*
X112270491Y-25065014D01*
X110822005Y-26513500D01*
X110462795Y-26513500D01*
X109014309Y-25065014D01*
X108679124Y-25244077D01*
X108342783Y-26092019D01*
X91866705Y-26092019D01*
X91932789Y-25993117D01*
X91969400Y-25809061D01*
X91969400Y-25809060D01*
X91981762Y-25746914D01*
X91969400Y-25684767D01*
X91969400Y-25654729D01*
X92000500Y-25623629D01*
X92119400Y-25336579D01*
X92119400Y-25025877D01*
X92061217Y-24885409D01*
X109193914Y-24885409D01*
X110642400Y-26333895D01*
X112090886Y-24885409D01*
X111911823Y-24550224D01*
X111063881Y-24213883D01*
X110151772Y-24227637D01*
X109372977Y-24550224D01*
X109193914Y-24885409D01*
X92061217Y-24885409D01*
X92000500Y-24738827D01*
X91780801Y-24519128D01*
X91493751Y-24400228D01*
X91183049Y-24400228D01*
X90895999Y-24519128D01*
X90676300Y-24738827D01*
X90642977Y-24819276D01*
X90612401Y-24788700D01*
X90325351Y-24669800D01*
X90014649Y-24669800D01*
X89727599Y-24788700D01*
X89507900Y-25008399D01*
X89389000Y-25295449D01*
X89389000Y-25606151D01*
X89507900Y-25893201D01*
X89539000Y-25924301D01*
X89539001Y-31632098D01*
X89507900Y-31663199D01*
X89389000Y-31950249D01*
X89389000Y-32260951D01*
X89507900Y-32548001D01*
X89598899Y-32639000D01*
X76454000Y-32639000D01*
X76287779Y-32677171D01*
X76169237Y-32766877D01*
X75356437Y-33681277D01*
X75289202Y-33788598D01*
X75260200Y-33934400D01*
X60877400Y-33934400D01*
X60877400Y-33691049D01*
X60758500Y-33403999D01*
X60727400Y-33372899D01*
X60727400Y-28658568D01*
X61361934Y-28024035D01*
X61533599Y-28195700D01*
X61820649Y-28314600D01*
X62131351Y-28314600D01*
X62418401Y-28195700D01*
X62638100Y-27976001D01*
X62750182Y-27705411D01*
X76519000Y-27705411D01*
X76519000Y-28294589D01*
X76744468Y-28838919D01*
X77161081Y-29255532D01*
X77705411Y-29481000D01*
X78294589Y-29481000D01*
X78838919Y-29255532D01*
X79255532Y-28838919D01*
X79481000Y-28294589D01*
X79481000Y-27705411D01*
X79255532Y-27161081D01*
X78838919Y-26744468D01*
X78294589Y-26519000D01*
X77705411Y-26519000D01*
X77161081Y-26744468D01*
X76744468Y-27161081D01*
X76519000Y-27705411D01*
X62750182Y-27705411D01*
X62757000Y-27688951D01*
X62757000Y-27378249D01*
X62638100Y-27091199D01*
X62418401Y-26871500D01*
X62131351Y-26752600D01*
X61897814Y-26752600D01*
X61885748Y-26750200D01*
X61823600Y-26737838D01*
X61761452Y-26750200D01*
X61174548Y-26750200D01*
X61112400Y-26737838D01*
X61050252Y-26750200D01*
X60866196Y-26786811D01*
X60657474Y-26926274D01*
X60622269Y-26978962D01*
X59694162Y-27907070D01*
X59641475Y-27942274D01*
X59606271Y-27994961D01*
X59502011Y-28150997D01*
X59453038Y-28397200D01*
X59465401Y-28459353D01*
X59465400Y-33218567D01*
X59465400Y-33372899D01*
X59434300Y-33403999D01*
X59315400Y-33691049D01*
X57933400Y-33691049D01*
X57933400Y-29369768D01*
X60814969Y-26488200D01*
X71865699Y-26488200D01*
X71896799Y-26519300D01*
X72183849Y-26638200D01*
X72494551Y-26638200D01*
X72781601Y-26519300D01*
X73001300Y-26299601D01*
X73120200Y-26012551D01*
X73120200Y-25701849D01*
X73001300Y-25414799D01*
X72781601Y-25195100D01*
X72494551Y-25076200D01*
X72183849Y-25076200D01*
X71896799Y-25195100D01*
X71865699Y-25226200D01*
X60615746Y-25226200D01*
X60553599Y-25213838D01*
X60491452Y-25226200D01*
X60307396Y-25262811D01*
X60098674Y-25402274D01*
X60063469Y-25454962D01*
X56917400Y-28601032D01*
X56917400Y-28556968D01*
X61678569Y-23795800D01*
X98332499Y-23795800D01*
X98363599Y-23826900D01*
X98650649Y-23945800D01*
X98961351Y-23945800D01*
X99248401Y-23826900D01*
X99468100Y-23607201D01*
X99587000Y-23320151D01*
X99587000Y-23009449D01*
X99468100Y-22722399D01*
X99361912Y-22616211D01*
X115409800Y-22616211D01*
X115409800Y-23205389D01*
X115635268Y-23749719D01*
X116051881Y-24166332D01*
X116596211Y-24391800D01*
X117185389Y-24391800D01*
X117729719Y-24166332D01*
X118146332Y-23749719D01*
X118371800Y-23205389D01*
X118371800Y-22616211D01*
X118146332Y-22071881D01*
X117729719Y-21655268D01*
X117185389Y-21429800D01*
X116596211Y-21429800D01*
X116051881Y-21655268D01*
X115635268Y-22071881D01*
X115409800Y-22616211D01*
X99361912Y-22616211D01*
X99248401Y-22502700D01*
X98961351Y-22383800D01*
X98650649Y-22383800D01*
X98363599Y-22502700D01*
X98332499Y-22533800D01*
X59577052Y-22533800D01*
X59392996Y-22570411D01*
X59184274Y-22709874D01*
X59044811Y-22918596D01*
X58995838Y-23164800D01*
X59044811Y-23411004D01*
X59184274Y-23619726D01*
X59392996Y-23759189D01*
X59577052Y-23795800D01*
X59893831Y-23795800D01*
X55884162Y-27805469D01*
X55831475Y-27840674D01*
X55796271Y-27893361D01*
X55692011Y-28049397D01*
X55643038Y-28295600D01*
X55655401Y-28357753D01*
X55655400Y-31279385D01*
X55655401Y-31279390D01*
X55655400Y-37476146D01*
X55426962Y-37704585D01*
X55374275Y-37739789D01*
X55234811Y-37948511D01*
X55201734Y-38114799D01*
X55185838Y-38194715D01*
X55198200Y-38256863D01*
X55198200Y-38286899D01*
X55167100Y-38317999D01*
X55048200Y-38605049D01*
X55048200Y-38915751D01*
X55167100Y-39202801D01*
X55386799Y-39422500D01*
X55673849Y-39541400D01*
X55984551Y-39541400D01*
X56271601Y-39422500D01*
X56413400Y-39280701D01*
X56605999Y-39473300D01*
X56893049Y-39592200D01*
X56937032Y-39592200D01*
X61333467Y-43988635D01*
X61368674Y-44041326D01*
X61465886Y-44106281D01*
X61139299Y-44324499D01*
X60867224Y-44731688D01*
X60771684Y-45212000D01*
X60867224Y-45692312D01*
X61139299Y-46099501D01*
X61546488Y-46371576D01*
X61905561Y-46443000D01*
X62148039Y-46443000D01*
X62507112Y-46371576D01*
X62914301Y-46099501D01*
X63184555Y-45695037D01*
X63371617Y-46093358D01*
X63799876Y-46483645D01*
X64066313Y-46594000D01*
X42618113Y-46594000D01*
X42884401Y-46483700D01*
X43104100Y-46264001D01*
X43223000Y-45976951D01*
X43223000Y-45666249D01*
X43104100Y-45379199D01*
X43073000Y-45348099D01*
X43073000Y-45296968D01*
X45780569Y-42589400D01*
X45824551Y-42589400D01*
X46111601Y-42470500D01*
X46331300Y-42250801D01*
X46450200Y-41963751D01*
X46450200Y-41653049D01*
X46372838Y-41466280D01*
X46631449Y-41573400D01*
X46942151Y-41573400D01*
X47229201Y-41454500D01*
X47448900Y-41234801D01*
X47567800Y-40947751D01*
X47567800Y-40903768D01*
X49983036Y-38488532D01*
X50035726Y-38453326D01*
X50175189Y-38244604D01*
X50211800Y-38060548D01*
X50211800Y-38060547D01*
X50224162Y-37998400D01*
X50211800Y-37936252D01*
X50211800Y-36744701D01*
X50242900Y-36713601D01*
X50361800Y-36426551D01*
X50361800Y-36115849D01*
X50242900Y-35828799D01*
X50023201Y-35609100D01*
X49736151Y-35490200D01*
X49425449Y-35490200D01*
X49138399Y-35609100D01*
X48918700Y-35828799D01*
X48799800Y-36115849D01*
X48799800Y-36426551D01*
X48918700Y-36713601D01*
X48949801Y-36744702D01*
X48949800Y-37737032D01*
X46675432Y-40011400D01*
X46631449Y-40011400D01*
X46344399Y-40130300D01*
X46124700Y-40349999D01*
X46005800Y-40637049D01*
X46005800Y-40947751D01*
X46083162Y-41134520D01*
X45824551Y-41027400D01*
X45513849Y-41027400D01*
X45226799Y-41146300D01*
X45007100Y-41365999D01*
X44888200Y-41653049D01*
X44888200Y-41697031D01*
X42039762Y-44545470D01*
X41987075Y-44580674D01*
X41951871Y-44633361D01*
X41847611Y-44789397D01*
X41798638Y-45035600D01*
X41811000Y-45097748D01*
X41811000Y-45348099D01*
X41779900Y-45379199D01*
X41661000Y-45666249D01*
X41661000Y-45976951D01*
X41779900Y-46264001D01*
X41999599Y-46483700D01*
X42265887Y-46594000D01*
X40938755Y-46594000D01*
X41082401Y-46534500D01*
X41302100Y-46314801D01*
X41421000Y-46027751D01*
X41421000Y-45717049D01*
X41302100Y-45429999D01*
X41082401Y-45210300D01*
X40795351Y-45091400D01*
X40484649Y-45091400D01*
X40197599Y-45210300D01*
X39977900Y-45429999D01*
X39859000Y-45717049D01*
X39859000Y-46027751D01*
X39977900Y-46314801D01*
X40197599Y-46534500D01*
X40341245Y-46594000D01*
X20406000Y-46594000D01*
X20406000Y-43799811D01*
X21480600Y-43799811D01*
X21480600Y-44388989D01*
X21706068Y-44933319D01*
X22122681Y-45349932D01*
X22667011Y-45575400D01*
X23256189Y-45575400D01*
X23800519Y-45349932D01*
X24217132Y-44933319D01*
X24442600Y-44388989D01*
X24442600Y-43799811D01*
X24217132Y-43255481D01*
X23800519Y-42838868D01*
X23256189Y-42613400D01*
X22667011Y-42613400D01*
X22122681Y-42838868D01*
X21706068Y-43255481D01*
X21480600Y-43799811D01*
X20406000Y-43799811D01*
X20406000Y-38284150D01*
X23820600Y-38284150D01*
X23820600Y-39424709D01*
X23917273Y-39658098D01*
X24095901Y-39836727D01*
X24329290Y-39933400D01*
X25469850Y-39933400D01*
X25628600Y-39774650D01*
X25628600Y-38125400D01*
X25882600Y-38125400D01*
X25882600Y-39774650D01*
X26041350Y-39933400D01*
X27181910Y-39933400D01*
X27415299Y-39836727D01*
X27593927Y-39658098D01*
X27690600Y-39424709D01*
X27690600Y-38284150D01*
X27531850Y-38125400D01*
X25882600Y-38125400D01*
X25628600Y-38125400D01*
X23979350Y-38125400D01*
X23820600Y-38284150D01*
X20406000Y-38284150D01*
X20406000Y-36572091D01*
X23820600Y-36572091D01*
X23820600Y-37712650D01*
X23979350Y-37871400D01*
X25628600Y-37871400D01*
X25628600Y-36222150D01*
X25882600Y-36222150D01*
X25882600Y-37871400D01*
X27531850Y-37871400D01*
X27690600Y-37712650D01*
X27690600Y-37565049D01*
X38182600Y-37565049D01*
X38182600Y-37875751D01*
X38301500Y-38162801D01*
X38521199Y-38382500D01*
X38808249Y-38501400D01*
X39118951Y-38501400D01*
X39406001Y-38382500D01*
X39437101Y-38351400D01*
X39484252Y-38351400D01*
X39546400Y-38363762D01*
X39608548Y-38351400D01*
X39792604Y-38314789D01*
X40001326Y-38175326D01*
X40036533Y-38122635D01*
X46694968Y-31464200D01*
X46738951Y-31464200D01*
X47026001Y-31345300D01*
X47245700Y-31125601D01*
X47364600Y-30838551D01*
X47364600Y-30527849D01*
X47245700Y-30240799D01*
X47026001Y-30021100D01*
X46738951Y-29902200D01*
X46428249Y-29902200D01*
X46141199Y-30021100D01*
X45921500Y-30240799D01*
X45802600Y-30527849D01*
X45802600Y-30571832D01*
X39342454Y-37031978D01*
X39118951Y-36939400D01*
X38808249Y-36939400D01*
X38521199Y-37058300D01*
X38301500Y-37277999D01*
X38182600Y-37565049D01*
X27690600Y-37565049D01*
X27690600Y-36572091D01*
X27593927Y-36338702D01*
X27415299Y-36160073D01*
X27181910Y-36063400D01*
X26041350Y-36063400D01*
X25882600Y-36222150D01*
X25628600Y-36222150D01*
X25469850Y-36063400D01*
X24329290Y-36063400D01*
X24095901Y-36160073D01*
X23917273Y-36338702D01*
X23820600Y-36572091D01*
X20406000Y-36572091D01*
X20406000Y-32664028D01*
X24074600Y-32664028D01*
X24074600Y-33332772D01*
X24330517Y-33950610D01*
X24803390Y-34423483D01*
X25421228Y-34679400D01*
X26089972Y-34679400D01*
X26707810Y-34423483D01*
X27180683Y-33950610D01*
X27436600Y-33332772D01*
X27436600Y-32664028D01*
X27180683Y-32046190D01*
X26707810Y-31573317D01*
X26089972Y-31317400D01*
X25421228Y-31317400D01*
X24803390Y-31573317D01*
X24330517Y-32046190D01*
X24074600Y-32664028D01*
X20406000Y-32664028D01*
X20406000Y-27664028D01*
X24074600Y-27664028D01*
X24074600Y-28332772D01*
X24330517Y-28950610D01*
X24803390Y-29423483D01*
X25421228Y-29679400D01*
X26089972Y-29679400D01*
X26261996Y-29608145D01*
X32079461Y-29608145D01*
X32153595Y-29854264D01*
X32690823Y-30047365D01*
X33261054Y-30020178D01*
X33661605Y-29854264D01*
X33735739Y-29608145D01*
X32907600Y-28780005D01*
X32079461Y-29608145D01*
X26261996Y-29608145D01*
X26707810Y-29423483D01*
X27180683Y-28950610D01*
X27415536Y-28383623D01*
X31460635Y-28383623D01*
X31487822Y-28953854D01*
X31653736Y-29354405D01*
X31899855Y-29428539D01*
X32727995Y-28600400D01*
X33087205Y-28600400D01*
X33915345Y-29428539D01*
X34161464Y-29354405D01*
X34219136Y-29193955D01*
X34219136Y-29400400D01*
X34248706Y-29549059D01*
X34332914Y-29675086D01*
X34458941Y-29759294D01*
X34607600Y-29788864D01*
X35350142Y-29788864D01*
X35510685Y-29949407D01*
X35559835Y-30022965D01*
X35851251Y-30217683D01*
X35904501Y-30228275D01*
X36195000Y-30286059D01*
X36281767Y-30268800D01*
X41920567Y-30268800D01*
X42177549Y-30217683D01*
X42468965Y-30022965D01*
X42663683Y-29731549D01*
X42732059Y-29387800D01*
X42663683Y-29044051D01*
X42468965Y-28752635D01*
X42177549Y-28557917D01*
X41920567Y-28506800D01*
X36596064Y-28506800D01*
X36596064Y-27800400D01*
X36566494Y-27651741D01*
X36482286Y-27525714D01*
X36356259Y-27441506D01*
X36207600Y-27411936D01*
X34607600Y-27411936D01*
X34458941Y-27441506D01*
X34332914Y-27525714D01*
X34248706Y-27651741D01*
X34219136Y-27800400D01*
X34219136Y-27985627D01*
X34161464Y-27846395D01*
X33915345Y-27772261D01*
X33087205Y-28600400D01*
X32727995Y-28600400D01*
X31899855Y-27772261D01*
X31653736Y-27846395D01*
X31460635Y-28383623D01*
X27415536Y-28383623D01*
X27436600Y-28332772D01*
X27436600Y-27664028D01*
X27407037Y-27592655D01*
X32079461Y-27592655D01*
X32907600Y-28420795D01*
X33735739Y-27592655D01*
X33661605Y-27346536D01*
X33124377Y-27153435D01*
X32554146Y-27180622D01*
X32153595Y-27346536D01*
X32079461Y-27592655D01*
X27407037Y-27592655D01*
X27180683Y-27046190D01*
X26707810Y-26573317D01*
X26089972Y-26317400D01*
X25421228Y-26317400D01*
X24803390Y-26573317D01*
X24330517Y-27046190D01*
X24074600Y-27664028D01*
X20406000Y-27664028D01*
X20406000Y-24367859D01*
X24565746Y-24367859D01*
X24701104Y-24665855D01*
X25419480Y-24942466D01*
X26189027Y-24923110D01*
X26810096Y-24665855D01*
X26945454Y-24367859D01*
X25755600Y-23178005D01*
X24565746Y-24367859D01*
X20406000Y-24367859D01*
X20406000Y-22662280D01*
X23811534Y-22662280D01*
X23830890Y-23431827D01*
X24088145Y-24052896D01*
X24386141Y-24188254D01*
X25575995Y-22998400D01*
X25935205Y-22998400D01*
X27125059Y-24188254D01*
X27423055Y-24052896D01*
X27699666Y-23334520D01*
X27680310Y-22564973D01*
X27423055Y-21943904D01*
X27125059Y-21808546D01*
X25935205Y-22998400D01*
X25575995Y-22998400D01*
X24386141Y-21808546D01*
X24088145Y-21943904D01*
X23811534Y-22662280D01*
X20406000Y-22662280D01*
X20406000Y-21628941D01*
X24565746Y-21628941D01*
X25755600Y-22818795D01*
X26945454Y-21628941D01*
X26810096Y-21330945D01*
X26091720Y-21054334D01*
X25322173Y-21073690D01*
X24701104Y-21330945D01*
X24565746Y-21628941D01*
X20406000Y-21628941D01*
X20406000Y-20406000D01*
X119594000Y-20406000D01*
X119594001Y-46594000D01*
G36*
X64693800Y-45085000D02*
X66979800Y-45085000D01*
X66979800Y-45065000D01*
X67233800Y-45065000D01*
X67233800Y-45085000D01*
X67253800Y-45085000D01*
X67253800Y-45339000D01*
X67233800Y-45339000D01*
X67233800Y-45359000D01*
X66979800Y-45359000D01*
X66979800Y-45339000D01*
X64693800Y-45339000D01*
X64693800Y-45359000D01*
X64439800Y-45359000D01*
X64439800Y-45339000D01*
X64419800Y-45339000D01*
X64419800Y-45085000D01*
X64439800Y-45085000D01*
X64439800Y-45065000D01*
X64693800Y-45065000D01*
X64693800Y-45085000D01*
X64693800Y-45085000D01*
G37*
X64693800Y-45085000D02*
X66979800Y-45085000D01*
X66979800Y-45065000D01*
X67233800Y-45065000D01*
X67233800Y-45085000D01*
X67253800Y-45085000D01*
X67253800Y-45339000D01*
X67233800Y-45339000D01*
X67233800Y-45359000D01*
X66979800Y-45359000D01*
X66979800Y-45339000D01*
X64693800Y-45339000D01*
X64693800Y-45359000D01*
X64439800Y-45359000D01*
X64439800Y-45339000D01*
X64419800Y-45339000D01*
X64419800Y-45085000D01*
X64439800Y-45085000D01*
X64439800Y-45065000D01*
X64693800Y-45065000D01*
X64693800Y-45085000D01*
G04 #@! TO.N,/BOOST_5V0/BOOST_OUT*
G36*
X91160600Y-34398792D02*
X91160600Y-36778906D01*
X90014270Y-37973000D01*
X88539862Y-37973000D01*
X87305285Y-36935955D01*
X87303880Y-36934792D01*
X85373480Y-35359992D01*
X85329710Y-35336761D01*
X85295216Y-35331416D01*
X82094816Y-35280616D01*
X82046068Y-35289511D01*
X82002997Y-35317797D01*
X77329397Y-39991397D01*
X77301867Y-40032599D01*
X77292200Y-40081200D01*
X77292200Y-41325800D01*
X75768200Y-41325800D01*
X75768200Y-33982685D01*
X76511031Y-33147000D01*
X89716224Y-33147000D01*
X91160600Y-34398792D01*
X91160600Y-34398792D01*
G37*
X91160600Y-34398792D02*
X91160600Y-36778906D01*
X90014270Y-37973000D01*
X88539862Y-37973000D01*
X87305285Y-36935955D01*
X87303880Y-36934792D01*
X85373480Y-35359992D01*
X85329710Y-35336761D01*
X85295216Y-35331416D01*
X82094816Y-35280616D01*
X82046068Y-35289511D01*
X82002997Y-35317797D01*
X77329397Y-39991397D01*
X77301867Y-40032599D01*
X77292200Y-40081200D01*
X77292200Y-41325800D01*
X75768200Y-41325800D01*
X75768200Y-33982685D01*
X76511031Y-33147000D01*
X89716224Y-33147000D01*
X91160600Y-34398792D01*
G04 #@! TD*
M02*
